<?xml version="1.0" encoding="utf-8"?>
<!-- Generator: Adobe Illustrator 27.5.0, SVG Export Plug-In . SVG Version: 6.00 Build 0)  -->
<svg version="1.1" xmlns="http://www.w3.org/2000/svg" xmlns:xlink="http://www.w3.org/1999/xlink" x="0px" y="0px"
	 viewBox="0 0 500 500" style="enable-background:new 0 0 500 500;" xml:space="preserve">
<g id="Background_complete">
	<g>
		<g id="freepik--background-complete--inject-481_00000137830432466212093940000003753973310278207401_">
			<g>
				<polygon style="fill:#F0F0F0;" points="446.82,253.629 446.82,205.649 417.113,205.649 417.113,216.59 397.311,216.59 
					397.311,96.736 359.238,96.736 359.238,143.91 347.814,143.91 347.814,120.353 318.107,120.353 318.107,235.236 
					276.217,235.236 276.217,194.647 249.952,194.647 249.952,106.643 217.536,106.643 217.536,165.312 187.069,165.312 
					187.069,291.703 163.464,291.703 163.464,230.156 139.089,230.156 139.089,190.554 113.197,190.554 113.197,160.148 
					84.308,175.387 84.308,256.735 53.841,256.735 53.841,239.955 13.144,239.955 13.144,391.038 486.856,391.267 486.856,253.629 
									"/>
				<rect x="224.951" y="117.031" style="fill:#FAFAFA;" width="9.485" height="10.87"/>
				<rect x="224.951" y="135.255" style="fill:#FAFAFA;" width="9.485" height="10.87"/>
				<rect x="224.951" y="153.491" style="fill:#FAFAFA;" width="9.485" height="10.87"/>
				<rect x="224.951" y="171.716" style="fill:#FAFAFA;" width="9.485" height="10.87"/>
				<rect x="224.951" y="189.94" style="fill:#FAFAFA;" width="9.485" height="10.87"/>
				<rect x="224.951" y="208.176" style="fill:#FAFAFA;" width="9.485" height="10.87"/>
				<rect x="224.951" y="226.401" style="fill:#FAFAFA;" width="9.485" height="10.87"/>
				<rect x="224.951" y="244.637" style="fill:#FAFAFA;" width="9.485" height="10.87"/>
				<rect x="367.435" y="102.478" style="fill:#FAFAFA;" width="9.485" height="10.87"/>
				<rect x="367.435" y="120.702" style="fill:#FAFAFA;" width="9.485" height="10.87"/>
				<rect x="367.435" y="138.938" style="fill:#FAFAFA;" width="9.485" height="10.87"/>
				<rect x="367.435" y="157.163" style="fill:#FAFAFA;" width="9.485" height="10.87"/>
				<rect x="367.435" y="175.399" style="fill:#FAFAFA;" width="9.485" height="10.87"/>
				<rect x="367.435" y="193.623" style="fill:#FAFAFA;" width="9.485" height="10.87"/>
				<rect x="367.435" y="211.86" style="fill:#FAFAFA;" width="9.485" height="10.87"/>
				<rect x="367.435" y="230.084" style="fill:#FAFAFA;" width="9.485" height="10.87"/>
			</g>
			<g>
				<path style="fill:#E0E0E0;" d="M192.534,391.125V216.314h-37.737v174.793L192.534,391.125z"/>
				<rect x="157.662" y="221.863" style="fill:#FAFAFA;" width="4.574" height="9.437"/>
				<rect x="166.811" y="221.863" style="fill:#FAFAFA;" width="4.574" height="9.437"/>
				<rect x="175.959" y="221.863" style="fill:#FAFAFA;" width="4.574" height="9.437"/>
				<rect x="185.107" y="221.863" style="fill:#FAFAFA;" width="4.574" height="9.437"/>
				<rect x="157.662" y="237.692" style="fill:#FAFAFA;" width="4.574" height="9.437"/>
				<rect x="166.811" y="237.692" style="fill:#FAFAFA;" width="4.574" height="9.437"/>
				<rect x="175.959" y="237.692" style="fill:#FAFAFA;" width="4.574" height="9.437"/>
				<rect x="185.107" y="237.692" style="fill:#FAFAFA;" width="4.574" height="9.437"/>
				<rect x="157.662" y="253.509" style="fill:#FAFAFA;" width="4.574" height="9.437"/>
				<rect x="166.811" y="253.509" style="fill:#FAFAFA;" width="4.574" height="9.437"/>
				<rect x="175.959" y="253.509" style="fill:#FAFAFA;" width="4.574" height="9.437"/>
				<rect x="185.107" y="253.509" style="fill:#FAFAFA;" width="4.574" height="9.437"/>
				<rect x="157.662" y="269.326" style="fill:#FAFAFA;" width="4.574" height="9.437"/>
				<rect x="166.811" y="269.326" style="fill:#FAFAFA;" width="4.574" height="9.437"/>
				<rect x="175.959" y="269.326" style="fill:#FAFAFA;" width="4.574" height="9.437"/>
				<rect x="185.107" y="269.326" style="fill:#FAFAFA;" width="4.574" height="9.437"/>
				<rect x="157.662" y="285.142" style="fill:#FAFAFA;" width="4.574" height="9.437"/>
				<rect x="166.811" y="285.142" style="fill:#FAFAFA;" width="4.574" height="9.437"/>
				<rect x="175.959" y="285.142" style="fill:#FAFAFA;" width="4.574" height="9.437"/>
				<rect x="185.107" y="285.142" style="fill:#FAFAFA;" width="4.574" height="9.437"/>
				<rect x="157.662" y="300.959" style="fill:#FAFAFA;" width="4.574" height="9.437"/>
				<rect x="166.811" y="300.959" style="fill:#FAFAFA;" width="4.574" height="9.437"/>
				<rect x="175.959" y="300.959" style="fill:#FAFAFA;" width="4.574" height="9.437"/>
				<rect x="185.107" y="300.959" style="fill:#FAFAFA;" width="4.574" height="9.437"/>
				<rect x="157.662" y="316.776" style="fill:#FAFAFA;" width="4.574" height="9.437"/>
				<rect x="166.811" y="316.776" style="fill:#FAFAFA;" width="4.574" height="9.437"/>
				<rect x="175.959" y="316.776" style="fill:#FAFAFA;" width="4.574" height="9.437"/>
				<rect x="185.107" y="316.776" style="fill:#FAFAFA;" width="4.574" height="9.437"/>
				<rect x="157.662" y="332.605" style="fill:#FAFAFA;" width="4.574" height="9.437"/>
				<rect x="166.811" y="332.605" style="fill:#FAFAFA;" width="4.574" height="9.437"/>
				<rect x="175.959" y="332.605" style="fill:#FAFAFA;" width="4.574" height="9.437"/>
				<rect x="185.107" y="332.605" style="fill:#FAFAFA;" width="4.574" height="9.437"/>
			</g>
			<g>
				<path style="fill:#E6E6E6;" d="M323.668,391.188V196.139h-78.242v195.104C245.426,391.243,323.068,391.267,323.668,391.188z"/>
				<rect x="251.3" y="202.591" style="fill:#E0E0E0;" width="9.485" height="10.87"/>
				<rect x="270.283" y="202.591" style="fill:#E0E0E0;" width="9.485" height="10.87"/>
				<rect x="289.253" y="202.591" style="fill:#E0E0E0;" width="9.485" height="10.87"/>
				<rect x="308.236" y="202.591" style="fill:#E0E0E0;" width="9.485" height="10.87"/>
				<rect x="251.3" y="220.828" style="fill:#E0E0E0;" width="9.485" height="10.87"/>
				<rect x="270.283" y="220.828" style="fill:#E0E0E0;" width="9.485" height="10.87"/>
				<rect x="289.253" y="220.828" style="fill:#E0E0E0;" width="9.485" height="10.87"/>
				<rect x="308.236" y="220.828" style="fill:#E0E0E0;" width="9.485" height="10.87"/>
				<rect x="251.3" y="239.052" style="fill:#E0E0E0;" width="9.485" height="10.87"/>
				<rect x="270.283" y="239.052" style="fill:#E0E0E0;" width="9.485" height="10.87"/>
				<rect x="289.253" y="239.052" style="fill:#E0E0E0;" width="9.485" height="10.87"/>
				<rect x="308.236" y="239.052" style="fill:#E0E0E0;" width="9.485" height="10.87"/>
				<rect x="251.3" y="257.276" style="fill:#E0E0E0;" width="9.485" height="10.87"/>
				<rect x="270.283" y="257.276" style="fill:#E0E0E0;" width="9.485" height="10.87"/>
				<rect x="289.253" y="257.276" style="fill:#E0E0E0;" width="9.485" height="10.87"/>
				<rect x="308.236" y="257.276" style="fill:#E0E0E0;" width="9.485" height="10.87"/>
				<rect x="251.3" y="275.513" style="fill:#E0E0E0;" width="9.485" height="10.87"/>
				<rect x="270.283" y="275.513" style="fill:#E0E0E0;" width="9.485" height="10.87"/>
				<rect x="289.253" y="275.513" style="fill:#E0E0E0;" width="9.485" height="10.87"/>
				<rect x="308.236" y="275.513" style="fill:#E0E0E0;" width="9.485" height="10.87"/>
				<rect x="251.3" y="293.737" style="fill:#E0E0E0;" width="9.485" height="10.87"/>
				<rect x="270.283" y="293.737" style="fill:#E0E0E0;" width="9.485" height="10.87"/>
				<rect x="289.253" y="293.737" style="fill:#E0E0E0;" width="9.485" height="10.87"/>
				<rect x="308.236" y="293.737" style="fill:#E0E0E0;" width="9.485" height="10.87"/>
				<rect x="251.3" y="311.973" style="fill:#E0E0E0;" width="9.485" height="10.87"/>
				<rect x="270.283" y="311.973" style="fill:#E0E0E0;" width="9.485" height="10.87"/>
				<rect x="289.253" y="311.973" style="fill:#E0E0E0;" width="9.485" height="10.87"/>
				<rect x="308.236" y="311.973" style="fill:#E0E0E0;" width="9.485" height="10.87"/>
				<rect x="251.3" y="330.198" style="fill:#E0E0E0;" width="9.485" height="10.87"/>
				<rect x="270.283" y="330.198" style="fill:#E0E0E0;" width="9.485" height="10.87"/>
				<rect x="289.253" y="330.198" style="fill:#E0E0E0;" width="9.485" height="10.87"/>
				<rect x="308.236" y="330.198" style="fill:#E0E0E0;" width="9.485" height="10.87"/>
			</g>
			<g>
				<path style="fill:#E6E6E6;" d="M141.075,391.101V182.501h-32.368v208.766C118.951,391.014,141.075,391.101,141.075,391.101z"/>
				<rect x="113.498" y="186.365" style="fill:#FAFAFA;" width="9.485" height="10.87"/>
				<rect x="113.498" y="204.589" style="fill:#FAFAFA;" width="9.485" height="10.87"/>
				<rect x="113.498" y="222.826" style="fill:#FAFAFA;" width="9.485" height="10.87"/>
				<rect x="113.498" y="241.05" style="fill:#FAFAFA;" width="9.485" height="10.87"/>
				<rect x="113.498" y="259.275" style="fill:#FAFAFA;" width="9.485" height="10.87"/>
				<rect x="113.498" y="277.511" style="fill:#FAFAFA;" width="9.485" height="10.87"/>
				<rect x="113.498" y="295.735" style="fill:#FAFAFA;" width="9.485" height="10.87"/>
				<rect x="113.498" y="313.972" style="fill:#FAFAFA;" width="9.485" height="10.87"/>
				<rect x="126.185" y="186.365" style="fill:#FAFAFA;" width="9.485" height="10.87"/>
				<rect x="126.185" y="204.589" style="fill:#FAFAFA;" width="9.485" height="10.87"/>
				<rect x="126.185" y="222.826" style="fill:#FAFAFA;" width="9.485" height="10.87"/>
				<rect x="126.185" y="241.05" style="fill:#FAFAFA;" width="9.485" height="10.87"/>
				<rect x="126.185" y="259.275" style="fill:#FAFAFA;" width="9.485" height="10.87"/>
				<rect x="126.185" y="277.511" style="fill:#FAFAFA;" width="9.485" height="10.87"/>
				<rect x="126.185" y="295.735" style="fill:#FAFAFA;" width="9.485" height="10.87"/>
				<rect x="126.185" y="313.972" style="fill:#FAFAFA;" width="9.485" height="10.87"/>
			</g>
			<g>
				<rect x="393.976" y="186.221" style="fill:#E6E6E6;" width="57.129" height="205.046"/>
				<rect x="402.426" y="194.695" style="fill:#FAFAFA;" width="16.744" height="10.87"/>
				<rect x="402.426" y="212.931" style="fill:#FAFAFA;" width="16.744" height="10.87"/>
				<rect x="402.426" y="231.156" style="fill:#FAFAFA;" width="16.744" height="10.87"/>
				<rect x="402.426" y="249.392" style="fill:#FAFAFA;" width="16.744" height="10.87"/>
				<rect x="402.426" y="267.616" style="fill:#FAFAFA;" width="16.744" height="10.87"/>
				<rect x="402.426" y="285.841" style="fill:#FAFAFA;" width="16.744" height="10.87"/>
				<rect x="402.426" y="304.077" style="fill:#FAFAFA;" width="16.744" height="10.87"/>
				<rect x="402.426" y="322.301" style="fill:#FAFAFA;" width="16.744" height="10.87"/>
				<rect x="424.827" y="194.695" style="fill:#FAFAFA;" width="16.744" height="10.87"/>
				<rect x="424.827" y="212.931" style="fill:#FAFAFA;" width="16.744" height="10.87"/>
				<rect x="424.827" y="231.156" style="fill:#FAFAFA;" width="16.744" height="10.87"/>
				<rect x="424.827" y="249.392" style="fill:#FAFAFA;" width="16.744" height="10.87"/>
				<rect x="424.827" y="267.616" style="fill:#FAFAFA;" width="16.744" height="10.87"/>
				<rect x="424.827" y="285.841" style="fill:#FAFAFA;" width="16.744" height="10.87"/>
				<rect x="424.827" y="304.077" style="fill:#FAFAFA;" width="16.744" height="10.87"/>
				<rect x="424.827" y="322.301" style="fill:#FAFAFA;" width="16.744" height="10.87"/>
			</g>
			<g>
				<path style="fill:#E0E0E0;" d="M356.602,391.204V239.052h-24.917v152.14L356.602,391.204z"/>
				<rect x="333.574" y="243.867" style="fill:#FAFAFA;" width="3.021" height="8.101"/>
				<rect x="339.617" y="243.867" style="fill:#FAFAFA;" width="3.021" height="8.101"/>
				<rect x="345.648" y="243.867" style="fill:#FAFAFA;" width="3.021" height="8.101"/>
				<rect x="351.69" y="243.867" style="fill:#FAFAFA;" width="3.021" height="8.101"/>
				<rect x="333.574" y="257.457" style="fill:#FAFAFA;" width="3.021" height="8.101"/>
				<rect x="339.617" y="257.457" style="fill:#FAFAFA;" width="3.021" height="8.101"/>
				<rect x="345.648" y="257.457" style="fill:#FAFAFA;" width="3.021" height="8.101"/>
				<rect x="351.69" y="257.457" style="fill:#FAFAFA;" width="3.021" height="8.101"/>
				<rect x="333.574" y="271.047" style="fill:#FAFAFA;" width="3.021" height="8.101"/>
				<rect x="339.617" y="271.047" style="fill:#FAFAFA;" width="3.021" height="8.101"/>
				<rect x="345.648" y="271.047" style="fill:#FAFAFA;" width="3.021" height="8.101"/>
				<rect x="351.69" y="271.047" style="fill:#FAFAFA;" width="3.021" height="8.101"/>
				<rect x="333.574" y="284.637" style="fill:#FAFAFA;" width="3.021" height="8.101"/>
				<rect x="339.617" y="284.637" style="fill:#FAFAFA;" width="3.021" height="8.101"/>
				<rect x="345.648" y="284.637" style="fill:#FAFAFA;" width="3.021" height="8.101"/>
				<rect x="351.69" y="284.637" style="fill:#FAFAFA;" width="3.021" height="8.101"/>
				<rect x="333.574" y="298.239" style="fill:#FAFAFA;" width="3.021" height="8.101"/>
				<rect x="339.617" y="298.239" style="fill:#FAFAFA;" width="3.021" height="8.101"/>
				<rect x="345.648" y="298.239" style="fill:#FAFAFA;" width="3.021" height="8.101"/>
				<rect x="351.69" y="298.239" style="fill:#FAFAFA;" width="3.021" height="8.101"/>
				<rect x="333.574" y="311.829" style="fill:#FAFAFA;" width="3.021" height="8.101"/>
				<rect x="339.617" y="311.829" style="fill:#FAFAFA;" width="3.021" height="8.101"/>
				<rect x="345.648" y="311.829" style="fill:#FAFAFA;" width="3.021" height="8.101"/>
				<rect x="351.69" y="311.829" style="fill:#FAFAFA;" width="3.021" height="8.101"/>
				<rect x="333.574" y="325.419" style="fill:#FAFAFA;" width="3.021" height="8.101"/>
				<rect x="339.617" y="325.419" style="fill:#FAFAFA;" width="3.021" height="8.101"/>
				<rect x="345.648" y="325.419" style="fill:#FAFAFA;" width="3.021" height="8.101"/>
				<rect x="351.69" y="325.419" style="fill:#FAFAFA;" width="3.021" height="8.101"/>
				<rect x="333.574" y="339.009" style="fill:#FAFAFA;" width="3.021" height="8.101"/>
				<rect x="339.617" y="339.009" style="fill:#FAFAFA;" width="3.021" height="8.101"/>
				<rect x="345.648" y="339.009" style="fill:#FAFAFA;" width="3.021" height="8.101"/>
				<rect x="351.69" y="339.009" style="fill:#FAFAFA;" width="3.021" height="8.101"/>
			</g>
			<g>
				<path style="fill:#FAFAFA;" d="M111.596,391.267V261.61H44.982v129.444L111.596,391.267z"/>
				<rect x="50.026" y="265.642" style="fill:#E0E0E0;" width="8.077" height="6.801"/>
				<rect x="66.18" y="265.642" style="fill:#E0E0E0;" width="8.077" height="6.801"/>
				<rect x="82.322" y="265.642" style="fill:#E0E0E0;" width="8.077" height="6.801"/>
				<rect x="98.476" y="265.642" style="fill:#E0E0E0;" width="8.077" height="6.801"/>
				<rect x="50.026" y="277.041" style="fill:#E0E0E0;" width="8.077" height="6.801"/>
				<rect x="66.18" y="277.041" style="fill:#E0E0E0;" width="8.077" height="6.801"/>
				<rect x="82.322" y="277.041" style="fill:#E0E0E0;" width="8.077" height="6.801"/>
				<rect x="98.476" y="277.041" style="fill:#E0E0E0;" width="8.077" height="6.801"/>
				<rect x="50.026" y="288.441" style="fill:#E0E0E0;" width="8.077" height="6.801"/>
				<rect x="66.18" y="288.441" style="fill:#E0E0E0;" width="8.077" height="6.801"/>
				<rect x="82.322" y="288.441" style="fill:#E0E0E0;" width="8.077" height="6.801"/>
				<rect x="98.476" y="288.441" style="fill:#E0E0E0;" width="8.077" height="6.801"/>
				<rect x="50.026" y="299.84" style="fill:#E0E0E0;" width="8.077" height="6.801"/>
				<rect x="66.18" y="299.84" style="fill:#E0E0E0;" width="8.077" height="6.801"/>
				<rect x="82.322" y="299.84" style="fill:#E0E0E0;" width="8.077" height="6.801"/>
				<rect x="98.476" y="299.84" style="fill:#E0E0E0;" width="8.077" height="6.801"/>
				<rect x="50.026" y="311.227" style="fill:#E0E0E0;" width="8.077" height="6.801"/>
				<rect x="66.18" y="311.227" style="fill:#E0E0E0;" width="8.077" height="6.801"/>
				<rect x="82.322" y="311.227" style="fill:#E0E0E0;" width="8.077" height="6.801"/>
				<rect x="98.476" y="311.227" style="fill:#E0E0E0;" width="8.077" height="6.801"/>
				<rect x="50.026" y="322.626" style="fill:#E0E0E0;" width="8.077" height="6.801"/>
				<rect x="66.18" y="322.626" style="fill:#E0E0E0;" width="8.077" height="6.801"/>
				<rect x="82.322" y="322.626" style="fill:#E0E0E0;" width="8.077" height="6.801"/>
				<rect x="98.476" y="322.626" style="fill:#E0E0E0;" width="8.077" height="6.801"/>
				<rect x="50.026" y="334.026" style="fill:#E0E0E0;" width="8.077" height="6.801"/>
				<rect x="66.18" y="334.026" style="fill:#E0E0E0;" width="8.077" height="6.801"/>
				<rect x="82.322" y="334.026" style="fill:#E0E0E0;" width="8.077" height="6.801"/>
				<rect x="98.476" y="334.026" style="fill:#E0E0E0;" width="8.077" height="6.801"/>
			</g>
		</g>
		<g>
			<path style="fill:#E6E6E6;" d="M85.789,372.285c-1.982-1.865-6.192,5.35-6.192,5.35s4.532-15.717-0.011-15.77
				c-4.543-0.053-4.77,13.409-4.77,13.409s-1.459-26.762-7.366-24.645c-5.906,2.117,2.714,26.002,2.714,26.002
				s-7.639-16.981-10.567-13.643c-2.928,3.339,6.724,17.544,6.724,17.544s-7.05-4.556-6.593-1.308
				c0.456,3.248,15.742,11.742,15.742,11.742C80.363,385.172,87.771,374.15,85.789,372.285z"/>
			<g>
				<path style="fill:none;stroke:#E0E0E0;stroke-width:0.5;stroke-linecap:round;stroke-linejoin:round;stroke-miterlimit:10;" d="
					M75.503,391.125c0,0-2.398-11.439-3.777-19.226"/>
				
					<line style="fill:none;stroke:#E0E0E0;stroke-width:0.5;stroke-linecap:round;stroke-linejoin:round;stroke-miterlimit:10;" x1="73.923" y1="383.565" x2="69.252" y2="377.766"/>
			</g>
		</g>
		<g>
			<path style="fill:#E0E0E0;" d="M465.982,375.447c-1.446-2.305-7.343,3.611-7.343,3.611s8.359-14.06,3.977-15.26
				c-4.382-1.2-8.005,11.767-8.005,11.767s5.355-26.261-0.895-25.706c-6.25,0.555-3.949,25.844-3.949,25.844
				s-3.096-18.361-6.773-15.872c-3.677,2.49,2.07,18.674,2.07,18.674s-5.669-6.191-6.048-2.933
				c-0.38,3.258,12.261,15.341,12.261,15.341C457.475,386.543,467.429,377.753,465.982,375.447z"/>
			<g>
				<path style="fill:none;stroke:#E0E0E0;stroke-width:0.5;stroke-linecap:round;stroke-linejoin:round;stroke-miterlimit:10;" d="
					M451.267,391.074c0,0,0.572-11.674,1.207-19.556"/>
				
					<line style="fill:none;stroke:#E0E0E0;stroke-width:0.5;stroke-linecap:round;stroke-linejoin:round;stroke-miterlimit:10;" x1="451.65" y1="383.36" x2="448.597" y2="376.568"/>
			</g>
		</g>
		<g>
			<g>
				<path style="fill:#E0E0E0;" d="M321.265,59.431c-1.515-1.144-3.724-1.274-5.362-0.314c-2.174-4.393-8.233-6.332-12.554-4.018
					c-1.127-4.734-5.792-8.373-10.658-8.315c-4.866,0.058-9.442,3.809-10.455,8.569c-0.161,0.757-0.267,1.585-0.809,2.138
					c-0.879,0.898-2.346,0.596-3.599,0.499c-3.941-0.307-7.906,2.459-8.978,6.264l54.272-0.198
					C323.598,62.219,322.78,60.576,321.265,59.431z"/>
			</g>
		</g>
		<g>
			<g>
				<path style="fill:#F0F0F0;" d="M476.315,131.813c-1.515-1.144-3.724-1.274-5.362-0.314c-2.174-4.393-8.233-6.332-12.554-4.017
					c-1.127-4.734-5.792-8.373-10.658-8.315c-4.866,0.059-9.442,3.809-10.455,8.569c-0.161,0.756-0.268,1.585-0.809,2.138
					c-0.879,0.898-2.347,0.596-3.599,0.499c-3.941-0.307-7.906,2.459-8.978,6.264l54.271-0.197
					C478.648,134.6,477.83,132.957,476.315,131.813z"/>
			</g>
		</g>
		<g>
			<g>
				<path style="fill:#F5F5F5;" d="M431.848,74.814c-1.265-0.955-3.11-1.064-4.477-0.263c-1.815-3.668-6.874-5.287-10.482-3.354
					c-0.941-3.953-4.836-6.991-8.899-6.943c-4.063,0.049-7.884,3.18-8.73,7.155c-0.134,0.632-0.223,1.323-0.675,1.785
					c-0.734,0.75-1.959,0.498-3.005,0.416c-3.29-0.257-6.602,2.053-7.496,5.23l45.315-0.165
					C433.796,77.142,433.113,75.77,431.848,74.814z"/>
			</g>
		</g>
		<g>
			<g>
				<path style="fill:#F5F5F5;" d="M176.572,53.845c-1.265-0.956-3.11-1.064-4.477-0.263c-1.815-3.668-6.874-5.287-10.482-3.354
					c-0.941-3.953-4.836-6.991-8.899-6.943c-4.063,0.049-7.884,3.18-8.73,7.155c-0.134,0.632-0.223,1.323-0.675,1.785
					c-0.734,0.75-1.959,0.498-3.005,0.416c-3.291-0.257-6.602,2.054-7.496,5.23l45.315-0.165
					C178.52,56.172,177.837,54.8,176.572,53.845z"/>
			</g>
		</g>
		<g>
			<g>
				<path style="fill:#F0F0F0;" d="M127.837,109.718c-2.249-1.699-5.531-1.892-7.963-0.467c-3.229-6.524-12.226-9.404-18.642-5.966
					c-1.674-7.03-8.601-12.434-15.827-12.347c-7.226,0.087-14.021,5.656-15.525,12.724c-0.239,1.123-0.397,2.354-1.201,3.174
					c-1.305,1.333-3.484,0.886-5.345,0.741c-5.852-0.457-11.741,3.652-13.333,9.302l80.594-0.293
					C131.301,113.857,130.086,111.417,127.837,109.718z"/>
			</g>
		</g>
	</g>
	<g>
		<g>
			<g>
				<g>
					<g>
						<path style="fill:#E0E0E0;" d="M443.92,330.198H263.174c-3.232,0-5.862-2.63-5.862-5.862V61.062
							c0-3.232,2.63-5.862,5.862-5.862H443.92c3.232,0,5.862,2.629,5.862,5.862v263.273
							C449.783,327.568,447.153,330.198,443.92,330.198z M263.174,55.45c-3.095,0-5.612,2.518-5.612,5.612v263.273
							c0,3.095,2.518,5.612,5.612,5.612H443.92c3.095,0,5.612-2.518,5.612-5.612V61.062c0-3.094-2.518-5.612-5.612-5.612H263.174z"
							/>
					</g>
				</g>
				<g>
					<g>
						<path style="fill:#E0E0E0;" d="M235.493,330.198H54.746c-3.232,0-5.862-2.63-5.862-5.862V61.062
							c0-3.232,2.629-5.862,5.862-5.862h180.747c3.232,0,5.862,2.629,5.862,5.862v263.273
							C241.355,327.568,238.725,330.198,235.493,330.198z M54.746,55.45c-3.094,0-5.612,2.518-5.612,5.612v263.273
							c0,3.095,2.518,5.612,5.612,5.612h180.747c3.095,0,5.612-2.518,5.612-5.612V61.062c0-3.094-2.518-5.612-5.612-5.612H54.746z"
							/>
					</g>
				</g>
			</g>
			<g>
				<g>
					<rect x="0" y="391.267" style="fill:#E0E0E0;" width="500" height="0.25"/>
				</g>
			</g>
		</g>
		<rect x="51.672" y="405.531" style="fill:#E0E0E0;" width="16.06" height="0.25"/>
		<rect x="170.352" y="402.821" style="fill:#E0E0E0;" width="53.53" height="0.25"/>
		<rect x="68.732" y="414.821" style="fill:#E0E0E0;" width="36.25" height="0.25"/>
		<rect x="378.352" y="402.691" style="fill:#E0E0E0;" width="43.19" height="0.25"/>
		<rect x="430.452" y="402.691" style="fill:#E0E0E0;" width="6.33" height="0.25"/>
		<rect x="316.212" y="408.921" style="fill:#E0E0E0;" width="53.89" height="0.25"/>
	</g>
</g>
<g id="Background_simple" style="display:none;">
	<g style="display:inline;">
		<path style="fill:#01A54F;" d="M422.959,87.11c-17.483-27.275-41.005-42.491-73.196-46.144
			c-32.191-3.653-65.781,7.903-88.912,30.588c-15.02,14.731-25.814,33.797-42.87,46.114c-29.957,21.633-72.419,17.845-103.41,37.969
			c-29.238,18.986-42.208,60.709-26.321,91.74c9.709,18.963,27.951,32.157,46.997,41.704
			c50.782,25.457,112.026,29.17,165.512,10.035c53.486-19.135,98.476-60.853,121.587-112.745c2.167-4.865,4.166-9.516,5.93-14.179
			c9.377-24.787,9.021-52.321-1.143-76.796C425.842,92.287,424.442,89.424,422.959,87.11z"/>
	</g>
	<g style="display:inline;opacity:0.9;">
		<path style="fill:#FFFFFF;" d="M422.959,87.11c-17.483-27.275-41.005-42.491-73.196-46.144
			c-32.191-3.653-65.781,7.903-88.912,30.588c-15.02,14.731-25.814,33.797-42.87,46.114c-29.957,21.633-72.419,17.845-103.41,37.969
			c-29.238,18.986-42.208,60.709-26.321,91.74c9.709,18.963,27.951,32.157,46.997,41.704
			c50.782,25.457,112.026,29.17,165.512,10.035c53.486-19.135,98.476-60.853,121.587-112.745c2.167-4.865,4.166-9.516,5.93-14.179
			c9.377-24.787,9.021-52.321-1.143-76.796C425.842,92.287,424.442,89.424,422.959,87.11z"/>
	</g>
</g>
<g id="Shadow">
	<g>
		<g>
			<path style="fill:#F5F5F5;" d="M458.875,448.394c0,3.387-93.517,6.132-208.875,6.132s-208.875-2.745-208.875-6.132
				c0-3.387,93.516-6.132,208.875-6.132S458.875,445.007,458.875,448.394z"/>
		</g>
	</g>
</g>
<g id="Speech_Bubble">
	<g>
		<g>
			<g>
				<path style="fill:#01A54F;" d="M365.268,133.105c5.74-9.877,2.385-22.537-7.492-28.277c-9.878-5.74-22.538-2.385-28.277,7.492
					c-4.431,7.625-3.423,16.897,1.803,23.375l-1.008,6.13l6.41-1.415c0.099,0.059,0.188,0.129,0.288,0.187
					C346.868,146.337,359.529,142.983,365.268,133.105z"/>
			</g>
			<path style="fill:none;stroke:#01A54F;stroke-width:0.5;stroke-linecap:round;stroke-linejoin:round;stroke-miterlimit:10;" d="
				M362.537,104.792c5.393,4.018,8.533,10.879,8.049,17.587"/>
			<path style="fill:none;stroke:#01A54F;stroke-width:0.5;stroke-linecap:round;stroke-linejoin:round;stroke-miterlimit:10;" d="
				M370.256,125.448c0.002,1.026-0.21,2.051-0.62,2.992"/>
		</g>
		<g style="opacity:0.4;">
			<g>
				<path style="fill:#FFFFFF;" d="M365.268,133.105c5.74-9.877,2.385-22.537-7.492-28.277c-9.878-5.74-22.538-2.385-28.277,7.492
					c-4.431,7.625-3.423,16.897,1.803,23.375l-1.008,6.13l6.41-1.415c0.099,0.059,0.188,0.129,0.288,0.187
					C346.868,146.337,359.529,142.983,365.268,133.105z"/>
			</g>
		</g>
		<g>
			<path style="fill:#FFFFFF;" d="M345.439,132.8c-0.522-0.502-0.783-1.114-0.783-1.835c0-0.72,0.256-1.323,0.768-1.806
				c0.512-0.484,1.166-0.725,1.963-0.725c0.796,0,1.451,0.242,1.963,0.725c0.512,0.484,0.768,1.086,0.768,1.806
				c0,0.721-0.261,1.333-0.782,1.835c-0.522,0.503-1.171,0.754-1.949,0.754C346.609,133.554,345.96,133.303,345.439,132.8z
				 M344.742,113.414h5.291l-0.882,13h-3.527L344.742,113.414z"/>
		</g>
	</g>
</g>
<g id="Character_1">
	<g>
		<path style="fill:#263238;" d="M122.063,142.894c0.127-0.516-5.897-7.874-5.897-7.874s21.508-2.879,30.627-1.244l8.921,1.963
			l-8.921,10.167L122.063,142.894z"/>
		<path style="opacity:0.3;" d="M142.678,141.996l4.114-8.22c0,0-12.972-2.021-22.849,0.515c-9.877,2.536,0.061-0.235,0,0.319
			c-0.061,0.554,3.217,6.395,3.217,6.395L142.678,141.996z"/>
		<g>
			<g>
				<g>
					<g>
						<polygon style="fill:#263238;" points="87.434,413.08 78.535,437.097 70.469,434.491 73.251,409.141 						"/>
					</g>
				</g>
			</g>
		</g>
		<g>
			<g>
				<g>
					<g>
						<g>
							<g>
								<g>
									<g>
										<g>
											<g>
												<g>
													<g>
														<path style="fill:#263238;" d="M79.405,447.202l-7.313-0.055c0,0-1.473-0.797-2.342-0.699
															c-0.866,0.099-3.882,0.651-3.882,0.651l-19.42-0.146c0.161-0.813,0.359-1.536,0.582-2.177
															c0.272-0.782,0.586-1.443,0.934-2.002c1.218-1.955,2.865-2.641,4.651-2.74c2.721-0.15,11.321-5.797,11.321-5.797
															s3.113-1.062,3.306-4.366c0.073-1.238,1.914-2.737,2.785-2.855c1.778-0.243,2.757,0.889,3.002,2.666l0.282,2.065
															l4.107-0.608c0,0,4.189-2.069,3.971-0.03c-0.125,1.164-0.865,6.344-1.336,10.454c-0.111,0.958-0.214,1.865-0.304,2.66
															l-0.002,0.001C79.545,445.988,79.405,447.202,79.405,447.202z"/>
													</g>
												</g>
											</g>
										</g>
									</g>
								</g>
								<g style="opacity:0.2;">
									<path style="fill:#FFFFFF;" d="M46.447,446.953l19.42,0.146c0,0,3.016-0.551,3.882-0.651
										c0.869-0.098,2.342,0.699,2.342,0.699l7.313,0.055c0,0,0.14-1.213,0.342-2.978l-32.717,0.552
										C46.806,445.417,46.609,446.14,46.447,446.953z"/>
								</g>
								<g>
									<g>
										<g>
											<g>
												<path style="fill:#01A54F;" d="M59.658,436.324c0.091-0.087,0.23-0.096,0.334-0.025c0.479,0.323,0.88,0.777,1.151,1.346
													c0.143,0.299-0.295,0.584-0.439,0.282c-0.241-0.505-0.591-0.907-1.009-1.19c-0.14-0.095-0.162-0.291-0.04-0.408
													C59.656,436.326,59.657,436.325,59.658,436.324z"/>
											</g>
										</g>
									</g>
								</g>
								<g>
									<g>
										<g>
											<g>
												<path style="fill:#01A54F;" d="M61.21,435.426c0.091-0.087,0.23-0.096,0.334-0.025c0.479,0.323,0.88,0.778,1.151,1.346
													c0.143,0.299-0.295,0.584-0.439,0.282c-0.241-0.505-0.591-0.907-1.009-1.19c-0.14-0.095-0.162-0.291-0.04-0.408
													C61.207,435.428,61.209,435.427,61.21,435.426z"/>
											</g>
										</g>
									</g>
								</g>
								<g>
									<g>
										<g>
											<g>
												<path style="fill:#01A54F;" d="M62.81,434.588c0.091-0.088,0.23-0.096,0.334-0.025c0.479,0.323,0.88,0.778,1.151,1.346
													c0.143,0.299-0.295,0.584-0.439,0.282c-0.24-0.505-0.591-0.906-1.009-1.19c-0.14-0.095-0.162-0.291-0.04-0.408
													C62.807,434.591,62.808,434.589,62.81,434.588z"/>
											</g>
										</g>
									</g>
								</g>
							</g>
						</g>
					</g>
				</g>
			</g>
		</g>
		<g>
			<g>
				<g>
					<g>
						<polygon style="fill:#263238;" points="145.508,409.916 149.07,436.053 157.589,436.484 160.347,411.287 						"/>
					</g>
				</g>
			</g>
		</g>
		<g>
			<g>
				<g>
					<path style="fill:#263238;" d="M164.841,448.188h-19.053c0,0-0.416-0.8,0.059-2.931c0.072-0.332,0.167-0.697,0.29-1.095
						c0.007-0.02,0.011-0.04,0.018-0.059c0.178-0.589,0.383-1.315,0.6-2.098c0.873-3.19,1.899-7.358,1.899-7.358
						s3.17-6.787,6.879-5.092c3.254,1.486,2.482,5.74,2.482,5.74s0.319,2.497,2.785,4.7c1.526,1.361,3.043,2.414,3.772,4.107
						c0.136,0.316,0.244,0.653,0.321,1.018c0.009,0.044,0.018,0.09,0.024,0.136C165.07,446.073,165.061,447.03,164.841,448.188z"/>
				</g>
			</g>
		</g>
		<g style="opacity:0.2;">
			<path style="fill:#FFFFFF;" d="M145.847,445.258c-0.475,2.13-0.059,2.931-0.059,2.931h19.053c0.22-1.159,0.229-2.115,0.077-2.931
				H145.847z"/>
		</g>
		<g>
			<g>
				<g>
					<g>
						<path style="fill:#01A54F;" d="M157.248,436.365c-1.072-0.835-2.478-0.727-3.442,0.214c-0.259,0.253-0.657-0.145-0.398-0.398
							c1.203-1.173,2.921-1.239,4.237-0.214C157.931,436.19,157.53,436.585,157.248,436.365L157.248,436.365z"/>
					</g>
				</g>
			</g>
		</g>
		<g>
			<g>
				<g>
					<g>
						<path style="fill:#01A54F;" d="M157.786,438.145c-1.072-0.835-2.478-0.727-3.442,0.214c-0.259,0.253-0.657-0.144-0.398-0.398
							c1.203-1.173,2.921-1.239,4.237-0.214C158.469,437.969,158.068,438.364,157.786,438.145L157.786,438.145z"/>
					</g>
				</g>
			</g>
		</g>
		<g>
			<g>
				<g>
					<g>
						<path style="fill:#01A54F;" d="M158.326,439.781c-1.072-0.835-2.478-0.727-3.442,0.213c-0.259,0.253-0.657-0.144-0.397-0.398
							c1.203-1.173,2.921-1.239,4.237-0.214C159.009,439.605,158.608,440,158.326,439.781L158.326,439.781z"/>
					</g>
				</g>
			</g>
		</g>
		<g>
			<g>
				<g>
					<path style="fill:#01A54F;" d="M163.171,242.112l-39.105,2.361l-23.923-4.186c0,0-18.697,79.219-20.189,93.493
						c-1.492,14.274-17.231,94.737-17.231,94.737l20.871,3.329c0,0,23.648-84.72,25.244-92.443
						c1.391-6.731,16.771-49.881,20.699-60.853c0.395,2.247,0.8,4.504,1.214,6.743c0.994,10.116,4.18,42.371,5.566,54.373
						c0,0,5.22,72.578,5.96,93.166l19.602-0.986c2.418-28.265,3.239-131.223,3.239-131.223l-0.003-0.002
						C166.471,279.059,163.171,242.112,163.171,242.112z"/>
				</g>
			</g>
			<g style="opacity:0.3;">
				<g>
					<path d="M163.171,242.112l-39.105,2.361l-23.923-4.186c0,0-18.697,79.219-20.189,93.493
						c-1.492,14.274-17.231,94.737-17.231,94.737l20.871,3.329c0,0,23.648-84.72,25.244-92.443
						c1.391-6.731,16.771-49.881,20.699-60.853c0.395,2.247,0.8,4.504,1.214,6.743c0.994,10.116,4.18,42.371,5.566,54.373
						c0,0,5.22,72.578,5.96,93.166l19.602-0.986c2.418-28.265,3.239-131.223,3.239-131.223l-0.003-0.002
						C166.471,279.059,163.171,242.112,163.171,242.112z"/>
				</g>
			</g>
			<g style="opacity:0.5;">
				<path d="M110.2,252.245c-2.326,7.646-8.547,13.788-16.22,16.021c-0.414,0.121-0.238,0.769,0.178,0.647
					c7.9-2.299,14.294-8.619,16.689-16.49C110.973,252.009,110.326,251.832,110.2,252.245L110.2,252.245z"/>
				<path d="M131.093,252.243c-0.453,6.69-0.896,13.39-1.349,20.079c-0.022,0.432-0.69,0.432-0.669,0
					c0.237-3.431,0.464-6.873,0.69-10.315c-1.651,1.273-3.582-0.27-4.122-1.974c-0.885-2.762-0.55-6.042,0.14-8.804
					c0.108-0.421,0.755-0.237,0.647,0.173c-0.485,1.942-0.69,3.927-0.55,5.923c0.065,1.014,0.162,2.18,0.637,3.107
					c0.529,1.036,1.867,1.91,2.935,0.971c0.119-0.097,0.248-0.108,0.356-0.054c0.205-3.032,0.41-6.075,0.615-9.106
					C130.445,251.812,131.114,251.812,131.093,252.243z"/>
				<path d="M148.76,251.956c-0.094,8.868,6.732,16.294,15.559,16.991c0.423,0.034,0.421-0.626,0-0.659
					c-8.47-0.669-14.99-7.846-14.9-16.332C149.424,251.532,148.765,251.531,148.76,251.956L148.76,251.956z"/>
			</g>
		</g>
		<path style="fill:#263238;" d="M115.971,141.73c5.596-0.348,26.804-1.28,49.649,3.304l0.791,87.044
			c0.054,7.201-2.597,8.209-2.597,8.209s0.32,3.2,0.525,4.817c-23.894,9.235-51.126,9.94-66.346,0.456
			c0-0.056,0.18-1.195,0.526-3.855c0.387-2.978-1.915-3.334-1.129-10.735c2.621-24.692,8.365-64.492,12.44-86.699
			C109.939,143.723,115.414,141.765,115.971,141.73z"/>
		<path style="opacity:0.4;" d="M99.238,215.095l-0.778,6.395c0,0,14.971,3.76,31.732-2.28
			c16.761-6.041,18.737-10.651,18.737-10.651l16.512,6.536v-9.391l-27.051-8.835L99.238,215.095z"/>
		<path style="fill:#263238;" d="M115.971,141.73c0,0-16.113,1.892-19.704,12.807c-2.655,8.069-11.885,48.934-8.202,53.077
			s6.55,6.524,13.385,7.445c6.834,0.921,39.738-16.39,39.738-16.39l-21.404-8.389l-12.768,2.846L115.971,141.73z"/>
		<path style="fill:#263238;" d="M164.34,144.966c0,0,4.12-1.008,8.426,7.553c4.307,8.561,11.881,42.195,12.012,48.371
			c0.163,7.709-3.458,11.729-10.138,11.729c-12.052,0-59.264-21.356-59.264-21.356l8.053-13.559l38.233,9.931l-3.862-27.306
			L164.34,144.966z"/>
		<polygon style="opacity:0.3;" points="159.965,178.412 158.044,170.328 157.093,175.76 		"/>
		<path style="fill:#895555;" d="M139.422,181.857c0,0,11.156-8.257,15.848-7.251c4.692,1.006,5.387,5.921,5.387,5.921l1.005,7.106
			L139.422,181.857z"/>
		<polygon style="opacity:0.3;" points="110.042,175.76 111.56,167.049 114.198,176.592 		"/>
		<path style="fill:#895555;" d="M122.063,180.004c0,0-7.179-3.716-11.037-4.23c-2.357-0.314-6.285,4.604-8.985,8.478
			c-1.729,2.481-1.119,5.898,1.348,7.647c1.075,0.763,1.967,1.364,2.108,1.364c0.386,0,10.416-2.057,10.416-2.057L122.063,180.004z"
			/>
		<path style="fill:#01A54F;" d="M126.306,144.929c0.027,2.273,6.472,16.939,6.741,16.731c0.269-0.208,10.206-17.654,10.206-17.654
			L126.306,144.929z"/>
		<polygon style="opacity:0.3;" points="115.376,191.262 131.819,203.411 137.323,200.659 		"/>
		
			<line style="opacity:0.3;fill:none;stroke:#000000;stroke-width:0.5;stroke-miterlimit:10;" x1="133.046" y1="161.661" x2="133.046" y2="180.201"/>
		<polyline style="opacity:0.3;" points="121.778,141.73 124.499,148.502 117.604,141.73 121.051,141.73 		"/>
		<path style="opacity:0.3;fill:none;stroke:#000000;stroke-width:0.5;stroke-miterlimit:10;" d="M98.519,241.705
			c0,0,11.938,5.961,31.673,5.258c21.822-0.777,33.622-6.676,33.622-6.676"/>
		<path style="opacity:0.3;fill:none;stroke:#000000;stroke-width:0.5;stroke-miterlimit:10;" d="M131.167,247.02
			c0-12.171,0-29.43,0-41.601"/>
		<g style="opacity:0.3;">
			<g>
				<path d="M159.705,164.93c-0.301-5.569,1.599-11.111,5.283-15.304c0.317-0.361-0.211-0.894-0.53-0.53
					c-3.811,4.337-5.814,10.066-5.503,15.834C158.981,165.41,159.731,165.413,159.705,164.93L159.705,164.93z"/>
			</g>
		</g>
		<g>
			<path style="fill:#895555;" d="M143.252,144.007c0,0-2.572-9.741,0.461-22.495c-0.001-0.013-0.678-0.275-0.679-0.288
				c0.417-1.783,0.872-3.435,1.308-4.868c0.009-0.041,0.008-0.055,0.008-0.055l-16.684,11.47c0.6,4.002-0.465,11.843-1.166,15.167
				c0,0-1.882,6.049,6.036,5.924C138.323,148.769,143.252,144.007,143.252,144.007z"/>
			<g>
				<g style="opacity:0.2;">
					<g>
						<path d="M136.633,130.664c-2.068,2.367-5.662,3.7-8.957,3.77c0.048-0.293,0.039-0.734,0.073-1.026
							c0.056-0.459,0.051-1.161,0.077-1.644c0.027-0.593,0.037-1.236,0.006-1.85c-0.029-0.243-0.126-0.208-0.155-0.452l-0.059-0.5
							l9.981-3.388C138.41,126.165,138.3,128.741,136.633,130.664z"/>
					</g>
				</g>
				<g>
					<g>
						<path style="fill:#895555;" d="M150.143,106.17c2.391-10.716-6.918-20.583-18.032-18.006
							c-11.28,2.616-15.321,18.445-14.548,28.539c0.858,11.215,13.426,18.302,22.981,11.259
							C146.896,123.28,147.752,116.886,150.143,106.17L150.143,106.17z"/>
					</g>
				</g>
			</g>
			<path style="fill:#263238;" d="M137.221,108.302c-0.099,1.117-0.771,1.965-1.502,1.893c-0.731-0.072-1.243-1.036-1.145-2.153
				c0.099-1.117,0.771-1.965,1.502-1.893C136.807,106.22,137.32,107.184,137.221,108.302z"/>
			<path style="fill:#263238;" d="M124.322,107.809c-0.098,1.117-0.771,1.965-1.501,1.893c-0.731-0.072-1.243-1.036-1.145-2.153
				c0.099-1.117,0.771-1.965,1.502-1.893C123.908,105.728,124.42,106.692,124.322,107.809z"/>
			<path style="fill:#773737;" d="M127.024,106.468c0,0-4.027,5.239-5.36,7.399c1.431,1.542,4.167,1.131,4.167,1.131
				L127.024,106.468z"/>
			<path style="fill:#263238;" d="M138.113,100.412c-0.175,0.054-0.374,0.015-0.518-0.12c-1.68-1.567-3.44-1.211-3.624-1.17
				c-0.282,0.068-0.568-0.105-0.638-0.386c-0.07-0.281,0.103-0.563,0.383-0.631c0.099-0.024,2.462-0.563,4.595,1.427
				c0.213,0.198,0.225,0.53,0.028,0.74C138.274,100.339,138.196,100.386,138.113,100.412z"/>
			<path style="fill:#263238;" d="M120.25,103.817c-0.095-0.03-0.183-0.087-0.251-0.17c-0.184-0.225-0.153-0.557,0.07-0.741
				c2.233-1.842,4.534-1.113,4.641-1.093c0.275,0.089,0.43,0.385,0.344,0.662c-0.086,0.276-0.376,0.428-0.651,0.343
				c-0.095-0.034-1.874-0.574-3.667,0.905C120.595,103.838,120.412,103.868,120.25,103.817z"/>
			<g>
				<g>
					<path style="fill:#FFFFFF;" d="M133.855,117.337c0.41-2.904-7.427,1.682-7.427,1.682s0.857,3.24,3.889,2.973
						C133.983,121.668,133.855,117.337,133.855,117.337z"/>
				</g>
			</g>
			<path style="fill:#263238;" d="M145.393,111.824c0,0,2.898-18.436-2.567-20.525c-5.465-2.089-7.636,2.944-11.361,2.164
				c-3.726-0.781-2.991-3.497-2.991-3.497c-2.532,0.999-5.076,5.034-7.423,8.054c0,0,3.443-8.225,8.112-10.269
				c9.087-3.979,19.311-1.721,23.037,3.964c3.66,5.584,1.335,15.131,1.335,15.131c-2.306,7.2-3.872,11.174-7.883,15.161
				L145.393,111.824z"/>
			<g>
				<path style="fill:#895555;" d="M153.134,113.961c-1.162,2.834-3.529,4.854-5.873,5.771c-3.526,1.379-4.459-2.425-3.824-5.962
					c0.572-3.184,1.854-7.011,5.558-6.878C152.645,107.023,154.463,110.721,153.134,113.961z"/>
				
					<path style="opacity:0.2;fill:none;stroke:#000000;stroke-width:0.5;stroke-linecap:round;stroke-linejoin:round;stroke-miterlimit:10;" d="
					M150.826,110.604c-0.396-0.716-1.304-1.046-2.113-0.922c-0.809,0.125-1.516,0.633-2.057,1.247
					c-0.649,0.737-1.101,1.646-1.297,2.609"/>
			</g>
			<path style="opacity:0.2;" d="M136.585,103.432c-0.97-0.08-7.456-0.337-7.395,1.163c0.114,2.814-0.258,8.153,5.27,8.149
				c6.872-0.005,6.045-8.825,4.579-9.049C137.103,103.398,136.585,103.432,136.585,103.432z"/>
			<path style="opacity:0.2;" d="M118.465,103.788c0.97-0.08,7.456-0.337,7.395,1.163c-0.114,2.814,0.258,8.153-5.27,8.149
				c-6.871-0.005-6.045-8.825-4.578-9.049C117.947,103.755,118.465,103.788,118.465,103.788z"/>
			<path style="fill:none;stroke:#000000;stroke-width:0.5;stroke-miterlimit:10;" d="M125.463,105.132
				c1.156-0.75,2.724-0.814,3.938-0.161"/>
			
				<line style="fill:none;stroke:#000000;stroke-width:0.5;stroke-miterlimit:10;" x1="139.714" y1="104.521" x2="146.792" y2="106.888"/>
		</g>
		<polygon style="fill:#895555;" points="83.132,335.302 89.513,334.507 97.263,340.854 90.258,340.854 97.263,343.814 
			83.132,343.814 81.262,340.854 85.047,340.854 		"/>
		<g>
			<g>
				<g>
					<path style="fill:#01A54F;" d="M160.712,294.063c-0.195-2.163-1.439-4.208-3.518-5.377c-1.605-0.902-5.251-1.73-6.956-1.475
						l0,0c-2.072-0.013-4.189-0.017-6.149,0.832c-1.96,0.849-3.77,2.725-4.26,5.277c-0.49,2.551,0.775,5.64,2.826,6.004
						c0.913,0.162,2.067-0.068,2.551,0.926c0.348,0.713,0.099,1.64,0.193,2.47c0.131,1.154,1.035,2.078,1.953,1.994
						c0.917-0.084,1.708-1.163,1.706-2.329c-0.031,1.475,1.101,2.814,2.26,2.672s2.067-1.732,1.813-3.172
						c0.217,0.884,0.463,1.823,1.036,2.398c0.573,0.575,1.579,0.539,1.892-0.298c0.349-0.932-0.363-2.046-0.127-3.034
						c0.229-0.957,1.157-1.237,1.868-1.668C159.35,298.342,160.906,296.226,160.712,294.063z M149.608,297.028
						c-0.579,0.945-1.806,1.362-2.9,1.189c-1.095-0.173-2.056-0.848-2.804-1.666c-0.463-0.507-0.876-1.124-0.877-1.811
						c-0.001-0.686,0.582-1.463,1.186-1.665c0.914-0.352,1.916-0.521,2.881-0.354c0.965,0.167,1.887,0.696,2.416,1.521
						C150.039,295.067,150.119,296.193,149.608,297.028z M152.026,301.204c-0.761,0.197-0.901-0.583-0.901-0.583
						s-0.354,0.944-1.072,0.429c-0.719-0.515,0.708-2.477,0.708-2.477C151.436,298.466,152.788,301.008,152.026,301.204z
						 M158.395,296.552c-0.747,0.818-1.709,1.492-2.803,1.666c-1.095,0.173-2.322-0.244-2.9-1.189
						c-0.512-0.835-0.431-1.961,0.098-2.786c0.529-0.825,1.451-1.353,2.416-1.521c0.965-0.167,1.967,0.002,2.881,0.354
						c0.604,0.202,1.186,0.978,1.186,1.665C159.272,295.428,158.858,296.045,158.395,296.552z"/>
				</g>
			</g>
		</g>
		<g>
			<path style="fill:none;" d="M176.978,166.785c0,0-0.821,1.997-0.091,2.291c0.729,0.294,0.837-0.596,0.837-0.596
				s0.029,0.059,0.081,0.131l-0.498-1.791C177.179,166.768,177.064,166.749,176.978,166.785z"/>
			<path style="fill:none;" d="M172.577,162.495c-0.87,0.058-1.701,0.415-2.417,0.912c-0.48,0.302-0.82,1.096-0.676,1.689
				c0.145,0.594,0.632,1.041,1.139,1.382c0.818,0.55,1.792,0.932,2.775,0.851c0.983-0.08,1.956-0.699,2.258-1.638
				c0.267-0.83-0.039-1.786-0.67-2.388C174.356,162.701,173.447,162.437,172.577,162.495z"/>
			<g>
				<g>
					<path style="fill:#01A54F;" d="M177.979,168.265c0,0-0.362,1.106-1.092,0.811c-0.73-0.294,0.091-2.291,0.091-2.291
						c0.086-0.036,0.484,0.013,0.611,0.065c-0.84-3.163-1.881-6.493-3.029-9.913c-0.148,0.042-0.3,0.082-0.422,0.132
						c-1.794,0.424-3.626,0.865-5.143,2.012c-1.517,1.146-2.687,3.149-2.575,5.459c0.112,2.31,1.855,4.715,3.706,4.598
						c0.823-0.052,1.773-0.493,2.401,0.265c0.451,0.544,0.43,1.398,0.686,2.096c0.355,0.971,1.332,1.58,2.108,1.314
						c0.776-0.265,1.233-1.365,0.986-2.373c0.283,1.283,1.728,2.255,2.701,1.888l-0.912-3.691
						C178.043,168.564,177.979,168.265,177.979,168.265z M175.656,165.691c-0.302,0.939-1.275,1.558-2.258,1.638
						c-0.983,0.08-1.956-0.301-2.775-0.851c-0.507-0.341-0.994-0.788-1.139-1.382c-0.145-0.594,0.196-1.387,0.676-1.689
						c0.717-0.496,1.548-0.853,2.417-0.912c0.87-0.058,1.779,0.205,2.409,0.807C175.617,163.905,175.923,164.861,175.656,165.691z"
						/>
				</g>
			</g>
		</g>
	</g>
</g>
<g id="Character_2">
	<g>
		<g>
			<g>
				<g>
					<g>
						<g>
							<g>
								<g>
									<g>
										<g>
											<g>
												<path style="fill:#E9B376;" d="M265.252,191.045c0,0,2.354-2.642,3.007-5.765c0.657-3.14,1.092-5.697,1.029-8.074
													c-0.063-2.377-2.096,0.107-2.91,1.646c-0.814,1.54-1.752,3.277-2.81,2.478c-1.058-0.798-5.534-11.28-7.127-12.22
													c-1.592-0.94-1.399,0.982-1.399,0.982s-1.156-2.516-2.277-2.33c-0.292,0.048-0.89,0.633-0.544,1.863
													c0.78,2.766,2.717,8.486,2.717,8.486c-0.105-0.33-3-7.22-3.568-8.195c-0.743-1.275-1.743-1.497-2.468-1.042
													c-1.032,0.647,2.266,9.311,2.15,9.774c0,0-1.732-5.052-3.281-5.318c-1.549-0.266-0.632,2.973,0.719,5.676
													c1.238,2.478,3.019,7.663,4.523,10.059c1.852,2.953,3.76,4.52,6.999,4.084
													C263.255,192.712,265.252,191.045,265.252,191.045z"/>
											</g>
										</g>
									</g>
								</g>
							</g>
						</g>
						
							<path style="opacity:0.3;fill:none;stroke:#000000;stroke-width:0.5;stroke-linecap:round;stroke-linejoin:round;stroke-miterlimit:10;" d="
							M255.259,170.394c0.876,2.04,1.658,4.12,2.345,6.231"/>
						
							<path style="opacity:0.3;fill:none;stroke:#000000;stroke-width:0.5;stroke-linecap:round;stroke-linejoin:round;stroke-miterlimit:10;" d="
							M251.66,180.633c2.246-1.783,5.025-2.886,7.883-3.127"/>
						
							<path style="opacity:0.3;fill:none;stroke:#000000;stroke-width:0.5;stroke-linecap:round;stroke-linejoin:round;stroke-miterlimit:10;" d="
							M262.84,182.563c-0.994,0.615-1.763,1.585-2.135,2.693c-0.372,1.108-0.346,2.345,0.074,3.435"/>
					</g>
				</g>
			</g>
			<path style="fill:#E9B376;" d="M257.604,192.292c0.061,0.781,5.735,8.003,5.236,8.003s6.257-3.113,6.454-3.521
				c0.197-0.409-5.245-6.967-5.245-6.967L257.604,192.292z"/>
			<path style="fill:#263238;" d="M312.662,202.809l-27.365,15.726c0,0-6.845-13.401-8.834-18.368
				c-1.672-4.175-7.461-5.775-7.461-5.775l-2.358-2.636h-0.434l-7.989,3.832l1.184,3c0,0-0.396,3.56-0.961,6.757
				s14.786,32.955,17.926,35.959c2.265,2.167,9.305,3.988,12.86,2.384c12.455-5.617,30.801-25.153,30.801-25.153L312.662,202.809z"
				/>
			<path style="opacity:0.4;" d="M312.662,202.809l-27.365,15.726c0,0-6.845-13.401-8.834-18.368
				c-1.672-4.175-7.461-5.775-7.461-5.775l-2.358-2.636h-0.434l-7.989,3.832l1.184,3c0,0-0.396,3.56-0.961,6.757
				s14.786,32.955,17.926,35.959c2.265,2.167,9.305,3.988,12.86,2.384c12.455-5.617,30.801-25.153,30.801-25.153L312.662,202.809z"
				/>
		</g>
		<path style="fill:#263238;" d="M264.003,428.868c0.211-0.428,2.688-4.985,2.67-5.164l9.092-18.659l-20.655-6.45l-5.44,23.81
			c-1.282,3.267-4.161,3.841-4.161,3.841s-8.622,4.195-11.833,3.215c-2.108-0.643-4.304-0.548-6.542,1.196
			c-0.639,0.499-1.223,1.128-1.783,1.98c-0.621,0.943-0.711,1.344-1.116,2.767l18.053,6.539c0,0,3.722,0.641,4.767,0.894
			c1.047,0.255,2.412,1.802,2.412,1.802l8.436,3.165c0,0,0.677-1.344,1.659-3.3l0.003,0c0.442-0.881,0.945-1.886,1.48-2.948
			C263.332,437.001,263.365,430.161,264.003,428.868z"/>
		<g>
			<path style="fill:#01A54F;" d="M316.251,274.041c-1.94,3.458-67.152,138.83-67.152,138.83l22.508,6.033l19.728-38.627
				l45.532-85.136L316.251,274.041z"/>
			<path style="opacity:0.5;" d="M316.251,274.041c-1.94,3.458-67.152,138.83-67.152,138.83l22.508,6.033l19.728-38.627
				l45.532-85.136L316.251,274.041z"/>
		</g>
		<g>
			<path style="fill:#01A54F;" d="M175.499,272.987c-0.52,0.347-6.933,3.813-5.893,14.732c1.04,10.919,5.893,13.172,5.893,13.172
				V272.987z"/>
			<path style="fill:#263238;" d="M203.516,295.848c0,0-11.379,6.603-28.018,5.043v-27.904c0,0,14.732-3.813,25.824,3.466
				C210.693,282.603,203.516,295.848,203.516,295.848z"/>
			<path style="opacity:0.3;fill:#FFFFFF;" d="M203.516,295.848c0,0-11.379,6.603-28.018,5.043v-27.904
				c0,0,14.732-3.813,25.824,3.466C210.693,282.603,203.516,295.848,203.516,295.848z"/>
			<path style="fill:#263238;" d="M170.499,263.191c0,0,21.121-8.182,36.114,2.9c10.601,7.835,12.126,18.716,12.126,18.716
				l-6.063,5.536L170.499,263.191z"/>
			<path style="fill:#B97964;" d="M480.909,337.758c0,0,1.267,13.471,0.345,13.471c-0.921,0-2.994,0-2.994,0l-6.793-13.471"/>
			<g>
				<polygon style="fill:#263238;" points="154.437,392.386 149.097,389.48 208.913,279.573 240.683,246.572 245.063,250.788 
					213.861,283.199 				"/>
			</g>
			<g style="opacity:0.3;">
				<polygon style="fill:#FFFFFF;" points="154.437,392.386 149.097,389.48 208.913,279.573 240.683,246.572 245.063,250.788 
					213.861,283.199 				"/>
			</g>
			<circle style="fill:#263238;" cx="243.375" cy="247.954" r="8.919"/>
			<g>
				<path style="fill:#263238;" d="M275.587,407.382c-3.769,0-7.286-0.063-10.33-0.189c-16.012-0.667-21.757-6.273-26.372-10.776
					c-0.776-0.757-1.509-1.472-2.24-2.106c-5.235-4.539-32.916-66.425-41.276-85.284l5.559-2.464
					c13.365,30.155,35.973,79.405,39.736,83.188c0.83,0.718,1.662,1.53,2.467,2.315c4.075,3.976,8.694,8.483,22.379,9.053
					c18.674,0.777,48.073-0.916,53.309-3.071c5.649-2.326,16.321-16.428,21.45-23.205c11.341-14.985,24.999-36.578,25.135-36.795
					l5.139,3.246c-0.137,0.218-13.929,22.025-25.427,37.217c-8.501,11.233-17.355,22.429-23.982,25.158
					C315.288,406.076,292.832,407.382,275.587,407.382z"/>
			</g>
			<g style="opacity:0.3;">
				<path style="fill:#FFFFFF;" d="M275.587,407.382c-3.769,0-7.286-0.063-10.33-0.189c-16.012-0.667-21.757-6.273-26.372-10.776
					c-0.776-0.757-1.509-1.472-2.24-2.106c-5.235-4.539-32.916-66.425-41.276-85.284l5.559-2.464
					c13.365,30.155,35.973,79.405,39.736,83.188c0.83,0.718,1.662,1.53,2.467,2.315c4.075,3.976,8.694,8.483,22.379,9.053
					c18.674,0.777,48.073-0.916,53.309-3.071c5.649-2.326,16.321-16.428,21.45-23.205c11.341-14.985,24.999-36.578,25.135-36.795
					l5.139,3.246c-0.137,0.218-13.929,22.025-25.427,37.217c-8.501,11.233-17.355,22.429-23.982,25.158
					C315.288,406.076,292.832,407.382,275.587,407.382z"/>
			</g>
			<g>
				
					<rect x="382.06" y="316.085" transform="matrix(0.8453 -0.5343 0.5343 0.8453 -131.2171 261.2494)" style="fill:#263238;" width="7.001" height="82.294"/>
			</g>
			<path style="fill:#01A54F;" d="M382.643,333.943c0,0,15.389-8.175,46.877-1.546c31.488,6.629,39.538,31.725,39.538,31.725h10.891
				c0,0-6.629-27.7-41.905-40.722c-29.633-10.938-39.775-3.315-48.535-0.947C380.749,324.821,382.643,333.943,382.643,333.943z"/>
			<path style="fill:#263238;" d="M277.472,405.925l16.763,7.048c1.99,0.837,4.128,1.268,6.287,1.268h111.806v-14.385l-88.106,0.899
				L277.472,405.925z"/>
			<path style="fill:#263238;" d="M352.397,327.321c-1.373,0.153-48.819,0-48.819,0s-0.154,27.101,1.842,28.749
				c1.996,1.648,3.684,1.163,3.684,1.163s1.842,11.711,14.277,12.315c12.435,0.605,15.659-2.616,19.804-3.539
				c4.145-0.922,22.072-27.316,21.168-29.702C363.451,333.922,359.306,326.553,352.397,327.321z"/>
			<path style="opacity:0.3;fill:#FFFFFF;" d="M352.397,327.321c-1.373,0.153-48.819,0-48.819,0s-0.154,27.101,1.842,28.749
				c1.996,1.648,3.684,1.163,3.684,1.163s1.842,11.711,14.277,12.315c12.435,0.605,15.659-2.616,19.804-3.539
				c4.145-0.922,22.072-27.316,21.168-29.702C363.451,333.922,359.306,326.553,352.397,327.321z"/>
			<path style="fill:#263238;" d="M212.373,279.271c0.78-0.52,22.082,5.58,22.082,5.58l-5.703,37.6l9.879,13.857l22.46-6.947
				l7.958,12.307l-2.86,2.884l4.172,8.567l8.567-8.567v-4.444c0,0,12.219,0,12.999,0c0.78,0,13.259,0,13.259,0l48.877,0.26
				l8.839,7.165l-34.318,43.603l-20.391,2.847l-61.751-18.777c0,0-13.273-32.238-24.972-47.94
				c-11.699-15.702-15.339-7.697-15.33-7.458l-6.815-16.264l13.305-22.972"/>
			<path style="opacity:0.3;fill:#FFFFFF;" d="M212.373,279.271c0.78-0.52,22.082,5.58,22.082,5.58l-5.703,37.6l9.879,13.857
				l22.46-6.947l7.958,12.307l-2.86,2.884l4.172,8.567l8.567-8.567v-4.444c0,0,12.219,0,12.999,0c0.78,0,13.259,0,13.259,0
				l48.877,0.26l8.839,7.165l-34.318,43.603l-20.391,2.847l-61.751-18.777c0,0-13.273-32.238-24.972-47.94
				c-11.699-15.702-15.339-7.697-15.33-7.458l-6.815-16.264l13.305-22.972"/>
			<polygon style="fill:#01A54F;" points="460.53,336.491 472.158,336.491 479.412,352.611 473.31,352.611 			"/>
			<path style="fill:#01A54F;" d="M471.468,337.758"/>
			<line style="fill:none;" x1="483.432" y1="337.068" x2="483.087" y2="337.068"/>
			<line style="fill:none;" x1="483.432" y1="337.068" x2="483.087" y2="337.068"/>
			<line style="fill:none;" x1="483.432" y1="337.068" x2="483.087" y2="337.068"/>
			<line style="fill:none;" x1="483.432" y1="337.068" x2="483.087" y2="337.068"/>
			<line style="fill:none;" x1="483.432" y1="337.068" x2="483.087" y2="337.068"/>
			<path style="fill:#263238;" d="M382.47,320.955c0.73,2.253,12.487,14.889,12.487,14.889l-12.487,6.191l-11.251-14.77
				L382.47,320.955z"/>
			<g style="opacity:0.3;">
				
					<rect x="382.06" y="316.085" transform="matrix(0.8453 -0.5343 0.5343 0.8453 -131.2171 261.2494)" style="fill:#FFFFFF;" width="7.001" height="82.294"/>
			</g>
			<path style="opacity:0.3;fill:#FFFFFF;" d="M382.47,320.955c0.73,2.253,12.487,14.889,12.487,14.889l-12.487,6.191l-11.251-14.77
				L382.47,320.955z"/>
			
				<ellipse transform="matrix(0.2277 -0.9737 0.9737 0.2277 -263.4515 449.7158)" style="fill:#263238;" cx="151.767" cy="390.933" rx="21.482" ry="21.482"/>
			<path style="fill:#263238;" d="M414.984,332.395c-32.927,0-59.62,26.693-59.62,59.62c0,32.927,26.693,59.62,59.62,59.62
				s59.62-26.693,59.62-59.62C474.604,359.087,447.911,332.395,414.984,332.395z M414.984,437.315
				c-25.616,0-46.382-20.766-46.382-46.382c0-25.616,20.766-46.382,46.382-46.382c25.616,0,46.382,20.766,46.382,46.382
				C461.366,416.549,440.6,437.315,414.984,437.315z"/>
			
				<ellipse transform="matrix(0.2277 -0.9737 0.9737 0.2277 -60.1575 706.0215)" style="fill:#263238;" cx="414.984" cy="390.933" rx="21.482" ry="21.482"/>
			<path style="opacity:0.7;fill:#FFFFFF;" d="M277.472,405.925l16.763,7.048c1.99,0.837,4.128,1.268,6.287,1.268h111.806v-14.385
				l-88.106,0.899L277.472,405.925z"/>
			<path style="fill:#263238;" d="M329.28,305.673c0,0-22.932-2.268-17.892,7.56c5.04,9.828,15.372,16.128,33.011,16.128
				s48.131-2.728,61.739-9.554s12.096-15.394,11.592-23.457c-0.504-8.064-6.804-10.753-15.876-6.007
				c-9.072,4.747-10.482,4.661-23.688,8.275C364.354,302.397,343.932,305.182,329.28,305.673z"/>
			<g>
				<path style="fill:#263238;" d="M279.064,400.992c4.86-0.307,11.381-0.151,16.15-1.136c4.769-0.984,9.741-2.238,12.981-5.874
					c3.313-3.718,4.439-7.626,5.192-12.548c0.501-3.274-0.852-8.098-2.708-10.841c-1.425-2.106-3.822-3.398-6.292-4.002
					c-2.47-0.604-5.044-0.592-7.587-0.578c-12.676,0.073-25.508,0.165-37.776,3.356c-5.062,1.317-10.162,3.264-13.829,6.993
					c-3.667,3.729-5.551,9.608-3.368,14.361c1.947,4.239,6.481,6.604,10.836,8.276C252.664,399,261.438,402.106,279.064,400.992z"/>
			</g>
			<g style="opacity:0.7;">
				<path style="fill:#FFFFFF;" d="M279.064,400.992c4.86-0.307,11.381-0.151,16.15-1.136c4.769-0.984,9.741-2.238,12.981-5.874
					c3.313-3.718,4.439-7.626,5.192-12.548c0.501-3.274-0.852-8.098-2.708-10.841c-1.425-2.106-3.822-3.398-6.292-4.002
					c-2.47-0.604-5.044-0.592-7.587-0.578c-12.676,0.073-25.508,0.165-37.776,3.356c-5.062,1.317-10.162,3.264-13.829,6.993
					c-3.667,3.729-5.551,9.608-3.368,14.361c1.947,4.239,6.481,6.604,10.836,8.276C252.664,399,261.438,402.106,279.064,400.992z"/>
			</g>
			
				<ellipse transform="matrix(0.2308 -0.973 0.973 0.2308 -173.0791 548.4095)" style="fill:#263238;" cx="260.326" cy="383.676" rx="10.848" ry="10.848"/>
			
				<ellipse transform="matrix(0.7071 -0.7071 0.7071 0.7071 -183.567 319.0087)" style="fill:#263238;" cx="293.294" cy="381.089" rx="12.173" ry="12.173"/>
			<path style="fill:#01A54F;" d="M261.167,286.664c-0.76-0.119-50.46-10.857-46.307,21.329c0,0,3.53,16.82,12.667,18.896
				c7.72,1.755,64.065,0.544,81.354,0.127c3.557-0.086,6.852-1.937,8.709-4.971c0.02-0.032,0.039-0.064,0.059-0.096
				c1.958-3.224,2.198-14.464-6.437-21.846C298.337,289.096,272.327,288.41,261.167,286.664z"/>
			<path style="fill:#01A54F;" d="M122.277,340.188l-4.469-5.854c0,0,36.061-19.844,68.282,0c0,0,48.673,28.38,25.297,85.566
				l-5.507-2.827c0,0,2.615-17.018-2.933-40.063c-5.548-23.045-21.551-37.342-40.542-40.116
				C143.413,334.121,122.277,340.188,122.277,340.188z"/>
			<path style="fill:#263238;" d="M151.767,332.395c-32.927,0-59.62,26.693-59.62,59.62c0,32.927,26.693,59.62,59.62,59.62
				s59.62-26.693,59.62-59.62C211.387,359.087,184.694,332.395,151.767,332.395z M151.767,437.315
				c-25.616,0-46.382-20.766-46.382-46.382c0-25.616,20.766-46.382,46.382-46.382s46.382,20.766,46.382,46.382
				C198.149,416.549,177.383,437.315,151.767,437.315z"/>
		</g>
		<g>
			<g>
				<g>
					<g>
						<g>
							<g>
								<path style="fill:#E9B376;" d="M316.8,187.827c0,0-2.936-5.896-2.91-17.831c-0.004-0.012-0.658-0.102-0.662-0.114
									c-0.003-1.667,0.056-3.226,0.143-4.587c0-0.039-0.004-0.05-0.004-0.05l-12.391,13.647
									c1.367,3.421,2.061,10.592,2.133,13.684c0,0-0.405,5.754,6.586,3.99C314.803,195.276,316.8,187.827,316.8,187.827z"/>
								<path style="opacity:0.2;" d="M302.142,183.919l8.111-4.449c-0.011,2.923-1.479,6.807-7.439,8.803
									C302.813,188.273,302.547,185.082,302.142,183.919z"/>
							</g>
							<g>
								<path style="fill:#263238;" d="M283.072,155.85c-0.771,3.996,0.805,11.844,5.898,8.649
									c3.959-2.483-0.455-12.775-3.482-12.987C284.62,151.452,283.367,154.321,283.072,155.85z"/>
								<path style="fill:#E9B376;" d="M311.378,157.89c2.07,9.781,2.907,15.364-0.819,21.477
									c-5.605,9.195-18.361,7.671-23.012-1.486c-4.186-8.242-6.315-22.959,2.297-29.012
									C298.328,142.906,309.795,150.414,311.378,157.89z"/>
								<path style="fill:#263238;" d="M311.966,144.233c-6.396-3.605-18.186-0.175-21.274,3.455
									c-0.461,0.542,8.432,2.626,7.909,2.566l4.047,0.396c0.545-0.266,1.837,0.136,2.852,1.784c0,0,1.039,10.615,6.287,13.91
									c3.748-2.955,4.491-4.953,4.717-8.72C316.841,152.01,314.863,146.671,311.966,144.233z"/>
								<path style="fill:#E9B376;" d="M317.15,165.06c-0.176,2.684-1.584,5.027-3.279,6.445c-2.551,2.133-5.22,0.178-5.679-2.945
									c-0.413-2.811,0.416-7.307,3.538-8.231C314.805,159.419,317.351,161.991,317.15,165.06z"/>
								<path style="fill:#263238;" d="M300.226,163.43c0.238,0.993-0.097,1.919-0.748,2.068c-0.652,0.15-1.373-0.534-1.611-1.527
									c-0.238-0.993,0.097-1.919,0.748-2.068C299.266,161.754,299.988,162.437,300.226,163.43z"/>
								<path style="fill:#263238;" d="M289.494,166.307c0.238,0.993-0.097,1.919-0.748,2.069c-0.651,0.15-1.373-0.534-1.611-1.527
									c-0.238-0.993,0.097-1.919,0.748-2.068C288.534,164.631,289.256,165.314,289.494,166.307z"/>
								<path style="fill:#D58745;" d="M291.506,165.243c0,0-1.96,5.688-2.485,7.938c1.682,0.917,3.924-0.23,3.924-0.23
									L291.506,165.243z"/>
								<path style="fill:#263238;" d="M299.466,158.761c-0.135,0.097-0.318,0.121-0.482,0.046c-1.948-0.886-3.452,0.03-3.467,0.039
									c-0.224,0.14-0.521,0.073-0.662-0.149c-0.142-0.222-0.074-0.516,0.148-0.656c0.079-0.05,1.962-1.198,4.379-0.098
									c0.241,0.11,0.348,0.392,0.238,0.631C299.584,158.652,299.531,158.715,299.466,158.761z"/>
							</g>
							
								<path style="opacity:0.2;fill:none;stroke:#000000;stroke-width:0.5;stroke-linecap:round;stroke-linejoin:round;stroke-miterlimit:10;" d="
								M314.29,162.908c-0.53-0.486-1.378-0.507-2.017-0.178c-0.638,0.33-1.086,0.95-1.365,1.612
								c-0.335,0.795-0.457,1.678-0.352,2.535"/>
						</g>
						<g>
							<g>
								<path d="M302.351,170.385l-7.472,5.311c0.763,0.762,1.538,1.533,2.472,2.072c0.934,0.539,1.929,0.587,2.97,0.308
									c1.491-0.399,2.628-1.66,2.839-3.188C303.372,173.36,302.93,171.816,302.351,170.385z"/>
							</g>
							<path style="fill:#FFFFFF;" d="M295.48,175.269c0,0,0.878,0.872,1.445,0.871c0.566-0.001,5.97-4.237,5.97-4.237l-0.544-1.518
								L295.48,175.269z"/>
							<path style="fill:#DE5753;" d="M299.22,178.243c0,0-0.022-1.588,1.486-2.786c1.508-1.198,2.502-1.109,2.502-1.109
								s0.011,1.887-1.422,2.974C300.353,178.408,299.22,178.243,299.22,178.243z"/>
						</g>
						<path style="fill:#263238;" d="M283.168,163.393c-0.091,0.002-0.183-0.022-0.266-0.074c-0.224-0.141-0.294-0.437-0.154-0.66
							c1.394-2.237,3.591-2.273,3.689-2.287c0.263-0.003,0.483,0.208,0.488,0.472c0.006,0.263-0.201,0.479-0.463,0.484
							c-0.092-0.002-1.783,0.048-2.903,1.843C283.472,163.312,283.322,163.39,283.168,163.393z"/>
					</g>
				</g>
			</g>
			<path style="fill:#263238;" d="M312.111,398.893c-0.099-0.486-0.964-5.796-1.092-5.931l-4.401-21.078l-21.037,7.836
				l10.669,22.982c1.025,3.494-0.971,5.794-0.971,5.794s-4.405,8.919-7.661,10.156c-2.137,0.812-3.877,2.286-4.604,5.138
				c-0.207,0.816-0.286,1.702-0.204,2.757c0.091,1.168,0.271,1.554,0.843,2.978l18.96-6.11c0,0,3.46-1.84,4.477-2.296
				c1.021-0.456,3.123-0.056,3.123-0.056l8.929-2.765c0,0-0.299-1.532-0.737-3.76l0.002-0.002c-0.198-1.004-0.423-2.148-0.66-3.358
				C316.73,405.988,312.41,400.358,312.111,398.893z"/>
			<path style="fill:#01A54F;" d="M353.649,259.46l-39.359,15.03l4.295,9.575c0,0-45.695,21.88-50.495,35.284
				c-0.107,18.428,20.504,66.972,24.494,81.205l26.557-6.633c-2.454-13.634-17.585-60.6-17.585-60.6
				c3.38-4.896,2.426-6.072,24.773-14.663c15.372-5.91,34.855-14.833,36.993-17.444C370.31,293.029,363.412,272.012,353.649,259.46z
				"/>
			<path style="opacity:0.3;" d="M353.649,259.46l-39.359,15.03l4.295,9.575c0,0-45.695,21.88-50.495,35.284
				c-0.107,18.428,20.504,66.972,24.494,81.205l26.557-6.633c-2.454-13.634-17.585-60.6-17.585-60.6
				c3.38-4.896,2.426-6.072,24.773-14.663c15.372-5.91,34.855-14.833,36.993-17.444C370.31,293.029,363.412,272.012,353.649,259.46z
				"/>
			<path style="fill:#263238;" d="M318.985,184.267c0,0,10.698,4.96,16.909,11.948c6.212,6.988,25.881,50.986,24.846,57.198
				c-1.035,6.212-2.366,11.153-2.366,11.153l2.752,4.723l-43.996,13.538l-2.273-3.587c0,0-0.703,1.158-5.361-6.252
				c-4.659-7.41-11.817-52.338-8.981-61.368c0.243-0.773,1.556-6.174,1.627-8.917c0.139-5.372-1.166-9.403-1.166-9.403l17.09-18.985
				L318.985,184.267z"/>
			<path style="opacity:0.4;" d="M304.789,254.735l1.182,6.352c0,0,15.203-29.379,9.815-40.438L304.789,254.735z"/>
			<g>
				<path style="fill:#E9B376;" d="M265.166,255.905l-11.329-2.567c0,0-2.439,1.301-4.373,1.805
					c-1.934,0.504-2.62,1.099-5.566-0.433c-2.946-1.532-1.385-4.029-1.385-4.029c-1.905,0.304-2.027-2.767-2.027-2.767
					c-2.438-1.633-0.703-4.172-0.703-4.172s1.532-3.15,2.857-4.063c1.324-0.913,7.018,0.117,7.018,0.117l4.613,3.542l13.154,0.61
					C267.393,244.176,265.166,255.905,265.166,255.905z"/>
				<path style="fill:#263238;" d="M304.473,202.712c0,0-4.651,9.197-6.291,16.025c-1.506,6.271-7.54,23.174-7.54,23.174
					l-35.963,0.733l-2.408,11.752c0,0,42.384,10.141,48.52,5.454c6.136-4.687,8.595-13.783,12.847-23.184
					c4.03-8.909,5.897-15.729,6.324-17.157c0.849-2.841,4.032-15.807-2.969-20.356C309.992,194.603,304.473,202.712,304.473,202.712
					z"/>
			</g>
			<g>
				
					<rect x="279.283" y="423.7" transform="matrix(0.9581 -0.2863 0.2863 0.9581 -109.4241 103.7543)" style="fill:#263238;" width="41.707" height="4.835"/>
				
					<rect x="279.283" y="423.7" transform="matrix(0.9581 -0.2863 0.2863 0.9581 -109.4241 103.7543)" style="opacity:0.3;fill:#FFFFFF;" width="41.707" height="4.835"/>
			</g>
		</g>
		<path style="opacity:0.4;" d="M303.575,330.351l-9.618-4.019c0,0,12.777,1.66,12.245,1.481
			C305.669,327.633,303.575,330.351,303.575,330.351z"/>
		<g>
			<path style="fill:#263238;" d="M305.256,149.433c-3.25-3.669-7.821-9.289-12.675-9.968c-4.854-0.679-8.62,0.461-12.132,3.88
				c-2.789,2.715-4.099,3.876-4.71,5.017c-0.611,1.141-0.678,2.651,0.126,3.665c0.804,1.014,2.575,1.197,3.368,0.173
				c-1.166-0.26-2.335,0.868-2.359,2.063c-0.025,1.195,0.859,2.273,1.946,2.769s2.335,0.502,3.52,0.347
				c7.676-1.003,15.757-8.514,23.47-7.849"/>
		</g>
		<path style="opacity:0.4;" d="M302.895,206.026c0,0,2.43-9.981,13.115-7.429c0,0-5.474-2.93-9.812-0.418
			C301.858,200.692,302.895,206.026,302.895,206.026z"/>
		<path style="fill:#263238;" d="M250.421,247.954c0,2.444-1.981,4.425-4.426,4.425c-2.444,0-4.425-1.981-4.425-4.425
			c0-2.444,1.981-4.426,4.425-4.426C248.439,243.529,250.421,245.51,250.421,247.954z"/>
		<path style="opacity:0.3;fill:#263238;" d="M286.333,160.386c-2.466,0.746-3.909,1.712-4.614,2.292
			c-0.352,0.29-0.558,0.693-0.587,1.128c-0.126,1.881-0.197,7.244,4.392,6.66c5.405-0.688,5.288-4.865,5.356-7.373
			C290.948,160.586,290.11,159.244,286.333,160.386z"/>
		<path style="opacity:0.3;fill:#263238;" d="M295.533,158.102c2.536-0.546,5.664-0.813,6.588-0.626
			c0.462,0.093,0.858,0.365,1.12,0.757c1.131,1.69,2.748,7.095-1.534,8.861c-5.044,2.08-6.605-0.894-8.026-3.198
			C292.26,161.59,291.648,158.938,295.533,158.102z"/>
		
			<line style="fill:none;stroke:#000000;stroke-width:0.5;stroke-linecap:round;stroke-linejoin:round;stroke-miterlimit:10;" x1="302.574" y1="158.379" x2="311.73" y2="160.329"/>
		<path style="fill:none;stroke:#000000;stroke-width:0.5;stroke-linecap:round;stroke-linejoin:round;stroke-miterlimit:10;" d="
			M289.901,161.362c0.433-0.499,1.042-0.841,1.694-0.951s1.339,0.014,1.912,0.344"/>
		<g>
			<g>
				<path style="fill:#263238;" d="M278.831,264.006c-19.946-4.521-26.873,17.286-26.873,17.286h-6.371
					c-1.277,0-1.594,0.73-1.515,1.607c0.153,1.702,1.583,3.013,3.28,3.219l47.366,5.745
					C294.717,291.862,298.777,268.527,278.831,264.006z"/>
				<path style="opacity:0.4;fill:#FFFFFF;" d="M294.958,284.361c0,0,0.068-10.905-7.559-16.357c0,0-6.303,2.395-5.589,7.898
					c0.713,5.503,7.847,5.707,7.847,5.707s0.917,4.28,2.242,2.955c0.835-0.835,0.916-1.669,0.862-2.172
					c0.218,0.853,0.793,2.664,1.685,2.426C294.938,284.688,294.958,284.361,294.958,284.361z"/>
				<path style="fill:#263238;" d="M285.992,273.889c-0.052,0.233-0.525,4.103,2.958,4.485c3.483,0.382,3.196-2.433,1.956-3.578
					C289.666,273.651,286.469,271.743,285.992,273.889z"/>
			</g>
			<path style="opacity:0.3;" d="M251.958,281.292c0,0,16.104,1.021,21.742,1.911c5.638,0.89-21.175-3.412-21.175-3.412
				L251.958,281.292z"/>
		</g>
		<path style="opacity:0.4;fill:none;stroke:#000000;stroke-width:0.5;stroke-miterlimit:10;" d="M358.374,264.566
			c-0.723,0.107-43.517,14.674-43.517,14.674"/>
		<g>
			<path style="fill:none;" d="M350.011,225.903c0,0-0.994,3.95,0.447,4.302c1.441,0.352,1.402-1.339,1.402-1.339
				s0.07,0.103,0.186,0.223l-1.413-3.209C350.382,225.817,350.162,225.812,350.011,225.903z"/>
			<path style="fill:none;" d="M340.638,219.082c-1.608,0.344-3.063,1.234-4.267,2.354c-0.814,0.692-1.236,2.266-0.805,3.335
				c0.431,1.069,1.46,1.772,2.499,2.272c1.676,0.807,3.596,1.256,5.409,0.84c1.813-0.415,3.463-1.833,3.774-3.667
				c0.274-1.621-0.555-3.324-1.895-4.278C344.014,218.985,342.246,218.739,340.638,219.082z"/>
			<g>
				<g>
					<path style="fill:#01A54F;" d="M352.426,228.236c0,0-0.527,2.322-1.968,1.969c-1.441-0.352-0.447-4.302-0.447-4.302
						c0.151-0.09,1.173,0.056,1.425,0.118c-2.422-5.678-5.254-11.607-8.32-17.681c-0.264,0.118-0.815,0.065-1.029,0.191
						c-3.235,1.276-6.536,2.594-9.059,5.143c-2.522,2.549-4.167,6.604-3.334,10.885c0.832,4.282,4.736,8.302,8.159,7.584
						c1.523-0.319,3.177-1.399,4.554-0.154c0.988,0.894,1.181,2.493,1.846,3.727c0.925,1.716,2.913,2.589,4.29,1.884
						c1.376-0.705,1.933-2.881,1.2-4.696c0.875,2.318,4.087,3.908,5.803,2.961L352.426,228.236z M347.248,224.217
						c-0.31,1.834-1.96,3.253-3.774,3.667c-1.813,0.415-3.733-0.034-5.409-0.84c-1.039-0.5-2.068-1.203-2.499-2.272
						c-0.431-1.069-0.009-2.643,0.805-3.335c1.204-1.12,2.659-2.011,4.267-2.354c1.608-0.343,3.376-0.097,4.715,0.857
						C346.693,220.893,347.522,222.596,347.248,224.217z"/>
				</g>
			</g>
		</g>
		<path style="opacity:0.3;fill:#FFFFFF;" d="M244.061,286.559c0,0-18.626,8.58-19.24,16.796
			c-0.734,9.842,1.469,19.831,1.469,19.831s-13.466-14.271-7.551-24.616C224.656,288.224,241.412,286.069,244.061,286.559z"/>
	</g>
	<polygon style="opacity:0.3;" points="189.316,297.743 198.491,280.327 182.015,299.903 	"/>
</g>
<g id="Plant">
	<g>
		<g>
			<path style="fill:#01A54F;" d="M339.154,429.164c-0.686-1.153-2.215-2.57-3.286-3.377c-1.071-0.807-2.54-1.21-3.782-0.701
				c-1.585,0.649-2.315,2.592-2.094,4.29c0.221,1.698,1.031,3.844,1.997,5.258c4.121,6.034,7.936,11.556,14.296,16.046
				C346.285,443.186,342.958,435.556,339.154,429.164z"/>
		</g>
		<g>
			<path style="fill:#01A54F;" d="M360.137,430.203c-1.423-0.779-4.07,0.325-5.368,1.298c-2.575,1.929-4.143,3.949-5.712,6.758
				c-1.992,3.566-2.224,8.574-2.477,11.754c5.037-4.089,10.167-8.281,13.616-13.776c0.602-0.959,1.161-1.989,1.269-3.116
				C361.573,431.994,361.129,430.747,360.137,430.203z"/>
		</g>
		<path style="fill:none;stroke:#263238;stroke-width:0.5;stroke-linecap:round;stroke-linejoin:round;stroke-miterlimit:10;" d="
			M340.719,437.943c2.977,4.799,5.125,10.111,6.319,15.631"/>
		<path style="fill:none;stroke:#263238;stroke-width:0.5;stroke-linecap:round;stroke-linejoin:round;stroke-miterlimit:10;" d="
			M352.185,440.384c-2.503,3.001-4.479,6.44-5.81,10.113"/>
	</g>
</g>
</svg>
