<svg xmlns="http://www.w3.org/2000/svg" width="121" height="97" viewBox="0 0 121 97">
  <g id="Group_1350" data-name="Group 1350" transform="translate(-1123 -978)">
    <rect id="Rectangle_842" data-name="Rectangle 842" width="121" height="97" rx="5" transform="translate(1123 978)" fill="#63ab3b"/>
    <g id="map-svgrepo-com" transform="translate(1148 952.941)">
      <path id="Path_2611" data-name="Path 2611" d="M36.069,96.236c6.97-2.522,11.217-4.9,17.763-4.9.261,0,.524,0,.783.012a22.59,22.59,0,0,1,11.958,3.784l3.852,2.506V50.4l-1.134-.737a27.44,27.44,0,0,0-14.528-4.589c-.308-.009-.621-.014-.933-.014-7.42,0-12.391,2.644-19.458,5.2l-.017.006c-6.97,2.522-11.217,4.9-17.763,4.9-.261,0-.524,0-.783-.012A22.591,22.591,0,0,1,3.853,51.372L0,48.865V96.1l1.134.737a27.44,27.44,0,0,0,14.528,4.589c.308.009.621.014.933.014,7.42,0,12.391-2.644,19.458-5.2Z" fill="#01458e"/>
      <path id="Path_2612" data-name="Path 2612" d="M68.2,61.07c-7.272-.22-12.206,2.412-19.476,5.042s-12.2,5.262-19.476,5.042A25.052,25.052,0,0,1,16,66.968v41.289a25.052,25.052,0,0,0,13.244,4.187c7.272.22,12.206-2.412,19.476-5.042s12.2-5.262,19.476-5.042a25.052,25.052,0,0,1,13.244,4.187V65.257A25.052,25.052,0,0,0,68.2,61.07Z" transform="translate(-13.507 -13.507)" fill="#d1d5d8"/>
      <path id="Path_2613" data-name="Path 2613" d="M29.244,103.177v41.289A25.052,25.052,0,0,1,16,140.279V98.99A25.052,25.052,0,0,0,29.244,103.177Z" transform="translate(-13.507 -45.529)" fill="#efefef"/>
      <path id="Path_2614" data-name="Path 2614" d="M245.476,61.07V102.36c-7.272-.22-12.206,2.412-19.476,5.042V66.112C233.27,63.482,238.2,60.851,245.476,61.07Z" transform="translate(-190.787 -13.507)" fill="#efefef"/>
      <path id="Path_2615" data-name="Path 2615" d="M96.8,182.9c0,4.087-7.4,12.387-7.4,12.387S82,186.988,82,182.9a7.4,7.4,0,1,1,14.8,0Z" transform="translate(-53.224 -115.118)" fill="#01458e"/>
      <circle id="Ellipse_118" data-name="Ellipse 118" cx="2.727" cy="2.727" r="2.727" transform="translate(33.451 65.056)" fill="#efefef"/>
      <circle id="Ellipse_119" data-name="Ellipse 119" cx="2.727" cy="2.727" r="2.727" transform="translate(47.366 60.552)" fill="#efefef"/>
      <path id="Path_2617" data-name="Path 2617" d="M121.079,274.489a1.246,1.246,0,0,1-1.064-1.405h0a1.246,1.246,0,0,1,1.4-1.066h0a1.246,1.246,0,0,1,1.064,1.405h0a1.245,1.245,0,0,1-1.232,1.077h0A1.278,1.278,0,0,1,121.079,274.489Zm4.191-1.2a1.245,1.245,0,0,1,.985-1.461h0a1.245,1.245,0,0,1,1.461.985h0a1.246,1.246,0,0,1-.986,1.461h0a1.237,1.237,0,0,1-.238.023h0A1.246,1.246,0,0,1,125.27,273.288Zm5.1-1.313a1.246,1.246,0,0,1,.7-1.616h0a1.245,1.245,0,0,1,1.617.7h0a1.247,1.247,0,0,1-.7,1.617h0a1.242,1.242,0,0,1-.457.087h0A1.247,1.247,0,0,1,130.373,271.974Zm4.855-2.063a1.248,1.248,0,0,1,.589-1.662h0a1.246,1.246,0,0,1,1.661.589h0a1.246,1.246,0,0,1-.589,1.661h0a1.24,1.24,0,0,1-.534.123h0A1.249,1.249,0,0,1,135.228,269.912Zm4.76-2.284a1.248,1.248,0,0,1,.62-1.65h0a1.246,1.246,0,0,1,1.65.62h0a1.246,1.246,0,0,1-.619,1.65h0a1.243,1.243,0,0,1-.516.112h0A1.248,1.248,0,0,1,139.988,267.627Zm4.85-2.079a1.247,1.247,0,0,1,.8-1.569h0a1.246,1.246,0,0,1,1.569.8h0a1.248,1.248,0,0,1-.8,1.569h0a1.26,1.26,0,0,1-.383.061h0A1.246,1.246,0,0,1,144.838,265.549Zm5.1-1.351a1.245,1.245,0,0,1,1.164-1.323h0a1.247,1.247,0,0,1,1.324,1.164h0a1.245,1.245,0,0,1-1.164,1.323h0a.739.739,0,0,1-.083,0h0A1.246,1.246,0,0,1,149.935,264.2Z" transform="translate(-101.305 -183.877)" fill="#37495e"/>
    </g>
  </g>
</svg>
