<svg version="1.1" id="Layer_1" xmlns="http://www.w3.org/2000/svg" x="0" y="0" viewBox="0 0 1080 1080" style="enable-background:new 0 0 1080 1080" xml:space="preserve"><style>.st0{fill:#243972}.st2{fill:#01A54F}</style><path class="st0" d="M956.61 658.12c-29.86 0-54.15 25.09-54.15 55.95 0 8.05 6.54 14.59 14.59 14.59s14.59-6.54 14.59-14.59c0-14.76 11.2-26.77 24.98-26.77 13.77 0 24.98 12.01 24.98 26.77v351.34c0 8.05 6.54 14.59 14.59 14.59s14.59-6.54 14.59-14.59V714.07c-.01-30.86-24.3-55.95-54.17-55.95z"/><circle class="st0" cx="757.61" cy="100.92" r="100.92"/><path d="M916.14 610.18c0 21.08 17.1 38.18 38.18 38.18h3.69c21.08 0 38.18-17.1 38.18-38.18l-.54-310.46c-5.41-62.99-58.18-112.46-122.57-112.46h-18.4c-23.85 26.78-58.46 43.77-97.06 43.77s-73.21-16.98-97.06-43.77h-18.4c-64.39 0-117.16 49.47-122.57 112.46l-.55 310.46c0 21.08 17.1 38.18 38.18 38.18h3.69c21.08 0 38.18-17.1 38.18-38.18V310.37h27.81v335.24h1.18v382.77c0 28.51 23.11 51.61 51.61 51.61 28.51 0 51.61-23.11 51.61-51.61V645.61h53.8v382.77c0 28.51 23.11 51.61 51.61 51.61 28.51 0 51.61-23.11 51.61-51.61V310.37h27.81c.01 0 .01 299.81.01 299.81z" style="fill:#f5bc97"/><circle class="st2" cx="528.26" cy="742.7" r="84.58"/><path class="st2" d="M487.27 926.61c9.87-13 15.8-29.17 15.8-46.76 0-42.78-34.69-77.47-77.47-77.47H255.17c-42.78 0-77.47 34.69-77.47 77.47 0 21.01 8.39 40.02 21.96 53.98v46.73h-83.94c-25.67 0-46.48 20.81-46.48 46.48 0 25.67 20.81 46.48 46.48 46.48h131.7c25.67 0 45.21-17.88 45.21-43.55v-72.65H399.3l24.11 87.16c5.69 20.61 24.4 34.11 44.78 34.11 4.1 0 8.27-.55 12.42-1.69 24.74-6.84 39.25-32.44 32.41-57.19l-25.75-93.1z"/></svg>
