<svg xmlns="http://www.w3.org/2000/svg" width="81.764" height="74.044" viewBox="0 0 81.764 74.044">
  <g id="Group_1343" data-name="Group 1343" transform="translate(-918 -2650.001)">
    <path id="Path_128" data-name="Path 128" d="M41.216,13.753c21.66-5.061,40.548,1.892,40.548,24.655S63.979,86.232,41.216,86.232,0,61.172,0,38.409,19.556,18.814,41.216,13.753Z" transform="translate(918 2637.813)" fill="#f6f5f5"/>
    <g id="_58137549916310167304009" data-name="58137549916310167304009" transform="translate(927 2654.928)">
      <path id="Path_129" data-name="Path 129" d="M59.09,45.16,37.54,25.91a1,1,0,0,0-1.37,0L31.8,30.32a1,1,0,0,0,0,1.38L51,53.24a5.68,5.68,0,0,0,4.11,1.91h.16a5.63,5.63,0,0,0,4-1.68h0a5.71,5.71,0,0,0-.23-8.31Z" fill="#01458e"/>
      <path id="Path_130" data-name="Path 130" d="M44,19.57,32.63,8.23a1,1,0,0,0-1.42,0L14.08,25.36a1,1,0,0,0,0,1.42L25.42,38.12a1,1,0,0,0,1.41,0L44,21a1,1,0,0,0,0-1.43Z" fill="#63ab3b"/>
      <path id="Path_131" data-name="Path 131" d="M47.41,15.46,36.22,4.27a4.11,4.11,0,0,0-5.8,0L28.84,5.86a1,1,0,0,0,0,1.41L44.41,22.84a1,1,0,0,0,1.42,0l1.58-1.58a4.1,4.1,0,0,0,0-5.8Z" fill="#63ab3b"/>
      <path id="Path_132" data-name="Path 132" d="M13.12,23a1,1,0,0,0-1.41,0l-1.59,1.58a4.1,4.1,0,0,0,0,5.8L21.31,41.56a4.1,4.1,0,0,0,5.8,0L28.69,40a1,1,0,0,0,0-1.42Z" fill="#63ab3b"/>
      <path id="Path_133" data-name="Path 133" d="M32.34,49.85H9.38a1,1,0,0,0-1,1V53.9a1,1,0,0,0,1,1H32.34a1,1,0,0,0,1-1V50.85A1,1,0,0,0,32.34,49.85Z" fill="#63ab3b"/>
      <path id="Path_134" data-name="Path 134" d="M37.72,59H35.86V53.9a1,1,0,0,0-1-1h-28a1,1,0,0,0-1,1V59H4a1,1,0,1,0,0,2H37.72a1,1,0,0,0,0-2Z" fill="#63ab3b"/>
      <path id="Path_135" data-name="Path 135" d="M59.09,45.16,38.33,26.61l4.93-4.92,1.15,1.15a1,1,0,0,0,1.42,0l1.58-1.58a4.1,4.1,0,0,0,0-5.8L36.22,4.27a4.11,4.11,0,0,0-5.8,0L28.84,5.86a1,1,0,0,0,0,1.41l1.67,1.67L14.79,24.66,13.12,23a1,1,0,0,0-1.41,0l-1.59,1.58a4.1,4.1,0,0,0,0,5.8L21.31,41.56a4.1,4.1,0,0,0,5.8,0L28.69,40a1,1,0,0,0,0-1.42l-1.15-1.15,4.92-4.93L51,53.24a5.74,5.74,0,0,0,8.31.23h0a5.74,5.74,0,0,0-.22-8.31ZM31.84,5.69a2.15,2.15,0,0,1,3,0L46,16.88a2.11,2.11,0,0,1,0,3l-.88.88L31,6.56ZM25.69,40.15a2.11,2.11,0,0,1-3,0L11.54,29a2.1,2.1,0,0,1-.62-1.49A2.07,2.07,0,0,1,11.54,26l.87-.88L26.57,39.27ZM16.2,26.07,31.92,10.35l9.92,9.92L26.12,36Zm41.71,26a3.75,3.75,0,0,1-5.41-.15L33.88,31.07l3-3L57.76,46.65a3.75,3.75,0,0,1,.15,5.41Z" fill="#01458e"/>
      <path id="Path_136" data-name="Path 136" d="M37.72,59H35.86V53.9a1,1,0,0,0-1-1H33.34v-2a1,1,0,0,0-1-1h-23a1,1,0,0,0-1,1v2H6.86a1,1,0,0,0-1,1V59H4a1,1,0,1,0,0,2H37.72a1,1,0,0,0,0-2ZM10.38,51.85h21v1h-21ZM7.86,59V54.9h26V59Z"/>
    </g>
  </g>
</svg>
