<svg xmlns="http://www.w3.org/2000/svg" width="75" height="75" viewBox="0 0 75 75">
  <g id="Group_1363" data-name="Group 1363" transform="translate(-333 -2218)">
    <circle id="Ellipse_134" data-name="Ellipse 134" cx="37.5" cy="37.5" r="37.5" transform="translate(333 2218)" fill="#f1f1f1"/>
    <g id="_18644601141656072486" data-name="18644601141656072486" transform="translate(354 2240)">
      <path id="Path_2749" data-name="Path 2749" d="M39.258,18H14.709A4.717,4.717,0,0,0,10,22.709V36.775a4.709,4.709,0,0,0,4.7,4.7h2.423v7.161a.629.629,0,0,0,1.057.461l8.193-7.623H39.253a4.717,4.717,0,0,0,4.709-4.709V22.7a4.709,4.709,0,0,0-4.7-4.7ZM42.7,36.771a3.455,3.455,0,0,1-3.451,3.451H26.13a.629.629,0,0,0-.419.168L18.386,47.2V40.851a.629.629,0,0,0-.629-.629H14.7a3.451,3.451,0,0,1-3.447-3.446V22.709a3.455,3.455,0,0,1,3.451-3.451H39.258A3.451,3.451,0,0,1,42.7,22.7Z" transform="translate(-10 -18)" fill="#01458e" stroke="#01458e" stroke-width="1"/>
      <path id="Path_2750" data-name="Path 2750" d="M27.483,48.84a1.937,1.937,0,1,0,1.366.567A1.933,1.933,0,0,0,27.483,48.84Zm0,2.612a.682.682,0,1,1,.477-.2.675.675,0,0,1-.477.2Z" transform="translate(-19.03 -35.909)" fill="#63ab3b" stroke="#63ab3b" stroke-width="2.2"/>
      <path id="Path_2751" data-name="Path 2751" d="M40.633,48.84A1.937,1.937,0,1,0,42,49.407a1.933,1.933,0,0,0-1.366-.567Zm0,2.612a.682.682,0,1,1,.477-.2.675.675,0,0,1-.477.2Z" transform="translate(-26.667 -35.909)" fill="#63ab3b" stroke="#63ab3b" stroke-width="2.2"/>
      <path id="Path_2752" data-name="Path 2752" d="M54.18,48.88a1.933,1.933,0,1,0,1.216.839,1.933,1.933,0,0,0-1.216-.839Zm.252,2.034a.262.262,0,1,0-.008,0Z" transform="translate(-34.298 -35.908)" fill="#63ab3b" stroke="#63ab3b" stroke-width="2.2"/>
      <path id="Path_2753" data-name="Path 2753" d="M67.811,29.7A3.14,3.14,0,0,0,64,32.769a.629.629,0,1,0,1.258,0,1.878,1.878,0,1,1,1.887,1.878.629.629,0,0,0-.629.629v2.683a.629.629,0,1,0,1.258,0v-2.1a3.14,3.14,0,0,0,.038-6.142Z" transform="translate(-41.359 -24.752)" fill="#63ab3b" stroke="#63ab3b" stroke-width="2.2"/>
      <path id="Path_2754" data-name="Path 2754" d="M70.629,54a.629.629,0,0,0-.629.629v.839a.629.629,0,1,0,1.258,0v-.839A.629.629,0,0,0,70.629,54Z" transform="translate(-44.843 -38.906)" fill="#63ab3b" stroke="#63ab3b" stroke-width="2.2"/>
    </g>
  </g>
</svg>
