<svg xmlns="http://www.w3.org/2000/svg" width="68.333" height="69.532" viewBox="0 0 68.333 69.532">
  <g id="file-svgrepo-com" transform="translate(-0.5)">
    <g id="Group_251" data-name="Group 251" transform="translate(0.5)">
      <path id="Path_4484" data-name="Path 4484" d="M54.447,16.784,37.664,0H.5V69.532H54.447Z" transform="translate(-0.5)" fill="#01458e"/>
      <g id="Group_250" data-name="Group 250" transform="translate(10.789 15.585)">
        <path id="Path_4485" data-name="Path 4485" d="M10.7,23.4H40.67a1.2,1.2,0,0,0,0-2.4H10.7a1.2,1.2,0,0,0,0,2.4Z" transform="translate(-9.5 -11.409)" fill="#fff"/>
        <path id="Path_4486" data-name="Path 4486" d="M10.7,15.4H22.687a1.2,1.2,0,0,0,0-2.4H10.7a1.2,1.2,0,0,0,0,2.4Z" transform="translate(-9.5 -13)" fill="#fff"/>
        <path id="Path_4487" data-name="Path 4487" d="M40.67,29H10.7a1.2,1.2,0,0,0,0,2.4H40.67a1.2,1.2,0,0,0,0-2.4Z" transform="translate(-9.5 -9.819)" fill="#fff"/>
        <path id="Path_4488" data-name="Path 4488" d="M40.67,37H10.7a1.2,1.2,0,1,0,0,2.4H40.67a1.2,1.2,0,1,0,0-2.4Z" transform="translate(-9.5 -8.228)" fill="#fff"/>
        <path id="Path_4489" data-name="Path 4489" d="M40.67,45H10.7a1.2,1.2,0,0,0,0,2.4H40.67a1.2,1.2,0,0,0,0-2.4Z" transform="translate(-9.5 -6.637)" fill="#fff"/>
      </g>
      <path id="Path_4490" data-name="Path 4490" d="M31.5,0V16.784H48.284Z" transform="translate(5.664)" fill="#4b90d9"/>
    </g>
    <g id="Group_252" data-name="Group 252" transform="translate(40.061 43.158)">
      <path id="Path_4491" data-name="Path 4491" d="M47.886,36l4.445,8.682,9.941,1.392-7.193,6.758,1.7,9.543-8.891-4.505L39,62.374l1.7-9.543L33.5,46.074l9.941-1.392Z" transform="translate(-33.5 -36)" fill="#63ab3b"/>
    </g>
  </g>
</svg>
