<svg xmlns="http://www.w3.org/2000/svg" width="42.737" height="54.608" viewBox="0 0 42.737 54.608">
  <g id="_17748871041557740345" data-name="17748871041557740345" transform="translate(-3 -1029.4)">
    <path id="Path_4534" data-name="Path 4534" d="M7.749,1030.4A4.755,4.755,0,0,0,3,1035.148v42.737a4.756,4.756,0,0,0,4.749,4.749h33.24a4.755,4.755,0,0,0,4.749-4.749v-33.24L31.491,1030.4Z" transform="translate(0 1.374)" fill="#95a5a6"/>
    <path id="Path_4535" data-name="Path 4535" d="M7.749,1029.4A4.755,4.755,0,0,0,3,1034.148v42.737a4.756,4.756,0,0,0,4.749,4.749h33.24a4.755,4.755,0,0,0,4.749-4.749v-33.24L31.491,1029.4Z" transform="translate(0 0)" fill="#bdc3c7"/>
    <path id="Path_4536" data-name="Path 4536" d="M15,1039.4v9.5h9.5A9.511,9.511,0,0,0,15,1039.4Z" transform="translate(16.491 13.742)" fill="#63ab3b"/>
    <path id="Path_4537" data-name="Path 4537" d="M19.5,1040.4a9.5,9.5,0,1,0,9.5,9.5H19.5Z" transform="translate(9.62 15.117)" fill="#63ab3b"/>
    <g id="Group_257" data-name="Group 257" transform="translate(9.913 1029.4)">
      <rect id="Rectangle_1137" data-name="Rectangle 1137" width="28.91" height="2.514" transform="translate(0 11.906)" fill="#95a5a6"/>
      <rect id="Rectangle_1138" data-name="Rectangle 1138" width="7.542" height="4.399" transform="translate(0 26.361)" fill="#95a5a6"/>
      <rect id="Rectangle_1139" data-name="Rectangle 1139" width="7.542" height="4.399" transform="translate(0 33.274)" fill="#95a5a6"/>
      <rect id="Rectangle_1140" data-name="Rectangle 1140" width="7.542" height="5.028" transform="translate(0 40.188)" fill="#95a5a6"/>
      <rect id="Rectangle_1141" data-name="Rectangle 1141" width="28.91" height="2.514" transform="translate(0 16.306)" fill="#95a5a6"/>
      <path id="Path_4538" data-name="Path 4538" d="M29.246,1043.645,15,1029.4v9.5a4.755,4.755,0,0,0,4.749,4.748Z" transform="translate(6.578 -1029.4)" fill="#95a5a6"/>
    </g>
  </g>
</svg>
