<svg xmlns="http://www.w3.org/2000/svg" width="91.995" height="85.904" viewBox="0 0 91.995 85.904">
  <g id="_1994332461536922626" data-name="1994332461536922626" transform="translate(0 -2)">
    <g id="Group_91" data-name="Group 91" transform="translate(0 2)">
      <path id="Path_1766" data-name="Path 1766" d="M74.662,67.594,60.017,60.272a5.587,5.587,0,0,1-3.088-5V49.529a21.9,21.9,0,0,0,1.386-1.782,33.675,33.675,0,0,0,4.552-9.175A4.6,4.6,0,0,0,66.128,34.2V28.064a4.574,4.574,0,0,0-1.533-3.4V15.8S66.415,2,47.73,2,30.865,15.8,30.865,15.8v8.866a4.574,4.574,0,0,0-1.533,3.4V34.2a4.6,4.6,0,0,0,2.12,3.859A30.41,30.41,0,0,0,37,49.529v5.6a5.583,5.583,0,0,1-2.912,4.9L20.409,67.5A12.3,12.3,0,0,0,14,78.293v4.966H81.46V78.593A12.3,12.3,0,0,0,74.662,67.594Z" transform="translate(7.465 -2)" fill="#8697cb"/>
      <path id="Path_1767" data-name="Path 1767" d="M27.873,63.765l9.116-4.972c-.052-.051-.008-.066.1-.055L41.551,56.3a5.586,5.586,0,0,0,2.912-4.9V45.8A29.179,29.179,0,0,1,41.255,40.7h0s0,0,0,0c-.207-.411-.411-.845-.612-1.294-.028-.063-.055-.123-.083-.186-.2-.465-.4-.944-.592-1.447-.012-.032-.023-.067-.035-.1-.166-.445-.32-.9-.469-1.374-.04-.129-.08-.256-.118-.385-.155-.518-.3-1.046-.426-1.591A4.587,4.587,0,0,1,36.8,30.465V24.332a4.574,4.574,0,0,1,1.533-3.4V12.273C36.163,10.593,32.806,9,27.6,9,12.935,9,12.265,21.265,12.265,21.265v7.658a4.156,4.156,0,0,0-1.533,2.935v5.3a3.974,3.974,0,0,0,1.831,3.333A21.988,21.988,0,0,0,18.329,50.4v4.84a4.823,4.823,0,0,1-2.514,4.235L5.535,65.915A10.621,10.621,0,0,0,0,75.238v4.288H21.465V74.56A12.3,12.3,0,0,1,27.873,63.765Z" transform="translate(0 1.732)" fill="#63ab3b"/>
    </g>
    <g id="Group_92" data-name="Group 92" transform="translate(55.194 50.679)">
      <circle id="Ellipse_99" data-name="Ellipse 99" cx="18.5" cy="18.5" r="18.5" transform="translate(-0.199 0.225)" fill="#63ab3b"/>
      <path id="Path_1768" data-name="Path 1768" d="M61.274,40.275a1.531,1.531,0,0,0-2.134.383L50.56,52.985l-6.055-4.971a1.533,1.533,0,0,0-1.944,2.37L49.9,56.408a1.537,1.537,0,0,0,.972.348,1.628,1.628,0,0,0,.21-.014A1.541,1.541,0,0,0,52.13,56.1l9.527-13.69A1.536,1.536,0,0,0,61.274,40.275Z" transform="translate(-32.801 -30.418)" fill="#fff"/>
    </g>
  </g>
</svg>
