<svg xmlns="http://www.w3.org/2000/svg" width="56.016" height="56.016" viewBox="0 0 56.016 56.016">
  <g id="_2029776511641540195" data-name="2029776511641540195" transform="translate(-1 -1)">
    <rect id="Rectangle_870" data-name="Rectangle 870" width="18" height="14" transform="translate(20.008 27.008)" fill="#01458e"/>
    <path id="Path_3162" data-name="Path 3162" d="M22,29V40.745H34.649a2.71,2.71,0,0,0,2.71-2.71V29Z" transform="translate(-2.027 -2.702)" fill="#1f65b1"/>
    <path id="Path_3163" data-name="Path 3163" d="M31.228,38.228H26.71A2.71,2.71,0,0,1,24,35.517V33.71A2.71,2.71,0,0,1,26.71,31h4.517a2.71,2.71,0,0,1,2.71,2.71v1.807A2.71,2.71,0,0,1,31.228,38.228Z" transform="translate(-2.22 -2.895)" fill="#01458e"/>
    <g id="Group_165" data-name="Group 165" transform="translate(1 1)">
      <path id="Path_3164" data-name="Path 3164" d="M53.861,16.524l-1.565.9A26.2,26.2,0,0,1,9.8,47.673h3.526V45.866H7.9a.9.9,0,0,0-.9.9V52.19H8.807V49.273a27.75,27.75,0,0,0,20.78,9.242A28.016,28.016,0,0,0,53.861,16.524Z" transform="translate(-1.579 -2.498)" fill="#63ab3b"/>
      <path id="Path_3165" data-name="Path 3165" d="M29.008,2.807A25.967,25.967,0,0,1,48.8,11.842H45.271v1.807h5.421a.9.9,0,0,0,.9-.9V7.324H49.788v2.917A27.75,27.75,0,0,0,29.008,1,28.017,28.017,0,0,0,4.734,42.991l1.565-.9A26.21,26.21,0,0,1,29.008,2.807Z" transform="translate(-1 -1)" fill="#63ab3b"/>
      <path id="Path_3166" data-name="Path 3166" d="M47.764,18c.372.423.732.868,1.067,1.326l1.456-1.069c-.367-.5-.76-.989-1.167-1.452Z" transform="translate(-5.513 -2.525)" fill="#63ab3b"/>
      <path id="Path_3167" data-name="Path 3167" d="M49.99,21.06c.293.485.566.988.812,1.493l1.625-.791c-.27-.556-.57-1.107-.891-1.637Z" transform="translate(-5.728 -2.846)" fill="#63ab3b"/>
      <path id="Path_3168" data-name="Path 3168" d="M51.637,24.474c.2.529.379,1.072.532,1.616l1.74-.487c-.166-.6-.362-1.191-.583-1.77Z" transform="translate(-5.887 -3.204)" fill="#63ab3b"/>
      <path id="Path_3169" data-name="Path 3169" d="M54.683,29.648c-.057-.615-.143-1.236-.256-1.846l-1.777.328c.1.557.182,1.124.233,1.685Z" transform="translate(-5.985 -3.587)" fill="#63ab3b"/>
      <path id="Path_3170" data-name="Path 3170" d="M51.485,43.693l-1.55-.928c-.289.483-.605.96-.939,1.418l1.461,1.064C50.822,44.745,51.168,44.222,51.485,43.693Z" transform="translate(-5.632 -5.031)" fill="#63ab3b"/>
      <path id="Path_3171" data-name="Path 3171" d="M53.289,40.009,51.6,39.374c-.2.528-.424,1.054-.669,1.565l1.628.783C52.825,41.164,53.072,40.587,53.289,40.009Z" transform="translate(-5.819 -4.703)" fill="#63ab3b"/>
      <path id="Path_3172" data-name="Path 3172" d="M49.057,47,47.7,45.811c-.369.422-.764.837-1.176,1.231l1.25,1.3C48.219,47.915,48.652,47.462,49.057,47Z" transform="translate(-5.393 -5.325)" fill="#63ab3b"/>
      <path id="Path_3173" data-name="Path 3173" d="M54.4,36.069l-1.779-.32c-.1.555-.226,1.113-.377,1.659l1.743.478C54.156,37.289,54.3,36.677,54.4,36.069Z" transform="translate(-5.946 -4.354)" fill="#63ab3b"/>
      <path id="Path_3174" data-name="Path 3174" d="M54.8,31.979l-.564-.043-1.243.058c0,.567-.025,1.14-.075,1.7l1.8.159C54.771,33.241,54.8,32.615,54.8,31.979Z" transform="translate(-6.011 -3.986)" fill="#63ab3b"/>
      <path id="Path_3175" data-name="Path 3175" d="M47.564,15.187c-.45-.426-.923-.838-1.408-1.222l-1.122,1.416c.442.351.875.726,1.286,1.116Z" transform="translate(-5.25 -2.251)" fill="#63ab3b"/>
      <path id="Path_3176" data-name="Path 3176" d="M33.047,54.767c.617-.028,1.24-.085,1.855-.167l-.241-1.791c-.562.076-1.132.127-1.7.153Z" transform="translate(-4.085 -6)" fill="#63ab3b"/>
      <path id="Path_3177" data-name="Path 3177" d="M36.821,9.519c-.6-.135-1.22-.244-1.835-.324l-.235,1.792c.563.073,1.126.173,1.675.3Z" transform="translate(-4.257 -1.791)" fill="#63ab3b"/>
      <path id="Path_3178" data-name="Path 3178" d="M38.892,53.69l-.558-1.718c-.539.175-1.091.328-1.64.454l.4,1.761C37.7,54.049,38.3,53.882,38.892,53.69Z" transform="translate(-4.445 -5.919)" fill="#63ab3b"/>
      <path id="Path_3179" data-name="Path 3179" d="M44.342,12.656c-.519-.341-1.058-.66-1.6-.952L41.888,13.3c.5.266.989.558,1.464.869Z" transform="translate(-4.946 -2.033)" fill="#63ab3b"/>
      <path id="Path_3180" data-name="Path 3180" d="M40.723,10.745c-.569-.241-1.157-.46-1.748-.65l-.552,1.721c.539.173,1.076.373,1.6.593Z" transform="translate(-4.612 -1.878)" fill="#63ab3b"/>
      <path id="Path_3181" data-name="Path 3181" d="M42.66,52.08,41.8,50.49c-.494.267-1.01.516-1.532.74l.714,1.661C41.554,52.645,42.118,52.372,42.66,52.08Z" transform="translate(-4.79 -5.776)" fill="#63ab3b"/>
      <path id="Path_3182" data-name="Path 3182" d="M46.084,49.825l-1.128-1.411c-.442.353-.9.69-1.375,1l1,1.507C45.092,50.581,45.6,50.211,46.084,49.825Z" transform="translate(-5.109 -5.576)" fill="#63ab3b"/>
      <path id="Path_3183" data-name="Path 3183" d="M20.871,11.773c-.545.3-1.081.619-1.6.961l1,1.5c.47-.313.96-.608,1.457-.878Z" transform="translate(-2.764 -2.04)" fill="#63ab3b"/>
      <path id="Path_3184" data-name="Path 3184" d="M23.516,51.247c-.525-.223-1.04-.472-1.531-.737l-.859,1.59c.541.292,1.107.565,1.682.81Z" transform="translate(-2.942 -5.778)" fill="#63ab3b"/>
      <path id="Path_3185" data-name="Path 3185" d="M24.64,10.141c-.587.192-1.174.415-1.742.66l.716,1.66c.519-.224,1.054-.426,1.59-.6Z" transform="translate(-3.113 -1.882)" fill="#63ab3b"/>
      <path id="Path_3186" data-name="Path 3186" d="M20.188,49.438c-.47-.31-.933-.646-1.377-1l-1.125,1.413c.486.388.994.755,1.509,1.094Z" transform="translate(-2.61 -5.578)" fill="#63ab3b"/>
      <path id="Path_3187" data-name="Path 3187" d="M17.462,14.056c-.484.389-.955.8-1.4,1.23l1.252,1.3c.407-.39.837-.769,1.279-1.125Z" transform="translate(-2.454 -2.26)" fill="#63ab3b"/>
      <path id="Path_3188" data-name="Path 3188" d="M30.873,52.964c-.569-.024-1.139-.074-1.693-.149l-.241,1.791c.608.082,1.233.136,1.858.164Z" transform="translate(-3.696 -6.001)" fill="#63ab3b"/>
      <path id="Path_3189" data-name="Path 3189" d="M27.115,52.435c-.555-.126-1.106-.276-1.639-.449L24.919,53.7c.585.19,1.19.356,1.8.493Z" transform="translate(-3.308 -5.921)" fill="#63ab3b"/>
      <path id="Path_3190" data-name="Path 3190" d="M11.249,21.892l1.63.781c.243-.508.513-1.012.8-1.5l-1.552-.924C11.812,20.784,11.516,21.337,11.249,21.892Z" transform="translate(-1.989 -2.858)" fill="#63ab3b"/>
      <path id="Path_3191" data-name="Path 3191" d="M28.647,9.215c-.613.084-1.231.2-1.834.336l.407,1.761c.549-.127,1.112-.23,1.672-.307Z" transform="translate(-3.491 -1.793)" fill="#63ab3b"/>
      <path id="Path_3192" data-name="Path 3192" d="M32.759,9.018c-.616-.025-1.245-.023-1.864.005l.086,1.805c.565-.028,1.139-.031,1.7-.005Z" transform="translate(-3.885 -1.772)" fill="#63ab3b"/>
      <path id="Path_3193" data-name="Path 3193" d="M9.087,29.792l1.8.155c.049-.564.124-1.13.222-1.686L9.33,27.944C9.222,28.553,9.14,29.175,9.087,29.792Z" transform="translate(-1.78 -3.6)" fill="#63ab3b"/>
      <path id="Path_3194" data-name="Path 3194" d="M9.809,25.743l1.744.474c.148-.544.323-1.088.521-1.619l-1.693-.631C10.164,24.55,9.972,25.147,9.809,25.743Z" transform="translate(-1.85 -3.217)" fill="#63ab3b"/>
      <path id="Path_3195" data-name="Path 3195" d="M9.086,33.909l1.8-.164c-.051-.56-.078-1.133-.079-1.7L9,32.049C9,32.669,9.031,33.3,9.086,33.909Z" transform="translate(-1.772 -3.996)" fill="#63ab3b"/>
      <path id="Path_3196" data-name="Path 3196" d="M15.88,18.1l-1.362-1.186c-.407.466-.8.958-1.16,1.459l1.464,1.06C15.153,18.971,15.51,18.523,15.88,18.1Z" transform="translate(-2.193 -2.536)" fill="#63ab3b"/>
      <path id="Path_3197" data-name="Path 3197" d="M12.839,40.979c-.247-.509-.473-1.035-.672-1.563l-1.69.639c.219.578.466,1.154.736,1.712Z" transform="translate(-1.915 -4.708)" fill="#63ab3b"/>
      <path id="Path_3198" data-name="Path 3198" d="M11.532,37.45c-.151-.545-.279-1.1-.379-1.658l-1.778.323c.111.61.251,1.222.417,1.819Z" transform="translate(-1.808 -4.358)" fill="#63ab3b"/>
      <path id="Path_3199" data-name="Path 3199" d="M14.763,44.22c-.332-.454-.649-.931-.941-1.418l-1.549.931c.32.532.667,1.054,1.031,1.552Z" transform="translate(-2.088 -5.034)" fill="#63ab3b"/>
      <path id="Path_3200" data-name="Path 3200" d="M17.24,47.07c-.408-.389-.805-.8-1.179-1.229L14.7,47.034c.41.466.844.919,1.289,1.343Z" transform="translate(-2.322 -5.328)" fill="#63ab3b"/>
    </g>
    <path id="Path_3201" data-name="Path 3201" d="M31.228,17A7.228,7.228,0,0,0,24,24.228v3.614h3.614V24.228a3.614,3.614,0,0,1,7.228,0v3.614h3.614V24.228A7.228,7.228,0,0,0,31.228,17Z" transform="translate(-2.22 -1.544)" fill="#686868"/>
    <g id="Group_166" data-name="Group 166" transform="translate(21.318 29.008)">
      <rect id="Rectangle_871" data-name="Rectangle 871" width="3" height="2" transform="translate(-0.31)" fill="#fff"/>
    </g>
    <g id="Group_167" data-name="Group 167" transform="translate(21.318 36.697)">
      <rect id="Rectangle_872" data-name="Rectangle 872" width="3" height="1" transform="translate(-0.31 0.311)" fill="#fff"/>
    </g>
    <g id="Group_168" data-name="Group 168" transform="translate(34.5 29.008)">
      <rect id="Rectangle_873" data-name="Rectangle 873" width="3" height="2" transform="translate(-0.492)" fill="#fff"/>
    </g>
    <g id="Group_169" data-name="Group 169" transform="translate(34.5 36.697)">
      <rect id="Rectangle_874" data-name="Rectangle 874" width="3" height="1" transform="translate(-0.492 0.311)" fill="#fff"/>
    </g>
    <path id="Path_3202" data-name="Path 3202" d="M34.421,35.71A2.71,2.71,0,1,0,29.9,37.717v.7a1.806,1.806,0,0,0,1.807,1.807h0a1.806,1.806,0,0,0,1.807-1.807v-.7A2.688,2.688,0,0,0,34.421,35.71Z" transform="translate(-2.702 -3.088)" fill="#fff"/>
  </g>
</svg>
