<svg xmlns="http://www.w3.org/2000/svg" width="56.05" height="56.056" viewBox="0 0 56.05 56.056">
  <g id="Group_170" data-name="Group 170" transform="translate(-405.551 -1378.082)">
    <g id="_3129541191579156629" data-name="3129541191579156629" transform="translate(405.551 1378.082)">
      <path id="Path_3247" data-name="Path 3247" d="M433.863,187.054l2.8-2.8a2.8,2.8,0,0,0-3.963-3.963l-2.8,2.8Z" transform="translate(-382.833 -159.848)" fill="#63ab3b"/>
      <g id="Group_171" data-name="Group 171">
        <path id="Path_3248" data-name="Path 3248" d="M18.406,66.053A5.6,5.6,0,0,1,12.8,60.448V18.406A5.6,5.6,0,0,1,18.406,12.8H38.857l15.985,16V60.448a5.6,5.6,0,0,1-5.606,5.606Z" transform="translate(-11.399 -11.399)" fill="#fff"/>
        <path id="Path_3249" data-name="Path 3249" d="M261.606,32.935A5.6,5.6,0,0,1,256,27.33V18.1l14.791,14.835Z" transform="translate(-227.972 -16.118)" fill="#63ab3b"/>
        <path id="Path_3250" data-name="Path 3250" d="M283.981,220.5l-16.16,16.16a2.8,2.8,0,0,0,3.963,3.963h0l16.16-16.16Z" transform="translate(-237.767 -196.359)" fill="#63ab3b"/>
        <path id="Path_3251" data-name="Path 3251" d="M52.837,27.415l1.982-1.982a4.2,4.2,0,0,0-5.945-5.945l-4.04,4.04V16.817L28.039,0H7.007A7.013,7.013,0,0,0,0,7.007V49.049a7.013,7.013,0,0,0,7.007,7.007H37.838a7.013,7.013,0,0,0,7.007-7.007V35.418L50.866,29.4l.985.985L49.87,32.364a1.4,1.4,0,1,0,1.949,2.015l.033-.033,2.978-2.978a1.4,1.4,0,0,0,0-1.982ZM29.429,5.376l10.018,10.04H33.634a4.205,4.205,0,0,1-4.2-4.2ZM42.042,49.049a4.205,4.205,0,0,1-4.2,4.2H7.007a4.205,4.205,0,0,1-4.2-4.2V7.007a4.205,4.205,0,0,1,4.2-4.2h19.62v8.408a7.013,7.013,0,0,0,7.007,7.007h8.408v8.113L29.057,39.3a4.172,4.172,0,0,0-.81,4.774l-.12.12c-1.511-1.62-2.989-2.332-4.478-2.146a4.809,4.809,0,0,0-2.967,1.839c-.515.558-.854.909-1.237.963-.164-.011-.6-.5-.865-.81a4.758,4.758,0,0,0-3.011-1.993c-1.828-.219-3.613.876-5.485,3.35a1.4,1.4,0,0,0,2.212,1.73l.033-.033c1.15-1.522,2.212-2.354,2.923-2.255.35.044.712.427,1.2,1.018a3.984,3.984,0,0,0,2.956,1.806c.12,0,.252-.011.372-.022a4.809,4.809,0,0,0,2.967-1.839c.526-.569.854-.909,1.237-.963.7-.1,1.763.744,2.923,2.255a1.4,1.4,0,0,0,1.106.547h.131a1.37,1.37,0,0,0,.92-.405l1.171-1.171a4.134,4.134,0,0,0,4.774-.81l7.051-7.04V49.049ZM33.02,43.268a1.4,1.4,0,0,1-1.982,0h0a1.4,1.4,0,0,1,0-1.982L46.892,25.433l1.982,1.982ZM50.855,25.433l-.361-.361-1.62-1.62,1.982-1.982a1.646,1.646,0,0,1,.361-.252,1.224,1.224,0,0,1,.383-.131,1.79,1.79,0,0,1,.241-.022.994.994,0,0,1,.252.033,1.644,1.644,0,0,1,.46.164,1.4,1.4,0,0,1,.482,1.927,1.642,1.642,0,0,1-.208.274ZM9.81,21.021a1.4,1.4,0,0,1,1.4-1.4h8.452a1.4,1.4,0,0,1,0,2.8H11.211a1.4,1.4,0,0,1-1.4-1.4Zm0,5.606a1.4,1.4,0,0,1,1.4-1.4H28.072a1.4,1.4,0,1,1,0,2.8H11.211A1.4,1.4,0,0,1,9.81,26.627Z" fill="#01458e"/>
        <rect id="Rectangle_875" data-name="Rectangle 875" width="13" height="4" rx="2" transform="translate(9.066 19.535)" fill="#63ab3b"/>
        <rect id="Rectangle_876" data-name="Rectangle 876" width="21" height="4" rx="2" transform="translate(9.066 24.535)" fill="#63ab3b"/>
      </g>
    </g>
  </g>
</svg>
