<svg id="_3443544616310162304008" data-name="3443544616310162304008" xmlns="http://www.w3.org/2000/svg" width="31.534" height="28.781" viewBox="0 0 31.534 28.781">
  <path id="Path_4702" data-name="Path 4702" d="M13.745,0a.609.609,0,0,0-.2.038A.6.6,0,0,0,13.421.1a.593.593,0,0,0-.1.088.585.585,0,0,0-.044.052H1.073A.6.6,0,0,0,.939.117.605.605,0,0,0,.774.039.609.609,0,0,0,.326.078.6.6,0,0,0,.178.183.59.59,0,0,0,.069.328.579.579,0,0,0,0,.588V2.4a.579.579,0,0,0,.046.225.588.588,0,0,0,.13.191.6.6,0,0,0,.195.128.609.609,0,0,0,.23.045H13.758a.608.608,0,0,0,.229-.045.6.6,0,0,0,.1-.054.6.6,0,0,0,.091-.074.588.588,0,0,0,.074-.09.578.578,0,0,0,.1-.327L14.347.588A.58.58,0,0,0,14.3.363a.588.588,0,0,0-.055-.1.6.6,0,0,0-.075-.09.6.6,0,0,0-.195-.127A.61.61,0,0,0,13.745,0Z" transform="translate(16.225 25.792)" fill="#07485e"/>
  <path id="Path_4703" data-name="Path 4703" d="M9.121,1.409,7.834.158A.594.594,0,0,0,7.745.091.6.6,0,0,0,7.538.01a.61.61,0,0,0-.332.031.6.6,0,0,0-.1.05.6.6,0,0,0-.089.067L.672,5.658A1.968,1.968,0,0,0,.4,5.95a1.942,1.942,0,0,0-.207.339,1.914,1.914,0,0,0-.169.568A1.909,1.909,0,0,0,.23,8.008a1.935,1.935,0,0,0,.221.329,1.954,1.954,0,0,0,.136.147q.069.069.143.13t.155.115q.081.054.166.1t.176.084q.09.038.184.066t.189.048q.1.02.193.03t.2.011h.084q.1-.005.2-.02t.195-.039q.1-.024.19-.058t.184-.076q.09-.043.175-.093t.165-.11q.079-.059.153-.125t.14-.139l5.672-6.19a.584.584,0,0,0,.069-.09.574.574,0,0,0,.079-.208.57.57,0,0,0-.042-.329.578.578,0,0,0-.055-.1A.585.585,0,0,0,9.121,1.409Z" transform="translate(3.714 6.219)" fill="#07485e"/>
  <path id="Path_4705" data-name="Path 4705" d="M0,.585A.573.573,0,0,0,.047.809.581.581,0,0,0,.176,1a.592.592,0,0,0,.091.073.6.6,0,0,0,.1.054A.608.608,0,0,0,.6,1.17H17.153a.609.609,0,0,0,.229-.045.6.6,0,0,0,.1-.054A.6.6,0,0,0,17.576,1,.587.587,0,0,0,17.65.91.578.578,0,0,0,17.739.7.574.574,0,0,0,17.7.361a.582.582,0,0,0-.055-.1.588.588,0,0,0-.075-.089A.6.6,0,0,0,17.484.1a.606.606,0,0,0-.215-.087A.61.61,0,0,0,17.152,0H.6A.608.608,0,0,0,.27.1.6.6,0,0,0,.179.171.591.591,0,0,0,.1.26a.584.584,0,0,0-.055.1A.575.575,0,0,0,0,.585Z" transform="translate(0.042 16.381)" fill="#01458e"/>
  <path id="Path_4706" data-name="Path 4706" d="M17.169,0H.6A.609.609,0,0,0,.27.1.6.6,0,0,0,.179.172.592.592,0,0,0,.1.261a.585.585,0,0,0-.055.1A.576.576,0,0,0,.1.911.585.585,0,0,0,.176,1a.592.592,0,0,0,.091.073.6.6,0,0,0,.214.087A.61.61,0,0,0,.6,1.173H17.17a.609.609,0,0,0,.229-.045.6.6,0,0,0,.1-.054A.6.6,0,0,0,17.593,1a.588.588,0,0,0,.075-.089A.58.58,0,0,0,17.756.7a.576.576,0,0,0-.034-.339.583.583,0,0,0-.055-.1.589.589,0,0,0-.075-.089A.6.6,0,0,0,17.5.1a.606.606,0,0,0-.215-.087A.61.61,0,0,0,17.169,0Z" transform="translate(0.028 20.105)" fill="#01458e"/>
  <path id="Path_4707" data-name="Path 4707" d="M13.617,0H.6A.609.609,0,0,0,.271.1.6.6,0,0,0,.179.172.593.593,0,0,0,.1.261a.587.587,0,0,0-.055.1A.579.579,0,0,0,.176,1a.593.593,0,0,0,.091.073.6.6,0,0,0,.215.087A.61.61,0,0,0,.6,1.175H13.617a.609.609,0,0,0,.229-.045.6.6,0,0,0,.1-.054A.6.6,0,0,0,14.04,1a.587.587,0,0,0,.13-.191.579.579,0,0,0-.055-.551A.59.59,0,0,0,14.04.172.6.6,0,0,0,13.949.1a.606.606,0,0,0-.215-.087A.61.61,0,0,0,13.617,0Z" transform="translate(0.014 23.818)" fill="#01458e"/>
  <path id="Path_4708" data-name="Path 4708" d="M13.63,0H.6A.609.609,0,0,0,.271.1.6.6,0,0,0,.179.172.594.594,0,0,0,.1.262a.585.585,0,0,0-.09.211A.579.579,0,0,0,.1.915.587.587,0,0,0,.176,1a.594.594,0,0,0,.091.074.6.6,0,0,0,.215.088A.609.609,0,0,0,.6,1.177H13.63a.609.609,0,0,0,.229-.045A.6.6,0,0,0,14.054,1a.588.588,0,0,0,.13-.191.58.58,0,0,0-.055-.552.591.591,0,0,0-.075-.09A.6.6,0,0,0,13.963.1a.606.606,0,0,0-.215-.087A.61.61,0,0,0,13.63,0Z" transform="translate(0 27.527)" fill="#01458e"/>
  <path id="Path_4709" data-name="Path 4709" d="M9.389,5.072,4.354.169A.592.592,0,0,0,4.263.1a.6.6,0,0,0-.1-.053A.607.607,0,0,0,3.6.1a.593.593,0,0,0-.091.072L.182,3.409a.615.615,0,0,0-.073.09.607.607,0,0,0-.054.1.6.6,0,0,0-.047.222.568.568,0,0,0,.024.169A.572.572,0,0,0,.077,4.1q.014.025.03.049t.035.046q.018.022.039.043L5.216,9.149a.594.594,0,0,0,.09.072.6.6,0,0,0,.212.086.61.61,0,0,0,.116.012l.059,0,.058-.008.057-.014q.028-.008.055-.019t.053-.024q.026-.013.05-.029t.047-.034q.023-.018.044-.038L9.389,5.91a.583.583,0,0,0,.077-.089.576.576,0,0,0,.078-.157.57.57,0,0,0-.021-.4.578.578,0,0,0-.058-.1.586.586,0,0,0-.077-.089Z" transform="translate(8.651 1.135)" fill="#63ab3b"/>
  <path id="Path_4710" data-name="Path 4710" d="M6.1.655l-.1-.093A2.057,2.057,0,0,0,5.7.322,2.1,2.1,0,0,0,4.973.037,2.115,2.115,0,0,0,3.807.146a2.088,2.088,0,0,0-.349.176,2.06,2.06,0,0,0-.311.24L.6,3.011a2,2,0,0,0-.254.3,1.97,1.97,0,0,0-.187.341A1.941,1.941,0,0,0,0,4.411a1.912,1.912,0,0,0,.153.756,1.935,1.935,0,0,0,.188.341q.055.08.119.155T.6,5.807L.7,5.9a.592.592,0,0,0,.089.073.6.6,0,0,0,.1.054.608.608,0,0,0,.226.047l.059,0,.058-.009.057-.014q.028-.009.055-.02T1.4,6q.026-.014.05-.03t.047-.035q.023-.018.043-.039L6.11,1.444a.582.582,0,0,0,.067-.087.574.574,0,0,0,.049-.1.567.567,0,0,0,0-.424.575.575,0,0,0-.051-.1A.582.582,0,0,0,6.1.655Z" transform="translate(7.596 0)" fill="#07485e"/>
  <path id="Path_4711" data-name="Path 4711" d="M5.691.262,5.59.169A.6.6,0,0,0,5.5.1.605.605,0,0,0,5.286.011a.609.609,0,0,0-.344.033A.6.6,0,0,0,4.84.1a.593.593,0,0,0-.091.072L.177,4.635q-.021.02-.04.043T.1,4.723q-.016.024-.03.049a.574.574,0,0,0-.045.106.572.572,0,0,0,.045.446q.014.025.03.049t.035.046q.019.022.04.043l.1.093a2.032,2.032,0,0,0,.31.246,2.068,2.068,0,0,0,.728.293,2.084,2.084,0,0,0,1.173-.112A2.057,2.057,0,0,0,2.833,5.8a2.031,2.031,0,0,0,.31-.246L5.694,3.062a2,2,0,0,0,.251-.3,1.963,1.963,0,0,0,.3-.71A1.948,1.948,0,0,0,6.128.9,1.977,1.977,0,0,0,5.943.564a2,2,0,0,0-.252-.3Z" transform="translate(13.14 5.358)" fill="#07485e"/>
  <path id="Path_4712" data-name="Path 4712" d="M13.778,10.908H11.587q-.074,0-.148-.007t-.146-.021q-.073-.014-.144-.035t-.14-.049q-.069-.028-.134-.062t-.127-.075q-.062-.04-.119-.086t-.11-.1q-.053-.051-.1-.108t-.088-.116q-.041-.06-.076-.124T10.19,10q-.029-.067-.05-.137T10.1,9.718a1.451,1.451,0,0,1-.03-.288,2.911,2.911,0,0,1,.414-1.444,2.951,2.951,0,0,1,.365-.487,2.977,2.977,0,0,1,.219-.214,4.234,4.234,0,0,0,.6-.687,4.167,4.167,0,0,0,.586-1.224,4.131,4.131,0,0,0,.16-1.342,4.331,4.331,0,0,0-.412-1.505,4.389,4.389,0,0,0-.4-.673,4.438,4.438,0,0,0-.52-.6,4.49,4.49,0,0,0-.62-.5A4.555,4.555,0,0,0,9.017.123,4.59,4.59,0,0,0,8.225,0Q8.009,0,7.794.01T7.367.06q-.212.035-.42.091t-.41.132q-.2.076-.394.172T5.769.664q-.181.113-.35.244a4.254,4.254,0,0,0-.618.587,4.2,4.2,0,0,0-.485.694,4.145,4.145,0,0,0-.159,3.72,4.225,4.225,0,0,0,.441.758,4.277,4.277,0,0,0,.59.654,2.8,2.8,0,0,1,.4.422,2.764,2.764,0,0,1,.3.494A2.726,2.726,0,0,1,6.16,9.354V9.43a1.447,1.447,0,0,1-.007.145q-.007.072-.021.143T6.1,9.859q-.021.069-.05.137t-.063.131q-.035.064-.076.124t-.088.116q-.047.056-.1.108t-.11.1q-.057.046-.119.086t-.127.075q-.065.034-.134.062t-.139.049q-.071.021-.143.035T4.8,10.9q-.074.007-.148.007H2.481a2.52,2.52,0,0,0-.948.185,2.494,2.494,0,0,0-.426.223,2.467,2.467,0,0,0-.377.3,2.439,2.439,0,0,0-.309.37,2.405,2.405,0,0,0-.368.872A2.387,2.387,0,0,0,0,13.339v1.546a.579.579,0,0,0,.046.225.587.587,0,0,0,.13.191.6.6,0,0,0,.091.073.606.606,0,0,0,.215.087.61.61,0,0,0,.118.011H15.671a.608.608,0,0,0,.229-.045.6.6,0,0,0,.1-.054.594.594,0,0,0,.091-.073.584.584,0,0,0,.129-.191.577.577,0,0,0,.045-.225l-.007-1.546a2.4,2.4,0,0,0-.192-.929,2.43,2.43,0,0,0-.229-.418,2.456,2.456,0,0,0-.31-.37,2.5,2.5,0,0,0-.8-.527,2.526,2.526,0,0,0-.947-.187Z" transform="translate(15.263 11.495)" fill="#63ab3b"/>
</svg>
