<svg xmlns="http://www.w3.org/2000/svg" width="64.823" height="68.238" viewBox="0 0 64.823 68.238">
  <g id="Group_1348" data-name="Group 1348" transform="translate(-376.935 -2453)">
    <g id="_2401712961579156623" data-name="2401712961579156623" transform="translate(364.135 2453)">
      <path id="Path_4589" data-name="Path 4589" d="M32.424,77.626A6.82,6.82,0,0,1,25.6,70.8V19.624A6.82,6.82,0,0,1,32.424,12.8h24.9L76.779,32.272V70.8a6.82,6.82,0,0,1-6.824,6.824Z" transform="translate(-11.094 -11.094)" fill="#d9e4e8"/>
      <path id="Path_4590" data-name="Path 4590" d="M275.624,36.159a6.82,6.82,0,0,1-6.824-6.824V18.1l18.006,18.059Z" transform="translate(-221.881 -15.688)" fill="#63ab3b"/>
      <path id="Path_4591" data-name="Path 4591" d="M343.036,366.072a10.236,10.236,0,1,1,10.236-10.236A10.238,10.238,0,0,1,343.036,366.072Z" transform="translate(-277.351 -299.539)" fill="#63ab3b"/>
      <path id="Path_4594" data-name="Path 4594" d="M137.324,345.6H116.906a1.706,1.706,0,1,0,0,3.412h20.418a1.706,1.706,0,1,0,0-3.412Z" transform="translate(-88.752 -299.539)" fill="#141c28"/>
      <path id="Path_4595" data-name="Path 4595" d="M67.391,44.488V20.471L46.932,0H21.33A8.538,8.538,0,0,0,12.8,8.53V59.709a8.538,8.538,0,0,0,8.53,8.53H58.861a8.254,8.254,0,0,0,3.105-.6A11.936,11.936,0,0,0,69.4,44.955,12.967,12.967,0,0,0,67.391,44.488ZM60.82,18.766H53.743a5.119,5.119,0,0,1-5.118-5.118v-7.1ZM21.33,64.826a5.119,5.119,0,0,1-5.118-5.118V8.53A5.119,5.119,0,0,1,21.33,3.412H45.213V13.648a8.538,8.538,0,0,0,8.53,8.53H63.979V44.488a11.934,11.934,0,0,0-6.637,20.338Zm44.355,0a8.53,8.53,0,1,1,8.53-8.53,8.538,8.538,0,0,1-8.53,8.53Z" fill="#141c28"/>
      <path id="Path_4596" data-name="Path 4596" d="M377.689,384.472c-.027-.027-.053-.04-.08-.067s-.067-.053-.093-.08a1.743,1.743,0,0,0-.373-.227l-.013-.013h0a1.519,1.519,0,0,0-.44-.107l-.107-.013a1.629,1.629,0,0,0-.44.027l-.027.013a1.33,1.33,0,0,0-.387.133c-.04.013-.067.04-.107.053a1.4,1.4,0,0,0-.36.267l-3.385,3.412a1.706,1.706,0,0,0,2.412,2.412l.506-.506V392.5a1.706,1.706,0,0,0,3.412,0V389.79l.506.506a1.706,1.706,0,0,0,2.412-2.412Z" transform="translate(-310.805 -332.787)" fill="#141f38"/>
    </g>
    <text id="MSME_" data-name="MSME " transform="translate(383 2489)" font-size="13" font-family="Montserrat-Black, Montserrat" font-weight="800"><tspan x="0" y="0">MSME </tspan></text>
  </g>
</svg>
