<svg xmlns="http://www.w3.org/2000/svg" viewBox="0 0 1080 1080" style="enable-background:new 0 0 1080 1080" xml:space="preserve"><path d="M784.4 831.2H46.8C21 831.2 0 810.2 0 784.4V46.8C0 21 21 0 46.8 0h737.6c25.8 0 46.8 21 46.8 46.8v737.6c0 25.8-21 46.8-46.8 46.8z" style="fill:#01A54F"/><text transform="translate(163.727 566.67)" style="font-size:566.4846px;font-family:'ArialMT';fill:#fff">%</text><circle cx="837.3" cy="837.3" r="242.7" style="fill:#f8bf9d"/><path d="M727.8 692.3h206.6c1.2.1 1.8.7 1.8 1.8v19.7c0 1.2-.6 1.8-1.8 1.8h-77.7v1.8c11.1 6 19.7 18.2 25.8 36.7l.9 6.3h51.1c1.2.1 1.8.7 1.8 1.8v19.7c0 1.2-.6 1.8-1.8 1.8h-49.1c0 22-13.5 43.4-40.4 64.2-23.9 13.7-40.8 20.5-50.9 20.5 0 .6-.6.9-1.8.9L903.2 1013v1.8H861c-.4 0-43.3-55.6-128.6-166.8v-.9h13.3c47.2 0 75.5-17 84.9-50.9.6-4.1.9-7.3.9-9.8v-2.6H727.9c-1.2 0-1.8-.6-1.8-1.8v-20c.1-1.2.7-1.8 1.8-1.8h102.8c-3.5-13.3-10.9-24-22.3-32.3-15.7-8.3-30.1-12.4-43-12.4h-37.6c-1.2 0-1.8-.6-1.8-1.8V694c.2-1.1.8-1.7 1.8-1.7z" style="fill:#263572"/></svg>
