<svg xmlns="http://www.w3.org/2000/svg" width="75.939" height="72.85" viewBox="0 0 75.939 72.85">
  <g id="_18666151701637903385" data-name="18666151701637903385" transform="translate(-55.999 -56)">
    <path id="Path_298" data-name="Path 298" d="M157.6,419.686a1.453,1.453,0,1,0,1.254-2.623c-.611-.292-1.221-.607-1.814-.936a1.453,1.453,0,1,0-1.411,2.541C156.27,419.027,156.933,419.369,157.6,419.686Z" transform="translate(-80.909 -294.55)" fill="#0a1735"/>
    <path id="Path_299" data-name="Path 299" d="M194.947,435.053a1.454,1.454,0,0,0,.673-2.828c-.672-.16-1.346-.343-2.006-.545a1.453,1.453,0,1,0-.849,2.78C193.482,434.68,194.216,434.879,194.947,435.053Z" transform="translate(-111.057 -307.371)" fill="#0a1735"/>
    <path id="Path_300" data-name="Path 300" d="M237.87,442.486a1.453,1.453,0,0,0,0-2.907c-.821,0-1.651-.03-2.466-.09a1.453,1.453,0,1,0-.211,2.9C236.078,442.453,236.98,442.486,237.87,442.486Z" transform="translate(-145.536 -313.818)" fill="#0a1735"/>
    <path id="Path_301" data-name="Path 301" d="M285.538,331.422,279.82,335a9.9,9.9,0,0,0-4.678,8.44,1.453,1.453,0,0,0,1.453,1.453h12.561a1.453,1.453,0,1,0,0-2.907H278.2a7,7,0,0,1,3.162-4.521l5.718-3.574A7.515,7.515,0,0,0,283.1,320h-.438a7.523,7.523,0,0,0-7.515,7.515V329.3a1.453,1.453,0,1,0,2.907,0v-1.789a4.613,4.613,0,0,1,4.608-4.608h.438a4.608,4.608,0,0,1,2.442,8.516Z" transform="translate(-179.332 -216.039)" fill="#63ab3b"/>
    <path id="Path_302" data-name="Path 302" d="M389.73,320h-4.71a1.454,1.454,0,0,0-1.336.881l-4.711,10.991a1.453,1.453,0,0,0-.118.572v3.14a1.454,1.454,0,0,0,1.453,1.453h7.968v6.4a1.453,1.453,0,1,0,2.907,0v-6.4h1.687a1.453,1.453,0,1,0,0-2.907h-1.687V321.453A1.453,1.453,0,0,0,389.73,320Zm-1.453,14.131h-6.514v-1.389l4.215-9.836h2.3Z" transform="translate(-264.203 -216.039)" fill="#63ab3b"/>
    <path id="Path_303" data-name="Path 303" d="M184.426,142.213a1.453,1.453,0,0,0,2.055,2.055l8.72-8.72a4.36,4.36,0,1,0,3.332-8.045v-22.05a1.453,1.453,0,1,0-2.907,0V127.5a4.358,4.358,0,0,0-2.481,5.989h0Zm12.655-12.053a1.455,1.455,0,1,1-1.027.426A1.454,1.454,0,0,1,197.08,130.161Z" transform="translate(-104.747 -39.28)" fill="#63ab3b"/>
    <path id="Path_304" data-name="Path 304" d="M131.512,94.577a1.453,1.453,0,0,0-2.055,0l-.929.929c.091-1.054.14-2.112.14-3.171a36.357,36.357,0,1,0-58.69,28.644,1.453,1.453,0,1,0,1.79-2.29,33.428,33.428,0,1,1,53.994-26.354,33.867,33.867,0,0,1-.183,3.516L124.4,94.21a1.453,1.453,0,0,0-2.359,1.7l3.107,4.314a1.447,1.447,0,0,0,1.328.832h.016a1.454,1.454,0,0,0,1.028-.426l4-4a1.453,1.453,0,0,0,0-2.055Z" transform="translate(0)" fill="#0a1735"/>
    <path id="Path_305" data-name="Path 305" d="M306.009,118.089a30.54,30.54,0,0,0-24.268-26.86,1.453,1.453,0,1,0-.578,2.849,27.632,27.632,0,0,1,21.953,24.3,1.453,1.453,0,0,0,1.444,1.31q.073,0,.145-.007a1.453,1.453,0,0,0,1.3-1.59Z" transform="translate(-183.306 -28.805)" fill="#0a1735"/>
  </g>
</svg>
