<svg xmlns="http://www.w3.org/2000/svg" width="78.813" height="78.813" viewBox="0 0 78.813 78.813">
  <g id="_16228624251579069696" data-name="16228624251579069696" transform="translate(-2 -2)">
    <path id="Path_1730" data-name="Path 1730" d="M34.444,26.222a1.394,1.394,0,0,1-1.407,1.407H31.63v1.407a1.407,1.407,0,0,1-2.815,0V27.63H27.407a1.407,1.407,0,1,1,0-2.815h1.407V23.407a1.407,1.407,0,0,1,2.815,0v1.407h1.407A1.394,1.394,0,0,1,34.444,26.222Z" transform="translate(43.554 36.295)" fill="#31cfff"/>
    <path id="Path_1731" data-name="Path 1731" d="M17.074,29.037a1.394,1.394,0,0,1-1.407,1.407H11.444v4.222a1.407,1.407,0,0,1-2.815,0V30.444H4.407a1.407,1.407,0,1,1,0-2.815H8.63V23.407a1.407,1.407,0,0,1,2.815,0V27.63h4.222A1.394,1.394,0,0,1,17.074,29.037Z" transform="translate(1.815 36.295)" fill="#5fffba"/>
    <path id="Path_1732" data-name="Path 1732" d="M39.074,10.037a1.394,1.394,0,0,1-1.407,1.407H33.444v4.222a1.407,1.407,0,0,1-2.815,0V11.444H26.407a1.407,1.407,0,1,1,0-2.815H30.63V4.407a1.407,1.407,0,1,1,2.815,0V8.63h4.222A1.394,1.394,0,0,1,39.074,10.037Z" transform="translate(41.74 1.815)" fill="#5fffba"/>
    <path id="Path_1733" data-name="Path 1733" d="M12.444,8.222A1.394,1.394,0,0,1,11.037,9.63H9.63v1.407a1.407,1.407,0,1,1-2.815,0V9.63H5.407a1.407,1.407,0,1,1,0-2.815H6.815V5.407a1.407,1.407,0,1,1,2.815,0V6.815h1.407A1.394,1.394,0,0,1,12.444,8.222Z" transform="translate(3.63 3.63)" fill="#31cfff"/>
    <path id="Path_1734" data-name="Path 1734" d="M46.479,22.853a15.551,15.551,0,0,0-.31-2V20.8A21.075,21.075,0,0,0,36.093,6.724a10.32,10.32,0,0,0-1.236-.647,17.485,17.485,0,0,0-1.97-.873,19.811,19.811,0,0,0-2.871-.844c-.563-.141-1.126-.225-1.692-.31H28.3A21.111,21.111,0,0,0,10,24.964a20.9,20.9,0,0,0,2.815,10.555c1.83,3.181,5.376,8.472,8.444,12.948V31.8a4.617,4.617,0,0,1-1.407.253,4.222,4.222,0,1,1,4.222-4.222V51.76h2.815V27.835a4.211,4.211,0,0,1,8.247-1.21,4.211,4.211,0,0,1-1.21,8.247,3.9,3.9,0,0,1-1.407-.253V51.76h.535c2.139-3.068,4.926-7.15,7.29-10.752.281-.394.532-.788.76-1.182,1.07-1.633,2-3.124,2.674-4.307a20.9,20.9,0,0,0,2.815-10.555A17.377,17.377,0,0,0,46.479,22.853Z" transform="translate(14.518 3.72)" fill="#63ab3b"/>
    <g id="Group_79" data-name="Group 79" transform="translate(38.284 13.259)">
      <path id="Path_1735" data-name="Path 1735" d="M24.625,6H20.6a20.409,20.409,0,0,1,5.548,8.444h3.009A23.588,23.588,0,0,0,24.625,6Z" transform="translate(-4.53 -6)" fill="#2d2220"/>
      <path id="Path_1736" data-name="Path 1736" d="M23.444,22v2.815H15V22Z" transform="translate(-14.692 23.036)" fill="#bcbcbc"/>
      <rect id="Rectangle_589" data-name="Rectangle 589" width="8.743" height="3.123" transform="translate(0 50.63)" fill="#bcbcbc"/>
      <path id="Path_1737" data-name="Path 1737" d="M15,26h8.444v2.674c0,2-2.139,3.913-4.222,4.954C17.139,32.587,15,30.673,15,28.674Z" transform="translate(-14.692 30.295)" fill="#bcbcbc"/>
    </g>
    <path id="Path_1738" data-name="Path 1738" d="M33.444,25.222a1.394,1.394,0,0,1-1.407,1.407H30.63v1.407a1.407,1.407,0,1,1-2.815,0V26.63H26.407a1.407,1.407,0,1,1,0-2.815h1.407V22.407a1.407,1.407,0,1,1,2.815,0v1.407h1.407A1.394,1.394,0,0,1,33.444,25.222Z" transform="translate(41.74 34.481)" fill="#2d2220"/>
    <path id="Path_1739" data-name="Path 1739" d="M16.074,28.037a1.394,1.394,0,0,1-1.407,1.407H10.444v4.222a1.407,1.407,0,1,1-2.815,0V29.444H3.407a1.407,1.407,0,0,1,0-2.815H7.63V22.407a1.407,1.407,0,1,1,2.815,0V26.63h4.222A1.394,1.394,0,0,1,16.074,28.037Z" transform="translate(0 34.481)" fill="#2d2220"/>
    <path id="Path_1740" data-name="Path 1740" d="M38.074,9.037a1.394,1.394,0,0,1-1.407,1.407H32.444v4.222a1.407,1.407,0,0,1-2.815,0V10.444H25.407a1.407,1.407,0,1,1,0-2.815H29.63V3.407a1.407,1.407,0,0,1,2.815,0V7.63h4.222A1.394,1.394,0,0,1,38.074,9.037Z" transform="translate(39.925 0)" fill="#2d2220"/>
    <path id="Path_1741" data-name="Path 1741" d="M11.444,7.222A1.394,1.394,0,0,1,10.037,8.63H8.63v1.407a1.407,1.407,0,0,1-2.815,0V8.63H4.407a1.407,1.407,0,1,1,0-2.815H5.815V4.407a1.407,1.407,0,1,1,2.815,0V5.815h1.407A1.394,1.394,0,0,1,11.444,7.222Z" transform="translate(1.815 1.815)" fill="#2d2220"/>
    <path id="Path_1742" data-name="Path 1742" d="M51.67,38.8a23.85,23.85,0,0,0,3.181-11.935,24.113,24.113,0,0,0-.338-4.053h-2.9a20.3,20.3,0,0,1,.422,4.166,20.9,20.9,0,0,1-2.815,10.555c-2.308,4-7.347,11.372-10.724,16.241h-3.35V33.818a4.617,4.617,0,0,0,1.407.253,4.222,4.222,0,1,0-4.222-4.222V53.775H29.518V29.849A4.222,4.222,0,1,0,25.3,34.071a4.617,4.617,0,0,0,1.407-.253V53.775h-3.35c-3.378-4.87-8.416-12.244-10.724-16.241A20.9,20.9,0,0,1,9.815,26.978,21.118,21.118,0,0,1,30.926,5.867,20.662,20.662,0,0,1,41.481,8.738h5.038A23.924,23.924,0,0,0,10.181,38.8c2.364,4.053,7.15,11.315,10.893,16.86V59.4H19.666a1.407,1.407,0,1,0,0,2.815h1.407v2.815H19.666a1.407,1.407,0,0,0,0,2.815h1.407v2.674c0,4.363,6.446,8.585,9.852,8.585s9.852-4.222,9.852-8.585V67.849h1.407a1.407,1.407,0,0,0,0-2.815H40.777V62.219h1.407a1.407,1.407,0,1,0,0-2.815H40.777V55.661C44.521,50.115,49.306,42.853,51.67,38.8ZM36.555,28.414a1.406,1.406,0,0,1,1.379,1.407,1.38,1.38,0,1,1-2.758,0A1.406,1.406,0,0,1,36.555,28.414ZM25.3,31.257a1.406,1.406,0,0,1-1.379-1.407,1.38,1.38,0,1,1,2.758,0A1.406,1.406,0,0,1,25.3,31.257ZM37.962,70.523c0,2-2.139,3.913-4.222,4.954a6.778,6.778,0,0,1-2.815.816c-2.336,0-7.037-2.815-7.037-5.77V67.849H37.962Zm0-5.489H23.889V62.219H37.962Zm0-5.63H23.889V56.589H37.962Z" transform="translate(9.074 1.706)" fill="#2d2220"/>
  </g>
</svg>
