<svg xmlns="http://www.w3.org/2000/svg" width="71.016" height="71.016" viewBox="0 0 71.016 71.016">
  <g id="_6919646161600702520" data-name="6919646161600702520" transform="translate(-3 -3)">
    <path id="Path_367" data-name="Path 367" d="M29.133,51.6A30.61,30.61,0,0,0,35.561,37.41c0-1.6,1.555-6.036-.8-6.33-2.106.11-.943,4.4-1.616,5.926a28.162,28.162,0,0,1-13.787,19.75,1.224,1.224,0,0,0-.453,1.665C20.587,60.943,27.823,53.193,29.133,51.6Z" transform="translate(3.534 6.301)" fill="#0a1735"/>
    <path id="Path_368" data-name="Path 368" d="M35.36,53.513C39.621,47.795,47.677,27.3,35.09,27.09h0a6.122,6.122,0,0,0-5.657,6.122,23.117,23.117,0,0,1-3.122,11.644,23.362,23.362,0,0,1-10.53,9.563A1.225,1.225,0,1,0,16.8,56.647,25.823,25.823,0,0,0,30.585,41.256a25.235,25.235,0,0,0,1.3-8.057,3.673,3.673,0,0,1,3.526-3.673c8.571.245,1,18.942-2.057,22.578a33.12,33.12,0,0,1-7.922,8.032,1.224,1.224,0,0,0-.282,1.714C27.107,64.19,34.148,55.2,35.36,53.513Z" transform="translate(2.707 5.406)" fill="#0a1735"/>
    <path id="Path_369" data-name="Path 369" d="M45.258,47A40.32,40.32,0,0,0,47.352,33.53c-.184-8.718-11.338-13.726-18.011-8.093C21.48,32,29.108,41.036,17.1,49.3a17.9,17.9,0,0,1-4.236,2.143,1.224,1.224,0,0,0-.747,1.567c1.42,2.816,9.036-3.526,10.285-5.143a20.644,20.644,0,0,0,5.24-13.8,8.571,8.571,0,0,1,3.245-6.71c5.192-4.42,13.9-.526,14.032,6.281A37.957,37.957,0,0,1,32.157,62.476a1.224,1.224,0,0,0-.11,1.726c1.751,1.763,5.106-3.612,6.4-4.787A40.516,40.516,0,0,0,45.258,47Z" transform="translate(2.029 4.5)" fill="#0a1735"/>
    <path id="Path_370" data-name="Path 370" d="M52.829,34.994c.2-15.195-20.068-21.795-28.921-9.452a15.7,15.7,0,0,0-3.122,9.452A13.615,13.615,0,0,1,10.6,48.083a1.224,1.224,0,0,0-.882,1.506c.894,2.314,5.008-.588,6.391-1.31C27.3,41.043,19.121,30.537,29.272,23.791c8.571-6.122,21.464.759,21.109,11.24A42.854,42.854,0,0,1,39.593,63.425a1.224,1.224,0,0,0,.918,2.081C48.874,58.221,52.646,45.916,52.829,34.994Z" transform="translate(1.498 3.612)" fill="#63ab3b"/>
    <path id="Path_371" data-name="Path 371" d="M49.852,19.283C39.91,11.325,23.8,15.1,18.409,26.63c-3.734,6.416.331,15.807-9.379,17.754a1.241,1.241,0,0,0,.4,2.449,11.118,11.118,0,0,0,9.244-10.9,18.525,18.525,0,0,1,12.33-17.411C42.481,14.092,56.072,23.557,55.681,35.9A47.654,47.654,0,0,1,47.673,62.37a1.224,1.224,0,0,0,.343,1.7c2.2,1.543,5.412-7.42,6.355-9.11C58.962,43.515,61.239,27.548,49.852,19.283Z" transform="translate(1.12 2.707)" fill="#0a1735"/>
    <path id="Path_372" data-name="Path 372" d="M10.429,22.811C9.5,24.611,5.188,33.353,7.98,34a1.224,1.224,0,0,0,1.457-1.016,28.015,28.015,0,0,1,5.9-13.052C31.966-.612,65.76,11.179,65.76,37.687a28.28,28.28,0,0,1-1.3,8.478,1.224,1.224,0,0,0,.8,1.538c2.706.735,2.816-8.167,2.951-10.016C67.976,6.1,25.881-4.628,10.429,22.811Z" transform="translate(0.909 0.919)" fill="#0a1735"/>
    <path id="Path_373" data-name="Path 373" d="M54.336,17.3C41.174,5.228,17.91,11.619,12.817,28.737a25.578,25.578,0,0,0-1.3,8.057,3.673,3.673,0,0,1-3.392,3.673,1.228,1.228,0,1,0,.2,2.449c7.346-.82,4.9-8.5,6.82-13.407C27.057-1.1,75.788,13.946,56.455,57.865a1.224,1.224,0,0,0,2.241.98,54.609,54.609,0,0,0,4.592-22.039,25.639,25.639,0,0,0-8.95-19.5Z" transform="translate(0.897 1.813)" fill="#63ab3b"/>
    <path id="Path_374" data-name="Path 374" d="M4.224,15.244A1.224,1.224,0,0,0,5.449,14.02V5.449H14.02A1.224,1.224,0,0,0,14.02,3h-9.8A1.224,1.224,0,0,0,3,4.224v9.8A1.224,1.224,0,0,0,4.224,15.244Z" fill="#63ab3b"/>
    <path id="Path_375" data-name="Path 375" d="M62.02,3h-9.8a1.224,1.224,0,0,0,0,2.449H60.8V14.02a1.224,1.224,0,1,0,2.449,0v-9.8A1.224,1.224,0,0,0,62.02,3Z" transform="translate(10.772)" fill="#0a1735"/>
    <path id="Path_376" data-name="Path 376" d="M62.02,51A1.224,1.224,0,0,0,60.8,52.224V60.8H52.224a1.224,1.224,0,0,0,0,2.449h9.8a1.224,1.224,0,0,0,1.224-1.224v-9.8A1.224,1.224,0,0,0,62.02,51Z" transform="translate(10.772 10.772)" fill="#63ab3b"/>
    <path id="Path_377" data-name="Path 377" d="M14.02,60.8H5.449V52.224a1.224,1.224,0,0,0-2.449,0v9.8a1.224,1.224,0,0,0,1.224,1.224h9.8a1.224,1.224,0,0,0,0-2.449Z" transform="translate(0 10.772)" fill="#0a1735"/>
  </g>
</svg>
