<svg version="1.1" id="Layer_1" xmlns="http://www.w3.org/2000/svg" x="0" y="0" viewBox="0 0 1080 1080" style="enable-background:new 0 0 1080 1080" xml:space="preserve"><style>.st2{fill:#01A54F}</style><g id="Group_133_9_" transform="translate(59.812 58.716)"><g id="Group_132_9_"><path id="Path_55_13_" d="M206.09 752.2H90.71a27.099 27.099 0 0 0-27.21 27.21v214.16c0 15.11 12.09 27.21 27.21 27.21h87.68l54.92-27.21V779.91c0-15.62-12.59-27.71-27.22-27.71z" style="fill:#27326a"/><g id="Group_131_13_" transform="translate(7.468)"><path id="Path_56_13_" d="M922.58 750.19c-51.4-50.9-134.04-50.9-185.43 0l-82.13 82.13-33.76 33.76c-13.6 13.6-31.25 21.17-50.4 21.17H371.81c-15.11 0-27.21-11.08-27.72-26.2-.5-15.11 10.59-27.72 25.7-28.73H563.28c43.33 0 78.61-34.26 79.61-77.1v-2.02c0-15.11-12.09-27.21-27.21-27.21h-90.69c-29.74 0-57.95-13.6-88.68-27.72-31.75-17.63-66.52-28.73-102.29-32.75-33.25-2.02-67.53 1.51-99.26 10.59-37.29 10.08-63.99 44.85-63.99 83.65v261.02H640.4c31.75 0 62.48-12.09 85.16-35.27l196.02-196.02c11.58-11.08 11.58-28.23 1-39.3z" style="fill:#f8bf9d"/></g></g></g><path class="st2" d="M823.66 377.59 881.61 495l129.57 18.82-93.75 91.4 22.13 129.05-115.9-60.93-115.9 60.93 22.14-129.05-93.77-91.4L765.72 495zM368.88 81.87l92.4 187.21 206.58 30.01-149.49 145.72 35.29 205.75-184.78-97.13-184.78 97.13 35.29-205.75L69.9 299.09l206.59-30.01zM823.66 0l37.38 75.75 83.59 12.14-60.48 58.96 14.27 83.25-74.76-39.3-74.77 39.3 14.29-83.25-60.5-58.96 83.6-12.14z"/></svg>
