<svg xmlns="http://www.w3.org/2000/svg" width="72.024" height="67.216" viewBox="0 0 72.024 67.216">
  <path id="Shape" d="M66.345,7.544A20.806,20.806,0,0,0,36.9,6.688l-.911.861A20.828,20.828,0,0,0,5.678,36.126L7.73,38.3a6.078,6.078,0,0,0,6.356,8.438,6.049,6.049,0,0,0,6.736,7.138,6.048,6.048,0,0,0,6.735,7.137,6.1,6.1,0,0,0,10.179,5.544c6.851-6.468,6.636-6.145,7.283-7.235A6.062,6.062,0,0,0,53.707,53.1a6.067,6.067,0,0,0,7.134-6.744A6.1,6.1,0,0,0,66.321,36.12a20.768,20.768,0,0,0,.024-28.576Zm-55.7,35.712a3.713,3.713,0,0,1,.151-5.241l6.242-5.894a3.707,3.707,0,0,1,5.088,5.392l-6.242,5.894a3.709,3.709,0,0,1-5.239-.151Zm6.736,7.138a3.711,3.711,0,0,1,.151-5.241l6.242-5.894a3.706,3.706,0,1,1,5.086,5.391l-6.242,5.9a3.711,3.711,0,0,1-5.238-.157Zm6.735,7.137a3.712,3.712,0,0,1,.152-5.24L30.507,46.4a3.706,3.706,0,0,1,5.088,5.383l-6.242,5.894a3.707,3.707,0,0,1-5.24-.149ZM36.087,64.82A3.706,3.706,0,1,1,31,59.429l6.242-5.9a3.707,3.707,0,0,1,5.088,5.392ZM64.482,43.071a3.7,3.7,0,0,1-5.238-.151l-16-16.95A1.2,1.2,0,0,0,41.5,27.618l16,16.949a3.706,3.706,0,0,1-5.39,5.089l-16-16.952a1.2,1.2,0,1,0-1.747,1.648L50.359,51.3a3.7,3.7,0,0,1-4.55,5.744,6.06,6.06,0,0,0-5.846-6.929c-1.32-.035-.84.465-.807-.856a6.1,6.1,0,0,0-5.928-6.282c-1.321-.042-.846.48-.807-.856a6.107,6.107,0,0,0-5.929-6.282c-1.329-.037-.846.491-.807-.856a6.114,6.114,0,0,0-10.3-4.618c-8.583,8.1-5.622,5.31-6.262,5.913l-1.7-1.8A18.426,18.426,0,1,1,34.241,9.2l-9.832,9.284a4.983,4.983,0,0,0-1.531,3.406c-.12,4.93,7.214,8.035,11.695,3.793l8.96-8.456a1.2,1.2,0,0,1,1.7.048c2.355,2.5,17.143,18.166,19.4,20.559a3.7,3.7,0,0,1-.151,5.239Zm.205-8.679L46.976,15.625a3.6,3.6,0,0,0-5.091-.146l-8.961,8.458a4.922,4.922,0,0,1-6.971-.215,2.471,2.471,0,0,1,.107-3.5L38.544,8.433A18.429,18.429,0,0,1,64.687,34.392Z" transform="translate(-0.005 -0.999)" fill="#63ab3b"/>
</svg>
