<svg xmlns="http://www.w3.org/2000/svg" width="75" height="75" viewBox="0 0 75 75">
  <g id="_13466199291639632574" data-name="13466199291639632574" transform="translate(-1 -1.003)">
    <path id="Path_394" data-name="Path 394" d="M61,28a1,1,0,0,0-1-1H52a1,1,0,0,0-1,1V61H47V43a1,1,0,0,0-1-1H38a1,1,0,0,0-1,1V61H33V54a1,1,0,0,0-1-1H24a1,1,0,0,0-1,1v7H21v2H63V61H61ZM31,61H25V55h6Zm14,0H39V44h6Zm14,0H53V29h6Z" transform="translate(13 13.003)" fill="#63ab3b"/>
    <path id="Path_395" data-name="Path 395" d="M70.4,14.425l3.224,1.922a1.212,1.212,0,0,0,1.831-1.1L74.787,2.153a1.212,1.212,0,0,0-1.731-1.033L61.23,6.769a1.212,1.212,0,0,0-.1,2.135l3.123,1.862A157.537,157.537,0,0,1,46.325,33.887l-6.542-6.9a4.793,4.793,0,0,0-4.56-1.4l-3.381.738.076-2.718,2.908-.875a4.847,4.847,0,0,0,2.862-2.358l2.908-5.429a1.213,1.213,0,0,0-.187-1.4l-2.5-2.644a1.211,1.211,0,0,0-1.846.1l-3.739,4.943-2.364-1.675a4.864,4.864,0,0,0-3.681-.8,4.87,4.87,0,1,0-4.24,1.811l-.121.056a7.261,7.261,0,0,0-3.339,3.161l-4.471,8.364a1.212,1.212,0,0,0,.5,1.641l3.38,1.806a1.211,1.211,0,0,0,1.614-.452l2.776-4.693L23.5,32.306A3.6,3.6,0,0,0,26,34.958l2.181,5.913-.187,6.613a1.212,1.212,0,0,0,.937,1.212l1.182.275A156.705,156.705,0,0,1,9.922,62.817l-8.316,4.79A1.212,1.212,0,0,0,1,68.659V74.09a1.212,1.212,0,0,0,1.817,1.052L14.1,68.69A160.34,160.34,0,0,0,70.4,14.425ZM20.733,12.138A2.424,2.424,0,0,1,22.49,8.047h.075a2.424,2.424,0,1,1-1.826,4.091Zm6.65,20.5a1.114,1.114,0,0,1-.437.045,1.147,1.147,0,0,1-1.076-.83L24.247,21.437a1.211,1.211,0,0,0-2.24-.429l-3.9,6.6-1.288-.688,3.9-7.292a4.824,4.824,0,0,1,2.216-2.1l3.212-1.5a2.44,2.44,0,0,1,2.423.217l3.32,2.353a1.211,1.211,0,0,0,1.666-.258l3.585-4.736.912.97-2.5,4.665a2.412,2.412,0,0,1-1.424,1.177l-3.744,1.127a1.212,1.212,0,0,0-.86,1.126l-.147,5.138a1.212,1.212,0,0,0,1.47,1.219l4.912-1.072a2.374,2.374,0,0,1,2.263.7l6.638,7c-.442.458-.88.921-1.327,1.373l-6.86-6.486a1.211,1.211,0,0,0-1.185-.279Zm8.324,6.035-2-5.41,1.611-.485,6.287,5.939q-3.15,3.1-6.477,6.015l.648-5.5a1.2,1.2,0,0,0-.073-.558Zm-7.183-3.848,2.857-.863,1.952,5.279-.916,7.781-1.986-.459L30.6,40.7a1.2,1.2,0,0,0-.074-.453ZM12.888,66.58,3.423,72V69.363l7.708-4.438A160.423,160.423,0,0,0,66.971,11a1.212,1.212,0,0,0-.408-1.684L64.317,7.984,72.46,4.093l.458,9.016-2.3-1.373a1.211,1.211,0,0,0-1.653.408A157.883,157.883,0,0,1,12.888,66.585Z" transform="translate(0 0)" fill="#0a1735"/>
    <rect id="Rectangle_171" data-name="Rectangle 171" width="8" height="2.001" transform="matrix(0.726, -0.687, 0.687, 0.726, 4.634, 39.488)" fill="#0a1735"/>
    <rect id="Rectangle_172" data-name="Rectangle 172" width="7" height="2.001" transform="matrix(0.726, -0.687, 0.687, 0.726, 14.159, 41.553)" fill="#0a1735"/>
  </g>
</svg>
