<svg xmlns="http://www.w3.org/2000/svg" width="58.325" height="58.325" viewBox="0 0 58.325 58.325">
  <g id="_6799297081610058222" data-name="6799297081610058222" transform="translate(-7.5 -7.5)">
    <path id="Path_4016" data-name="Path 4016" d="M55.872,131.936V130H52v1.936a1.936,1.936,0,0,0,3.872,0Z" transform="translate(-33.73 -92.854)" fill="#fff"/>
    <path id="Path_4017" data-name="Path 4017" d="M185.88,181.761a3.55,3.55,0,1,0-3.55-3.55A3.55,3.55,0,0,0,185.88,181.761Z" transform="translate(-132.519 -126.705)" fill="#63ab3b"/>
    <path id="Path_4018" data-name="Path 4018" d="M69.033,125.922H63.224v1.936a2.9,2.9,0,0,1-5.808,0v-1.936H30.311v1.936a2.9,2.9,0,0,1-5.808,0v-1.936H19.9a3.85,3.85,0,0,1-2.7-1.1l-.206-.2v17.275a1.936,1.936,0,0,0,1.936,1.936h34.8a14.349,14.349,0,0,1-.673-4.114,7.5,7.5,0,1,1,15,0,14.279,14.279,0,0,1-.673,4.114H70a1.936,1.936,0,0,0,1.936-1.936V124.62l-.206.2a3.85,3.85,0,0,1-2.7,1.1Z" transform="translate(-7.201 -88.776)" fill="#01458e"/>
    <path id="Path_4019" data-name="Path 4019" d="M70,52H18.936A1.936,1.936,0,0,0,17,53.936V67a2.9,2.9,0,0,0,2.9,2.9H38.561V69.8a5.324,5.324,0,0,1,10.581,0v.106H69.033a2.9,2.9,0,0,0,2.9-2.9V53.936A1.936,1.936,0,0,0,70,52Z" transform="translate(-7.201 -33.73)" fill="#63ab3b"/>
    <path id="Path_4020" data-name="Path 4020" d="M233.94,124.821a3.894,3.894,0,0,1-1,.707v16.367A1.936,1.936,0,0,1,231,143.831h1.21a1.936,1.936,0,0,0,1.936-1.936V124.62Z" transform="translate(-169.41 -88.776)" fill="#efc803"/>
    <path id="Path_4021" data-name="Path 4021" d="M229.178,52h-1.21a1.936,1.936,0,0,1,1.936,1.936V67a2.9,2.9,0,0,1-2.9,2.9h1.21a2.9,2.9,0,0,0,2.9-2.9V53.936A1.936,1.936,0,0,0,229.178,52Z" transform="translate(-166.378 -33.73)" fill="#93ee61"/>
    <path id="Path_4022" data-name="Path 4022" d="M114.432,110a4.378,4.378,0,0,0-4.313,3.734l-.019.138h8.664l-.019-.138A4.378,4.378,0,0,0,114.432,110Z" transform="translate(-77.77 -77.694)" fill="#fff"/>
    <path id="Path_4023" data-name="Path 4023" d="M176.534,180.1c3.195-3.57,6.534-8.783,6.534-13.567a6.534,6.534,0,1,0-13.069,0C170,171.312,173.349,176.542,176.534,180.1Zm0-17.522a4.518,4.518,0,1,1-4.518,4.518,4.518,4.518,0,0,1,4.518-4.518Z" transform="translate(-123.173 -115.593)" fill="#63ab3b"/>
    <path id="Path_4024" data-name="Path 4024" d="M191.872,131.936V130H188v1.936a1.936,1.936,0,1,0,3.872,0Z" transform="translate(-136.817 -92.854)" fill="#fff"/>
    <path id="Path_4025" data-name="Path 4025" d="M88.786,20.712V13.936A1.936,1.936,0,0,0,86.85,12H53.936A1.936,1.936,0,0,0,52,13.936v6.776h2.662V15.146a.484.484,0,0,1,.484-.484H85.64a.484.484,0,0,1,.484.484v5.566Z" transform="translate(-33.73 -3.411)" fill="#01458e"/>
    <path id="Path_4026" data-name="Path 4026" d="M58.831,130v1.936a1.936,1.936,0,0,1-1.331,1.837,1.936,1.936,0,0,0,2.541-1.837V130Z" transform="translate(-37.899 -92.854)" fill="#e1d9d8"/>
    <path id="Path_4027" data-name="Path 4027" d="M195.105,174.67a3.546,3.546,0,0,0-.605.056,3.545,3.545,0,0,1,0,6.987,3.548,3.548,0,1,0,.605-7.043Z" transform="translate(-141.744 -126.713)" fill="#93ee61"/>
    <path id="Path_4028" data-name="Path 4028" d="M130.418,113.734A4.378,4.378,0,0,0,126.105,110a4.287,4.287,0,0,0-.605.048,4.378,4.378,0,0,1,3.708,3.686l.019.138h1.21Z" transform="translate(-89.443 -77.694)" fill="#e1d9d8"/>
    <path id="Path_4029" data-name="Path 4029" d="M195.105,160a4.189,4.189,0,0,0-.605.029,6.534,6.534,0,0,1,5.929,6.505c0,4.484-2.933,9.342-5.929,12.873q.3.356.605.695c3.195-3.57,6.534-8.783,6.534-13.567A6.534,6.534,0,0,0,195.105,160Z" transform="translate(-141.744 -115.593)" fill="#93ee61"/>
    <path id="Path_4030" data-name="Path 4030" d="M194.831,130v1.936a1.936,1.936,0,0,1-1.331,1.837,1.936,1.936,0,0,0,2.541-1.837V130Z" transform="translate(-140.986 -92.854)" fill="#e1d9d8"/>
    <path id="Path_4031" data-name="Path 4031" d="M192.21,12H191a1.936,1.936,0,0,1,1.936,1.936v6.776h1.21V13.936A1.936,1.936,0,0,0,192.21,12Z" transform="translate(-139.091 -3.411)" fill="#fd0"/>
    <path id="Path_4032" data-name="Path 4032" d="M62.8,17.18H56.144V10.525A3.028,3.028,0,0,0,53.119,7.5H20.206a3.028,3.028,0,0,0-3.025,3.025V17.18H10.525A3.028,3.028,0,0,0,7.5,20.206V53.119a3.028,3.028,0,0,0,3.025,3.025H46.783a31.3,31.3,0,0,0,6.145,9.5.605.605,0,0,0,.864,0,31.252,31.252,0,0,0,6.145-9.5H62.8a3.028,3.028,0,0,0,3.025-3.025V20.206A3.028,3.028,0,0,0,62.8,17.18ZM18.391,10.525A1.818,1.818,0,0,1,20.206,8.71H53.119a1.818,1.818,0,0,1,1.815,1.815V17.18h-2.42V11.735a.605.605,0,0,0-.605-.605H21.416a.605.605,0,0,0-.605.605V17.18h-2.42ZM51.3,12.34v4.84H22.021V12.34Zm2.057,51.987c-3.115-3.485-6.413-8.7-6.413-13.386a6.413,6.413,0,0,1,12.827,0C59.775,55.639,56.486,60.832,53.361,64.327ZM64.615,53.119A1.818,1.818,0,0,1,62.8,54.934H60.353a14.192,14.192,0,0,0,.632-3.993,7.623,7.623,0,0,0-15.247,0,14.165,14.165,0,0,0,.632,3.993H10.525A1.818,1.818,0,0,1,8.71,53.119V36.132a3.979,3.979,0,0,0,2.783,1.135H17.18v1.815a3.025,3.025,0,1,0,6.05,0V37.267H50.094v1.815a3.025,3.025,0,1,0,6.05,0V37.267h5.687a3.979,3.979,0,0,0,2.783-1.135ZM18.391,39.083V37.267h3.63v1.815a1.815,1.815,0,0,1-3.63,0Zm14.08-3.025a4.235,4.235,0,0,1,8.383,0ZM51.3,39.083V37.267h3.63v1.815a1.815,1.815,0,0,1-3.63,0Zm13.311-5.808a2.786,2.786,0,0,1-2.783,2.783H42.074a5.445,5.445,0,0,0-10.823,0H11.493A2.786,2.786,0,0,1,8.71,33.274V20.206a1.818,1.818,0,0,1,1.815-1.815H62.8a1.818,1.818,0,0,1,1.815,1.815Z" transform="translate(0)" fill="#263238"/>
    <path id="Path_4033" data-name="Path 4033" d="M182.469,170.17a4.639,4.639,0,1,0,4.639,4.639A4.639,4.639,0,0,0,182.469,170.17Zm0,8.066a3.429,3.429,0,1,1,3.429-3.429,3.429,3.429,0,0,1-3.429,3.429Z" transform="translate(-129.108 -123.302)" fill="#263238"/>
    <path id="Path_4034" data-name="Path 4034" d="M26.662,25.21h-.968v-.968a.242.242,0,1,0-.484,0v.968h-.968a.242.242,0,1,0,0,.484h.968v.968a.242.242,0,1,0,.484,0v-.968h.968a.242.242,0,1,0,0-.484Z" transform="translate(-12.507 -12.507)" fill="#fd0"/>
    <path id="Path_4035" data-name="Path 4035" d="M25.452,222.9a1.452,1.452,0,1,1,1.452-1.452A1.452,1.452,0,0,1,25.452,222.9Zm0-2.42a.968.968,0,1,0,.968.968A.968.968,0,0,0,25.452,220.484Z" transform="translate(-12.507 -161.072)" fill="#40bdff"/>
    <path id="Path_4036" data-name="Path 4036" d="M83.452,232.9a1.452,1.452,0,1,1,1.452-1.452A1.452,1.452,0,0,1,83.452,232.9Zm0-2.42a.968.968,0,1,0,.968.968A.968.968,0,0,0,83.452,230.484Z" transform="translate(-56.47 -168.652)" fill="#fd0"/>
    <path id="Path_4037" data-name="Path 4037" d="M220.662,28.09h-.627l.443-.455a.242.242,0,0,0-.341-.341l-.443.453v-.624a.242.242,0,1,0-.484,0v.627l-.443-.443a.242.242,0,0,0-.341.329l.443.443h-.627a.242.242,0,1,0,0,.484h.627l-.443.443a.242.242,0,0,0,.341.341l.443-.431v.627a.242.242,0,1,0,.484,0v-.627l.443.443a.242.242,0,0,0,.341-.341l-.443-.443h.627a.242.242,0,0,0,0-.484Z" transform="translate(-159.556 -14.69)" fill="#40bdff"/>
  </g>
</svg>
