<svg xmlns="http://www.w3.org/2000/svg" width="53.994" height="67.59" viewBox="0 0 53.994 67.59">
  <g id="layer1" transform="translate(-1.311 -291.448)">
    <path id="ellipse1017" d="M12.7,294.406A22.14,22.14,0,0,0,1.652,313.588a1.881,1.881,0,0,0,.056.527,12,12,0,0,1,.056,1.693,3.646,3.646,0,0,0,.527,1.777A4.079,4.079,0,0,0,3.984,319c2.682,1.291,7.21,1.591,19.155,1.86h.028c10.963.142,16.214-.143,19.349-1.278a5.054,5.054,0,0,0,3.192-2.877,7.457,7.457,0,0,0,.194-3.165,22.125,22.125,0,0,0-33.2-19.127Z" transform="translate(4.489 0.001)" fill="#333"/>
    <path id="rect1020" d="M6.946,292.549a5.661,5.661,0,0,0-5.635,5.635v3.554a5.661,5.661,0,0,0,5.635,5.635H9.972a5.685,5.685,0,0,0,5.663-5.635v-3.554a5.685,5.685,0,0,0-5.663-5.635Z" transform="translate(0 14.55)" fill="#666"/>
    <path id="rect838" d="M9.737,292.549A5.661,5.661,0,0,0,4.1,298.184v3.554a5.661,5.661,0,0,0,5.635,5.635h3.026a5.685,5.685,0,0,0,5.663-5.635v-3.554a5.685,5.685,0,0,0-5.663-5.635Z" transform="translate(36.879 14.55)" fill="#666"/>
    <path id="path1013" d="M27.343,293.84c-7.367,0-13.9,4.192-18.516,10.16a35.865,35.865,0,0,0-7.44,21.542v1.888H53.3v-1.888A35.865,35.865,0,0,0,45.859,304c-4.621-5.969-11.149-10.161-18.516-10.16Z" transform="translate(1.007 31.608)" fill="#9aaaaf"/>
    <path id="ellipse1024" d="M15.12,293.84a21.128,21.128,0,0,0-11.993,3.942,1.881,1.881,0,0,0-.361,2.776,16.411,16.411,0,0,0,24.707,0,1.88,1.88,0,0,0-.361-2.776A21.128,21.128,0,0,0,15.12,293.84Z" transform="translate(13.229 31.608)" fill="#01458e"/>
    <path id="circle1011" d="M18.517,291.789a16.476,16.476,0,1,0,16.462,16.49A16.512,16.512,0,0,0,18.517,291.789Z" transform="translate(9.833 4.507)" fill="#63ab3b"/>
    <path id="path1022" d="M23.12,293.189a1.879,1.879,0,0,0-.639.25c-5.772,3.328-11.512,4.353-17.461,4.691a1.881,1.881,0,1,0,.194,3.748c6.247-.355,12.7-1.487,19.127-5.191a1.881,1.881,0,0,0-1.222-3.5Z" transform="translate(23.801 22.679)" fill="#333"/>
  </g>
</svg>
