<svg version="1.1" id="Layer_1" xmlns="http://www.w3.org/2000/svg" x="0" y="0" viewBox="0 0 1080 1080" style="enable-background:new 0 0 1080 1080" xml:space="preserve"><style>.st1{fill:#27326a}.st2{fill:#fff}</style><path id="Path_98_14_" d="M821.59 694.81c0 202.35-164.14 367.12-367.12 367.12S87.36 897.79 87.36 694.81 251.5 327.7 454.48 327.7s367.11 164.75 367.11 367.11z" style="fill:#01A54F"/><g id="Group_179_9_" transform="translate(80.719)"><path id="Path_99_28_" class="st1" d="M380.68 287.12c-13.26 0-24.79-10.96-24.79-24.79V24.79C355.89 11.54 366.85 0 381.26 0c13.26 0 24.79 10.96 24.79 24.79v237.53c-.58 13.85-11.54 24.8-25.37 24.8z"/><path id="Path_100_37_" class="st1" d="M568.63 287.12c-13.26 0-24.79-10.96-24.79-24.79V149.32c0-13.26 10.96-24.79 24.79-24.79 13.26 0 24.79 10.96 24.79 24.79v113c.01 13.85-11.52 24.8-24.79 24.8z"/><path id="Path_101_16_" class="st1" d="M193.3 287.12c-13.26 0-24.79-10.96-24.79-24.79V149.32c0-13.26 10.96-25.37 24.79-25.37s25.37 10.96 25.37 24.79v113c-.57 14.43-12.11 25.38-25.37 25.38z"/></g><g id="Group_180_20_" transform="translate(83.195 27.023)"><path id="Path_102_20_" class="st2" d="M222.15 429.25h337.04v.63c-10.02 17.54-21.93 33.21-33.83 49.5h-90.84c12.52 15.03 21.93 33.21 25.06 53.25h95.84c1.26.63 1.88.63 1.88 1.26-21.93 31.95-32.58 48.87-33.21 48.87h-62.65c-3.14 21.93-11.28 41.97-23.8 60.15-13.78 20.06-33.21 35.09-55.12 45.73-29.44 14.41-61.4 23.17-93.98 23.8v.63c5.64 10.65 13.15 20.68 21.93 28.82L476.5 942.34v9.39c0 .63-.63 1.26-1.88 1.26h-72.67C270.39 799.51 204.6 723.08 204.6 722.45v-46.38l.63-1.88c13.15 1.88 27.57 2.51 40.72 2.51 73.3 0 119.66-23.8 137.2-71.41 2.51-6.89 4.38-13.78 4.38-21.93H188.94c-.63 0-1.26-.63-1.26-1.26v-.63c22.55-31.95 33.21-48.87 33.83-48.87h159.13v-.63c-11.28-20.68-30.7-35.72-53.25-42.6-16.29-5.64-33.21-8.77-50.75-8.77h-88.33v-1.88c21.3-33.81 33.21-49.47 33.84-49.47z"/></g><ellipse id="Ellipse_13_15_" cx="817.75" cy="903.87" rx="174.89" ry="176.13" style="fill:#22346a"/><path class="st2" d="M862.94 924.79c-6.75 0-13.51.18-20.25-.08-3.34-.13-4.1 1.06-4.06 4.19.15 13.3-.14 26.6.18 39.89.11 4.44-1.28 5.37-5.45 5.25-10.63-.31-21.28-.26-31.91-.02-3.67.08-4.9-.73-4.82-4.66.27-13.29-.03-26.6.19-39.89.06-3.68-.74-4.88-4.66-4.79-13.09.28-26.18-.01-39.27.18-3.67.05-5.39-.44-5.24-4.83.36-10.83.31-21.69.02-32.52-.11-3.96 1.21-4.71 4.86-4.65 13.09.22 26.19-.09 39.27.19 4.13.09 5.09-1.21 5.02-5.15-.24-12.88.07-25.78-.18-38.66-.08-4.05.66-5.71 5.22-5.56 10.83.36 21.68.26 32.52.03 3.54-.07 4.44 1.04 4.39 4.46-.18 13.3.1 26.6-.18 39.89-.09 4.12 1.18 5.04 5.09 4.97 12.88-.24 25.78.08 38.66-.19 4.1-.09 5.65.68 5.49 5.21-.38 10.42-.43 20.88.02 31.29.21 4.94-1.56 5.77-5.89 5.53-6.32-.34-12.68-.08-19.02-.08z"/></svg>
