<svg xmlns="http://www.w3.org/2000/svg" width="60" height="54" viewBox="0 0 60 54">
  <g id="_9689412431637643957" data-name="9689412431637643957" transform="translate(-2 -5)">
    <path id="Path_2781" data-name="Path 2781" d="M3,6V46H37a13.442,13.442,0,0,1,.7-4H10L7,39V25l3-3H54l3,3V37.1A12.167,12.167,0,0,1,61,46V6Z" fill="#63ab3b"/>
    <path id="Path_2782" data-name="Path 2782" d="M39.5,38.7c.2-.2.3-.4.5-.6l.1-.1a12.878,12.878,0,0,1,1.7-1.6c.1-.1.2-.2.3-.2.2-.1.3-.2.5-.3.1-.1.3-.2.4-.3.2-.1.3-.2.5-.3l.6-.3c.1-.1.2-.1.4-.2.3-.1.6-.2,1-.3.1,0,.2-.1.3-.1.2-.1.5-.1.7-.2.1,0,.3-.1.4-.1.2,0,.5-.1.7-.1h.3c.4,0,.7-.1,1.1-.1a4.869,4.869,0,0,1,1.2.1.9.9,0,0,1,.5.1c.2,0,.4.1.6.1a1.421,1.421,0,0,1,.6.2c.1,0,.3.1.4.1a1.854,1.854,0,0,0,.7.2c.1,0,.2.1.3.1a2.994,2.994,0,0,1,.8.4c.1,0,.1.1.2.1a2.177,2.177,0,0,1,.8.5.1.1,0,0,1,.1.1,5.547,5.547,0,0,1,.8.6h0a2.7,2.7,0,0,1,.8.7V25l-3-3H10L7,25V39l3,3H37.7a13.459,13.459,0,0,1,1.8-3.3Z" fill="#01458e"/>
    <path id="Path_2788" data-name="Path 2788" d="M5,0A5,5,0,1,1,0,5,5,5,0,0,1,5,0Z" transform="translate(27 27)" fill="#63ab3b"/>
    <path id="Path_2783" data-name="Path 2783" d="M57,37.1c-.3-.2-.5-.5-.8-.7h0c-.3-.2-.5-.4-.8-.6a.1.1,0,0,1-.1-.1c-.3-.2-.5-.3-.8-.5-.1,0-.1-.1-.2-.1a2.994,2.994,0,0,1-.8-.4c-.1,0-.2-.1-.3-.1a1.854,1.854,0,0,0-.7-.2c-.1,0-.3-.1-.4-.1-.2-.1-.4-.1-.6-.2-.2,0-.4-.1-.6-.1s-.3-.1-.5-.1A7.6,7.6,0,0,1,49,34a4.1,4.1,0,0,0-1.1.1h-.3c-.3,0-.5.1-.7.1a.6.6,0,0,0-.4.1c-.2.1-.5.1-.7.2-.1,0-.2.1-.3.1-.3.1-.6.2-1,.3-.2.1-.4.1-.5.2l-.6.3c-.2.1-.3.2-.5.3-.1.1-.3.2-.4.3-.2.1-.3.2-.5.3-.1.1-.2.1-.3.2A12.878,12.878,0,0,0,40,38.1l-.1.1a2.651,2.651,0,0,0-.5.6.1.1,0,0,1-.1.1,12.266,12.266,0,0,0-1.7,3.2,13.442,13.442,0,0,0-.7,4,12,12,0,0,0,24,0A11.78,11.78,0,0,0,57,37.1Z" fill="#98cdf4"/>
    <path id="Path_2784" data-name="Path 2784" d="M61,5H3A.945.945,0,0,0,2,6V46a.945.945,0,0,0,1,1H36.1A12.968,12.968,0,0,0,62,46V6A.945.945,0,0,0,61,5ZM60,7v4H4V7Zm0,6v4H4V13ZM56,35.1A12.82,12.82,0,0,0,49,33a13.047,13.047,0,0,0-12,8H10.4L8,38.6V25.4L10.4,23H53.6L56,25.4ZM49,57a11,11,0,0,1,0-22v0a11,11,0,0,1,0,22Zm9-20.4V25a.908.908,0,0,0-.3-.7l-3-3A.908.908,0,0,0,54,21H10a.908.908,0,0,0-.7.3l-3,3A.908.908,0,0,0,6,25V39a.908.908,0,0,0,.3.7l3,3a.908.908,0,0,0,.7.3H36.4a6.448,6.448,0,0,0-.3,2H4V19H60V39.1A15.666,15.666,0,0,0,58,36.6Z"/>
    <path id="Path_2785" data-name="Path 2785" d="M32,26a6,6,0,1,0,6,6A6.018,6.018,0,0,0,32,26Zm0,10a4,4,0,1,1,4-4A4.012,4.012,0,0,1,32,36Z"/>
    <rect id="Rectangle_847" data-name="Rectangle 847" width="2" height="2" transform="translate(48 25)"/>
    <rect id="Rectangle_848" data-name="Rectangle 848" width="2" height="2" transform="translate(52 25)"/>
    <rect id="Rectangle_849" data-name="Rectangle 849" width="2" height="2" transform="translate(10 37)"/>
    <rect id="Rectangle_850" data-name="Rectangle 850" width="2" height="2" transform="translate(14 37)"/>
    <rect id="Rectangle_851" data-name="Rectangle 851" width="17" height="2" transform="translate(42.282 51.303) rotate(-45)"/>
    <path id="Path_2786" data-name="Path 2786" d="M45,45a3,3,0,1,0-3-3A2.946,2.946,0,0,0,45,45Zm0-4a1,1,0,1,1-1,1A.945.945,0,0,1,45,41Z"/>
    <path id="Path_2787" data-name="Path 2787" d="M53,47a3,3,0,1,0,3,3A2.946,2.946,0,0,0,53,47Zm0,4a1,1,0,1,1,1-1A.945.945,0,0,1,53,51Z"/>
  </g>
</svg>
