<svg xmlns="http://www.w3.org/2000/svg" width="85.429" height="77.363" viewBox="0 0 85.429 77.363">
  <g id="Group_1350" data-name="Group 1350" transform="translate(-1069.508 -1818)">
    <path id="Path_942" data-name="Path 942" d="M43.064,13.824C65.695,8.536,85.429,15.8,85.429,39.584S66.847,89.551,43.064,89.551,0,63.368,0,39.584,20.433,19.112,43.064,13.824Z" transform="translate(1069.508 1805.812)" fill="#e1e2e3"/>
    <g id="_7776923031610058221" data-name="7776923031610058221" transform="translate(1077.43 1815.932)">
      <path id="Path_966" data-name="Path 966" d="M14.453,103.512H13.5v-.954a.238.238,0,1,0-.477,0v.954h-.954a.238.238,0,1,0,0,.477h.954v.954a.238.238,0,0,0,.477,0v-.954h.954a.238.238,0,1,0,0-.477Z" transform="translate(-3.298 -72.163)" fill="#fd0"/>
      <path id="Path_967" data-name="Path 967" d="M50.623,20.122h-.954v-.954a.238.238,0,1,0-.477,0v.954h-.954a.238.238,0,1,0,0,.477h.954v.954a.238.238,0,1,0,.477,0V20.6h.954a.238.238,0,1,0,0-.477Z" transform="translate(-30.844 -8.655)" fill="#fd0"/>
      <path id="Path_968" data-name="Path 968" d="M68.733,221.192h-.954v-.954a.238.238,0,0,0-.477,0v.954h-.954a.238.238,0,1,0,0,.477H67.3v.954a.238.238,0,1,0,.477,0v-.954h.954a.238.238,0,0,0,0-.477Z" transform="translate(-44.636 -161.784)" fill="#40bdff"/>
      <path id="Path_969" data-name="Path 969" d="M176.973,221.192h-.954v-.954a.238.238,0,0,0-.477,0v.954h-.954a.238.238,0,0,0,0,.477h.954v.954a.238.238,0,1,0,.477,0v-.954h.954a.238.238,0,1,0,0-.477Z" transform="translate(-127.068 -161.784)" fill="#40bdff"/>
      <path id="Path_970" data-name="Path 970" d="M233.453,83.442H232.5v-.954a.238.238,0,1,0-.477,0v.954h-.954a.238.238,0,1,0,0,.477h.954v.954a.238.238,0,1,0,.477,0v-.954h.954a.238.238,0,0,0,0-.477Z" transform="translate(-170.081 -56.878)" fill="#40bdff"/>
      <path id="Path_971" data-name="Path 971" d="M108.121,21.791a1.431,1.431,0,1,1,1.431-1.431A1.431,1.431,0,0,1,108.121,21.791Zm0-2.384a.954.954,0,1,0,.954.954A.954.954,0,0,0,108.121,19.407Z" transform="translate(-75.54 -8.655)" fill="#40bdff"/>
      <path id="Path_972" data-name="Path 972" d="M125.931,222.861a1.431,1.431,0,1,1,1.431-1.431A1.431,1.431,0,0,1,125.931,222.861Zm0-2.384a.954.954,0,1,0,.954.954A.954.954,0,0,0,125.931,220.477Z" transform="translate(-89.104 -161.784)" fill="#fd0"/>
      <path id="Path_973" data-name="Path 973" d="M225.431,46.861a1.431,1.431,0,1,1,1.431-1.431,1.431,1.431,0,0,1-1.431,1.431Zm0-2.384a.954.954,0,1,0,.954.954A.954.954,0,0,0,225.431,44.477Z" transform="translate(-164.88 -27.748)" fill="#fd0"/>
      <rect id="Rectangle_388" data-name="Rectangle 388" width="16.228" height="12.828" rx="6.414" transform="translate(14.534 17.161)" fill="#01458e"/>
      <path id="Path_974" data-name="Path 974" d="M148.376,81A10.081,10.081,0,0,0,138.307,70.93h-1.047a7.431,7.431,0,0,1-1.454,0h-1.037A10.081,10.081,0,0,0,124.7,81V84.06h23.676Z" transform="translate(-89.256 -48.257)" fill="#effafe"/>
      <path id="Path_975" data-name="Path 975" d="M152.708,25.072h1.371a6.569,6.569,0,1,0-1.371,0Z" transform="translate(-106.105 -3.355)" fill="#effafe"/>
      <rect id="Rectangle_389" data-name="Rectangle 389" width="2.422" height="4.862" transform="translate(20.84 30.942)" fill="#eb5639"/>
      <rect id="Rectangle_390" data-name="Rectangle 390" width="0.715" height="4.862" transform="translate(22.547 30.942)" fill="#d84936"/>
      <rect id="Rectangle_391" data-name="Rectangle 391" width="3.815" height="8.584" transform="translate(55.305 55.355)" fill="#01458e"/>
      <path id="Path_976" data-name="Path 976" d="M69.216,130.08H18.907A1.907,1.907,0,0,0,17,131.987V147.7H71.124V131.987A1.907,1.907,0,0,0,69.216,130.08Z" transform="translate(-7.235 -93.304)" fill="#63ab3b"/>
      <rect id="Rectangle_392" data-name="Rectangle 392" width="2.861" height="8.584" transform="translate(14.295 55.355)" fill="#01458e"/>
      <path id="Path_977" data-name="Path 977" d="M94.014,47.81H93.06a1.907,1.907,0,0,1,1.907,1.907V58.73a1.907,1.907,0,0,1-1.907,1.907h.954a1.907,1.907,0,0,0,1.907-1.907V49.717A1.907,1.907,0,0,0,94.014,47.81Z" transform="translate(-65.16 -30.649)" fill="#2197f7"/>
      <path id="Path_978" data-name="Path 978" d="M168.481,70.939l-.258-.019h-.954A7.457,7.457,0,0,0,168.481,70.939Z" transform="translate(-121.676 -48.249)" fill="#e4ebed"/>
      <path id="Path_979" data-name="Path 979" d="M178.792,70.92h-.932a10.081,10.081,0,0,1,10.048,10.071v3.061h.954V80.991A10.081,10.081,0,0,0,178.792,70.92Z" transform="translate(-129.741 -48.249)" fill="#e4ebed"/>
      <path id="Path_980" data-name="Path 980" d="M172.827,12a3.967,3.967,0,0,0-.477.019,6.564,6.564,0,0,1,.215,13.076h.954A6.566,6.566,0,0,0,172.827,12Z" transform="translate(-125.545 -3.378)" fill="#e4ebed"/>
      <rect id="Rectangle_393" data-name="Rectangle 393" width="0.954" height="8.584" transform="translate(58.167 55.355)" fill="#01458e"/>
      <path id="Path_981" data-name="Path 981" d="M232.954,130.08H232a1.907,1.907,0,0,1,1.907,1.907V147.7h.954V131.987A1.907,1.907,0,0,0,232.954,130.08Z" transform="translate(-170.972 -93.304)" fill="#d84936"/>
      <rect id="Rectangle_394" data-name="Rectangle 394" width="0.954" height="8.584" transform="translate(16.203 55.355)" fill="#01458e"/>
      <path id="Path_982" data-name="Path 982" d="M61.982,35.7H60.193V32.742a11.159,11.159,0,0,0-9.082-10.949,7.63,7.63,0,1,0-7.661,0,11.159,11.159,0,0,0-9.082,10.949v2.964H24.336V31.061h4.53a2.983,2.983,0,0,0,2.98-2.98V19.068a2.983,2.983,0,0,0-2.98-2.98H15.249a2.983,2.983,0,0,0-2.98,2.98v9.013a2.983,2.983,0,0,0,2.98,2.98h4.53v4.645h-9.3a2.983,2.983,0,0,0-2.98,2.98V54.878a.6.6,0,0,0,.6.6h4.173v8.941a.6.6,0,0,0,.6.6h4.769a.6.6,0,0,0,.6-.6V55.474h36v8.941a.6.6,0,0,0,.6.6H59.6a.6.6,0,0,0,.6-.6V55.474h4.173a.6.6,0,0,0,.6-.6V38.684A2.983,2.983,0,0,0,61.982,35.7ZM40.835,15.2a6.438,6.438,0,1,1,7.127,6.411H46.6a6.454,6.454,0,0,1-5.768-6.421ZM35.561,32.752a9.962,9.962,0,0,1,9.95-9.95h1.037a7.285,7.285,0,0,0,.734.036c.258,0,.491-.012.734-.036h1.037A9.962,9.962,0,0,1,59,32.752v2.933H35.561ZM15.249,29.869a1.791,1.791,0,0,1-1.788-1.788V19.068a1.791,1.791,0,0,1,1.788-1.788h13.6a1.791,1.791,0,0,1,1.788,1.788v9.013a1.791,1.791,0,0,1-1.788,1.788Zm7.894,1.192v4.623H20.971V31.061ZM17.037,63.819H13.461V55.474h3.576Zm41.964,0H55.425V55.474H59Zm4.769-9.537H8.692v-15.6A1.791,1.791,0,0,1,10.48,36.9h51.5a1.791,1.791,0,0,1,1.788,1.788Z" transform="translate(0)" fill="#263238"/>
    </g>
  </g>
</svg>
