<svg xmlns="http://www.w3.org/2000/svg" width="72.996" height="72.996" viewBox="0 0 72.996 72.996">
  <g id="Group_1357" data-name="Group 1357" transform="translate(-500.502 -2217.502)">
    <g id="asset-management" transform="translate(499.502 2216.502)">
      <path id="Path_4149" data-name="Path 4149" d="M49.611,41.463a14.945,14.945,0,0,0-5.1-11.247L40.38,26.6l3.686-11.06-6.7-1.675-3.187,4.249-3.043-3.043L24.5,16.733l3.71,9.892-4.1,3.591a14.945,14.945,0,0,0,9.842,26.193h.721A14.962,14.962,0,0,0,49.611,41.463Zm-19.2-23.781L34.433,21.7l3.877-5.17,2.717.679L38.166,25.8H30.412l-2.782-7.42Zm4.254,36.372h-.721a12.591,12.591,0,0,1-8.291-22.066l4.383-3.836h8.535l4.384,3.836a12.591,12.591,0,0,1-8.291,22.066Z" transform="translate(3.192 2.282)" fill="#63ab3b"/>
      <path id="Path_4150" data-name="Path 4150" d="M12.467,34.908a24.754,24.754,0,0,1,22.44-22.44l1.071-.1V2.927l-1.26.089a34.362,34.362,0,0,0-31.7,31.7l-.088,1.26h9.444ZM24.548,13.123c-.695.364-1.369.759-2.026,1.18l-2.6-3.891A31.873,31.873,0,0,1,22.745,8.77Zm.336-5.342A31.528,31.528,0,0,1,28,6.642l.924,4.649c-.764.243-1.512.52-2.244.827ZM20.6,15.659q-.922.71-1.777,1.5l-3.306-3.306a32.25,32.25,0,0,1,2.478-2.086Zm-3.441,3.16q-.784.855-1.5,1.775l-3.9-2.6q.98-1.293,2.085-2.478Zm-2.852,3.7q-.632.985-1.18,2.027l-4.353-1.8a31.884,31.884,0,0,1,1.642-2.823Zm-2.185,4.16c-.306.733-.585,1.48-.827,2.244L6.642,28a31.231,31.231,0,0,1,1.14-3.116ZM33.624,10.24c-.821.107-1.626.255-2.422.433l-.918-4.618a31.3,31.3,0,0,1,3.34-.576ZM5.48,33.624a31.3,31.3,0,0,1,.576-3.34l4.619.918c-.179.795-.327,1.6-.434,2.422Z" transform="translate(0.342 0.342)" fill="#63ab3b"/>
      <path id="Path_4151" data-name="Path 4151" d="M56.512,34.071a24.754,24.754,0,0,1-22.44,22.44l-1.071.1v9.444l1.26-.089a34.36,34.36,0,0,0,31.7-31.7L66.052,33H56.608ZM63.5,35.355A32.014,32.014,0,0,1,35.355,63.5v-4.76A27.109,27.109,0,0,0,58.739,35.355Z" transform="translate(5.675 5.675)" fill="#63ab3b"/>
      <path id="Path_4152" data-name="Path 4152" d="M12.809,34.071,12.712,33H3.269l.089,1.26a34.263,34.263,0,0,0,13.481,24.8l-4.553,4.552H7.848a3.532,3.532,0,1,0,0,2.355h5.413l5.529-5.529a33.909,33.909,0,0,0,16.271,5.525l1.26.089V56.608l-1.071-.1a24.753,24.753,0,0,1-22.44-22.44ZM4.532,65.966a1.177,1.177,0,1,1,1.177-1.177A1.179,1.179,0,0,1,4.532,65.966ZM33.966,63.5A32.014,32.014,0,0,1,5.821,35.355h4.76A27.109,27.109,0,0,0,33.966,58.739Z" transform="translate(0 5.675)" fill="#63ab3b"/>
      <path id="Path_4153" data-name="Path 4153" d="M61.473,5.709a3.532,3.532,0,1,0,0-2.355H56.06L50.531,8.884A33.909,33.909,0,0,0,34.26,3.358L33,3.269v9.444l1.071.1a24.754,24.754,0,0,1,22.44,22.44l.1,1.071h9.444l-.089-1.26a34.263,34.263,0,0,0-13.481-24.8l4.553-4.552Zm3.315-2.355a1.177,1.177,0,1,1-1.177,1.177A1.179,1.179,0,0,1,64.789,3.355ZM63.5,33.966h-4.76A27.109,27.109,0,0,0,35.355,10.581V5.821A32.014,32.014,0,0,1,63.5,33.966Z" transform="translate(5.675)" fill="#63ab3b"/>
    </g>
    <path id="Path_4154" data-name="Path 4154" d="M96.142,12.276h-2.35a4.9,4.9,0,0,0-.681-1.6h3.031a1.189,1.189,0,1,0,0-2.377H86.5a1.189,1.189,0,1,0,0,2.377h2.272a2.8,2.8,0,0,1,2.518,1.6H86.5a1.189,1.189,0,1,0,0,2.377h4.794a2.8,2.8,0,0,1-2.521,1.6H86.5a1.168,1.168,0,0,0-.8,2.034l6.389,7.057a1.19,1.19,0,0,0,1.763-1.6l-4.676-5.15a5.212,5.212,0,0,0,4.628-3.94h2.348a1.189,1.189,0,1,0,0-2.377Z" transform="translate(446.227 2244.309)" fill="#63ab3b"/>
  </g>
</svg>
