<svg xmlns="http://www.w3.org/2000/svg" width="59.5" height="62.088" viewBox="0 0 59.5 62.088">
  <g id="guarantee-svgrepo-com" transform="translate(-10.667)">
    <path id="Path_4542" data-name="Path 4542" d="M56.475,8.517,48.714.756,47.957,0H10.667V62.087H57.233V9.275Z" fill="#e6e9ed"/>
    <path id="Path_4543" data-name="Path 4543" d="M103.753,406.632l-3.881-1.3-3.881,1.3V397.98h7.761Z" transform="translate(-74.978 -349.717)" fill="#63ab3b"/>
    <path id="Path_4544" data-name="Path 4544" d="M87.6,326.451a6.467,6.467,0,1,1-6.467-6.469A6.466,6.466,0,0,1,87.6,326.451Z" transform="translate(-56.236 -281.178)" fill="#63ab3b"/>
    <path id="Path_4545" data-name="Path 4545" d="M254.372,373.324h-7.761a1.292,1.292,0,1,0,0,2.585h7.761a1.292,1.292,0,1,0,0-2.585Z" transform="translate(-206.194 -328.051)" fill="#5d9cec"/>
    <g id="Group_258" data-name="Group 258" transform="translate(18.428 15.52)">
      <path id="Path_4546" data-name="Path 4546" d="M75.957,194.566h28.458a1.294,1.294,0,0,0,0-2.588H75.957a1.294,1.294,0,0,0,0,2.588Z" transform="translate(-74.665 -184.217)" fill="#01458e"/>
      <path id="Path_4547" data-name="Path 4547" d="M104.415,255.976H75.957a1.295,1.295,0,0,0,0,2.589h28.458a1.295,1.295,0,0,0,0-2.589Z" transform="translate(-74.665 -240.454)" fill="#01458e"/>
      <path id="Path_4548" data-name="Path 4548" d="M75.957,130.568h14.23a1.294,1.294,0,0,0,0-2.588H75.957a1.294,1.294,0,0,0,0,2.588Z" transform="translate(-74.665 -127.98)" fill="#01458e"/>
    </g>
    <path id="Path_4549" data-name="Path 4549" d="M422.874,362.636h-3.435l-3.456,12.074,5.175,3.449,5.173-3.449Z" transform="translate(-356.163 -318.659)" fill="#63ab3b"/>
    <path id="Path_4550" data-name="Path 4550" d="M421.158,85.325a5.173,5.173,0,0,0-5.175,5.173v34.926h10.348V90.5A5.172,5.172,0,0,0,421.158,85.325Z" transform="translate(-356.163 -74.978)" fill="#01458e"/>
    <path id="Path_4551" data-name="Path 4551" d="M119.909,363.932a1.294,1.294,0,1,1-1.294-1.3A1.294,1.294,0,0,1,119.909,363.932Z" transform="translate(-93.72 -318.659)" fill="#f6bb42"/>
    <path id="Path_4552" data-name="Path 4552" d="M327.435,9.275h-9.277V0Z" transform="translate(-270.201)" fill="#ccd1d9"/>
  </g>
</svg>
