<svg version="1.1" id="Layer_1" xmlns="http://www.w3.org/2000/svg" x="0" y="0" viewBox="0 0 1080 1080" style="enable-background:new 0 0 1080 1080" xml:space="preserve"><style>.st1{fill:#282e6a}</style><path id="Path_98" d="M783.89 366.7c0 176.21-142.92 319.07-319.07 319.07S145.75 542.86 145.75 366.7 288.66 47.63 464.82 47.63 783.89 190.55 783.89 366.7z" style="fill:#01A54F"/><g id="Group_179_1_" transform="translate(80.719)"><path id="Path_99_1_" class="st1" d="M745.59 366.62c0-12.25 9.87-22.02 21.96-22.17h209.72c12.1 0 22.02 9.87 22.02 22.02 0 12.25-9.87 22.17-22.02 22.17H767.6c-12.1 0-22.01-9.87-22.01-22.02z"/><path id="Path_100_1_" class="st1" d="M745.59 201.15c0-12.25 9.87-22.17 22.02-22.02h99.43c12.1 0 22.02 9.87 22.02 22.02 0 12.1-9.87 22.02-22.02 22.02H767.6c-12.1-.01-22.01-9.87-22.01-22.02z"/><path id="Path_101_1_" class="st1" d="M767.65 510.09h99.53c12.1 0 22.02 10.07 22.02 22.17 0 12.1-10.02 22.02-22.17 22.02H767.6c-12.1 0-22.02-9.87-22.02-22.02.01-12.26 9.87-22.12 22.07-22.17z"/></g><g id="Group_180" transform="translate(83.195 27.023)"><path id="Path_102" d="M251.47 131.74H544.3v.61c-8.95 14.73-18.68 29.02-29.24 42.64h-78.21c11.12 13.23 18.68 29.02 21.96 45.92h83.38c1 .28 1.5.61 1.5 1.28-18.68 28.02-28.24 42.02-28.63 42.02h-54.25a125.987 125.987 0 0 1-20.68 52.09c-12.34 17.01-28.74 30.8-47.81 39.86-25.35 12.84-53.2 19.79-81.6 20.46v.61c5.17 9.34 11.62 17.79 19.18 25.24L474.54 576.9v8.17c0 .78-.5 1.28-1.5 1.28H409.5c-114.51-133.3-171.65-200.28-171.65-200.89v-40.47l.61-1.5c11.84 1.5 23.74 2.28 35.58 2.17 64.09 0 104.06-20.79 119.68-62.42 2.39-6.06 3.67-12.34 3.67-18.9H223.12c-.61.11-1.11-.39-1.28-.89v-.28c19.29-28.02 29.13-42.02 29.52-42.02H389.6v-.61c-10.12-17.79-26.46-31.3-45.92-37.47-14.12-4.89-28.91-7.56-43.91-7.95h-77.32v-1.5c18.68-27.98 28.4-41.88 29.02-41.88z" style="fill:#fff"/></g><g id="Group_133" transform="translate(59.812 58.716)"><g id="Group_132"><path id="Path_55" class="st1" d="M76.87 713.92H-34.38c-14.58 0-26.43 11.85-26.43 26.43v206.87c0 14.58 11.85 26.43 26.43 26.43h84.92l52.86-26.43V740.35c0-14.69-11.9-26.43-26.53-26.43.1 0 0 0 0 0z"/><g id="Group_131" transform="translate(7.468)"><path id="Path_56" d="M770.35 711.97c-49.58-49.48-129.87-49.48-179.45 0l-79.05 79.05-32.65 32.65a68.905 68.905 0 0 1-48.78 20.21H237.29c-14.34.1-26.18-10.95-27.13-25.19-.7-14.58 10.5-26.98 25.09-27.68h186.91c41.66-.1 75.91-33.2 77.35-74.86v-2.14c0-14.58-11.85-26.43-26.43-26.43h-87.76c-28.67 0-56.25-12.99-85.37-26.78-30.71-16.92-64.36-27.68-99.16-31.86-32.5-2.14-65.06 1.44-96.32 10.5-36.24 10.6-61.23 43.7-61.42 81.44v252.77h454.66c31.06.1 60.88-12.2 82.78-34.2L770.34 749.6c10.27-10.4 10.27-27.12.01-37.63z" style="fill:#f8bf9d"/></g></g></g></svg>
