<svg xmlns="http://www.w3.org/2000/svg" width="85.429" height="77.363" viewBox="0 0 85.429 77.363">
  <g id="Group_1348" data-name="Group 1348" transform="translate(-1069.508 -1470)">
    <path id="Path_51" data-name="Path 51" d="M43.064,13.824C65.695,8.536,85.429,15.8,85.429,39.584S66.847,89.551,43.064,89.551,0,63.368,0,39.584,20.433,19.112,43.064,13.824Z" transform="translate(1069.508 1457.812)" fill="#e1e2e3" opacity="0.47"/>
    <g id="_5630333171579680342" data-name="5630333171579680342" transform="translate(1065.357 1466.67)">
      <path id="Path_921" data-name="Path 921" d="M78.461,16.4V68.132a1.278,1.278,0,0,1-1.279,1.279H39.707a1.278,1.278,0,0,1-1.279-1.279V64.775h2.346a1.023,1.023,0,0,0,0-2.046H38.428V57.613h2.346a1.023,1.023,0,0,0,0-2.046H38.428V50.451h2.346a1.023,1.023,0,0,0,0-2.046H38.428V43.288h2.346a1.023,1.023,0,0,0,0-2.046H38.428V36.126h2.346a1.023,1.023,0,0,0,0-2.046H38.428V28.964h2.346a1.023,1.023,0,0,0,0-2.046H38.428V21.8h2.346a1.023,1.023,0,1,0,0-2.046H38.428V16.4a1.278,1.278,0,0,1,1.279-1.279H77.182A1.278,1.278,0,0,1,78.461,16.4" transform="translate(-9.995 -1.435)" fill="#01458e"/>
      <path id="Path_922" data-name="Path 922" d="M75.746,68.54H38.272A1.846,1.846,0,0,1,36.428,66.7V63.34a.565.565,0,0,1,.565-.565h2.346a.459.459,0,0,0,0-.917H36.993a.565.565,0,0,1-.565-.565V56.178a.565.565,0,0,1,.565-.565h2.346a.459.459,0,0,0,0-.917H36.993a.565.565,0,0,1-.565-.565V49.016a.565.565,0,0,1,.565-.565h2.346a.459.459,0,0,0,0-.917H36.993a.565.565,0,0,1-.565-.565V41.853a.565.565,0,0,1,.565-.565h2.346a.459.459,0,0,0,0-.917H36.993a.565.565,0,0,1-.565-.565V34.691a.565.565,0,0,1,.565-.565h2.346a.459.459,0,0,0,0-.917H36.993a.565.565,0,0,1-.565-.565V27.528a.565.565,0,0,1,.565-.565h2.346a.459.459,0,0,0,0-.917H36.993a.565.565,0,0,1-.565-.565V20.366a.565.565,0,0,1,.565-.565h2.346a.459.459,0,0,0,0-.917H36.993a.565.565,0,0,1-.565-.565V14.964a1.846,1.846,0,0,1,1.844-1.844H75.746a1.846,1.846,0,0,1,1.844,1.844V66.7a1.846,1.846,0,0,1-1.844,1.844M37.557,63.9V66.7a.715.715,0,0,0,.714.714H75.746a.715.715,0,0,0,.714-.714V14.964a.715.715,0,0,0-.714-.714H38.272a.716.716,0,0,0-.714.714v2.792h1.781a1.588,1.588,0,0,1,0,3.175H37.557v3.987h1.781a1.588,1.588,0,0,1,0,3.176H37.557V32.08h1.781a1.588,1.588,0,0,1,0,3.175H37.557v3.987h1.781a1.588,1.588,0,0,1,0,3.175H37.557V46.4h1.781a1.588,1.588,0,0,1,0,3.176H37.557v3.987h1.781a1.588,1.588,0,0,1,0,3.176H37.557v3.987h1.781a1.588,1.588,0,0,1,0,3.175H37.557Z" transform="translate(-8.56)" fill="#10003b"/>
      <path id="Path_923" data-name="Path 923" d="M89.023,68.834H66.9a1.279,1.279,0,0,1-1.279-1.279V58A1.279,1.279,0,0,1,66.9,56.726H89.023A1.279,1.279,0,0,1,90.3,58v9.55a1.279,1.279,0,0,1-1.279,1.279" transform="translate(-29.509 -31.297)" fill="#63ab3b"/>
      <path id="Path_924" data-name="Path 924" d="M87.587,67.963H65.461a1.846,1.846,0,0,1-1.844-1.844V56.57a1.846,1.846,0,0,1,1.844-1.844H87.587a1.846,1.846,0,0,1,1.843,1.844v9.55a1.846,1.846,0,0,1-1.843,1.844M65.461,55.855a.715.715,0,0,0-.714.714v9.55a.715.715,0,0,0,.714.715H87.587a.715.715,0,0,0,.714-.715V56.57a.715.715,0,0,0-.714-.714Z" transform="translate(-28.074 -29.862)" fill="#10003b"/>
      <path id="Path_925" data-name="Path 925" d="M89.023,127.121H66.9a1.279,1.279,0,0,1-1.279-1.279v-3.5a1.279,1.279,0,0,1,1.279-1.279H89.023a1.279,1.279,0,0,1,1.279,1.279v3.5a1.279,1.279,0,0,1-1.279,1.279" transform="translate(-29.509 -77.476)" fill="#63ab3b"/>
      <path id="Path_926" data-name="Path 926" d="M87.587,126.25H65.461a1.845,1.845,0,0,1-1.844-1.844v-3.5a1.845,1.845,0,0,1,1.844-1.843H87.587a1.846,1.846,0,0,1,1.843,1.843v3.5a1.845,1.845,0,0,1-1.843,1.844M65.461,120.2a.715.715,0,0,0-.714.714v3.5a.715.715,0,0,0,.714.714H87.587a.715.715,0,0,0,.714-.714v-3.5a.715.715,0,0,0-.714-.714Z" transform="translate(-28.074 -76.041)" fill="#10003b"/>
      <path id="Path_927" data-name="Path 927" d="M33.237,184.806a1.023,1.023,0,0,1-1.023,1.023H27.525a1.023,1.023,0,1,1,0-2.046h4.689a1.023,1.023,0,0,1,1.023,1.023" transform="translate(-1.435 -122.489)" fill="#fe7058"/>
      <path id="Path_928" data-name="Path 928" d="M30.779,184.958H26.09a1.588,1.588,0,1,1,0-3.175h4.689a1.588,1.588,0,0,1,0,3.175m-4.689-2.046a.459.459,0,1,0,0,.917h4.689a.459.459,0,0,0,0-.917Z" transform="translate(0 -121.054)" fill="#10003b"/>
      <path id="Path_929" data-name="Path 929" d="M33.237,159.432a1.023,1.023,0,0,1-1.023,1.023H27.525a1.023,1.023,0,0,1,0-2.047h4.689a1.023,1.023,0,0,1,1.023,1.023" transform="translate(-1.435 -104.278)" fill="#fe7058"/>
      <path id="Path_930" data-name="Path 930" d="M30.779,159.585H26.09a1.588,1.588,0,1,1,0-3.176h4.689a1.588,1.588,0,0,1,0,3.176m-4.689-2.046a.459.459,0,1,0,0,.917h4.689a.459.459,0,0,0,0-.917Z" transform="translate(0 -102.842)" fill="#10003b"/>
      <path id="Path_931" data-name="Path 931" d="M33.237,134.058a1.023,1.023,0,0,1-1.023,1.023H27.525a1.023,1.023,0,1,1,0-2.046h4.689a1.023,1.023,0,0,1,1.023,1.023" transform="translate(-1.435 -86.066)" fill="#fe7058"/>
      <path id="Path_932" data-name="Path 932" d="M30.779,134.211H26.09a1.588,1.588,0,1,1,0-3.176h4.689a1.588,1.588,0,0,1,0,3.176m-4.689-2.046a.459.459,0,1,0,0,.917h4.689a.459.459,0,0,0,0-.917Z" transform="translate(0 -84.631)" fill="#10003b"/>
      <path id="Path_933" data-name="Path 933" d="M33.237,108.685a1.023,1.023,0,0,1-1.023,1.023H27.525a1.023,1.023,0,1,1,0-2.046h4.689a1.023,1.023,0,0,1,1.023,1.023" transform="translate(-1.435 -67.855)" fill="#fe7058"/>
      <path id="Path_934" data-name="Path 934" d="M30.779,108.837H26.09a1.588,1.588,0,1,1,0-3.175h4.689a1.588,1.588,0,0,1,0,3.175m-4.689-2.046a.459.459,0,1,0,0,.917h4.689a.459.459,0,0,0,0-.917Z" transform="translate(0 -66.42)" fill="#10003b"/>
      <path id="Path_935" data-name="Path 935" d="M33.237,83.311a1.023,1.023,0,0,1-1.023,1.023H27.525a1.023,1.023,0,1,1,0-2.046h4.689a1.023,1.023,0,0,1,1.023,1.023" transform="translate(-1.435 -49.644)" fill="#fe7058"/>
      <path id="Path_936" data-name="Path 936" d="M30.779,83.463H26.09a1.588,1.588,0,1,1,0-3.175h4.689a1.588,1.588,0,0,1,0,3.175M26.09,81.417a.459.459,0,1,0,0,.917h4.689a.459.459,0,0,0,0-.917Z" transform="translate(0 -48.208)" fill="#10003b"/>
      <path id="Path_937" data-name="Path 937" d="M33.237,57.937a1.023,1.023,0,0,1-1.023,1.023H27.525a1.023,1.023,0,1,1,0-2.046h4.689a1.023,1.023,0,0,1,1.023,1.023" transform="translate(-1.435 -31.432)" fill="#fe7058"/>
      <path id="Path_938" data-name="Path 938" d="M30.779,58.09H26.09a1.588,1.588,0,1,1,0-3.176h4.689a1.588,1.588,0,0,1,0,3.176M26.09,56.043a.459.459,0,1,0,0,.917h4.689a.459.459,0,0,0,0-.917Z" transform="translate(0 -29.997)" fill="#10003b"/>
      <path id="Path_939" data-name="Path 939" d="M33.237,32.564a1.023,1.023,0,0,1-1.023,1.023H27.525a1.023,1.023,0,1,1,0-2.046h4.689a1.023,1.023,0,0,1,1.023,1.023" transform="translate(-1.435 -13.221)" fill="#fe7058"/>
      <path id="Path_940" data-name="Path 940" d="M30.779,32.716H26.09a1.588,1.588,0,1,1,0-3.175h4.689a1.588,1.588,0,0,1,0,3.175M26.09,30.67a.459.459,0,1,0,0,.917h4.689a.459.459,0,0,0,0-.917Z" transform="translate(0 -11.786)" fill="#10003b"/>
    </g>
  </g>
</svg>
