<svg xmlns="http://www.w3.org/2000/svg" width="70.709" height="70.708" viewBox="0 0 70.709 70.708">
  <g id="customer-rate-svgrepo-com" transform="translate(0.001)">
    <path id="Path_3984" data-name="Path 3984" d="M256.8,8.174V28.785a10.305,10.305,0,0,0,0-20.611Z" transform="translate(-221.34 -7.045)" fill="#1e63ae"/>
    <path id="Path_3985" data-name="Path 3985" d="M192.488,8.174a10.305,10.305,0,0,0,0,20.611c3.9,0,7.055-4.609,7.055-10.305S196.388,8.174,192.488,8.174Z" transform="translate(-157.024 -7.045)" fill="#01458e"/>
    <path id="Path_3986" data-name="Path 3986" d="M256,185.742v18.134h18.134A18.134,18.134,0,0,0,256,185.742Z" transform="translate(-220.648 -160.091)" fill="#6de62a"/>
    <path id="Path_3987" data-name="Path 3987" d="M142.824,185.742a18.134,18.134,0,0,0-18.134,18.134h31.755C156.446,193.861,150.347,185.742,142.824,185.742Z" transform="translate(-107.471 -160.091)" fill="#63ab3b"/>
    <path id="Path_3988" data-name="Path 3988" d="M252.754,374.613l-4.792,4.879,1.008,6.764-6.122-3.048-2.106-7.257,2.106-8.534,3.161,6.064Z" transform="translate(-207.497 -316.676)" fill="#f3a933"/>
    <path id="Path_3989" data-name="Path 3989" d="M194.185,367.417v15.79l-6.12,3.048,1.006-6.764-4.79-4.879,6.744-1.131Z" transform="translate(-158.832 -316.676)" fill="#ffbe35"/>
    <path id="Path_3990" data-name="Path 3990" d="M428.868,374.613l-4.792,4.879,1.008,6.764-6.122-3.048-2.106-7.257,2.106-8.534,3.161,6.064Z" transform="translate(-359.289 -316.676)" fill="#f3a933"/>
    <path id="Path_3991" data-name="Path 3991" d="M370.3,367.417v15.79l-6.12,3.048,1.006-6.764-4.79-4.879,6.744-1.131Z" transform="translate(-310.624 -316.676)" fill="#ffbe35"/>
    <path id="Path_3992" data-name="Path 3992" d="M76.644,374.613l-4.792,4.879,1.008,6.764-6.122-3.048-2.106-7.257,2.106-8.534,3.161,6.064Z" transform="translate(-55.708 -316.676)" fill="#f3a933"/>
    <path id="Path_3993" data-name="Path 3993" d="M18.076,367.417v15.79l-6.12,3.048,1.006-6.764-4.79-4.879,6.744-1.131Z" transform="translate(-7.044 -316.676)" fill="#ffbe35"/>
    <path id="Path_3994" data-name="Path 3994" d="M186.517,22.267a11.134,11.134,0,1,0-11.133-11.134A11.146,11.146,0,0,0,186.517,22.267Zm0-20.01a8.877,8.877,0,1,1-8.877,8.877A8.887,8.887,0,0,1,186.517,2.257Z" transform="translate(-151.164)"/>
    <path id="Path_3995" data-name="Path 3995" d="M135.783,179.832a17.028,17.028,0,0,1,16.969,15.878H126.675a1.128,1.128,0,1,0,0,2.257h27.242a1.128,1.128,0,0,0,1.128-1.128,19.263,19.263,0,1,0-38.525,0,1.128,1.128,0,0,0,1.128,1.128h4.513a1.128,1.128,0,1,0,0-2.257h-3.348A17.028,17.028,0,0,1,135.783,179.832Z" transform="translate(-100.429 -153.051)"/>
    <path id="Path_3996" data-name="Path 3996" d="M21.123,366.459l-6.19-1.039-2.9-5.566a1.128,1.128,0,0,0-2,0l-2.9,5.566-6.19,1.039a1.128,1.128,0,0,0-.619,1.9l4.4,4.479-.925,6.208a1.128,1.128,0,0,0,1.619,1.176l5.618-2.8,5.618,2.8a1.128,1.128,0,0,0,1.619-1.177l-.925-6.208,4.4-4.479a1.128,1.128,0,0,0-.618-1.9Zm-5.782,5.2a1.128,1.128,0,0,0-.311.957l.689,4.622-4.183-2.083a1.128,1.128,0,0,0-1.006,0L6.345,377.24l.689-4.622a1.127,1.127,0,0,0-.311-.957l-3.274-3.335,4.609-.774a1.129,1.129,0,0,0,.814-.591l2.16-4.144,2.16,4.144a1.129,1.129,0,0,0,.814.591l4.609.774Z" transform="translate(0 -309.635)"/>
    <path id="Path_3997" data-name="Path 3997" d="M197.237,366.459l-6.19-1.039-2.9-5.566a1.128,1.128,0,0,0-2,0l-2.9,5.566-6.19,1.039a1.128,1.128,0,0,0-.619,1.9l4.4,4.479-.925,6.208a1.128,1.128,0,0,0,1.619,1.176l5.618-2.8,5.618,2.8a1.129,1.129,0,0,0,1.619-1.177l-.925-6.208,4.4-4.479a1.128,1.128,0,0,0-.618-1.9Zm-5.782,5.2a1.128,1.128,0,0,0-.311.957l.688,4.622-4.183-2.083a1.129,1.129,0,0,0-1.006,0l-4.183,2.083.688-4.622a1.127,1.127,0,0,0-.311-.957l-3.274-3.335,4.609-.774a1.129,1.129,0,0,0,.814-.591l2.16-4.144,2.16,4.144a1.129,1.129,0,0,0,.814.591l4.609.774Z" transform="translate(-151.792 -309.635)"/>
    <path id="Path_3998" data-name="Path 3998" d="M374.236,367.223a1.128,1.128,0,0,0-.886-.764l-6.19-1.039-2.9-5.566a1.128,1.128,0,0,0-2,0l-2.9,5.566-6.19,1.039a1.128,1.128,0,0,0-.619,1.9l4.4,4.479-.925,6.208a1.128,1.128,0,0,0,1.619,1.176l5.618-2.8,5.618,2.8a1.128,1.128,0,0,0,1.619-1.176l-.925-6.208,4.4-4.479A1.128,1.128,0,0,0,374.236,367.223Zm-6.669,4.438a1.128,1.128,0,0,0-.311.957l.689,4.622-4.183-2.083a1.129,1.129,0,0,0-1.006,0l-4.183,2.083.689-4.622a1.127,1.127,0,0,0-.311-.957l-3.274-3.335,4.609-.774a1.129,1.129,0,0,0,.814-.591l2.16-4.144,2.16,4.144a1.129,1.129,0,0,0,.814.591l4.609.774Z" transform="translate(-303.584 -309.634)"/>
    <path id="Path_3999" data-name="Path 3999" d="M230.181,94.993a5.116,5.116,0,0,0,3.86-1.763,1.128,1.128,0,0,0-1.7-1.481,2.851,2.851,0,0,1-4.315,0,1.128,1.128,0,0,0-1.7,1.481A5.116,5.116,0,0,0,230.181,94.993Z" transform="translate(-194.827 -78.744)" fill="#fff"/>
  </g>
</svg>
