<svg xmlns="http://www.w3.org/2000/svg" width="38.83" height="38.83" viewBox="0 0 38.83 38.83">
  <g id="layer2" transform="translate(-0.529 -0.529)">
    <path id="circle9353" d="M10.526,2.088A1.294,1.294,0,1,1,9.232.794a1.294,1.294,0,0,1,1.294,1.294Z" transform="translate(10.712 0.383)" fill="#e2e7fa"/>
    <path id="path9291" d="M.794,3.969V8.823c0,1.251,3.187,2.265,7.119,2.265s7.119-1.014,7.119-2.265V3.969H14.95c-.5,1.1-3.453,1.942-7.038,1.942S1.37,5.066.875,3.969Z" transform="translate(0.383 4.974)" fill="#a8c5f7"/>
    <path id="path9293" d="M14.951,3.969a2.369,2.369,0,0,1-1.213.961v2.6c0,1.251-3.187,2.265-7.119,2.265A15.166,15.166,0,0,1,.794,8.825c0,1.25,3.19,2.263,7.119,2.263s7.119-1.014,7.119-2.265V3.969Z" transform="translate(0.383 4.974)" fill="#91b8fb"/>
    <path id="ellipse9295" d="M15.031,5.175c0,1.251-3.187,2.265-7.119,2.265S.794,6.426.794,5.175,3.981,2.91,7.913,2.91,15.031,3.924,15.031,5.175Z" transform="translate(0.383 3.443)" fill="#e2e7fa"/>
    <path id="path9297" d="M13.737,3.306s0,0,0,0c0,1.251-3.187,2.265-7.119,2.265A15.279,15.279,0,0,1,.794,4.608C.8,5.857,3.985,6.869,7.913,6.869S15.032,5.855,15.031,4.6c0-.465-.455-.918-1.294-1.3Z" transform="translate(0.383 4.015)" fill="#c4d2f0"/>
    <path id="path9301" d="M.794,6.085v4.854c0,1.251,3.187,2.265,7.119,2.265s7.119-1.014,7.119-2.265V6.085H14.95c-.5,1.1-3.453,1.942-7.038,1.942S1.37,7.182.875,6.085Z" transform="translate(0.383 8.034)" fill="#a8c5f7"/>
    <path id="path9303" d="M14.951,6.085a2.369,2.369,0,0,1-1.213.961v2.6c0,1.251-3.187,2.265-7.119,2.265a15.166,15.166,0,0,1-5.825-.968c0,1.25,3.19,2.263,7.119,2.263s7.119-1.014,7.119-2.265V6.085Z" transform="translate(0.383 8.034)" fill="#91b8fb"/>
    <path id="path9305" d="M.794,8.2v4.854c0,1.251,3.187,2.265,7.119,2.265s7.119-1.014,7.119-2.265V8.2H14.95c-.5,1.1-3.453,1.942-7.038,1.942S1.37,9.3.875,8.2Z" transform="translate(0.383 11.095)" fill="#a8c5f7"/>
    <path id="path9307" d="M14.951,8.2a2.369,2.369,0,0,1-1.213.961v2.6c0,1.251-3.187,2.265-7.119,2.265a15.166,15.166,0,0,1-5.825-.968c0,1.25,3.19,2.263,7.119,2.263s7.119-1.014,7.119-2.265V8.2Z" transform="translate(0.383 11.095)" fill="#91b8fb"/>
    <path id="path9309" d="M.794,10.319v4.854c0,1.251,3.187,2.265,7.119,2.265s7.119-1.014,7.119-2.265V10.319H14.95c-.5,1.1-3.453,1.942-7.038,1.942S1.37,11.416.875,10.319Z" transform="translate(0.383 14.156)" fill="#a8c5f7"/>
    <path id="path9311" d="M14.951,10.319a2.369,2.369,0,0,1-1.213.961v2.6c0,1.251-3.187,2.265-7.119,2.265a15.166,15.166,0,0,1-5.825-.968c0,1.25,3.19,2.263,7.119,2.263s7.119-1.014,7.119-2.265V10.319Z" transform="translate(0.383 14.156)" fill="#91b8fb"/>
    <path id="path9254" d="M10.319,3.969V8.823c0,1.251,3.187,2.265,7.119,2.265s7.119-1.014,7.119-2.265V3.969h-.081c-.5,1.1-3.453,1.942-7.038,1.942S10.895,5.066,10.4,3.969Z" transform="translate(14.156 4.974)" fill="#a8c5f7"/>
    <path id="path9256" d="M24.476,3.969a2.369,2.369,0,0,1-1.213.961v2.6c0,1.251-3.187,2.265-7.119,2.265a15.166,15.166,0,0,1-5.825-.968c0,1.25,3.19,2.263,7.119,2.263s7.119-1.014,7.119-2.265V3.969Z" transform="translate(14.156 4.974)" fill="#91b8fb"/>
    <path id="ellipse9258" d="M24.556,5.175c0,1.251-3.187,2.265-7.119,2.265s-7.119-1.014-7.119-2.265S13.506,2.91,17.438,2.91,24.556,3.924,24.556,5.175Z" transform="translate(14.156 3.443)" fill="#e2e7fa"/>
    <path id="path9260" d="M23.262,3.306s0,0,0,0c0,1.251-3.187,2.265-7.119,2.265a15.279,15.279,0,0,1-5.825-.967c.006,1.249,3.192,2.261,7.119,2.261S24.557,5.855,24.556,4.6c0-.465-.455-.918-1.294-1.3Z" transform="translate(14.156 4.015)" fill="#c4d2f0"/>
    <path id="path9264" d="M10.319,6.085v4.854c0,1.251,3.187,2.265,7.119,2.265s7.119-1.014,7.119-2.265V6.085h-.081c-.5,1.1-3.453,1.942-7.038,1.942S10.895,7.182,10.4,6.085Z" transform="translate(14.156 8.034)" fill="#a8c5f7"/>
    <path id="path9266" d="M24.476,6.085a2.369,2.369,0,0,1-1.213.961v2.6c0,1.251-3.187,2.265-7.119,2.265a15.166,15.166,0,0,1-5.825-.968c0,1.25,3.19,2.263,7.119,2.263s7.119-1.014,7.119-2.265V6.085Z" transform="translate(14.156 8.034)" fill="#91b8fb"/>
    <path id="path9268" d="M10.319,8.2v4.854c0,1.251,3.187,2.265,7.119,2.265s7.119-1.014,7.119-2.265V8.2h-.081c-.5,1.1-3.453,1.942-7.038,1.942S10.895,9.3,10.4,8.2Z" transform="translate(14.156 11.095)" fill="#a8c5f7"/>
    <path id="path9270" d="M24.476,8.2a2.369,2.369,0,0,1-1.213.961v2.6c0,1.251-3.187,2.265-7.119,2.265a15.166,15.166,0,0,1-5.825-.968c0,1.25,3.19,2.263,7.119,2.263s7.119-1.014,7.119-2.265V8.2Z" transform="translate(14.156 11.095)" fill="#91b8fb"/>
    <path id="path9272" d="M10.319,10.319v4.854c0,1.251,3.187,2.265,7.119,2.265s7.119-1.014,7.119-2.265V10.319h-.081c-.5,1.1-3.453,1.942-7.038,1.942s-6.543-.844-7.038-1.942Z" transform="translate(14.156 14.156)" fill="#a8c5f7"/>
    <path id="path9351" d="M11.377,6.615V22.147l1.294.347V7.262Z" transform="translate(15.686 8.799)" fill="#91b8fb"/>
    <path id="path9274" d="M24.476,10.319a2.369,2.369,0,0,1-1.213.961v2.6c0,1.251-3.187,2.265-7.119,2.265a15.166,15.166,0,0,1-5.825-.968c0,1.25,3.19,2.263,7.119,2.263s7.119-1.014,7.119-2.265V10.319Z" transform="translate(14.156 14.156)" fill="#91b8fb"/>
    <path id="path9237" d="M5.556,6.879v4.854C5.556,12.984,8.744,14,12.675,14s7.119-1.014,7.119-2.265V6.879h-.081c-.5,1.1-3.453,1.942-7.038,1.942S6.132,7.976,5.637,6.879Z" transform="translate(7.269 9.182)" fill="#a8c5f7"/>
    <path id="path9239" d="M19.713,6.879A2.369,2.369,0,0,1,18.5,7.84v2.6c0,1.251-3.187,2.265-7.119,2.265a15.166,15.166,0,0,1-5.825-.968c0,1.25,3.19,2.263,7.119,2.263s7.119-1.014,7.119-2.265V6.879Z" transform="translate(7.269 9.182)" fill="#91b8fb"/>
    <path id="ellipse9199" d="M19.794,8.086c0,1.251-3.187,2.265-7.119,2.265S5.556,9.337,5.556,8.086s3.187-2.265,7.119-2.265S19.794,6.835,19.794,8.086Z" transform="translate(7.269 7.652)" fill="#e2e7fa"/>
    <path id="path9201" d="M11.381,8.484a15.28,15.28,0,0,1-5.825-.967c.006,1.249,3.192,2.261,7.119,2.261s7.119-1.014,7.119-2.265c0-.465-.455-.918-1.294-1.3,0,1.253-3.187,2.267-7.119,2.267Z" transform="translate(7.269 8.225)" fill="#c4d2f0"/>
    <path id="path9203" d="M5.556,9V13.85c0,1.251,3.187,2.265,7.119,2.265s7.119-1.014,7.119-2.265V9h-.081c-.5,1.1-3.453,1.942-7.038,1.942S6.132,10.093,5.637,9Z" transform="translate(7.269 12.243)" fill="#a8c5f7"/>
    <path id="path9205" d="M19.713,9a2.369,2.369,0,0,1-1.213.961v2.6c0,1.251-3.187,2.265-7.119,2.265a15.166,15.166,0,0,1-5.825-.968c0,1.25,3.19,2.263,7.119,2.263s7.119-1.014,7.119-2.265V9Z" transform="translate(7.269 12.243)" fill="#91b8fb"/>
    <path id="path9207" d="M5.556,11.113v4.854c0,1.251,3.187,2.265,7.119,2.265s7.119-1.014,7.119-2.265V11.113h-.081c-.5,1.1-3.453,1.942-7.038,1.942s-6.543-.844-7.038-1.942Z" transform="translate(7.269 15.303)" fill="#a8c5f7"/>
    <path id="path9209" d="M19.713,11.113a2.369,2.369,0,0,1-1.213.961v2.6c0,1.251-3.187,2.265-7.119,2.265a15.166,15.166,0,0,1-5.825-.968c0,1.25,3.19,2.263,7.119,2.263s7.119-1.014,7.119-2.265V11.113Z" transform="translate(7.269 15.303)" fill="#91b8fb"/>
    <path id="path9211" d="M5.556,13.229v4.854c0,1.251,3.187,2.265,7.119,2.265s7.119-1.014,7.119-2.265V13.229h-.081c-.5,1.1-3.453,1.942-7.038,1.942s-6.543-.844-7.038-1.942Z" transform="translate(7.269 18.364)" fill="#a8c5f7"/>
    <path id="path9213" d="M19.713,13.229a2.369,2.369,0,0,1-1.213.961v2.6c0,1.251-3.187,2.265-7.119,2.265a15.166,15.166,0,0,1-5.825-.968c0,1.25,3.19,2.263,7.119,2.263s7.119-1.014,7.119-2.265V13.229Z" transform="translate(7.269 18.364)" fill="#91b8fb"/>
    <path id="path903" d="M7.913,2.91C3.981,2.91.794,3.925.794,5.175S3.981,7.441,7.913,7.441c.11,0,.212-.009.321-.01-3.419-.055-6.145-.947-6.145-2.049,0-1.137,2.9-2.059,6.472-2.059,3.464,0,6.285.867,6.455,1.955a.739.739,0,0,0,.016-.1C15.031,3.925,11.844,2.91,7.913,2.91Z" transform="translate(0.383 3.443)" fill="#f8f8f8"/>
    <path id="path864" d="M.794,3.969V8.822c0,1.251,3.187,2.265,7.119,2.265.222,0,.431-.014.647-.02C4.936,10.962,2.088,10,2.088,8.822V4.929A2.37,2.37,0,0,1,.875,3.969Z" transform="translate(0.383 4.974)" fill="#f8f8f8"/>
    <path id="path869" d="M.794,8.208v4.854c0,1.251,3.187,2.265,7.119,2.265.222,0,.431-.014.647-.02-3.623-.106-6.472-1.064-6.472-2.245V9.169A2.369,2.369,0,0,1,.875,8.208Z" transform="translate(0.383 11.104)" fill="#f8f8f8"/>
    <path id="path867" d="M.794,6.085v4.854c0,1.251,3.187,2.265,7.119,2.265.222,0,.431-.014.647-.02-3.623-.106-6.472-1.065-6.472-2.245V7.046A2.369,2.369,0,0,1,.875,6.085Z" transform="translate(0.383 8.034)" fill="#f8f8f8"/>
    <path id="path871" d="M.794,10.325v4.854c0,1.251,3.187,2.265,7.119,2.265.222,0,.431-.014.647-.02-3.623-.106-6.472-1.064-6.472-2.245V11.285a2.37,2.37,0,0,1-1.213-.961Z" transform="translate(0.383 14.164)" fill="#f8f8f8"/>
    <g id="g885" transform="translate(12.825 16.046)">
      <path id="path873" d="M5.492,3.969V8.823c0,1.251,3.187,2.265,7.119,2.265.222,0,.431-.014.647-.02C9.635,10.962,6.787,10,6.787,8.823V4.929a2.369,2.369,0,0,1-1.213-.961Z" transform="translate(-5.492 -3.969)" fill="#f8f8f8"/>
      <path id="path875" d="M5.492,8.208v4.854c0,1.251,3.187,2.265,7.119,2.265.222,0,.431-.014.647-.02-3.623-.106-6.472-1.064-6.472-2.245V9.169a2.369,2.369,0,0,1-1.213-.961Z" transform="translate(-5.492 2.161)" fill="#f8f8f8"/>
      <path id="path877" d="M5.492,6.085v4.854c0,1.251,3.187,2.265,7.119,2.265.222,0,.431-.014.647-.02-3.623-.106-6.472-1.065-6.472-2.245V7.046a2.369,2.369,0,0,1-1.213-.961Z" transform="translate(-5.492 -0.908)" fill="#f8f8f8"/>
      <path id="path879" d="M5.492,10.325v4.854c0,1.251,3.187,2.265,7.119,2.265.222,0,.431-.014.647-.02-3.623-.106-6.472-1.064-6.472-2.245V11.285a2.37,2.37,0,0,1-1.213-.961Z" transform="translate(-5.492 5.222)" fill="#f8f8f8"/>
    </g>
    <path id="path887" d="M10.319,3.969V8.823c0,1.251,3.187,2.265,7.119,2.265.222,0,.431-.014.647-.02-3.624-.106-6.472-1.065-6.472-2.245V4.929A2.369,2.369,0,0,1,10.4,3.969Z" transform="translate(14.156 4.974)" fill="#f8f8f8"/>
    <path id="path906" d="M12.675,5.821c-3.932,0-7.119,1.014-7.119,2.265s3.187,2.265,7.119,2.265c.11,0,.212-.009.321-.01-3.419-.055-6.146-.947-6.146-2.049,0-1.137,2.9-2.059,6.472-2.059,3.464,0,6.285.867,6.455,1.955a.734.734,0,0,0,.016-.1c0-1.251-3.187-2.265-7.119-2.265Z" transform="translate(7.269 7.652)" fill="#f8f8f8"/>
    <path id="path908" d="M17.438,2.91c-3.932,0-7.119,1.014-7.119,2.265s3.187,2.265,7.119,2.265c.11,0,.212-.009.321-.01-3.419-.055-6.146-.947-6.146-2.049,0-1.137,2.9-2.059,6.472-2.059,3.464,0,6.285.867,6.455,1.955a.734.734,0,0,0,.016-.1c0-1.251-3.187-2.265-7.119-2.265Z" transform="translate(14.156 3.443)" fill="#f8f8f8"/>
    <path id="path4875" d="M.529,29.342a1.8,1.8,0,0,0,.817,1.4,5.758,5.758,0,0,0,1.72.817,17.834,17.834,0,0,0,5.231.7,20.114,20.114,0,0,0,3.879-.358c0,1.455,0,3.2,0,4.548a1.8,1.8,0,0,0,.817,1.4,5.761,5.761,0,0,0,1.72.822,17.848,17.848,0,0,0,5.231.693,17.857,17.857,0,0,0,5.232-.693,5.73,5.73,0,0,0,1.715-.822,1.8,1.8,0,0,0,.822-1.4c0-1.534,0-2.987,0-4.548a20.1,20.1,0,0,0,3.879.358,17.834,17.834,0,0,0,5.231-.7,5.76,5.76,0,0,0,1.72-.817,1.8,1.8,0,0,0,.817-1.4V8.615a1.8,1.8,0,0,0-.817-1.4,5.758,5.758,0,0,0-1.72-.818,17.193,17.193,0,0,0-4.581-.672V3.764A1.953,1.953,0,0,0,30.3,1.825H21.764a1.926,1.926,0,0,0-3.64,0H9.586A1.947,1.947,0,0,0,7.647,3.764V5.728A17.19,17.19,0,0,0,3.066,6.4a5.76,5.76,0,0,0-1.72.818,1.8,1.8,0,0,0-.817,1.4ZM19.944,1.825a.647.647,0,0,1,0,1.294.647.647,0,1,1,0-1.294Zm-4.7,5.394a5.759,5.759,0,0,0-1.72-.818,17.176,17.176,0,0,0-4.582-.672V3.764a.628.628,0,0,1,.645-.645h8.54a1.955,1.955,0,0,0,1.168,1.172v8.551a19.633,19.633,0,0,0-3.233.344V8.62a1.8,1.8,0,0,0-.817-1.4ZM30.3,3.119a.633.633,0,0,1,.651.645V5.728a17.175,17.175,0,0,0-4.582.672,5.761,5.761,0,0,0-1.721.818,1.8,1.8,0,0,0-.816,1.4v4.565a19.652,19.652,0,0,0-3.24-.344V4.293a1.955,1.955,0,0,0,1.173-1.174ZM7.647,7.024V8.3a.647.647,0,0,0,1.294,0V7.024a16.109,16.109,0,0,1,4.19.609,4.725,4.725,0,0,1,1.334.622c.27.2.3.325.3.363s-.031.165-.3.368a4.735,4.735,0,0,1-1.334.617,16.764,16.764,0,0,1-4.835.635A16.792,16.792,0,0,1,3.458,9.6a4.739,4.739,0,0,1-1.334-.617c-.27-.2-.3-.33-.3-.368s.031-.16.3-.363a4.72,4.72,0,0,1,1.334-.622A16.132,16.132,0,0,1,7.647,7.024Zm23.3,0V8.3a.647.647,0,0,0,1.294,0V7.024a16.136,16.136,0,0,1,4.189.609,4.725,4.725,0,0,1,1.334.622c.27.2.3.325.3.363s-.031.165-.3.368a4.735,4.735,0,0,1-1.334.617,16.793,16.793,0,0,1-4.839.635A16.764,16.764,0,0,1,26.757,9.6a4.739,4.739,0,0,1-1.334-.617c-.27-.2-.3-.33-.3-.368s.031-.16.3-.363a4.72,4.72,0,0,1,1.334-.622,16.113,16.113,0,0,1,4.19-.609Zm-29.124,3.3a6.884,6.884,0,0,0,1.243.52,17.845,17.845,0,0,0,5.231.694,17.817,17.817,0,0,0,5.227-.694,6.893,6.893,0,0,0,1.243-.52v3.187l-.053.015a5.762,5.762,0,0,0-1.72.822,2.32,2.32,0,0,0-.59.632,18.074,18.074,0,0,1-4.106.442,16.793,16.793,0,0,1-4.839-.635,4.724,4.724,0,0,1-1.334-.622c-.27-.2-.3-.325-.3-.363Zm23.3,0a6.887,6.887,0,0,0,1.243.52,17.817,17.817,0,0,0,5.227.694,17.844,17.844,0,0,0,5.231-.694,6.878,6.878,0,0,0,1.243-.52V13.8c0,.038-.031.16-.3.363a4.728,4.728,0,0,1-1.334.622,16.793,16.793,0,0,1-4.839.635,18.066,18.066,0,0,1-4.108-.444,2.353,2.353,0,0,0-.593-.631,5.729,5.729,0,0,0-1.715-.822l-.053-.015Zm-12.3,1.859a.647.647,0,1,0,.647.647A.647.647,0,0,0,12.825,12.178Zm14.238,0a.647.647,0,1,0,.647.647A.647.647,0,0,0,27.063,12.178Zm-23.926.611a.647.647,0,0,0,.459.793,19.044,19.044,0,0,0,4.7.54c.676,0,1.35-.032,2-.091a.647.647,0,0,0-.12-1.289c-.612.055-1.244.086-1.882.086a17.926,17.926,0,0,1-4.371-.5.635.635,0,0,0-.167-.024.648.648,0,0,0-.622.483Zm28.455.038c-.638,0-1.27-.031-1.882-.086a.647.647,0,0,0-.12,1.289c.653.059,1.326.091,2,.091a19.048,19.048,0,0,0,4.7-.54.649.649,0,0,0-.163-1.276.635.635,0,0,0-.167.024,17.93,17.93,0,0,1-4.371.5Zm-12.3,1.315v1.273a.647.647,0,0,0,1.294,0V14.143a16.153,16.153,0,0,1,4.2.609,4.717,4.717,0,0,1,1.332.621c.27.2.3.325.3.363s-.032.166-.3.369a4.72,4.72,0,0,1-1.332.621,16.817,16.817,0,0,1-4.84.631,16.807,16.807,0,0,1-4.839-.631,4.729,4.729,0,0,1-1.334-.621c-.27-.2-.3-.331-.3-.369s.031-.16.3-.363a4.731,4.731,0,0,1,1.334-.621,16.14,16.14,0,0,1,4.189-.609ZM1.824,15.5a6.973,6.973,0,0,0,1.243.517,17.848,17.848,0,0,0,5.231.693,20.245,20.245,0,0,0,3.879-.353c0,1.335,0,2.514,0,3.853a18.512,18.512,0,0,1-3.879.388,16.807,16.807,0,0,1-4.839-.631,4.728,4.728,0,0,1-1.334-.621c-.27-.2-.3-.325-.3-.363Zm36.241,0V18.98c0,.038-.031.16-.3.363a4.731,4.731,0,0,1-1.334.621,16.807,16.807,0,0,1-4.839.631,18.521,18.521,0,0,1-3.879-.388c0-1.248,0-2.672,0-3.853a20.241,20.241,0,0,0,3.879.353,17.848,17.848,0,0,0,5.231-.693,6.983,6.983,0,0,0,1.243-.517ZM26.418,17.434v3.48c0,.038-.032.161-.3.364a4.713,4.713,0,0,1-1.332.621,16.8,16.8,0,0,1-4.84.636A16.787,16.787,0,0,1,15.1,21.9a4.728,4.728,0,0,1-1.334-.621c-.27-.2-.3-.326-.3-.364V17.437a6.885,6.885,0,0,0,1.243.521,17.848,17.848,0,0,0,5.231.693,17.857,17.857,0,0,0,5.232-.693,6.768,6.768,0,0,0,1.243-.523ZM3.6,18.755a19.043,19.043,0,0,0,4.7.54c.676,0,1.35-.027,2-.086a.647.647,0,0,0-.12-1.289C9.567,17.975,8.935,18,8.3,18a17.926,17.926,0,0,1-4.371-.5.638.638,0,0,0-.167-.019A.646.646,0,0,0,3.6,18.755Zm28-.754c-.638,0-1.27-.026-1.882-.081a.647.647,0,0,0-.12,1.289c.653.059,1.326.086,2,.086a19.048,19.048,0,0,0,4.7-.54.646.646,0,0,0-.163-1.271.637.637,0,0,0-.167.019,17.93,17.93,0,0,1-4.371.5ZM15.413,19.3a.647.647,0,1,0,.647.647A.647.647,0,0,0,15.413,19.3Zm4.53.648c-.638,0-1.275-.031-1.887-.086a.648.648,0,0,0-.114,1.291c.653.059,1.325.091,2,.091a19.012,19.012,0,0,0,4.7-.541.648.648,0,0,0-.158-1.276.585.585,0,0,0-.172.024,17.9,17.9,0,0,1-4.367.5Zm-18.12.731a6.884,6.884,0,0,0,1.243.52A17.844,17.844,0,0,0,8.3,21.89a20.112,20.112,0,0,0,3.879-.358c0,1.337,0,2.543,0,3.858a18.512,18.512,0,0,1-3.879.388,16.787,16.787,0,0,1-4.839-.636,4.742,4.742,0,0,1-1.334-.616c-.27-.2-.3-.33-.3-.368Zm36.241,0v3.482c0,.038-.031.165-.3.368a4.745,4.745,0,0,1-1.334.616,16.787,16.787,0,0,1-4.839.636,18.521,18.521,0,0,1-3.879-.388c0-1.306,0-2.59,0-3.858a20.1,20.1,0,0,0,3.879.358,17.844,17.844,0,0,0,5.231-.694,6.877,6.877,0,0,0,1.243-.52ZM26.418,22.613v3.481c0,.038-.032.16-.3.363a4.713,4.713,0,0,1-1.332.621,16.816,16.816,0,0,1-4.84.631,16.807,16.807,0,0,1-4.839-.631,4.729,4.729,0,0,1-1.334-.621c-.27-.2-.3-.325-.3-.363V22.615a6.974,6.974,0,0,0,1.243.516,17.834,17.834,0,0,0,5.231.7,17.843,17.843,0,0,0,5.232-.7,6.872,6.872,0,0,0,1.243-.518ZM3.6,23.934a19.044,19.044,0,0,0,4.7.54c.676,0,1.35-.027,2-.086a.647.647,0,0,0-.12-1.289c-.612.055-1.244.081-1.882.081a17.926,17.926,0,0,1-4.371-.5.636.636,0,0,0-.167-.019A.646.646,0,0,0,3.6,23.934Zm28-.754c-.638,0-1.27-.026-1.882-.081a.647.647,0,0,0-.12,1.289c.653.059,1.326.086,2,.086a19.048,19.048,0,0,0,4.7-.54.646.646,0,0,0-.163-1.271.637.637,0,0,0-.167.019,17.93,17.93,0,0,1-4.371.5Zm-16.179,1.3a.647.647,0,1,0,.647.647A.647.647,0,0,0,15.413,24.475Zm2.529,1.854c.653.059,1.325.086,2,.086a19.016,19.016,0,0,0,4.7-.54.646.646,0,0,0-.158-1.272.608.608,0,0,0-.172.019,17.882,17.882,0,0,1-4.367.5c-.638,0-1.275-.031-1.887-.086a.648.648,0,0,0-.114,1.291ZM1.824,25.86a6.884,6.884,0,0,0,1.243.52,17.848,17.848,0,0,0,5.231.693,20.141,20.141,0,0,0,3.879-.356c0,1.3,0,2.6,0,3.854a18.428,18.428,0,0,1-3.879.392,16.788,16.788,0,0,1-4.839-.636,4.728,4.728,0,0,1-1.334-.621c-.27-.2-.3-.325-.3-.363Zm36.241,0v3.482c0,.038-.031.16-.3.363a4.724,4.724,0,0,1-1.334.621,16.788,16.788,0,0,1-4.839.636,18.428,18.428,0,0,1-3.879-.392c0-1.324,0-2.54,0-3.854a20.146,20.146,0,0,0,3.879.356,17.848,17.848,0,0,0,5.231-.693,6.879,6.879,0,0,0,1.243-.52ZM26.418,27.792v3.481c0,.038-.032.16-.3.363a4.72,4.72,0,0,1-1.332.621,16.816,16.816,0,0,1-4.84.631,16.807,16.807,0,0,1-4.839-.631,4.729,4.729,0,0,1-1.334-.621c-.27-.2-.3-.325-.3-.363V27.794a6.992,6.992,0,0,0,1.243.516A17.848,17.848,0,0,0,19.943,29a17.857,17.857,0,0,0,5.232-.693,6.872,6.872,0,0,0,1.243-.518ZM3.6,29.112a19.045,19.045,0,0,0,4.7.54c.676,0,1.35-.031,2-.09a.646.646,0,1,0-.12-1.285c-.612.055-1.244.081-1.882.081a17.926,17.926,0,0,1-4.371-.5.631.631,0,0,0-.167-.024A.649.649,0,0,0,3.6,29.112Zm28-.754c-.638,0-1.27-.026-1.882-.081a.646.646,0,1,0-.12,1.285c.653.059,1.326.09,2,.09a19.048,19.048,0,0,0,4.7-.54.649.649,0,0,0-.163-1.276.638.638,0,0,0-.167.024,17.929,17.929,0,0,1-4.371.5ZM15.413,29.652a.647.647,0,1,0,.647.647A.647.647,0,0,0,15.413,29.652Zm4.53.645c-.638,0-1.275-.026-1.887-.081a.648.648,0,0,0-.114,1.291c.653.059,1.325.086,2,.086a19.016,19.016,0,0,0,4.7-.54.646.646,0,0,0-.158-1.272.611.611,0,0,0-.172.019,17.9,17.9,0,0,1-4.367.5Zm6.474,2.669v3.48c0,.038-.032.165-.3.368a4.72,4.72,0,0,1-1.332.621,16.817,16.817,0,0,1-4.84.631,16.807,16.807,0,0,1-4.839-.631,4.729,4.729,0,0,1-1.334-.621c-.27-.2-.3-.33-.3-.368V32.969a6.883,6.883,0,0,0,1.243.52,17.848,17.848,0,0,0,5.231.693,17.857,17.857,0,0,0,5.232-.693,6.777,6.777,0,0,0,1.243-.522Zm-11,1.863a.647.647,0,1,0,.647.647A.647.647,0,0,0,15.413,34.829Zm1.942,1.148a.647.647,0,0,0,.588.7c.653.059,1.325.091,2,.091a19.016,19.016,0,0,0,4.7-.54.646.646,0,0,0-.158-1.272.61.61,0,0,0-.172.019,17.9,17.9,0,0,1-4.367.5c-.638,0-1.275-.026-1.887-.081a.647.647,0,0,0-.7.583Z" transform="translate(0 0)" fill="#66a0fe"/>
  </g>
</svg>
