<svg xmlns="http://www.w3.org/2000/svg" width="63" height="63" viewBox="0 0 63 63">
  <g id="Group_1362" data-name="Group 1362" transform="translate(-1019 -2225)">
    <circle id="Ellipse_137" data-name="Ellipse 137" cx="31.5" cy="31.5" r="31.5" transform="translate(1019 2225)" fill="#f1f1f1"/>
    <g id="_3369881021579090639" data-name="3369881021579090639" transform="translate(977.223 2239.917)">
      <path id="Path_2760" data-name="Path 2760" d="M299.005,158.432a.963.963,0,1,0-1.362,1.362l1.362,1.362a.963.963,0,0,0,1.362,0l2.724-2.724a.963.963,0,0,0-1.362-1.362l-2.043,2.043Z" transform="translate(-221.186 -146.721)" fill="#63ab3b"/>
      <path id="Path_2761" data-name="Path 2761" d="M301.729,233.069l-2.043,2.043-.681-.681a.963.963,0,0,0-1.362,1.362l1.362,1.362a.963.963,0,0,0,1.362,0l2.724-2.724a.963.963,0,1,0-1.362-1.362Z" transform="translate(-221.186 -217.841)" fill="#63ab3b"/>
      <path id="Path_2762" data-name="Path 2762" d="M129.668,178h-7.7a.963.963,0,1,0,0,1.926h7.7a.963.963,0,1,0,0-1.926Z" transform="translate(-56.148 -166.571)" fill="#63ab3b"/>
      <path id="Path_2763" data-name="Path 2763" d="M129.668,254h-7.7a.963.963,0,1,0,0,1.926h7.7a.963.963,0,1,0,0-1.926Z" transform="translate(-56.148 -237.692)" fill="#63ab3b"/>
      <path id="Path_2764" data-name="Path 2764" d="M129.668,330h-7.7a.963.963,0,1,0,0,1.926h7.7a.963.963,0,1,0,0-1.926Z" transform="translate(-56.148 -308.812)" fill="#63ab3b"/>
      <path id="Path_2765" data-name="Path 2765" d="M129.668,406h-7.7a.963.963,0,0,0,0,1.926h7.7a.963.963,0,0,0,0-1.926Z" transform="translate(-56.148 -379.933)" fill="#63ab3b"/>
      <path id="Path_2766" data-name="Path 2766" d="M85.077,3.852H79.6a2.239,2.239,0,0,0-2.031-1.284H76.68L77.023,1.2A.963.963,0,0,0,76.088,0H70.952a.963.963,0,0,0-.934,1.2l.343,1.372h-.889A2.239,2.239,0,0,0,67.44,3.852H61.963A.963.963,0,0,0,61,4.815V31.91a.963.963,0,0,0,.963.963H85.077a.963.963,0,0,0,.963-.963V4.815A.963.963,0,0,0,85.077,3.852Zm-15.606.642h2.122a.963.963,0,0,0,.934-1.2l-.343-1.372h2.669L74.512,3.3a.963.963,0,0,0,.934,1.2h2.123a.32.32,0,0,1,.317.268l.276,1.658H68.878l.276-1.658A.32.32,0,0,1,69.471,4.494ZM84.114,30.947H62.926V5.778h4.107l-.241,1.447a.963.963,0,0,0,.95,1.121H79.3a.963.963,0,0,0,.95-1.121l-.241-1.447h4.107Z" transform="translate(0 0)" fill="#01458e"/>
    </g>
  </g>
</svg>
