<svg xmlns="http://www.w3.org/2000/svg" width="75" height="75" viewBox="0 0 75 75">
  <g id="Group_1361" data-name="Group 1361" transform="translate(-1019 -2429)">
    <circle id="Ellipse_144" data-name="Ellipse 144" cx="37.5" cy="37.5" r="37.5" transform="translate(1019 2429)" fill="#f1f1f1"/>
    <g id="_1880215261535351485" data-name="1880215261535351485" transform="translate(1043.161 2450.339)">
      <g id="Group_137" data-name="Group 137">
        <path id="Path_2767" data-name="Path 2767" d="M15.7,37.658H40.365a1.092,1.092,0,0,0,1.1-1.1V7.5a1.092,1.092,0,0,0-1.1-1.1h-18.5a.916.916,0,0,0-.269.027.094.094,0,0,0-.054.027c-.081.027-.135.054-.215.081-.027.027-.054.027-.081.054a.726.726,0,0,0-.215.188l-6.165,7.269a1.112,1.112,0,0,0-.188.3.162.162,0,0,0-.027.108c-.027.081-.027.162-.054.242V36.527a1.115,1.115,0,0,0,1.1,1.131Zm5.062-27.138V13.7H18.073Zm-3.958,5.358h5.062a1.092,1.092,0,0,0,1.1-1.1V8.608H39.261V35.45H16.808V15.877Z" transform="translate(-14.6 -6.4)" fill="#01458e"/>
        <path id="Path_2768" data-name="Path 2768" d="M47.888,50.5H32a1.1,1.1,0,1,0,0,2.208H47.888a1.1,1.1,0,1,0,0-2.208Z" transform="translate(-26.512 -38.627)" fill="#63ab3b"/>
        <path id="Path_2769" data-name="Path 2769" d="M47.888,70.3H32a1.1,1.1,0,1,0,0,2.208H47.888a1.092,1.092,0,0,0,1.1-1.1A1.109,1.109,0,0,0,47.888,70.3Z" transform="translate(-26.512 -53.096)" fill="#63ab3b"/>
      </g>
    </g>
  </g>
</svg>
