<svg xmlns="http://www.w3.org/2000/svg" width="75" height="75" viewBox="0 0 75 75">
  <g id="Group_1359" data-name="Group 1359" transform="translate(-1015 -2560)">
    <circle id="Ellipse_148" data-name="Ellipse 148" cx="37.5" cy="37.5" r="37.5" transform="translate(1015 2560)" fill="#f1f1f1"/>
    <g id="Like_thumbs_up" transform="translate(1032.838 2577.838)">
      <path id="Path_2770" data-name="Path 2770" d="M68.522,51.5a.355.355,0,0,0,.635,0,2.43,2.43,0,0,1,1.293-1.291.355.355,0,0,0,0-.635,2.428,2.428,0,0,1-1.295-1.293.355.355,0,0,0-.635,0,2.43,2.43,0,0,1-1.291,1.293.355.355,0,0,0,0,.635A2.434,2.434,0,0,1,68.522,51.5Z" transform="translate(-55.652 -40.081)" fill="#63ab3b"/>
      <path id="Path_2771" data-name="Path 2771" d="M38.414,12.176a5.9,5.9,0,0,1-1.385,1.148,17.384,17.384,0,1,1-7.718-6.971,6.031,6.031,0,0,1,1-1.5,19.166,19.166,0,1,0,8.1,7.322Z" transform="translate(-2.877 -2.978)" fill="#01458e"/>
      <path id="Path_2772" data-name="Path 2772" d="M159.887,18.881a4.335,4.335,0,1,0-4.337-4.336,4.335,4.335,0,0,0,4.337,4.336Zm-2.031-4.843h1.5v-1.5h1.064v1.5h1.5V15.1h-1.5v1.506h-1.064V15.1h-1.5Z" transform="translate(-128.468 -8.927)" fill="#63ab3b"/>
      <path id="Path_2773" data-name="Path 2773" d="M73.881,66.99a1.76,1.76,0,0,0,0-2.42H71.724V63.506h2.139a1.76,1.76,0,0,0,.5-1.343,1.8,1.8,0,0,0-1.815-1.653H68.81a.316.316,0,0,1-.259-.495,8.692,8.692,0,0,0,1.107-2.182l.073-.209a1.857,1.857,0,0,0-1.08-2.354,1.816,1.816,0,0,0-2.341,1.119l-.09.266a5.144,5.144,0,0,1-1.279,2.024l-3.37,3.259-.355.341H57.53a1.1,1.1,0,0,0-1.1,1.1v7.833a1.1,1.1,0,0,0,1.1,1.1h2.9l4.472,1.774a6.868,6.868,0,0,0,2.517.479H72.48a1.8,1.8,0,0,0,1.811-1.643,1.756,1.756,0,0,0-.484-1.343h-2.1V70.514h2.164a1.774,1.774,0,0,0-.009-2.45H71.71V67Z" transform="translate(-46.93 -45.904)" fill="#63ab3b"/>
    </g>
  </g>
</svg>
