<svg xmlns="http://www.w3.org/2000/svg" width="62.195" height="62.195" viewBox="0 0 62.195 62.195">
  <g id="Group_1358" data-name="Group 1358" transform="translate(-1333.201 -1918)">
    <g id="comparison" transform="translate(1333.201 1918)">
      <g id="Group_214" data-name="Group 214" transform="translate(0)">
        <g id="Group_213" data-name="Group 213" transform="translate(0)">
          <path id="Path_4143" data-name="Path 4143" d="M40.77,39.3c.575.051,1.152.086,1.73.086A19.7,19.7,0,1,0,22.8,19.7c0,.578.035,1.155.086,1.73l-.348-.348L1.77.3A1.037,1.037,0,0,0,.3,1.769L19.337,20.8A20.719,20.719,0,1,0,41.393,42.859L60.426,61.891a1.037,1.037,0,0,0,1.466-1.466ZM42.5,1.992a17.662,17.662,0,1,1-4.245,34.8L25.4,23.936A17.674,17.674,0,0,1,42.5,1.992ZM20.732,60.122a18.659,18.659,0,1,1,0-37.317c.207,0,.415.007.622.012L39.378,40.841c.005.207.012.415.012.622A18.659,18.659,0,0,1,20.732,60.122Z" transform="translate(0)" fill="#63ab3b"/>
          <path id="Path_4144" data-name="Path 4144" d="M64.135,207.549a1.037,1.037,0,0,0-1.037,1.037,14.512,14.512,0,1,1-14.512-14.512,1.037,1.037,0,0,0,0-2.073,16.585,16.585,0,1,0,16.585,16.585A1.037,1.037,0,0,0,64.135,207.549Z" transform="translate(-27.855 -167.122)" fill="#63ab3b"/>
          <path id="Path_4145" data-name="Path 4145" d="M209.786,52.038a1.037,1.037,0,0,0,.735-1.268,13.484,13.484,0,1,1,9.586,9.589,1.037,1.037,0,0,0-.531,2h0A15.563,15.563,0,1,0,208.518,51.3,1.037,1.037,0,0,0,209.786,52.038Z" transform="translate(-181.048 -27.637)" fill="#63ab3b"/>
          <path id="Path_4146" data-name="Path 4146" d="M297,80.053a1.037,1.037,0,0,0-1.156.344l-3.628,4.665a1.037,1.037,0,1,0,1.638,1.273l1.773-2.28V96.582h-2.073a1.037,1.037,0,1,0,0,2.073h6.219a1.037,1.037,0,1,0,0-2.073H297.7V81.033A1.037,1.037,0,0,0,297,80.053Z" transform="translate(-254.161 -69.631)" fill="#63ab3b"/>
        </g>
      </g>
    </g>
    <path id="Path_4159" data-name="Path 4159" d="M96.142,12.276h-2.35a4.9,4.9,0,0,0-.681-1.6h3.031a1.189,1.189,0,1,0,0-2.377H86.5a1.189,1.189,0,1,0,0,2.377h2.272a2.8,2.8,0,0,1,2.518,1.6H86.5a1.189,1.189,0,1,0,0,2.377h4.794a2.8,2.8,0,0,1-2.521,1.6H86.5a1.168,1.168,0,0,0-.8,2.034l6.389,7.057a1.19,1.19,0,0,0,1.763-1.6l-4.676-5.15a5.212,5.212,0,0,0,4.628-3.94h2.348a1.189,1.189,0,1,0,0-2.377Z" transform="translate(1263.227 1944.309)" fill="#63ab3b"/>
  </g>
</svg>
