<svg version="1.1" id="Layer_1" xmlns="http://www.w3.org/2000/svg" x="0" y="0" viewBox="0 0 1080 1080" style="enable-background:new 0 0 1080 1080" xml:space="preserve"><style>.st3{fill:#fff}</style><path d="M683.04 966.26H59.52C26.65 966.26 0 939.61 0 906.74V59.52C0 26.65 26.65 0 59.52 0h623.51c32.87 0 59.52 26.65 59.52 59.52v847.22c.01 32.87-26.64 59.52-59.51 59.52z" style="fill:#01A54F"/><path d="M789.88 966.26H166.37c-32.87 0-59.52-26.65-59.52-59.52V59.52C106.85 26.65 133.5 0 166.37 0h623.51c32.87 0 59.52 26.65 59.52 59.52v847.22c.01 32.87-26.64 59.52-59.52 59.52z" style="fill:#75bd97"/><circle cx="860.8" cy="860.9" r="218.47" style="fill:#2a2c6a"/><text transform="translate(791.002 962.229)" class="st3" style="font-size:278.0818px;font-family:'RupeeForadian'" id="_">`</text><path class="st3" d="M740.84 265.92H191.55c-16.21 0-29.35-13.14-29.35-29.35v-37.58c0-16.21 13.14-29.35 29.35-29.35h549.28c16.21 0 29.35 13.14 29.35 29.35v37.58c.01 16.21-13.13 29.35-29.34 29.35zM740.84 428.75H191.55c-16.21 0-29.35-13.14-29.35-29.35v-37.58c0-16.21 13.14-29.35 29.35-29.35h549.28c16.21 0 29.35 13.14 29.35 29.35v37.58c.01 16.21-13.13 29.35-29.34 29.35zM740.84 595.08H191.55c-16.21 0-29.35-13.14-29.35-29.35v-37.58c0-16.21 13.14-29.35 29.35-29.35h549.28c16.21 0 29.35 13.14 29.35 29.35v37.58c.01 16.21-13.13 29.35-29.34 29.35zM532.67 769.97H191.55c-16.21 0-29.35-13.14-29.35-29.35v-37.58c0-16.21 13.14-29.35 29.35-29.35h341.12c16.21 0 29.35 13.14 29.35 29.35v37.58c0 16.21-13.14 29.35-29.35 29.35z"/><circle cx="860.8" cy="860.88" r="179.94" style="fill:none;stroke:#01A54F;stroke-width:15;stroke-miterlimit:10"/><path transform="rotate(-48.645 860.814 860.932)" style="fill:#01A54F" d="M854.84 683.92h11.89v353.96h-11.89z"/></svg>
