<svg xmlns="http://www.w3.org/2000/svg" width="99.368" height="89.985" viewBox="0 0 99.368 89.985">
  <g id="Group_1342" data-name="Group 1342" transform="translate(-1285 -1230)">
    <path id="Path_5155" data-name="Path 5155" d="M50.09,14.09c26.323-6.151,49.278,2.3,49.278,29.964S77.754,102.173,50.09,102.173,0,71.718,0,44.054,23.767,20.241,50.09,14.09Z" transform="translate(1285 1217.812)" fill="#f6f5f5" opacity="0.44"/>
    <g id="_16033461771595501196" data-name="16033461771595501196" transform="translate(1307 1247)">
      <path id="Path_5285" data-name="Path 5285" d="M44.962,10.057A24.906,24.906,0,0,1,27.8,3,24.906,24.906,0,0,1,10.63,10.057,25.64,25.64,0,0,1,3,8.722c0,26.7,10.491,37.385,24.8,43.87,14.305-6.485,24.8-17.166,24.8-43.87A25.64,25.64,0,0,1,44.962,10.057Z" transform="translate(0 0)" fill="none" stroke="#0a1735" stroke-linecap="round" stroke-linejoin="round" stroke-miterlimit="10" stroke-width="3"/>
      <path id="Path_5286" data-name="Path 5286" d="M12,18.722l5.722,5.722L29.166,13" transform="translate(8.166 9.074)" fill="none" stroke="#01a449" stroke-linecap="round" stroke-linejoin="round" stroke-miterlimit="10" stroke-width="3"/>
    </g>
  </g>
</svg>
