<svg xmlns="http://www.w3.org/2000/svg" width="102" height="81" viewBox="0 0 102 81">
  <g id="_13976340181557740363" data-name="13976340181557740363" transform="translate(-0.25 -1031.428)">
    <g id="Group_80" data-name="Group 80" transform="translate(0 1031.4)">
      <rect id="Rectangle_590" data-name="Rectangle 590" width="102" height="60" transform="translate(0.251 0.028)" fill="#9af269"/>
      <rect id="Rectangle_591" data-name="Rectangle 591" width="102" height="60" transform="translate(0.251 4.028)" fill="#63ab3b"/>
      <path id="Path_1743" data-name="Path 1743" d="M18.084,1033.4h0A17.109,17.109,0,0,1,1,1050.483v16.656a17.2,17.2,0,0,1,17.084,17.511H77.876v-.427a17.109,17.109,0,0,1,17.084-17.083v-16.656A17.109,17.109,0,0,1,77.876,1033.4Z" transform="translate(3.271 -1024.858)" fill="#ecf0f1"/>
      <path id="Path_1744" data-name="Path 1744" d="M42.167,27.354c0,11.792-7.649,21.354-17.084,21.354S8,39.146,8,27.354,15.649,6,25.084,6,42.167,15.561,42.167,27.354Z" transform="translate(26.167 6.813)" fill="#63ab3b"/>
    </g>
    <path id="Path_1745" data-name="Path 1745" d="M10.281,1039.389l10.558-2.989h1.055v21.354a7.365,7.365,0,0,0,.286,2.563c.214.427.641.427,1.281.854h3.9v.854H11.05v-.854h3.968c.594-.427,1.012-.427,1.247-.854a6.118,6.118,0,0,0,.35-2.562v-13.667a14.676,14.676,0,0,0-.32-3.844c-.149-.427-.427-.427-.833-.854H14.056a10.531,10.531,0,0,0-3.3.427l-.478-.427" transform="translate(33.628 16.355)" fill="#ecf0f1"/>
    <g id="Group_89" data-name="Group 89" transform="translate(4.271 1061.126)">
      <g id="Group_81" data-name="Group 81" transform="translate(0 34.166)">
        <path id="Path_1746" data-name="Path 1746" d="M49.812,5a19.87,19.87,0,0,0-9.345,2.135H37v4.271c0,3.538,5.736,6.406,12.813,6.406s12.813-2.868,12.813-6.406V7.136H59.157A19.869,19.869,0,0,0,49.812,5Z" transform="translate(-36.999 -0.677)" fill="#f39c12"/>
        <path id="Path_1747" data-name="Path 1747" d="M61.625,12.407c0,3.538-5.736,6.406-12.813,6.406S36,15.945,36,12.407,41.735,6,48.812,6,61.625,8.868,61.625,12.407Z" transform="translate(-36 -6)" fill="#f1c40f"/>
      </g>
      <g id="Group_88" data-name="Group 88">
        <g id="Group_82" data-name="Group 82" transform="translate(0 25.625)">
          <path id="Path_1748" data-name="Path 1748" d="M49.812,5a19.87,19.87,0,0,0-9.345,2.135H37v4.271c0,3.538,5.736,6.406,12.813,6.406s12.813-2.868,12.813-6.406V7.136H59.157A19.869,19.869,0,0,0,49.812,5Z" transform="translate(-36.999 -0.677)" fill="#f39c12"/>
          <path id="Path_1749" data-name="Path 1749" d="M61.625,12.407c0,3.538-5.736,6.406-12.813,6.406S36,15.945,36,12.407,41.735,6,48.812,6,61.625,8.868,61.625,12.407Z" transform="translate(-36 -6)" fill="#f1c40f"/>
        </g>
        <g id="Group_83" data-name="Group 83" transform="translate(0 17.084)">
          <path id="Path_1750" data-name="Path 1750" d="M49.812,5a19.87,19.87,0,0,0-9.345,2.135H37v4.271c0,3.538,5.736,6.406,12.813,6.406s12.813-2.868,12.813-6.406V7.136H59.157A19.869,19.869,0,0,0,49.812,5Z" transform="translate(-36.999 -0.677)" fill="#f39c12"/>
          <path id="Path_1751" data-name="Path 1751" d="M61.625,12.407c0,3.538-5.736,6.406-12.813,6.406S36,15.945,36,12.407,41.735,6,48.812,6,61.625,8.868,61.625,12.407Z" transform="translate(-36 -6)" fill="#f1c40f"/>
        </g>
        <g id="Group_84" data-name="Group 84" transform="translate(0 8.542)">
          <path id="Path_1752" data-name="Path 1752" d="M49.812,5a19.87,19.87,0,0,0-9.345,2.135H37v4.271c0,3.538,5.736,6.406,12.813,6.406s12.813-2.868,12.813-6.406V7.136H59.157A19.869,19.869,0,0,0,49.812,5Z" transform="translate(-36.999 -0.677)" fill="#f39c12"/>
          <path id="Path_1753" data-name="Path 1753" d="M61.625,12.407c0,3.538-5.736,6.406-12.813,6.406S36,15.945,36,12.407,41.735,6,48.812,6,61.625,8.868,61.625,12.407Z" transform="translate(-36 -6)" fill="#f1c40f"/>
        </g>
        <g id="Group_85" data-name="Group 85" transform="translate(29.893 34.166)">
          <path id="Path_1754" data-name="Path 1754" d="M49.812,5a19.87,19.87,0,0,0-9.345,2.135H37v4.271c0,3.538,5.736,6.406,12.813,6.406s12.813-2.868,12.813-6.406V7.136H59.157A19.869,19.869,0,0,0,49.812,5Z" transform="translate(-36.999 -0.677)" fill="#f39c12"/>
          <path id="Path_1755" data-name="Path 1755" d="M61.625,12.407c0,3.538-5.736,6.406-12.813,6.406S36,15.945,36,12.407,41.735,6,48.812,6,61.625,8.868,61.625,12.407Z" transform="translate(-36 -6)" fill="#f1c40f"/>
        </g>
        <g id="Group_86" data-name="Group 86" transform="translate(38.435 29.898)">
          <path id="Path_1756" data-name="Path 1756" d="M49.812,5a19.87,19.87,0,0,0-9.345,2.135H37v4.271c0,3.538,5.736,6.406,12.813,6.406s12.813-2.868,12.813-6.406V7.136H59.157A19.869,19.869,0,0,0,49.812,5Z" transform="translate(-36.999 -0.677)" fill="#f39c12"/>
          <path id="Path_1757" data-name="Path 1757" d="M61.625,12.407c0,3.538-5.736,6.406-12.813,6.406S36,15.945,36,12.407,41.735,6,48.812,6,61.625,8.868,61.625,12.407Z" transform="translate(-36 -6)" fill="#f1c40f"/>
        </g>
        <g id="Group_87" data-name="Group 87" transform="translate(0 0)">
          <path id="Path_1758" data-name="Path 1758" d="M49.812,5a19.87,19.87,0,0,0-9.345,2.135H37v4.271c0,3.538,5.736,6.406,12.813,6.406s12.813-2.868,12.813-6.406V7.136H59.157A19.869,19.869,0,0,0,49.812,5Z" transform="translate(-36.999 -0.677)" fill="#f39c12"/>
          <path id="Path_1759" data-name="Path 1759" d="M61.625,12.407c0,3.538-5.736,6.406-12.813,6.406S36,15.945,36,12.407,41.735,6,48.812,6,61.625,8.868,61.625,12.407Z" transform="translate(-36 -6)" fill="#f1c40f"/>
        </g>
      </g>
    </g>
  </g>
</svg>
