<svg xmlns="http://www.w3.org/2000/svg" width="87.999" height="87" viewBox="0 0 87.999 87">
  <g id="_9879099771578289003" data-name="9879099771578289003" transform="translate(0.001 -0.24)">
    <g id="Group_93" data-name="Group 93" transform="translate(12.138 24.775)">
      <rect id="Rectangle_592" data-name="Rectangle 592" width="72" height="36" transform="translate(1.861 1.465)" fill="#d1d4d1"/>
      <path id="Path_1769" data-name="Path 1769" d="M83.86,55.947H8V16.5H83.86ZM11.034,52.913H80.826V19.534H11.034Z" transform="translate(-8 -16.5)" fill="#556080"/>
    </g>
    <path id="Path_1770" data-name="Path 1770" d="M12.1,10.534H4.517a1.517,1.517,0,1,1,0-3.034H12.1a1.517,1.517,0,0,1,0,3.034Z" transform="translate(1.552 3.62)" fill="#556080"/>
    <path id="Path_1771" data-name="Path 1771" d="M9.517,24.189A1.517,1.517,0,0,1,8,22.672V9.017a1.517,1.517,0,0,1,3.034,0V22.672A1.517,1.517,0,0,1,9.517,24.189Z" transform="translate(4.138 3.62)" fill="#556080"/>
    <path id="Path_1772" data-name="Path 1772" d="M9.517,54.155A1.517,1.517,0,0,1,8,52.638V42.017a1.517,1.517,0,1,1,3.034,0v10.62A1.517,1.517,0,0,1,9.517,54.155Z" transform="translate(4.138 20.688)" fill="#556080"/>
    <circle id="Ellipse_100" data-name="Ellipse 100" cx="6" cy="6" r="6" transform="translate(22.999 75.24)" fill="#63ab3b"/>
    <path id="Path_1781" data-name="Path 1781" d="M6.069,0A6.069,6.069,0,1,1,0,6.069,6.069,6.069,0,0,1,6.069,0Z" transform="translate(59.171 74.843)" fill="#63ab3b"/>
    <path id="Path_1773" data-name="Path 1773" d="M74.757,50.534H9.517a1.517,1.517,0,1,1,0-3.034h65.24a1.517,1.517,0,0,1,0,3.034Z" transform="translate(4.138 24.309)" fill="#556080"/>
    <path id="Path_1774" data-name="Path 1774" d="M82.343,27.534H9.517a1.517,1.517,0,1,1,0-3.034H82.343a1.517,1.517,0,0,1,0,3.034Z" transform="translate(4.138 12.413)" fill="#556080"/>
    <path id="Path_1775" data-name="Path 1775" d="M82.343,35.534H9.517a1.517,1.517,0,0,1,0-3.034H82.343a1.517,1.517,0,0,1,0,3.034Z" transform="translate(4.138 16.551)" fill="#556080"/>
    <path id="Path_1776" data-name="Path 1776" d="M17.517,55.947A1.517,1.517,0,0,1,16,54.43V18.017a1.517,1.517,0,1,1,3.034,0V54.43A1.517,1.517,0,0,1,17.517,55.947Z" transform="translate(8.275 8.275)" fill="#556080"/>
    <path id="Path_1777" data-name="Path 1777" d="M25.517,55.947A1.517,1.517,0,0,1,24,54.43V18.017a1.517,1.517,0,0,1,3.034,0V54.43A1.517,1.517,0,0,1,25.517,55.947Z" transform="translate(12.413 8.275)" fill="#556080"/>
    <path id="Path_1778" data-name="Path 1778" d="M33.517,55.947A1.517,1.517,0,0,1,32,54.43V18.017a1.517,1.517,0,1,1,3.034,0V54.43A1.517,1.517,0,0,1,33.517,55.947Z" transform="translate(16.551 8.275)" fill="#556080"/>
    <path id="Path_1779" data-name="Path 1779" d="M41.517,55.947A1.517,1.517,0,0,1,40,54.43V18.017a1.517,1.517,0,1,1,3.034,0V54.43A1.517,1.517,0,0,1,41.517,55.947Z" transform="translate(20.688 8.275)" fill="#556080"/>
    <path id="Path_1780" data-name="Path 1780" d="M49.517,55.947A1.517,1.517,0,0,1,48,54.43V18.017a1.517,1.517,0,1,1,3.034,0V54.43A1.517,1.517,0,0,1,49.517,55.947Z" transform="translate(24.826 8.275)" fill="#556080"/>
    <circle id="Ellipse_102" data-name="Ellipse 102" cx="4.5" cy="4.5" r="4.5" transform="translate(-0.001 8.24)" fill="#d8625e"/>
    <rect id="Rectangle_593" data-name="Rectangle 593" width="21" height="13" transform="translate(20.999 12.24)" fill="#63ab3b"/>
    <rect id="Rectangle_594" data-name="Rectangle 594" width="25" height="25" transform="translate(41.999 0.24)" fill="#98f962"/>
    <rect id="Rectangle_595" data-name="Rectangle 595" width="15" height="20" transform="translate(66.999 5.24)" fill="#63ab3b"/>
  </g>
</svg>
