<svg xmlns="http://www.w3.org/2000/svg" width="48" height="48" viewBox="0 0 48 48">
  <g id="Group_1355" data-name="Group 1355" transform="translate(-332 -1834)">
    <circle id="Ellipse_123" data-name="Ellipse 123" cx="24" cy="24" r="24" transform="translate(332 1834)" fill="#63ab3b"/>
    <g id="file-svgrepo-com_1_" data-name="file-svgrepo-com (1)" transform="translate(295.699 1845)">
      <g id="Group_127" data-name="Group 127" transform="translate(49.3 0)">
        <path id="Path_2625" data-name="Path 2625" d="M70.539,6.366a1.511,1.511,0,0,0-.339-.495L64.535.423a1.511,1.511,0,0,0-.478-.311h0A1.487,1.487,0,0,0,63.495,0H52.619A3.317,3.317,0,0,0,49.3,3.319V23.525a3.317,3.317,0,0,0,3.319,3.319H67.342a3.317,3.317,0,0,0,3.319-3.319V6.956A1.554,1.554,0,0,0,70.539,6.366ZM69.094,23.53a1.755,1.755,0,0,1-1.751,1.751H52.619a1.755,1.755,0,0,1-1.751-1.751V3.325a1.751,1.751,0,0,1,1.751-1.751H63V4.114a3.324,3.324,0,0,0,3.319,3.319h2.774Z" transform="translate(-49.3 0)" fill="#fff"/>
        <path id="Path_2626" data-name="Path 2626" d="M110,228.184h0a.787.787,0,0,0,.784.784h13.183a.787.787,0,0,0,.784-.784h0a.787.787,0,0,0-.784-.784H110.784A.787.787,0,0,0,110,228.184Z" transform="translate(-106.625 -214.756)" fill="#fff"/>
        <path id="Path_2627" data-name="Path 2627" d="M123.961,283.7H110.784a.787.787,0,0,0-.784.784h0a.787.787,0,0,0,.784.784h13.183a.787.787,0,0,0,.784-.784h0A.791.791,0,0,0,123.961,283.7Z" transform="translate(-106.625 -267.926)" fill="#fff"/>
        <path id="Path_2628" data-name="Path 2628" d="M123.961,340H110.784a.787.787,0,0,0-.784.784h0a.787.787,0,0,0,.784.784h13.183a.787.787,0,0,0,.784-.784h0A.791.791,0,0,0,123.961,340Z" transform="translate(-106.625 -321.096)" fill="#fff"/>
        <path id="Path_2629" data-name="Path 2629" d="M116.934,396.2h-7.35a.784.784,0,0,0,0,1.568h7.356a.784.784,0,1,0-.006-1.568Z" transform="translate(-105.492 -374.171)" fill="#fff"/>
        <path id="Path_2630" data-name="Path 2630" d="M113.647,147.186h3.442c-.017-1.429.039-2.2-.89-2.535a7.661,7.661,0,0,1-1.346-.651l-.651,2.052-.089.278-.289-.823c.667-.934-.05-.979-.178-.979h0c-.122,0-.845.044-.178.979l-.289.823-.089-.278L112.435,144a7.929,7.929,0,0,1-1.346.651c-.929.339-.873,1.1-.89,2.535h3.447Z" transform="translate(-106.814 -135.993)" fill="#fff"/>
        <path id="Path_2631" data-name="Path 2631" d="M139.636,62.027a1.716,1.716,0,0,0,1.056,1.312,1.169,1.169,0,0,0,.778,0,1.758,1.758,0,0,0,1.062-1.312c.083-.006.189-.122.3-.528.156-.556-.011-.639-.15-.623a1.156,1.156,0,0,0,.061-.228c.239-1.434-.467-1.485-.467-1.485a1.055,1.055,0,0,0-.428-.395,1.43,1.43,0,0,0-.873-.183,1.223,1.223,0,0,0-.35.067h0a1.556,1.556,0,0,0-.384.195,1.85,1.85,0,0,0-.395.328,1.564,1.564,0,0,0-.428.751,1.613,1.613,0,0,0,.006.728h0a1.156,1.156,0,0,0,.061.228c-.139-.011-.306.067-.15.623C139.453,61.9,139.559,62.021,139.636,62.027Z" transform="translate(-134.271 -55.321)" fill="#fff"/>
      </g>
    </g>
  </g>
</svg>
