<svg xmlns="http://www.w3.org/2000/svg" width="75.771" height="74.508" viewBox="0 0 75.771 74.508">
  <g id="_633980591639620645" data-name="633980591639620645" transform="translate(-2 -2)">
    <path id="Path_292" data-name="Path 292" d="M19.866,14.687a1.261,1.261,0,0,0-.866,1.2v5.064a1.261,1.261,0,0,0,.866,1.2l2.749.911.474,1.142L21.93,26.642a1.263,1.263,0,0,0,.112,1.274,16.449,16.449,0,0,0,3.877,3.877,1.264,1.264,0,0,0,1.274.112l2.392-1.135c.4.187.8.356,1.21.5l.893,2.7a1.259,1.259,0,0,0,1.2.865h5.064a1.261,1.261,0,0,0,1.2-.866l.893-2.7q.614-.22,1.21-.5L43.642,31.9a1.265,1.265,0,0,0,1.274-.112,16.449,16.449,0,0,0,3.877-3.877,1.263,1.263,0,0,0,.112-1.274L47.77,24.249c.187-.4.356-.8.5-1.21l2.7-.893a1.259,1.259,0,0,0,.865-1.2V15.885a1.261,1.261,0,0,0-.866-1.2l-2.7-.893q-.22-.614-.5-1.21L48.9,10.192a1.263,1.263,0,0,0-.112-1.274,16.449,16.449,0,0,0-3.877-3.877,1.263,1.263,0,0,0-1.274-.112L41.249,6.063q-.595-.28-1.21-.5l-.893-2.7A1.259,1.259,0,0,0,37.949,2H32.885a1.261,1.261,0,0,0-1.2.866l-.911,2.749-1.142.474L27.192,4.93a1.263,1.263,0,0,0-1.274.112,16.449,16.449,0,0,0-3.877,3.877,1.263,1.263,0,0,0-.112,1.274l1.161,2.442-.475,1.142Zm4.09,1.306a1.265,1.265,0,0,0,.769-.714l.912-2.194a1.261,1.261,0,0,0-.027-1.025L24.538,9.8A13.876,13.876,0,0,1,26.8,7.539l2.259,1.073a1.257,1.257,0,0,0,1.025.027l2.194-.911a1.256,1.256,0,0,0,.715-.769L33.8,4.526h3.238l.806,2.431a1.265,1.265,0,0,0,.831.812,11.041,11.041,0,0,1,1.968.816,1.274,1.274,0,0,0,1.135.027l2.259-1.073A13.984,13.984,0,0,1,46.3,9.8l-1.073,2.259a1.262,1.262,0,0,0,.027,1.135,10.91,10.91,0,0,1,.816,1.968,1.259,1.259,0,0,0,.812.831l2.431.806v3.238l-2.431.806a1.265,1.265,0,0,0-.812.831,10.914,10.914,0,0,1-.816,1.966,1.264,1.264,0,0,0-.027,1.137L46.3,27.035a13.876,13.876,0,0,1-2.26,2.262l-2.259-1.073a1.254,1.254,0,0,0-1.135.027,10.91,10.91,0,0,1-1.968.816,1.259,1.259,0,0,0-.831.812l-.807,2.431H33.8l-.806-2.431a1.265,1.265,0,0,0-.831-.812,10.914,10.914,0,0,1-1.966-.816,1.253,1.253,0,0,0-1.137-.027L26.8,29.3a13.876,13.876,0,0,1-2.262-2.26l1.073-2.259a1.267,1.267,0,0,0,.027-1.025l-.911-2.194a1.256,1.256,0,0,0-.769-.715l-2.432-.807V16.8Z" transform="translate(4.468)" fill="#63ab3b"/>
    <path id="Path_293" data-name="Path 293" d="M33.708,24.917A8.208,8.208,0,1,0,25.5,16.708,8.218,8.218,0,0,0,33.708,24.917Zm0-13.891a5.683,5.683,0,1,1-5.683,5.683A5.69,5.69,0,0,1,33.708,11.026Z" transform="translate(6.177 1.708)"/>
    <path id="Path_294" data-name="Path 294" d="M20.413,2.137,12.836,3.4l.414,2.492,4.236-.706a23.975,23.975,0,0,0,2.223,30.491l1.822-1.749a21.437,21.437,0,0,1,0-29.67,1.263,1.263,0,0,0-1.119-2.12Z" transform="translate(2.848 0.032)" fill="#63ab3b"/>
    <path id="Path_295" data-name="Path 295" d="M46.175,2.428,44.352,4.177a21.437,21.437,0,0,1,0,29.67,1.262,1.262,0,0,0,1.289,2.079l7.577-2.374-.755-2.41-3.623,1.134A23.975,23.975,0,0,0,46.175,2.428Z" transform="translate(11.039 0.112)" fill="#63ab3b"/>
    <path id="Path_296" data-name="Path 296" d="M37.36,47.314H17.154V42.263a1.263,1.263,0,0,0-2.108-.938L2.418,52.69a1.262,1.262,0,0,0,0,1.877L15.046,65.932a1.262,1.262,0,0,0,.845.325,1.246,1.246,0,0,0,.514-.11,1.26,1.26,0,0,0,.749-1.153V61.205H37.36a1.262,1.262,0,0,0,1.263-1.263V48.577A1.262,1.262,0,0,0,37.36,47.314ZM36.1,58.68H15.891a1.262,1.262,0,0,0-1.263,1.263v2.216L5.151,53.628l9.478-8.53v3.479a1.262,1.262,0,0,0,1.263,1.263H36.1Z" transform="translate(0 10.251)" fill="#0a1735"/>
    <path id="Path_297" data-name="Path 297" d="M56.576,31.325a1.263,1.263,0,0,0-2.108.938v3.789H34.263A1.262,1.262,0,0,0,33,37.314V48.68a1.262,1.262,0,0,0,1.263,1.263H54.468v5.051a1.26,1.26,0,0,0,.749,1.153,1.246,1.246,0,0,0,.514.11,1.262,1.262,0,0,0,.845-.325L69.2,44.567a1.262,1.262,0,0,0,0-1.877Zm.418,20.834V48.68a1.262,1.262,0,0,0-1.263-1.263H35.526v-8.84H55.731a1.262,1.262,0,0,0,1.263-1.263V35.1l9.478,8.53Z" transform="translate(8.148 7.622)" fill="#0a1735"/>
    <rect id="Rectangle_152" data-name="Rectangle 152" width="11" height="3" transform="translate(42.885 68.754)" fill="#0a1735"/>
    <rect id="Rectangle_153" data-name="Rectangle 153" width="11" height="2" transform="translate(42.885 62.754)" fill="#0a1735"/>
    <rect id="Rectangle_154" data-name="Rectangle 154" width="3" height="2" transform="translate(55.885 62.754)" fill="#0a1735"/>
    <rect id="Rectangle_155" data-name="Rectangle 155" width="3" height="3" transform="translate(55.885 68.754)" fill="#0a1735"/>
    <rect id="Rectangle_156" data-name="Rectangle 156" width="11" height="2" transform="translate(25.885 43.754)" fill="#0a1735"/>
    <rect id="Rectangle_157" data-name="Rectangle 157" width="11" height="3" transform="translate(25.885 49.754)" fill="#0a1735"/>
    <rect id="Rectangle_158" data-name="Rectangle 158" width="3" height="3" transform="translate(20.885 49.754)" fill="#0a1735"/>
    <path id="Path_397" data-name="Path 397" d="M0,0H2.526V2.526H0Z" transform="translate(20.943 43.674)" fill="#0a1735"/>
  </g>
</svg>
