<svg xmlns="http://www.w3.org/2000/svg" width="69" height="56" viewBox="0 0 69 56">
  <g id="free_icon_1" transform="translate(0 0)">
    <path id="id_101" d="M177.5,140.918l-7.738,20.787a4.876,4.876,0,0,1-4.57,3.175h-31.85a5.358,5.358,0,0,1-5.358-5.358V139.7a3.863,3.863,0,0,1,3.864-3.864H179.6Z" transform="translate(-126.837 -124.986)" fill="#63ab3b"/>
    <g id="Group_140" data-name="Group 140" transform="translate(3.108 41.642)">
      <g id="Group_138" data-name="Group 138" transform="translate(22.708)">
        <path id="id_102" d="M223.419,365.958a7.179,7.179,0,1,0-7.179-7.179A7.187,7.187,0,0,0,223.419,365.958Zm0-12.073a4.9,4.9,0,1,1-4.9,4.9A4.9,4.9,0,0,1,223.419,353.884Z" transform="translate(-216.24 -351.6)"/>
      </g>
      <g id="Group_139" data-name="Group 139" transform="translate(0)">
        <path id="id_103" d="M382.559,365.958a7.179,7.179,0,1,0-7.179-7.179A7.187,7.187,0,0,0,382.559,365.958Zm0-12.073a4.9,4.9,0,1,1-4.9,4.9A4.9,4.9,0,0,1,382.559,353.884Z" transform="translate(-375.38 -351.6)"/>
      </g>
    </g>
    <g id="Group_143" data-name="Group 143" transform="translate(0 18.548)">
      <g id="Group_141" data-name="Group 141" transform="translate(0 0)">
        <path id="id_104" d="M333.732,192.043H355.02a1.142,1.142,0,1,0,0-2.283H333.732a1.142,1.142,0,1,0,0,2.283Z" transform="translate(-332.59 -189.76)" fill="#fff"/>
      </g>
      <g id="Group_142" data-name="Group 142" transform="translate(0 11.067)">
        <path id="id_105" d="M228.672,269.6h36.279a1.142,1.142,0,1,0,0-2.283H228.672a1.142,1.142,0,0,0,0,2.283Z" transform="translate(-227.53 -267.32)" fill="#fff"/>
      </g>
    </g>
    <g id="Group_144" data-name="Group 144" transform="translate(0.002 0)">
      <path id="id_106" d="M20.009,100.807h31.8a6.486,6.486,0,0,0,6.073-4.141l11.94-30.449a6.519,6.519,0,0,1,6.1-4.164h6.147a1.142,1.142,0,1,0,0-2.283H75.93a8.789,8.789,0,0,0-8.23,5.614L55.759,95.833a4.214,4.214,0,0,1-3.947,2.691h-31.8A3.512,3.512,0,0,1,16.5,95.016V74.551a2.621,2.621,0,0,1,2.618-2.618h29.6a1.142,1.142,0,0,0,0-2.283h-29.6a4.907,4.907,0,0,0-4.9,4.9V95.018A5.8,5.8,0,0,0,20.009,100.807Z" transform="translate(-14.22 -59.77)"/>
    </g>
  </g>
</svg>
