<svg xmlns="http://www.w3.org/2000/svg" width="36.097" height="37" viewBox="0 0 36.097 37">
  <g id="_20399268851558096223" data-name="20399268851558096223" transform="translate(-8 -7)">
    <g id="Group_13" data-name="Group 13" transform="translate(8 7)">
      <path id="Path_221" data-name="Path 221" d="M35.073,7H9.8A1.81,1.81,0,0,0,8,8.8v5.415a1.81,1.81,0,0,0,1.8,1.8H35.073a1.81,1.81,0,0,0,1.8-1.8V8.8A1.81,1.81,0,0,0,35.073,7Z" transform="translate(-8 -7)" fill="#d1c4e9"/>
      <path id="Path_222" data-name="Path 222" d="M35.073,19H9.8A1.81,1.81,0,0,0,8,20.8v5.415a1.81,1.81,0,0,0,1.8,1.8H32.456c1.173-1.173,4.422-.812,4.422-1.8V20.8A1.81,1.81,0,0,0,35.073,19Z" transform="translate(-8 -8.171)" fill="#d1c4e9"/>
      <path id="Path_223" data-name="Path 223" d="M31.824,31H9.8A1.81,1.81,0,0,0,8,32.8v5.415a1.81,1.81,0,0,0,1.8,1.8H35.073a1.81,1.81,0,0,0,1.8-1.8V36.054A5.045,5.045,0,0,0,31.824,31Z" transform="translate(-8 -9.342)" fill="#d1c4e9"/>
    </g>
    <g id="Group_14" data-name="Group 14" transform="translate(29.658 24.146)">
      <path id="Path_224" data-name="Path 224" d="M42.415,44.966l-1.8,1.8H38.8l-1.8-1.8V35.4h5.415v4.151l-.9.9.9.9v.9l-.9.9.9.9Z" transform="translate(-32.488 -26.917)" fill="#ffa000"/>
      <path id="Path_225" data-name="Path 225" d="M45.988,28.256a2.37,2.37,0,0,0-1.8-1.624A22.257,22.257,0,0,0,39.219,26a30.679,30.679,0,0,0-4.963.541,2.37,2.37,0,0,0-1.8,1.624A15.651,15.651,0,0,0,32,31.415a13.9,13.9,0,0,0,.451,3.158,2.37,2.37,0,0,0,1.8,1.624,22.328,22.328,0,0,0,4.963.541,29.5,29.5,0,0,0,4.963-.541,2.37,2.37,0,0,0,1.8-1.624,10.2,10.2,0,0,0,.451-3.158A13.9,13.9,0,0,0,45.988,28.256Zm-4.151,2.256H36.693a1,1,0,0,1-.993-.993V28.256c0-.271,1.624-.541,3.61-.541s3.61.271,3.61.541v1.263A1.154,1.154,0,0,1,41.836,30.512Z" transform="translate(-32 -26)" fill="#ffa000"/>
    </g>
    <rect id="Rectangle_158" data-name="Rectangle 158" width="0.902" height="9.836" transform="translate(35.975 34.163)" fill="#d68600"/>
  </g>
</svg>
