<svg xmlns="http://www.w3.org/2000/svg" width="62.96" height="65.179" viewBox="0 0 62.96 65.179">
  <g id="Layer_9" data-name="Layer 9" transform="translate(-4 -3)">
    <path id="Path_360" data-name="Path 360" d="M66.927,10.3A7.315,7.315,0,0,0,59.656,3H23.642a7.326,7.326,0,0,0-7.282,7.3h0V33.34H5.124A1.124,1.124,0,0,0,4,34.463V49.97a7.326,7.326,0,0,0,7.315,7.315H28.721v5.4a1.281,1.281,0,0,0,.191.629l3,4.326a1.12,1.12,0,0,0,1.843,0l2.079-2.989,2.079,2.989a1.093,1.093,0,0,0,1.843.045L41.835,64.7l2.079,2.989a1.12,1.12,0,0,0,1.843,0L47.824,64.7l2.068,2.989a1.124,1.124,0,0,0,1.854,0L53.824,64.7,55.9,67.691a1.124,1.124,0,0,0,1.843,0L59.825,64.7,61.9,67.691a1.12,1.12,0,0,0,1.843,0l3.011-4.315a1.528,1.528,0,0,0,.2-.641ZM6.247,50.015V35.587H16.361V49.97a5.068,5.068,0,0,1-10.113,0Zm10.327,5.068a7.282,7.282,0,0,0,2.034-5.068v-39.7h0A5.057,5.057,0,1,1,28.721,10.3V55.083Zm46.307,10-2.079-3a1.124,1.124,0,0,0-1.843,0l-2.146,3-2.079-3a1.124,1.124,0,0,0-1.854,0l-2.068,3-2.079-3a1.12,1.12,0,0,0-1.843,0l-2.079,3-2.079-3a1.124,1.124,0,0,0-1.843,0l-2.056,3-2.079-3a1.12,1.12,0,0,0-1.843,0l-2.079,3-1.865-2.7V10.3a7.27,7.27,0,0,0-2.056-5.057H59.656A5.068,5.068,0,0,1,64.679,10.3V62.376Z" transform="translate(0 0)" fill="#0a1735"/>
    <path id="Path_362" data-name="Path 362" d="M44.338,8.51A12.17,12.17,0,1,0,56.519,20.68,12.17,12.17,0,0,0,44.338,8.51Zm0,22.092a9.922,9.922,0,1,1,9.911-9.922A9.922,9.922,0,0,1,44.338,30.6Z" transform="translate(3.486 0.682)" fill="#63ab3b"/>
    <path id="Path_363" data-name="Path 363" d="M32.124,37.177H43.361a1.124,1.124,0,1,0,0-2.247H32.124a1.124,1.124,0,0,0,0,2.247Z" transform="translate(3.34 3.949)" fill="#63ab3b"/>
    <path id="Path_364" data-name="Path 364" d="M54.6,39.7H32.124a1.124,1.124,0,0,0,0,2.247H54.6a1.124,1.124,0,0,0,0-2.247Z" transform="translate(3.34 4.539)" fill="#63ab3b"/>
    <path id="Path_365" data-name="Path 365" d="M54.6,44.46H32.124a1.124,1.124,0,0,0,0,2.247H54.6a1.124,1.124,0,0,0,0-2.247Z" transform="translate(3.34 5.128)" fill="#63ab3b"/>
    <path id="Path_366" data-name="Path 366" d="M54.6,49.22H32.124a1.124,1.124,0,0,0,0,2.247H54.6a1.124,1.124,0,1,0,0-2.247Z" transform="translate(3.34 5.717)" fill="#63ab3b"/>
  </g>
</svg>
