<svg xmlns="http://www.w3.org/2000/svg" width="72.995" height="72.993" viewBox="0 0 72.995 72.993">
  <g id="registered-sign" transform="translate(155.605 323.604)">
    <g id="Group_212" data-name="Group 212" transform="translate(-155.605 -323.604)">
      <path id="Path_4139" data-name="Path 4139" d="M36.5,73A36.5,36.5,0,1,0,0,36.5,36.539,36.539,0,0,0,36.5,73Zm0-68.7A32.207,32.207,0,1,1,4.29,36.5,32.242,32.242,0,0,1,36.5,4.293Z" transform="translate(0 -0.003)" fill="#63ab3b"/>
      <path id="Path_4140" data-name="Path 4140" d="M90.445,92.434H97.2q2.888,0,3.937,1.055t1.094,4.221l.045,3.074a16.125,16.125,0,0,0,.292,2.852c.091.448.239,1.039.448,1.772h7.634v-.831a2.754,2.754,0,0,1-1.277-1.885,16.611,16.611,0,0,1-.183-3.076V97.392a10.871,10.871,0,0,0-.954-5.173,6.186,6.186,0,0,0-3.243-2.616,6.642,6.642,0,0,0,3.927-3.222,9.9,9.9,0,0,0,1.19-4.636,9.3,9.3,0,0,0-.612-3.48,10.279,10.279,0,0,0-1.665-2.783,8.184,8.184,0,0,0-3.1-2.313,14.4,14.4,0,0,0-5.221-.852H83.688v33.089h6.757V92.434Zm0-14.368h7.633a6.857,6.857,0,0,1,3.2.583q1.9,1.032,1.9,4.041,0,2.784-1.961,3.727a7.922,7.922,0,0,1-3.326.539H90.445Z" transform="translate(-60.67 -52.428)" fill="#63ab3b"/>
      <path id="Path_4141" data-name="Path 4141" d="M53.789,83.725A29.938,29.938,0,1,0,23.851,53.787,29.973,29.973,0,0,0,53.789,83.725Zm0-55.586A25.648,25.648,0,1,1,28.141,53.787,25.676,25.676,0,0,1,53.789,28.139Z" transform="translate(-17.291 -17.29)" fill="#63ab3b"/>
    </g>
  </g>
</svg>
