<svg xmlns="http://www.w3.org/2000/svg" width="71.634" height="69.635" viewBox="0 0 71.634 69.635">
  <g id="Group_1340" data-name="Group 1340" transform="translate(-1152.183 -976.68)">
    <circle id="Ellipse_189" data-name="Ellipse 189" cx="34.817" cy="34.817" r="34.817" transform="translate(1152.183 976.68)" fill="#e0e6ec"/>
    <g id="web-site-svgrepo-com" transform="translate(1158 949.269)">
      <path id="Path_3808" data-name="Path 3808" d="M62.979,92.787H10.215a2.2,2.2,0,0,1-2.2-2.2V44.42a2.2,2.2,0,0,1,2.2-2.2H62.979a2.2,2.2,0,0,1,2.2,2.2V90.589A2.2,2.2,0,0,1,62.979,92.787Z" transform="translate(-6.986 -6.986)" fill="#e4eaf8"/>
      <path id="Path_3809" data-name="Path 3809" d="M310.024,276.439l4.963-4.963V252.965a4.43,4.43,0,0,0-.722.579l-16.411,16.41-.423.423-.247.544-2.508,5.518h15.348Z" transform="translate(-256.796 -190.639)" fill="#d5dced"/>
      <path id="Path_3810" data-name="Path 3810" d="M8.017,51.016v-6.6a2.2,2.2,0,0,1,2.2-2.2H62.979a2.2,2.2,0,0,1,2.2,2.2v6.6" transform="translate(-6.986 -6.986)" fill="#c7cfe2"/>
      <path id="Path_3840" data-name="Path 3840" d="M2.2,0A2.2,2.2,0,1,1,0,2.2,2.2,2.2,0,0,1,2.2,0Z" transform="translate(9.824 51.724)" fill="#63ab3b"/>
      <path id="Path_3839" data-name="Path 3839" d="M2.2,0A2.2,2.2,0,1,1,0,2.2,2.2,2.2,0,0,1,2.2,0Z" transform="translate(9.824 62.717)" fill="#63ab3b"/>
      <g id="Group_203" data-name="Group 203" transform="translate(9.824 64.915)">
        <circle id="Ellipse_192" data-name="Ellipse 192" cx="2.198" cy="2.198" r="2.198" transform="translate(0 8.794)" fill="#63ab3b"/>
        <path id="Path_3811" data-name="Path 3811" d="M315.857,294.5l-8.55,3.886,3.886-8.55,16.41-16.41a1.1,1.1,0,0,1,1.555,0l3.109,3.109a1.1,1.1,0,0,1,0,1.555Z" transform="translate(-277.628 -273.105)" fill="#63ab3b"/>
      </g>
      <path id="Path_3812" data-name="Path 3812" d="M338.968,292.341l17.36-17.36-1.555-1.554a1.1,1.1,0,0,0-1.554,0l-16.411,16.41-.108.237Z" transform="translate(-293.418 -208.189)" fill="#87e156"/>
      <path id="Path_3813" data-name="Path 3813" d="M307.307,413.424l8.313-3.779-4.534-4.534Z" transform="translate(-267.803 -323.227)" fill="#faebc8"/>
      <path id="Path_3814" data-name="Path 3814" d="M311.086,405.111l-3.779,8.313,6.046-6.046Z" transform="translate(-267.803 -323.227)" fill="#f5dcb4"/>
      <path id="Path_3815" data-name="Path 3815" d="M451.21,273.424a1.1,1.1,0,0,0-1.554,0l-2.293,2.293,4.664,4.664,2.293-2.293a1.1,1.1,0,0,0,0-1.555Z" transform="translate(-389.855 -208.187)" fill="#faebc8"/>
      <path id="Path_3816" data-name="Path 3816" d="M452.767,274.98l-1.555-1.554a1.1,1.1,0,0,0-1.554,0l-2.293,2.293,2.332,2.332Z" transform="translate(-389.857 -208.189)" fill="#f5dcb4"/>
      <path id="Path_3817" data-name="Path 3817" d="M37.306,84.77H3.229A1.169,1.169,0,0,1,2.061,83.6V45.06H42.8A1.031,1.031,0,1,0,42.8,43H2.061V37.434a1.169,1.169,0,0,1,1.168-1.168H55.993a1.169,1.169,0,0,1,1.168,1.168V43H53.794a1.031,1.031,0,0,0,0,2.061h3.366V61.617a1.031,1.031,0,1,0,2.061,0V37.434a3.233,3.233,0,0,0-3.229-3.229H3.229A3.233,3.233,0,0,0,0,37.434V83.6a3.233,3.233,0,0,0,3.229,3.229H37.306a1.031,1.031,0,1,0,0-2.061Z" transform="translate(0 0)" fill="#01458e"/>
      <path id="Path_3818" data-name="Path 3818" d="M362.377,102.614h-2.2a1.031,1.031,0,0,0,0,2.061h2.2a1.031,1.031,0,1,0,0-2.061Z" transform="translate(-312.98 -59.615)"/>
      <path id="Path_3819" data-name="Path 3819" d="M35.272,68.41a1.036,1.036,0,1,0,.011,0Z" transform="translate(-29.845 -29.808)"/>
      <path id="Path_3820" data-name="Path 3820" d="M103.681,68.41a1.036,1.036,0,1,0,.011,0Z" transform="translate(-89.46 -29.808)"/>
      <path id="Path_3821" data-name="Path 3821" d="M69.391,68.41a1.036,1.036,0,1,0,.011,0Z" transform="translate(-59.578 -29.808)"/>
      <path id="Path_3822" data-name="Path 3822" d="M174.055,69.44a1.031,1.031,0,0,0-1.031-1.031H137.849a1.031,1.031,0,0,0,0,2.061h35.176A1.031,1.031,0,0,0,174.055,69.44Z" transform="translate(-119.23 -29.807)" fill="#63ab3b"/>
      <path id="Path_3823" data-name="Path 3823" d="M71.638,162.472a3.229,3.229,0,1,0,3.229,3.229A3.233,3.233,0,0,0,71.638,162.472Zm0,4.4a1.168,1.168,0,1,1,1.168-1.168A1.169,1.169,0,0,1,71.638,166.869Z" transform="translate(-59.615 -111.778)"/>
      <path id="Path_3824" data-name="Path 3824" d="M168.627,162.472H137.849a1.031,1.031,0,0,0,0,2.061h30.779a1.031,1.031,0,1,0,0-2.061Z" transform="translate(-119.23 -111.778)" fill="#01458e"/>
      <path id="Path_3825" data-name="Path 3825" d="M137.849,198.737h2.2a1.031,1.031,0,1,0,0-2.061h-2.2a1.031,1.031,0,0,0,0,2.061Z" transform="translate(-119.23 -141.586)"/>
      <path id="Path_3826" data-name="Path 3826" d="M242.661,198.737a1.031,1.031,0,0,0,0-2.061h-2.2a1.031,1.031,0,0,0,0,2.061Z" transform="translate(-208.653 -141.586)"/>
      <path id="Path_3827" data-name="Path 3827" d="M191.354,198.737a1.031,1.031,0,0,0,0-2.061h-2.2a1.031,1.031,0,0,0,0,2.061Z" transform="translate(-163.942 -141.586)"/>
      <path id="Path_3828" data-name="Path 3828" d="M71.638,247.984a3.229,3.229,0,1,0,3.229,3.229A3.233,3.233,0,0,0,71.638,247.984Zm0,4.4a1.168,1.168,0,1,1,1.168-1.168A1.169,1.169,0,0,1,71.638,252.381Z" transform="translate(-59.615 -186.298)"/>
      <path id="Path_3829" data-name="Path 3829" d="M169.658,249.015a1.031,1.031,0,0,0-1.031-1.031H137.849a1.031,1.031,0,1,0,0,2.061h30.779A1.031,1.031,0,0,0,169.658,249.015Z" transform="translate(-119.23 -186.298)" fill="#01458e"/>
      <path id="Path_3830" data-name="Path 3830" d="M137.849,284.249h2.2a1.031,1.031,0,1,0,0-2.061h-2.2a1.031,1.031,0,0,0,0,2.061Z" transform="translate(-119.23 -216.105)"/>
      <path id="Path_3831" data-name="Path 3831" d="M242.661,284.249a1.031,1.031,0,0,0,0-2.061h-2.2a1.031,1.031,0,0,0,0,2.061Z" transform="translate(-208.653 -216.105)"/>
      <path id="Path_3832" data-name="Path 3832" d="M191.354,284.249a1.031,1.031,0,0,0,0-2.061h-2.2a1.031,1.031,0,0,0,0,2.061Z" transform="translate(-163.942 -216.105)"/>
      <path id="Path_3833" data-name="Path 3833" d="M71.638,333.5a3.229,3.229,0,1,0,3.229,3.229A3.233,3.233,0,0,0,71.638,333.5Zm0,4.4a1.168,1.168,0,1,1,1.168-1.168A1.169,1.169,0,0,1,71.638,337.892Z" transform="translate(-59.615 -260.817)"/>
      <path id="Path_3834" data-name="Path 3834" d="M159.765,334.526a1.031,1.031,0,0,0-1.031-1.031H137.849a1.031,1.031,0,1,0,0,2.061h20.886A1.031,1.031,0,0,0,159.765,334.526Z" transform="translate(-119.23 -260.817)" fill="#01458e"/>
      <path id="Path_3835" data-name="Path 3835" d="M137.849,367.7a1.031,1.031,0,0,0,0,2.061h2.2a1.031,1.031,0,1,0,0-2.061Z" transform="translate(-119.23 -290.625)"/>
      <path id="Path_3836" data-name="Path 3836" d="M240.463,367.7a1.031,1.031,0,0,0,0,2.061h2.2a1.031,1.031,0,0,0,0-2.061Z" transform="translate(-208.653 -290.625)"/>
      <path id="Path_3837" data-name="Path 3837" d="M189.156,367.7a1.031,1.031,0,0,0,0,2.061h2.2a1.031,1.031,0,0,0,0-2.061Z" transform="translate(-163.942 -290.625)"/>
      <path id="Path_3838" data-name="Path 3838" d="M326.01,268.818l-3.109-3.109a2.129,2.129,0,0,0-3.012,0l-16.411,16.411a1.028,1.028,0,0,0-.209.3l-3.886,8.55a1.031,1.031,0,0,0,1.365,1.365l8.55-3.886a1.032,1.032,0,0,0,.3-.209l16.41-16.41a2.13,2.13,0,0,0,0-3.012Zm-20.345,14.03,12.621-12.621,3.206,3.206-12.621,12.621Zm-1.135,1.78,2.561,2.561-4.695,2.134Zm20.023-14.256-1.6,1.6-3.206-3.206,1.6-1.6a.065.065,0,0,1,.048-.02.066.066,0,0,1,.049.02l3.109,3.109a.069.069,0,0,1,0,.1Z" transform="translate(-260.817 -201.201)"/>
    </g>
  </g>
</svg>
