<svg xmlns="http://www.w3.org/2000/svg" width="75" height="75" viewBox="0 0 75 75">
  <g id="Group_1357" data-name="Group 1357" transform="translate(-339 -2428)">
    <circle id="Ellipse_135" data-name="Ellipse 135" cx="37.5" cy="37.5" r="37.5" transform="translate(339 2428)" fill="#f1f1f1"/>
    <g id="_17578817411582823579" data-name="17578817411582823579" transform="translate(361.074 2447.992)">
      <path id="Path_2755" data-name="Path 2755" d="M50.18,25.107a13.123,13.123,0,0,0,1.1-4.886A8,8,0,0,0,35.3,19.747c-.011.155-.016.314-.016.474,0,4.417,3.58,11.194,8,11.194a6.205,6.205,0,0,0,4.5-2.408,13.79,13.79,0,0,1-2.685.25h-.048a3.4,3.4,0,0,1-1.764.559c-3.09,0-6.4-5.632-6.4-9.6q0-.2.016-.4a16.622,16.622,0,0,0,8.461-2.307,16.51,16.51,0,0,0,4.2,1.492,6.1,6.1,0,0,1,.117,1.215,12.294,12.294,0,0,1-1.71,5.733A11.712,11.712,0,0,0,50.18,25.107Z" transform="translate(-27.582 -9.159)"/>
      <path id="Path_2756" data-name="Path 2756" d="M24.946,12.952a.666.666,0,0,0,.666-.666c0-.2,0-.4.02-.605A9.728,9.728,0,0,1,45,11.125a10.338,10.338,0,0,1,.07,1.162,11.415,11.415,0,0,1-.166,1.892l-.1.616.608.143a1.638,1.638,0,0,1,1.261,1.605A1.656,1.656,0,0,1,45.017,18.2a1.611,1.611,0,0,1-1.141-.463l-.354-.35-.436.241a11.947,11.947,0,0,1-6.646,1.541,1.249,1.249,0,1,0-.1,1.328c.274.014.547.024.813.024a13.018,13.018,0,0,0,6.178-1.513,2.945,2.945,0,0,0,1.688.524A2.989,2.989,0,0,0,46.3,13.846a12.34,12.34,0,0,0,.1-1.559,11.721,11.721,0,0,0-.079-1.314,11.06,11.06,0,0,0-22.02.619c-.017.229-.023.459-.023.694a.666.666,0,0,0,.666.666Z" transform="translate(-19.643 -1.225)" fill="#63ab3b"/>
      <path id="Path_2757" data-name="Path 2757" d="M38.419,90.744a3.973,3.973,0,0,0-2.962-3.1c-1.521-.51-6.212-2.158-7.569-2.686a13.565,13.565,0,0,1-4.559,4.932,13.565,13.565,0,0,1-4.559-4.932c-1.357.528-6.048,2.176-7.569,2.686a3.973,3.973,0,0,0-2.962,3.1A22.372,22.372,0,0,0,7.63,96.6h31.4A22.375,22.375,0,0,0,38.419,90.744ZM34.971,93.2h-4.34a.723.723,0,0,1,0-1.447h4.34a.723.723,0,0,1,0,1.447Z" transform="translate(-7.63 -61.638)" fill="#01458e"/>
      <path id="Path_2758" data-name="Path 2758" d="M48.66,44.293a.666.666,0,1,0,0,1.332h1.618a.666.666,0,1,0,0-1.332Z" transform="translate(-36.753 -32.299)" fill="#63ab3b"/>
      <path id="Path_2759" data-name="Path 2759" d="M70.079,44.293a.666.666,0,0,0,0,1.332H71.7a.666.666,0,1,0,0-1.332Z" transform="translate(-52.208 -32.299)" fill="#63ab3b"/>
    </g>
  </g>
</svg>
