<svg xmlns="http://www.w3.org/2000/svg" width="79.79" height="75.865" viewBox="0 0 79.79 75.865">
  <g id="check-money-svgrepo-com" transform="translate(0 -12.593)">
    <path id="Path_4500" data-name="Path 4500" d="M44.4,12.593H1.608A1.608,1.608,0,0,0,0,14.2V86.85a1.608,1.608,0,0,0,1.608,1.608H44.4Z" transform="translate(0 0)" fill="#f2f2f2"/>
    <path id="Path_4501" data-name="Path 4501" d="M294.283,12.593H256V88.458h38.287a1.608,1.608,0,0,0,1.608-1.608V14.2A1.608,1.608,0,0,0,294.283,12.593Z" transform="translate(-216.102 0)" fill="#4677ab"/>
    <g id="Group_253" data-name="Group 253" transform="translate(6.705 25.511)">
      <rect id="Rectangle_1126" data-name="Rectangle 1126" width="20.598" height="2.941" transform="translate(2.943)" fill="#63ab3b"/>
      <rect id="Rectangle_1127" data-name="Rectangle 1127" width="26.486" height="2.941" transform="translate(0 16.351)" fill="#63ab3b"/>
      <rect id="Rectangle_1128" data-name="Rectangle 1128" width="26.486" height="2.941" transform="translate(0 39.649)" fill="#63ab3b"/>
      <rect id="Rectangle_1129" data-name="Rectangle 1129" width="26.486" height="2.941" transform="translate(0 31.884)" fill="#63ab3b"/>
      <rect id="Rectangle_1130" data-name="Rectangle 1130" width="26.486" height="2.941" transform="translate(0 24.117)" fill="#63ab3b"/>
      <rect id="Rectangle_1131" data-name="Rectangle 1131" width="26.486" height="2.941" transform="translate(0 47.416)" fill="#63ab3b"/>
    </g>
    <path id="Path_4502" data-name="Path 4502" d="M295.9,136.391v54.964a1.608,1.608,0,0,1-1.608,1.608H256v-41.53l28.409-10.712,4.774-1.8Z" transform="translate(-216.106 -104.505)" fill="#01458e"/>
  </g>
</svg>
