<svg xmlns="http://www.w3.org/2000/svg" width="54.623" height="76.679" viewBox="0 0 54.623 76.679">
  <g id="padnote-check-box-svgrepo-com" transform="translate(-73.636)">
    <rect id="Rectangle_992" data-name="Rectangle 992" width="52.15" height="65.898" transform="translate(74.873 9.544)" fill="#ece7ea"/>
    <path id="Path_4038" data-name="Path 4038" d="M186.627,12.769h-7.685a4.511,4.511,0,0,0-9.022,0h-7.685a2.172,2.172,0,0,0-2.172,2.172v5.424H188.8V14.941A2.172,2.172,0,0,0,186.627,12.769Z" transform="translate(-73.483 -7.021)" fill="#63ab3b"/>
    <g id="Group_206" data-name="Group 206" transform="translate(86.58 21.013)">
      <rect id="Rectangle_993" data-name="Rectangle 993" width="5.937" height="5.937" transform="translate(0 40.821)" fill="#fff"/>
      <rect id="Rectangle_994" data-name="Rectangle 994" width="5.937" height="5.937" transform="translate(0 27.215)" fill="#fff"/>
      <rect id="Rectangle_995" data-name="Rectangle 995" width="5.937" height="5.937" transform="translate(0 13.608)" fill="#fff"/>
      <rect id="Rectangle_996" data-name="Rectangle 996" width="5.937" height="5.937" transform="translate(0)" fill="#fff"/>
    </g>
    <path id="Path_4039" data-name="Path 4039" d="M127.022,55.471h-6.76a1.237,1.237,0,1,0,0,2.474h5.523v63.425H76.109V57.945h5.523a1.237,1.237,0,0,0,0-2.474h-6.76a1.237,1.237,0,0,0-1.237,1.237v65.9a1.237,1.237,0,0,0,1.237,1.237h52.15a1.237,1.237,0,0,0,1.237-1.237v-65.9A1.237,1.237,0,0,0,127.022,55.471Z" transform="translate(0 -47.163)"/>
    <path id="Path_4040" data-name="Path 4040" d="M153.042,14.58h20.593a1.237,1.237,0,1,0,0-2.474H154.278V7.919a.936.936,0,0,1,.935-.935H162.9a1.237,1.237,0,0,0,1.237-1.237,3.274,3.274,0,0,1,6.548,0,1.237,1.237,0,0,0,1.237,1.237h7.685a.936.936,0,0,1,.935.935v4.187h-1.959a1.237,1.237,0,0,0,0,2.474h3.2a1.237,1.237,0,0,0,1.237-1.237V7.919a3.412,3.412,0,0,0-3.409-3.409h-6.582a5.749,5.749,0,0,0-11.228,0h-6.582A3.412,3.412,0,0,0,151.8,7.919v5.424A1.237,1.237,0,0,0,153.042,14.58Z" transform="translate(-66.462)"/>
    <path id="Path_4041" data-name="Path 4041" d="M153.042,413.036h5.937a1.237,1.237,0,0,0,1.237-1.237v-5.936a1.236,1.236,0,0,0-1.237-1.237h-5.937a1.236,1.236,0,0,0-1.237,1.237V411.8A1.237,1.237,0,0,0,153.042,413.036Zm1.237-5.936h3.463v3.463h-3.463Z" transform="translate(-66.462 -344.028)"/>
    <path id="Path_4042" data-name="Path 4042" d="M243.565,424.446H225.713a1.237,1.237,0,0,0,0,2.474h17.852a1.237,1.237,0,0,0,0-2.474Z" transform="translate(-128.25 -360.879)"/>
    <path id="Path_4043" data-name="Path 4043" d="M153.042,322.179h5.937a1.237,1.237,0,0,0,1.237-1.237v-5.936a1.236,1.236,0,0,0-1.237-1.237h-5.937a1.236,1.236,0,0,0-1.237,1.237v5.936A1.237,1.237,0,0,0,153.042,322.179Zm1.237-5.936h3.463v3.463h-3.463Z" transform="translate(-66.462 -266.778)"/>
    <path id="Path_4044" data-name="Path 4044" d="M243.565,333.588H225.713a1.237,1.237,0,0,0,0,2.474h17.852a1.237,1.237,0,0,0,0-2.474Z" transform="translate(-128.25 -283.628)"/>
    <path id="Path_4045" data-name="Path 4045" d="M153.042,231.322h5.937a1.237,1.237,0,0,0,1.237-1.237v-5.936a1.236,1.236,0,0,0-1.237-1.237h-5.937a1.236,1.236,0,0,0-1.237,1.237v5.936A1.237,1.237,0,0,0,153.042,231.322Zm1.237-5.936h3.463v3.463h-3.463Z" transform="translate(-66.462 -189.528)"/>
    <path id="Path_4046" data-name="Path 4046" d="M243.565,242.731H225.713a1.237,1.237,0,0,0,0,2.474h17.852a1.237,1.237,0,0,0,0-2.474Z" transform="translate(-128.25 -206.379)"/>
    <path id="Path_4047" data-name="Path 4047" d="M153.042,140.464h5.937a1.237,1.237,0,0,0,1.237-1.237v-5.937a1.237,1.237,0,0,0-1.237-1.237h-5.937a1.237,1.237,0,0,0-1.237,1.237v5.937A1.237,1.237,0,0,0,153.042,140.464Zm1.237-5.937h3.463v3.463h-3.463Z" transform="translate(-66.462 -112.277)"/>
    <path id="Path_4048" data-name="Path 4048" d="M243.565,151.874H225.713a1.237,1.237,0,1,0,0,2.473h17.852a1.237,1.237,0,0,0,0-2.473Z" transform="translate(-128.25 -129.129)"/>
  </g>
</svg>
