<svg xmlns="http://www.w3.org/2000/svg" width="86.709" height="71.264" viewBox="0 0 86.709 71.264">
  <g id="form-svgrepo-com" transform="translate(0 -45.6)">
    <path id="Path_880" data-name="Path 880" d="M4,172.671V113.6H89.354v51.459a7.615,7.615,0,0,1-7.607,7.611Z" transform="translate(-3.323 -56.484)" fill="#fff"/>
    <path id="Path_881" data-name="Path 881" d="M85.354,110.955v50.782a6.938,6.938,0,0,1-6.93,6.934H1.355V110.955h84m1.355-1.355H0v60.425H78.424a8.285,8.285,0,0,0,8.285-8.285V109.6Z" transform="translate(0 -53.161)" fill="#aac1ce"/>
    <path id="Path_882" data-name="Path 882" d="M5.406,45.6H81.3a5.405,5.405,0,0,1,5.406,5.406V56.46H0V51.01A5.405,5.405,0,0,1,5.4,45.6Z" transform="translate(0 0)" fill="#63ab3b"/>
    <g id="Group_55" data-name="Group 55" transform="translate(5.972 49.521)" opacity="0.7">
      <circle id="Ellipse_54" data-name="Ellipse 54" cx="1.512" cy="1.512" r="1.512" fill="#fff"/>
    </g>
    <g id="Group_56" data-name="Group 56" transform="translate(10.507 49.521)" opacity="0.7">
      <circle id="Ellipse_55" data-name="Ellipse 55" cx="1.512" cy="1.512" r="1.512" fill="#fff"/>
    </g>
    <g id="Group_57" data-name="Group 57" transform="translate(15.04 49.521)" opacity="0.7">
      <circle id="Ellipse_56" data-name="Ellipse 56" cx="1.512" cy="1.512" r="1.512" fill="#fff"/>
    </g>
    <path id="Path_883" data-name="Path 883" d="M196.915,67.318H143.088l2.71-5.31h51.118Z" transform="translate(-118.856 -13.629)" fill="#fff"/>
    <g id="Group_58" data-name="Group 58" transform="translate(17.853 49.184)">
      <path id="Path_884" data-name="Path 884" d="M169.2,71.408l.222.965c.047.226.095.458.135.69h.008c.043-.232.114-.467.175-.686l.271-.969h.436l.271.948c.065.248.122.48.169.71h.009c.034-.232.084-.463.135-.71l.236-.948h.527l-.667,2.124h-.5l-.253-.864a6.747,6.747,0,0,1-.161-.677h-.009a5.533,5.533,0,0,1-.161.677l-.271.864h-.5l-.629-2.124Z" transform="translate(-157.939 -70.621)" fill="#01458e"/>
      <path id="Path_885" data-name="Path 885" d="M189.567,71.408l.222.965c.047.226.095.458.136.69h0c.042-.232.112-.467.173-.686l.271-.969h.436l.271.948c.065.248.122.48.169.71h.009c.034-.232.084-.463.135-.71l.236-.948h.528l-.668,2.124h-.5l-.253-.864a6.739,6.739,0,0,1-.161-.677h0a5.525,5.525,0,0,1-.161.677l-.271.864h-.5l-.629-2.124Z" transform="translate(-174.858 -70.621)" fill="#01458e"/>
      <path id="Path_886" data-name="Path 886" d="M209.893,71.408l.222.965c.047.226.095.458.135.69h.008c.043-.232.114-.467.175-.686l.271-.969h.438l.271.948c.065.248.122.48.169.71h.01c.034-.232.084-.463.135-.71l.236-.948h.534l-.677,2.124h-.5l-.253-.864a6.743,6.743,0,0,1-.161-.677H210.9a5.53,5.53,0,0,1-.161.677l-.271.864h-.5l-.629-2.124Z" transform="translate(-191.737 -70.621)" fill="#01458e"/>
      <path id="Path_887" data-name="Path 887" d="M229.134,80.513a.329.329,0,0,1,.31-.345h.022a.345.345,0,0,1,0,.69.327.327,0,0,1-.332-.321Z" transform="translate(-208.181 -77.897)" fill="#01458e"/>
      <rect id="Rectangle_379" data-name="Rectangle 379" width="3.651" height="0.677" transform="translate(53.754 1.509)" fill="#01458e"/>
      <path id="Path_888" data-name="Path 888" d="M435.894,70.459l-.478-.48,1.368-1.371-1.368-1.368.478-.48,1.849,1.848Z" transform="translate(-379.529 -66.76)" fill="#01458e"/>
      <rect id="Rectangle_380" data-name="Rectangle 380" width="51.004" height="39.59" transform="translate(0 17.575)" fill="#01458e"/>
    </g>
    <rect id="Rectangle_381" data-name="Rectangle 381" width="51.004" height="5.885" transform="translate(17.853 60.874)" fill="#a8cbeb"/>
    <rect id="Rectangle_382" data-name="Rectangle 382" width="16.9" height="5.885" transform="translate(34.904 95.105)" fill="#63ab3b"/>
    <g id="Group_59" data-name="Group 59" transform="translate(26.98 77.234)">
      <rect id="Rectangle_383" data-name="Rectangle 383" width="32.746" height="5.885" transform="translate(0 8.36)" fill="#fff"/>
      <rect id="Rectangle_384" data-name="Rectangle 384" width="32.746" height="5.885" transform="translate(0 0)" fill="#fff"/>
    </g>
    <g id="Group_63" data-name="Group 63" transform="translate(27.008 69.329)">
      <rect id="Rectangle_384-2" data-name="Rectangle 384" width="32.746" height="5.885" transform="translate(0 0)" fill="#fff"/>
    </g>
    <g id="Group_60" data-name="Group 60" transform="translate(29.612 87.75)">
      <circle id="Ellipse_57" data-name="Ellipse 57" cx="0.784" cy="0.784" r="0.784" fill="#aec4ce"/>
      <circle id="Ellipse_58" data-name="Ellipse 58" cx="0.784" cy="0.784" r="0.784" transform="translate(2.844)" fill="#aec4ce"/>
      <circle id="Ellipse_59" data-name="Ellipse 59" cx="0.784" cy="0.784" r="0.784" transform="translate(5.689)" fill="#aec4ce"/>
      <circle id="Ellipse_60" data-name="Ellipse 60" cx="0.784" cy="0.784" r="0.784" transform="translate(8.533)" fill="#aec4ce"/>
      <circle id="Ellipse_61" data-name="Ellipse 61" cx="0.784" cy="0.784" r="0.784" transform="translate(11.378)" fill="#aec4ce"/>
      <circle id="Ellipse_62" data-name="Ellipse 62" cx="0.784" cy="0.784" r="0.784" transform="translate(14.222)" fill="#aec4ce"/>
    </g>
    <g id="Group_61" data-name="Group 61" transform="translate(38.51 96.803)">
      <path id="Path_889" data-name="Path 889" d="M227.467,350.331a1.02,1.02,0,0,0,.516.145c.294,0,.466-.154.466-.379s-.119-.328-.42-.444c-.364-.129-.589-.317-.589-.631a.641.641,0,0,1,.672-.608l.049,0a1.022,1.022,0,0,1,.493.108l-.08.236a.9.9,0,0,0-.423-.106c-.3,0-.421.182-.421.333,0,.209.135.31.443.43.377.145.569.327.569.654s-.255.642-.78.642a1.157,1.157,0,0,1-.569-.135Z" transform="translate(-227.392 -348.332)" fill="#fff"/>
      <path id="Path_890" data-name="Path 890" d="M238.952,353.492a4.289,4.289,0,0,0,.014.436h-.257l-.018-.261h0a.6.6,0,0,1-.53.3c-.252,0-.553-.135-.553-.7v-.936h.291v.893c0,.3.092.509.358.509a.421.421,0,0,0,.383-.271.426.426,0,0,0,.027-.149v-.982h.291Z" transform="translate(-235.878 -351.586)" fill="#fff"/>
      <path id="Path_891" data-name="Path 891" d="M248.328,350.293c0-.108.014-.271.014-.406v-1.943h.287v1.005h0a.6.6,0,0,1,.542-.3.718.718,0,0,1,.683.752c0,.02,0,.041-.005.061a.76.76,0,0,1-.658.852l-.058.005a.57.57,0,0,1-.542-.3h-.009l-.014.271Zm.3-.642a.565.565,0,0,0,.014.106.449.449,0,0,0,.436.34c.3,0,.485-.248.485-.614,0-.321-.164-.595-.477-.595a.46.46,0,0,0-.442.358.505.505,0,0,0-.018.119Z" transform="translate(-244.782 -347.944)" fill="#fff"/>
      <path id="Path_892" data-name="Path 892" d="M259.446,352.613a4.262,4.262,0,0,0-.014-.434h.255l.014.257h.009a.553.553,0,0,1,.5-.3.473.473,0,0,1,.454.321h0a.658.658,0,0,1,.179-.207.542.542,0,0,1,.355-.114c.211,0,.526.136.526.7v.948h-.284v-.906c0-.309-.112-.493-.347-.493a.375.375,0,0,0-.344.271.486.486,0,0,0-.024.145v.989h-.285v-.959c0-.255-.112-.44-.333-.44a.4.4,0,0,0-.362.291.39.39,0,0,0-.023.142v.966h-.286Z" transform="translate(-254.006 -351.43)" fill="#fff"/>
      <path id="Path_893" data-name="Path 893" d="M275.96,348.807a.17.17,0,0,1-.161.179h-.024a.173.173,0,0,1-.175-.172v-.007a.178.178,0,0,1,.172-.183h.011a.172.172,0,0,1,.177.167Zm-.322,2.051v-1.6h.291v1.6Z" transform="translate(-267.436 -348.509)" fill="#fff"/>
      <path id="Path_894" data-name="Path 894" d="M279.852,349.64v.461h.416v.222h-.416v.863c0,.2.056.31.217.31a.6.6,0,0,0,.169-.02l.013.218a.72.72,0,0,1-.257.039.408.408,0,0,1-.313-.123.587.587,0,0,1-.114-.416v-.874h-.248V350.1h.251v-.383Z" transform="translate(-270.526 -349.353)" fill="#fff"/>
    </g>
    <path id="Path_899" data-name="Path 899" d="M206.1,341.636v-3.724h3.724Z" transform="translate(-171.2 -242.808)" fill="#85d25b"/>
  </g>
</svg>
