<svg xmlns="http://www.w3.org/2000/svg" width="87" height="87" viewBox="0 0 87 87">
  <g id="_9065138251554897555" data-name="9065138251554897555" transform="translate(0.142 0.142)">
    <rect id="Rectangle_396" data-name="Rectangle 396" width="87" height="87" transform="translate(-0.142 -0.142)" fill="none"/>
    <path id="Path_988" data-name="Path 988" d="M71.864,9.14v5.683H55.29V9.14Z" transform="translate(-22.415 -3.583)" fill="#a8cbeb"/>
    <path id="Path_989" data-name="Path 989" d="M72.121,34.367v5.754a2.439,2.439,0,0,1-4.736.166v1.338a2.078,2.078,0,0,1-.479,1.065,2.267,2.267,0,0,1-1.776.675,2.5,2.5,0,0,1-1.646-.675,1.912,1.912,0,0,1-.651-1.219,5.025,5.025,0,0,1,0-.592,5.233,5.233,0,0,0,0-.592s-.148.592-.172.675a2.427,2.427,0,0,1-2.143,1.427A2.622,2.622,0,0,1,58.1,39.819a2.723,2.723,0,0,1-2,.841,3.123,3.123,0,0,1-2.5-3.208V27.98a7.381,7.381,0,0,1,.823-3.469A9.2,9.2,0,0,1,56.8,21.723a2.1,2.1,0,0,0,.172-.841V18.74H68.807V20.4s3.463,3.037,3.842,3.445c2.066,2.214,3.137,2.474,3.262,7.1V37.5a.959.959,0,0,1-.3.284c-.728.438-1.859-.343-2.019-.45A4.03,4.03,0,0,1,72.121,34.367Z" transform="translate(-21.725 -7.501)" fill="#fff"/>
    <path id="Path_990" data-name="Path 990" d="M57,18.74v2.143a2.1,2.1,0,0,1-.172.841,9.2,9.2,0,0,0-2.32,2.764,7.381,7.381,0,0,0-.823,3.469v9.471a3.138,3.138,0,0,0,2.5,3.208,2.723,2.723,0,0,0,2-.841,2.622,2.622,0,0,0,2.421,2.569,2.427,2.427,0,0,0,2.143-1.4,5.807,5.807,0,0,1,.172-.675,5.233,5.233,0,0,1,0,.592,5.027,5.027,0,0,0,0,.592,1.912,1.912,0,0,0,.651,1.219,2.5,2.5,0,0,0,1.652.675A2.267,2.267,0,0,0,67,42.69a2.078,2.078,0,0,0,.479-1.065V40.287a2.439,2.439,0,0,0,4.736-.166V30.579" transform="translate(-21.762 -7.501)" fill="none" stroke="#515f76" stroke-linecap="round" stroke-linejoin="round" stroke-width="2.4"/>
    <path id="Path_991" data-name="Path 991" d="M82.6,34.355a3.894,3.894,0,0,0,1.474,2.96c.16.107,1.29.888,2.019.45a.959.959,0,0,0,.3-.284V30.916c-.124-4.605-1.184-4.866-3.262-7.1-.379-.408-3.842-3.445-3.842-3.445V18.71" transform="translate(-32.209 -7.488)" fill="none" stroke="#515f76" stroke-linecap="round" stroke-linejoin="round" stroke-width="2.4"/>
    <line id="Line_65" data-name="Line 65" y2="1.421" transform="translate(36.663 31.022)" fill="none" stroke="#515f76" stroke-linecap="round" stroke-linejoin="round" stroke-width="2.4"/>
    <path id="Path_992" data-name="Path 992" d="M69.29,54.16v.947" transform="translate(-28.128 -21.954)" fill="none" stroke="#515f76" stroke-linecap="round" stroke-linejoin="round" stroke-width="2.4"/>
    <line id="Line_66" data-name="Line 66" y2="0.947" transform="translate(45.619 31.732)" fill="none" stroke="#515f76" stroke-linecap="round" stroke-linejoin="round" stroke-width="2.4"/>
    <path id="Path_993" data-name="Path 993" d="M81.095,82.8v24.548a2.841,2.841,0,0,1-2.841,2.841H30.4a2.841,2.841,0,0,1-2.841-2.841V82.8a7.577,7.577,0,0,0,7.577,7.577H50.314v5.606a.474.474,0,0,0,.474.474h7.1a.474.474,0,0,0,.474-.474V90.377h16.1C78.627,90.377,81.095,86.979,81.095,82.8Z" transform="translate(-11.1 -33.641)" fill="#63ab3b"/>
    <path id="Path_994" data-name="Path 994" d="M66.391,63.47H78.23a2.841,2.841,0,0,1,2.841,2.841v8.6c0,4.179-2.445,7.577-6.63,7.577h-16.1V79.1a.474.474,0,0,0-.474-.474h-7.1a.474.474,0,0,0-.474.474v3.392H35.137a7.577,7.577,0,0,1-7.577-7.577v-8.6A2.841,2.841,0,0,1,30.4,63.47Z" transform="translate(-11.1 -25.753)" fill="#63ab3b"/>
    <path id="Path_995" data-name="Path 995" d="M74.01,92.935v5.606a.474.474,0,0,1-.474.474h-7.1a.474.474,0,0,1-.474-.474v-9a.474.474,0,0,1,.474-.474h7.1a.474.474,0,0,1,.474.474Z" transform="translate(-26.769 -36.2)" fill="#fff"/>
    <path id="Path_996" data-name="Path 996" d="M50.76,58.1V50.154a.474.474,0,0,1,.474-.474h1.657" transform="translate(-20.567 -20.126)" fill="none" stroke="#515f76" stroke-linejoin="round" stroke-width="2.4"/>
    <path id="Path_997" data-name="Path 997" d="M92,49.68h.237a.474.474,0,0,1,.474.474V58.1" transform="translate(-37.395 -20.126)" fill="none" stroke="#515f76" stroke-linejoin="round" stroke-width="2.4"/>
    <path id="Path_998" data-name="Path 998" d="M28.776,77.5V69.842c0-1.569,1.616-2.6,3.185-2.6,0,0,48.539-.852,48.811-.752A2.758,2.758,0,0,0,78,64H30.173C28.6,64,27,64.959,27,66.527v8.6a7.512,7.512,0,0,0,2.676,5.825A7.583,7.583,0,0,1,28.776,77.5Z" transform="translate(-10.871 -25.969)" fill="#84e250"/>
    <path id="Path_999" data-name="Path 999" d="M34.908,90.614A8.074,8.074,0,0,1,27,82.8v2.368a8.074,8.074,0,0,0,7.908,7.814H49.494V90.614Z" transform="translate(-10.871 -33.641)" fill="#84e250"/>
    <path id="Path_1000" data-name="Path 1000" d="M95.432,90.614H79v2.368H95.432c4.185,0,6.061-3.635,6.061-7.814V82.8C101.494,86.979,99.617,90.614,95.432,90.614Z" transform="translate(-32.09 -33.641)" fill="#84e250"/>
    <path id="Path_1001" data-name="Path 1001" d="M102.612,82.8c0,4.179-2.445,7.577-6.63,7.577H80.29" transform="translate(-32.617 -33.641)" fill="none" stroke="#515f76" stroke-linejoin="round" stroke-width="2.4"/>
    <path id="Path_1002" data-name="Path 1002" d="M74.01,92.935v5.606a.474.474,0,0,1-.474.474h-7.1a.474.474,0,0,1-.474-.474v-9a.474.474,0,0,1,.474-.474h7.1a.474.474,0,0,1,.474.474Z" transform="translate(-26.769 -36.2)" fill="none" stroke="#515f76" stroke-linecap="round" stroke-linejoin="round" stroke-width="2.4"/>
    <path id="Path_1003" data-name="Path 1003" d="M29.774,107.356V87.822a7.405,7.405,0,0,1-1.776-5v24.548c0,1.569,1.486,3.392,3.054,3.392h1.894A3.681,3.681,0,0,1,29.774,107.356Z" transform="translate(-11.278 -33.649)" fill="#84e250"/>
    <path id="Path_1004" data-name="Path 1004" d="M50.054,90.377H35.137A7.577,7.577,0,0,1,27.56,82.8" transform="translate(-11.1 -33.641)" fill="none" stroke="#515f76" stroke-linejoin="round" stroke-width="2.4"/>
    <path id="Path_1005" data-name="Path 1005" d="M81.095,74.912V99.46a2.841,2.841,0,0,1-2.841,2.841H30.4A2.841,2.841,0,0,1,27.56,99.46V66.311A2.841,2.841,0,0,1,30.4,63.47H78.23a2.841,2.841,0,0,1,2.841,2.841v8.6Z" transform="translate(-11.1 -25.753)" fill="none" stroke="#515f76" stroke-linejoin="round" stroke-width="2.4"/>
    <circle id="Ellipse_70" data-name="Ellipse 70" cx="0.947" cy="0.947" r="0.947" transform="translate(69.024 31.868)" fill="#b8b9ba"/>
    <circle id="Ellipse_71" data-name="Ellipse 71" cx="1.184" cy="1.184" r="1.184" transform="translate(73.979 41.979)" fill="none" stroke="#b8b9ba" stroke-linecap="round" stroke-miterlimit="10" stroke-width="1.6"/>
    <line id="Line_67" data-name="Line 67" y2="3.552" transform="translate(74.731 78.874)" fill="none" stroke="#b8b9ba" stroke-linecap="round" stroke-miterlimit="10" stroke-width="2"/>
    <line id="Line_68" data-name="Line 68" x1="3.552" transform="translate(72.955 80.65)" fill="none" stroke="#b8b9ba" stroke-linecap="round" stroke-miterlimit="10" stroke-width="2"/>
    <circle id="Ellipse_72" data-name="Ellipse 72" cx="0.947" cy="0.947" r="0.947" transform="translate(65.71 80.573)" fill="#b8b9ba"/>
    <line id="Line_69" data-name="Line 69" x2="1.894" y2="1.894" transform="translate(9.984 81.437)" fill="none" stroke="#a8cbeb" stroke-linecap="round" stroke-miterlimit="10" stroke-width="1.6"/>
    <line id="Line_70" data-name="Line 70" x1="1.894" y2="1.894" transform="translate(9.984 81.437)" fill="none" stroke="#a8cbeb" stroke-linecap="round" stroke-miterlimit="10" stroke-width="1.6"/>
    <path id="Path_1006" data-name="Path 1006" d="M43.33,15.1l1.379-.722a.047.047,0,0,1,.071.047l-.26,1.533L45.7,17.108l-1.634.237-.734,1.48-.734-1.48-1.539-.225a.047.047,0,0,1,0-.083l1.113-1.089L41.9,14.32Z" transform="translate(-16.6 -5.697)" fill="#b8b9ba"/>
    <circle id="Ellipse_73" data-name="Ellipse 73" cx="0.947" cy="0.947" r="0.947" transform="translate(10.932 74.547)" fill="#b8b9ba"/>
    <circle id="Ellipse_74" data-name="Ellipse 74" cx="0.947" cy="0.947" r="0.947" transform="translate(19.775 83.332)" fill="#b8b9ba"/>
    <circle id="Ellipse_75" data-name="Ellipse 75" cx="0.947" cy="0.947" r="0.947" transform="translate(23.942 1.49)" fill="#b8b9ba"/>
    <circle id="Ellipse_76" data-name="Ellipse 76" cx="1.184" cy="1.184" r="1.184" transform="translate(19.538 14.081)" fill="none" stroke="#b8b9ba" stroke-linecap="round" stroke-miterlimit="10" stroke-width="1.6"/>
    <path id="Path_1007" data-name="Path 1007" d="M72.028,13.949H60.189l-1.048-.189A1.894,1.894,0,0,1,57.584,11.9V8.74H55.69v5.683H72.264v-.474Z" transform="translate(-22.579 -3.42)" fill="#d2e1ef"/>
    <path id="Path_1008" data-name="Path 1008" d="M71.864,9.14v5.683H55.29V9.14" transform="translate(-22.415 -3.583)" fill="none" stroke="#515f76" stroke-linecap="round" stroke-linejoin="round" stroke-width="2.4"/>
  </g>
</svg>
