<svg xmlns="http://www.w3.org/2000/svg" width="45" height="45" class="utnp_svg"><defs><style>.utnp_svg .a{fill:#01a54f}.utnp_svg .b{fill:#068341}</style></defs><path class="a" d="M25.387 10.106a12.686 12.686 0 0 1 7.933 5.708l8.294-5.168-.017-.028A22.507 22.507 0 0 0 2.79 11.644l8.562 4.716a12.748 12.748 0 0 1 14.034-6.254Z"/><path class="a" d="M19.613 34.893a12.725 12.725 0 0 1-7.567-19.649l-8.71-4.538a22.507 22.507 0 0 0 26.536 33.051l-2.5-9.508a12.655 12.655 0 0 1-7.759.644Z"/><path class="b" d="M27.373 34.25a12.656 12.656 0 0 1-7.759.643l-2.216 9.512a22.34 22.34 0 0 0 12.475-.648Z"/><path class="a" d="M44.405 27.603a22.344 22.344 0 0 0-2.808-16.984q-.322-.516-.667-1.011l-8.476 4.974a12.715 12.715 0 0 1-6.451 20.148l2.727 9.391a22.6 22.6 0 0 0 5.65-2.523 22.344 22.344 0 0 0 10.024-13.995Z"/><path class="b" d="M44.405 27.603a22.344 22.344 0 0 0-2.808-16.984q-.322-.516-.667-1.011l-8.476 4.974a12.715 12.715 0 0 1-6.451 20.148l2.727 9.391a22.6 22.6 0 0 0 5.65-2.523 22.344 22.344 0 0 0 10.024-13.995Z"/><path class="c" d="M2021.181 1907.777h10.519c.059.007.089.037.089.089v1a.079.079 0 0 1-.089.089h-3.959v.089a3.1 3.1 0 0 1 1.312 1.869l.045.323h2.6c.059.007.089.037.089.089v1a.079.079 0 0 1-.089.089h-2.5q0 1.679-2.058 3.27a6.472 6.472 0 0 1-2.592 1.046c0 .03-.03.044-.089.044l5.65 7.318v.089h-2.147q-.033 0-6.551-8.5v-.045h.679q3.6 0 4.327-2.592a3.727 3.727 0 0 0 .044-.5v-.133h-5.283a.079.079 0 0 1-.089-.089v-1c.007-.059.037-.089.089-.089h5.239a2.907 2.907 0 0 0-1.135-1.646 4.768 4.768 0 0 0-2.191-.634h-1.913a.079.079 0 0 1-.089-.089v-1c.011-.057.04-.087.092-.087Z" transform="translate(-2003.518 -1893.48)" style="fill:#162b75"/><path class="d" d="M2163.167 1779.35a22.342 22.342 0 0 0-9.227-8.338l-3.426 9.245a12.747 12.747 0 0 1 4.376 4.289l8.294-5.168Z" transform="translate(-2121.57 -1768.732)" style="fill:#fff"/></svg>
