<svg xmlns="http://www.w3.org/2000/svg" width="66.858" height="59.055" viewBox="0 0 66.858 59.055">
  <g id="_7365774771579770860" data-name="7365774771579770860" transform="translate(-2.7 -6.586)">
    <path id="Path_5298" data-name="Path 5298" d="M32.785,29.186l4.873-4.873a1.048,1.048,0,0,0-.68-1.813H28.818a1.048,1.048,0,0,0-.68,1.813Zm0,0" transform="translate(3.344 2.119)" fill="#f1e1e6"/>
    <path id="Path_5299" data-name="Path 5299" d="M36.279,22.6H32.2v6.572L37.073,24.3a1.039,1.039,0,0,0-.793-1.7Zm0,0" transform="translate(3.929 2.133)" fill="#e9cfd6"/>
    <path id="Path_5300" data-name="Path 5300" d="M35.143,27.1A25.051,25.051,0,0,0,10.1,52.143v5.1H60.187v-5.1A25.051,25.051,0,0,0,35.143,27.1Zm0,0" transform="translate(0.986 2.732)" fill="#01458e"/>
    <path id="Path_5301" data-name="Path 5301" d="M57.243,52.143A25.051,25.051,0,0,0,32.2,27.1,26.462,26.462,0,0,1,50.218,52.143v5.1H57.13v-5.1Zm0,0" transform="translate(3.929 2.732)" fill="#1e6dc2"/>
    <path id="Path_5302" data-name="Path 5302" d="M64.679,58.619H7.34A3.773,3.773,0,0,1,3.6,54.88V52.5H68.532v2.38a3.951,3.951,0,0,1-3.853,3.74Zm0,0" transform="translate(0.12 6.115)" fill="#01458e"/>
    <path id="Path_5303" data-name="Path 5303" d="M57.766,56.14H9.719A6.251,6.251,0,0,1,4.053,52.4H3.6v2.38a3.773,3.773,0,0,0,3.74,3.74H64.679a3.773,3.773,0,0,0,3.74-3.74V52.4H61.506a3.7,3.7,0,0,1-3.74,3.74Zm0,0" transform="translate(0.12 6.102)" fill="#1e6dc2"/>
    <path id="Path_5304" data-name="Path 5304" d="M19.344,16.961l.227.227a2.38,2.38,0,0,1,1.133,2.04,3.344,3.344,0,0,1-1.247,2.493l-.227.227a.926.926,0,0,0,.113,1.36,1.611,1.611,0,0,0,.68.227,1.224,1.224,0,0,0,.793-.34l.227-.227a5.193,5.193,0,0,0,1.813-3.853,4.512,4.512,0,0,0-1.7-3.513l-.227-.227c-.567-.567-.793-.793-.793-1.247,0-.567.227-.68.793-1.247l.793-.793a.965.965,0,1,0-1.473-1.247l-.68.68a3.532,3.532,0,0,0-1.36,2.72,2.454,2.454,0,0,0,1.133,2.72Zm0,0" transform="translate(2.054 0.519)" fill="#63ab3b"/>
    <path id="Path_5305" data-name="Path 5305" d="M31.561,13.061l.227.227a2.38,2.38,0,0,1,1.133,2.04,3.344,3.344,0,0,1-1.247,2.493l-.227.227a.926.926,0,0,0,.113,1.36,1.611,1.611,0,0,0,.68.227,1.224,1.224,0,0,0,.793-.34l.227-.227a5.193,5.193,0,0,0,1.813-3.853,4.512,4.512,0,0,0-1.7-3.513l-.227-.227c-.567-.567-.793-.793-.793-1.247,0-.567.227-.68.793-1.247,0-.227.227-.453.567-.793a.965.965,0,1,0-1.473-1.247l-.68.68a3.532,3.532,0,0,0-1.36,2.72,2.967,2.967,0,0,0,1.36,2.72Zm0,0" transform="translate(3.661 0)" fill="#63ab3b"/>
    <path id="Path_5306" data-name="Path 5306" d="M43.743,16.961l.227.227a2.38,2.38,0,0,1,1.133,2.04,3.344,3.344,0,0,1-1.247,2.493l-.227.227a.926.926,0,0,0,.113,1.36,1.611,1.611,0,0,0,.68.227,1.224,1.224,0,0,0,.793-.34l.227-.227a5.193,5.193,0,0,0,1.813-3.853,4.512,4.512,0,0,0-1.7-3.513l-.227-.227c-.567-.567-.793-.793-.793-1.247,0-.567.227-.68.793-1.247l.793-.793a.965.965,0,1,0-1.473-1.247l-.68.68a3.532,3.532,0,0,0-1.36,2.72c-.34,1.36.453,2.04,1.133,2.72Zm0,0" transform="translate(5.305 0.519)" fill="#63ab3b"/>
    <path id="Path_5307" data-name="Path 5307" d="M68.538,51.5H3.72A1.016,1.016,0,0,0,2.7,52.52V54.9a4.788,4.788,0,0,0,4.759,4.759H64.8A4.788,4.788,0,0,0,69.558,54.9V52.52a1.016,1.016,0,0,0-1.02-1.02Zm-1.02,3.4a2.805,2.805,0,0,1-2.833,2.833H7.459A2.805,2.805,0,0,1,4.626,54.9V53.54H67.518Zm0,0" transform="translate(0 5.982)" fill="#63ab3b"/>
    <path id="Path_5308" data-name="Path 5308" d="M10.22,52.863h0a1,1,0,0,0,1.02-.907,23.533,23.533,0,0,1,7.366-16.318,23.884,23.884,0,0,1,15.3-6.686h2.72a24.084,24.084,0,0,1,22.664,23,.965.965,0,0,0,1.926-.113,25.615,25.615,0,0,0-7.932-17.678,26.177,26.177,0,0,0-14.391-7.026l1.926-1.926a2.082,2.082,0,0,0,.453-2.266A1.984,1.984,0,0,0,39.343,21.7H31.184a2.094,2.094,0,0,0-1.926,1.247,2.124,2.124,0,0,0,.453,2.266l1.926,1.926a26.5,26.5,0,0,0-14.5,7.026A25.615,25.615,0,0,0,9.2,51.843a1.016,1.016,0,0,0,1.02,1.02ZM31.184,23.74h0l8.272-.113h0l-3.06,3.06h-2.04Zm0,0" transform="translate(0.866 2.013)" fill="#63ab3b"/>
  </g>
</svg>
