<svg version="1.1" id="Layer_1" xmlns="http://www.w3.org/2000/svg" x="0" y="0" viewBox="0 0 1080 1080" style="enable-background:new 0 0 1080 1080" xml:space="preserve"><style>.st0{fill:#01A54F}.st1{fill:#1f276c}.st2{fill:#fff}.st3{fill:#f8bf9d}</style><g id="Group_361" transform="translate(0 -1)"><path id="Path_253" class="st0" d="M1073.8 861.5 736.1 648.7V741H540.2L518 852.8 540.2 982H736v92.3l337.8-212.8z"/><path id="Path_254" class="st0" d="M468.1 740.9 266.3 544.7v227.6c.1 115.8 93.9 209.6 209.7 209.7h64.3V741h-72.2z"/><path id="Path_255" class="st1" d="M604.6 100.5h-64.3l-44.5 106.9 44.5 134.1h72.1l201.9 196.3V310.2c-.2-115.7-94-209.5-209.7-209.7z"/><path id="Path_256" class="st1" d="M344.4 100.5V8.2L6.7 221l337.8 212.8v-92.3h195.8v-241H344.4z"/><path id="Path_257" class="st2" d="M540.2 267.6 518 547.7l22.2 267.1c151.1 0 273.7-122.5 273.7-273.7 0-151.1-122.5-273.7-273.7-273.7v.2z"/><path id="Path_258" class="st2" d="M266.6 541.2c0 151.1 122.5 273.6 273.6 273.6V267.6c-151.1 0-273.6 122.5-273.6 273.6z"/><path id="Path_259" class="st3" d="M540.2 236.3 518 258.5l22.2 40.3c133.9 0 242.4 108.5 242.4 242.4S674.1 783.6 540.2 783.6L518 814.9l22.2 31.3c168.4-1.5 303.7-139.2 302.2-307.7-1.4-166.3-135.9-300.7-302.2-302.2z"/><path id="Path_260" class="st3" d="M297.9 541.2C298 407.4 406.4 299 540.3 298.9v-62.6C371.8 237.8 236.5 375.5 238 544c1.5 166.3 135.9 300.7 302.2 302.2v-62.6C406.5 783.5 298 675 297.9 541.2z"/><circle cx="540.2" cy="541.2" r="171" style="fill:#01A54F"/><path class="st2" d="M480.8 454.5h118.8c.6 0 1 .4 1 1v11.2c0 .6-.4 1-1 1h-44.7v1c6.3 3.3 11.2 10.4 14.8 21l.6 3.7h29.3c.6 0 1 .4 1 1v11.2c0 .6-.4 1-1 1h-28.3c0 12.6-7.7 25-23.2 37-13.8 7.9-23.4 11.8-29.3 11.8 0 .4-.4.6-1 .6l63.7 82.6v1h-24c-.2 0-25-32.1-74-96v-.6h7.7c27.1 0 43.5-9.8 48.8-29.3.4-2.4.6-4.1.6-5.7v-1.6h-59.8c-.6 0-1-.4-1-1v-11.2c0-.6.4-1 1-1H540c-2-7.7-6.3-13.8-12.8-18.5-9-4.7-17.3-7.1-24.8-7.1h-21.6c-.6 0-1-.4-1-1v-11.1c.2-.6.4-1 1-1z"/></g></svg>
