<svg xmlns="http://www.w3.org/2000/svg" width="99.368" height="89.985" viewBox="0 0 99.368 89.985">
  <g id="Group_1339" data-name="Group 1339" transform="translate(-1285 -911)">
    <path id="Path_5143" data-name="Path 5143" d="M50.09,14.09c26.323-6.151,49.278,2.3,49.278,29.964S77.754,102.173,50.09,102.173,0,71.718,0,44.054,23.767,20.241,50.09,14.09Z" transform="translate(1285 898.812)" fill="#f6f5f5" opacity="0.43"/>
    <g id="_798332071594941481" data-name="798332071594941481" transform="translate(1304.169 923.795)">
      <path id="Path_5273" data-name="Path 5273" d="M5,35.7V28.7a25.7,25.7,0,1,1,51.393,0V35.7" transform="translate(0 0)" fill="none" stroke="#01a449" stroke-linejoin="round" stroke-miterlimit="10" stroke-width="3"/>
      <path id="Path_5274" data-name="Path 5274" d="M41.7,17A25.673,25.673,0,0,1,19.971,42.463,3.564,3.564,0,0,1,16,38.959h0a3.194,3.194,0,0,1,3.27-3.27h0a3.69,3.69,0,0,1,3.738,3.738v.934" transform="translate(14.696 18.704)" fill="none" stroke="#01a449" stroke-linejoin="round" stroke-miterlimit="10" stroke-width="3"/>
      <path id="Path_5275" data-name="Path 5275" d="M14.344,13a9.344,9.344,0,0,0,0,18.688Z" transform="translate(0 13.36)" fill="none" stroke="#0a1735" stroke-linejoin="round" stroke-miterlimit="10" stroke-width="2"/>
      <path id="Path_5276" data-name="Path 5276" d="M23,31.688A9.344,9.344,0,0,0,23,13Z" transform="translate(24.048 13.36)" fill="none" stroke="#0a1735" stroke-linejoin="round" stroke-miterlimit="10" stroke-width="2"/>
    </g>
  </g>
</svg>
