<svg id="certificate-svgrepo-com" xmlns="http://www.w3.org/2000/svg" width="64.992" height="64.992" viewBox="0 0 64.992 64.992">
  <g id="XMLID_42_">
    <g id="Group_207" data-name="Group 207" transform="translate(1.326 1.326)">
      <path id="Path_4049" data-name="Path 4049" d="M289.285,300.278,280,308.236V281.97a9.951,9.951,0,0,0,18.569,0v26.266Z" transform="translate(-244.188 -245.897)" fill="#01458e"/>
      <path id="Path_4050" data-name="Path 4050" d="M294.232,193.525a9.953,9.953,0,1,1,.663-3.577A9.948,9.948,0,0,1,294.232,193.525Z" transform="translate(-239.851 -157.452)" fill="#63ab3b"/>
      <path id="Path_4051" data-name="Path 4051" d="M72.339,10V64.381H64.381V46.073a9.948,9.948,0,1,0-18.569,0V64.381H10V10Z" transform="translate(-10 -10)" fill="#fff"/>
    </g>
    <g id="Group_208" data-name="Group 208">
      <path id="Path_4052" data-name="Path 4052" d="M63.666,0H1.326A1.326,1.326,0,0,0,0,1.326V55.708a1.326,1.326,0,0,0,1.326,1.326H35.812v6.632A1.326,1.326,0,0,0,38,64.673l8.422-7.218,8.421,7.218a1.326,1.326,0,0,0,2.19-1.007V57.034h6.632a1.326,1.326,0,0,0,1.326-1.326V1.326A1.326,1.326,0,0,0,63.666,0ZM38.376,36.922a8.621,8.621,0,1,1,16.094,0c-.028.073-.058.144-.088.215h0v0a8.623,8.623,0,0,1-15.916,0v0h0C38.434,37.067,38.4,37,38.376,36.922ZM47.749,55.1V47.749H45.1V55.1l-6.632,5.684V41.809a11.372,11.372,0,0,0,1.507,1.261,11.281,11.281,0,0,0,12.9,0,11.372,11.372,0,0,0,1.507-1.261V60.782Zm14.59-.716H57.034V37.63a11.274,11.274,0,1,0-21.222,0V54.381H2.653V2.653H62.339Z"/>
      <rect id="Rectangle_997" data-name="Rectangle 997" width="25.231" height="3.364" transform="translate(5.583 27.45)"/>
      <rect id="Rectangle_998" data-name="Rectangle 998" width="5.887" height="2.523" transform="translate(5.583 21.563)"/>
      <rect id="Rectangle_999" data-name="Rectangle 999" width="23.549" height="2.523" transform="translate(20.722 8.106)"/>
      <rect id="Rectangle_1000" data-name="Rectangle 1000" width="10.092" height="2.523" transform="translate(27.45 13.152)"/>
      <rect id="Rectangle_1001" data-name="Rectangle 1001" width="25.231" height="3.364" transform="translate(5.583 34.178)"/>
      <rect id="Rectangle_1002" data-name="Rectangle 1002" width="25.231" height="2.523" transform="translate(5.583 40.906)"/>
      <rect id="Rectangle_1003" data-name="Rectangle 1003" width="17.662" height="2.523" transform="translate(5.583 47.634)"/>
    </g>
  </g>
</svg>
