<svg xmlns="http://www.w3.org/2000/svg" width="36.945" height="41.438" viewBox="0 0 36.945 41.438">
  <g id="_798332071594941481" data-name="798332071594941481" transform="translate(-3.5 -1.5)">
    <path id="Path_5273" data-name="Path 5273" d="M5,24.6V19.973a16.973,16.973,0,0,1,33.945,0V24.6" fill="none" stroke="#63ab3b" stroke-linejoin="round" stroke-miterlimit="10" stroke-width="3"/>
    <path id="Path_5274" data-name="Path 5274" d="M32.973,17a16.957,16.957,0,0,1-14.35,16.818A2.354,2.354,0,0,1,16,31.5h0a2.109,2.109,0,0,1,2.16-2.16h0a2.437,2.437,0,0,1,2.469,2.469v.617" transform="translate(5.973 7.602)" fill="none" stroke="#63ab3b" stroke-linejoin="round" stroke-miterlimit="10" stroke-width="3"/>
    <path id="Path_5275" data-name="Path 5275" d="M11.172,13a6.172,6.172,0,0,0,0,12.344Z" transform="translate(0 5.43)" fill="none" stroke="#01458e" stroke-linejoin="round" stroke-miterlimit="10" stroke-width="2"/>
    <path id="Path_5276" data-name="Path 5276" d="M23,25.344A6.172,6.172,0,0,0,23,13Z" transform="translate(9.773 5.43)" fill="none" stroke="#01458e" stroke-linejoin="round" stroke-miterlimit="10" stroke-width="2"/>
  </g>
</svg>
