<svg xmlns="http://www.w3.org/2000/svg" width="64.428" height="64.427" viewBox="0 0 64.428 64.427">
  <g id="planet-earth" transform="translate(0 -0.001)">
    <g id="Group_216" data-name="Group 216" transform="translate(46.387 57.764)">
      <g id="Group_215" data-name="Group 215">
        <path id="Path_4155" data-name="Path 4155" d="M371.025,459.663a1.259,1.259,0,0,0-1.72-.457l-.048.028a1.258,1.258,0,1,0,1.263,2.177l.048-.028A1.259,1.259,0,0,0,371.025,459.663Z" transform="translate(-368.63 -459.036)" fill="#63ab3b"/>
      </g>
    </g>
    <g id="Group_218" data-name="Group 218" transform="translate(0 0.001)">
      <g id="Group_217" data-name="Group 217" transform="translate(0)">
        <path id="Path_4156" data-name="Path 4156" d="M60.111,16.118a32.206,32.206,0,0,0-59,7.767A32.212,32.212,0,0,0,43.741,62.3a1.258,1.258,0,1,0-.9-2.349,29.5,29.5,0,0,1-28.387-3.9l1.127-5.885.543-.176a3.919,3.919,0,0,0,2.514-4.932l-.4-1.227a1.389,1.389,0,0,1,0-.868A3.915,3.915,0,0,0,15.269,37.9l-2.84-.555-5.48-4.166a1.258,1.258,0,0,0-1.15-.2L2.591,34.026a29.665,29.665,0,0,1,0-3.436c.127.118.209.2.26.251a1.319,1.319,0,0,0,1.229.63,18.277,18.277,0,0,0,2.255-.257c1.062-.157,2.118-.334,2.128-.335a1.258,1.258,0,0,0,.832-1.95L7.747,26.666l2.21-1.58a1.259,1.259,0,0,0,.36-.4l3.426-5.98,1.381-1.48a5.315,5.315,0,0,0,1.026-5.637,5.787,5.787,0,0,0-2.292-2.7A29.651,29.651,0,0,1,31.876,2.541L29.629,5.359,21.3,8.28a1.258,1.258,0,0,0-.747.707l-2.327,5.641a1.258,1.258,0,0,0,.139,1.211l3.4,4.761a11.959,11.959,0,0,0-1.526,1.894c-.248.352-.482.685-.644.871-.141.162-.282.321-.421.478a11.775,11.775,0,0,0-2.024,2.809,7.5,7.5,0,0,0,.622,7.58,7.062,7.062,0,0,0,6.668,2.861,9.8,9.8,0,0,0,1.229-.248c1.079-.267,1.421-.294,1.767.03.168.158.184.187.18.722a4.891,4.891,0,0,0,.112,1.247,3.976,3.976,0,0,0,1.064,1.737,2.82,2.82,0,0,1,.456.582,3.133,3.133,0,0,1-.153,2.6q-.048.146-.1.3c-.569,1.761.224,3.508.924,5.049.227.5.442.973.582,1.39,1.131,3.357,1.98,4.126,2.66,4.436a2.623,2.623,0,0,0,1.1.233c1.814,0,3.707-1.684,4.576-2.752a3.867,3.867,0,0,0,.779-1.832,2.006,2.006,0,0,1,.161-.562,3.3,3.3,0,0,1,.413-.531,4.365,4.365,0,0,0,1.029-1.709,2.769,2.769,0,0,1,.854-1.34c.087-.092.179-.19.278-.3,1.676-1.824,1.244-3.217.787-4.692-.385-1.241.288-2.035,1.915-3.55a13.591,13.591,0,0,0,2-2.152,2.717,2.717,0,0,0,.533-2.52c-.455-1.056-1.612-1.233-2.541-1.376a4.169,4.169,0,0,1-1.1-.257,5.949,5.949,0,0,1-1.716-2.6c-.092-.2-.182-.406-.274-.6-.164-.35-.327-.773-.5-1.22a10.556,10.556,0,0,0-1.86-3.464,8.037,8.037,0,0,0-3.611-1.6c-.444-.12-.863-.234-1.14-.336a1.257,1.257,0,0,0-.723-.045,3.265,3.265,0,0,0-1.341.555,1.563,1.563,0,0,0-.448.6,14.392,14.392,0,0,1-1.484-.9l-.024-.016a1.784,1.784,0,0,0-.112-1.211c-.7-1.487-3.036-1.37-3.5-1.331-.261.022-.592.034-.942.046-.55.02-1.157.041-1.758.109l.031-.086a3.217,3.217,0,0,1,3.021-2.125h.715a1.258,1.258,0,0,0,0-2.516h-.715a5.744,5.744,0,0,0-4.871,2.717l-1.877-2.629,1.847-4.476L30.8,7.614a1.259,1.259,0,0,0,.568-.4l3.619-4.54a29.674,29.674,0,0,1,22.942,14.7,29.364,29.364,0,0,1,2.965,7.2l-.533.476a3.361,3.361,0,0,0-1.12,2.445c0,.01,0,.02,0,.03l-.869-2.39a3.141,3.141,0,0,0-.567-.972l-1.55-1.815a3.153,3.153,0,0,0-2.4-1.107h-1.9a1.822,1.822,0,0,0-1.516,2.833l.192.288a13.945,13.945,0,0,1-4.154,2.467l-2.6-4.982V20.74a1.258,1.258,0,0,0-.389-.91l-2.342-2.236a1.26,1.26,0,0,0-.452-.277l-2.108-.741a1.258,1.258,0,1,0-.834,2.374l1.853.651,1.757,1.677v.882a1.259,1.259,0,0,0,.143.582l3.256,6.237a1.258,1.258,0,0,0,1.551.6l.948-.35a16.467,16.467,0,0,0,5.9-3.779,1.258,1.258,0,0,0,.157-1.588l-.067-.1h.6a.64.64,0,0,1,.488.225l1.55,1.815a.639.639,0,0,1,.115.2l1.711,4.7a1.258,1.258,0,0,0,2.072.46l.814-.814a3.928,3.928,0,0,0,1.04-1.892,29.8,29.8,0,0,1-11.063,27.1,1.258,1.258,0,0,0,1.554,1.98,32.212,32.212,0,0,0,7.974-41.416ZM5.95,35.58l5.189,3.945a1.257,1.257,0,0,0,.52.233l3.127.611a1.4,1.4,0,0,1,1.06,1.808,3.89,3.89,0,0,0,0,2.43l.4,1.227a1.4,1.4,0,0,1-.9,1.762L14.094,48a1.258,1.258,0,0,0-.847.96L12.24,54.215a30.022,30.022,0,0,1-5.732-7.15A29.533,29.533,0,0,1,2.853,36.587Zm7.333-20.069L11.8,17.1a1.264,1.264,0,0,0-.172.233L8.27,23.2,5.282,25.335a1.258,1.258,0,0,0-.308,1.732l1.117,1.639c-.644.1-1.222.175-1.606.217-.074-.071-.151-.143-.231-.217-.3-.278-.715-.649-1.334-1.191a29.741,29.741,0,0,1,8.863-16.832,3.272,3.272,0,0,1,2.039,1.867A2.792,2.792,0,0,1,13.283,15.511Zm10.259,6.876a8.069,8.069,0,0,1,2.815-.4c.381-.013.741-.026,1.063-.053a3.423,3.423,0,0,1,.536,0,1.258,1.258,0,0,0,.579,1.566c.236.126.565.345.912.577a7.251,7.251,0,0,0,3.145,1.465,2.088,2.088,0,0,0,1.709-.712c.018-.018.035-.037.053-.053a1.348,1.348,0,0,0,.337-.412c.2.058.413.115.629.174a8.379,8.379,0,0,1,2.438.9A8.932,8.932,0,0,1,39.1,28.09c.189.49.368.952.568,1.38.086.184.171.373.257.565a7.858,7.858,0,0,0,2.635,3.676,5.2,5.2,0,0,0,2.094.638l.274.043a12.168,12.168,0,0,1-1.6,1.675c-1.558,1.451-3.5,3.256-2.6,6.136.421,1.36.441,1.507-.237,2.244-.092.1-.178.192-.259.278a5.171,5.171,0,0,0-1.418,2.3,1.964,1.964,0,0,1-.512.8,5.618,5.618,0,0,0-.7.932,4.078,4.078,0,0,0-.455,1.337,1.54,1.54,0,0,1-.263.738,7.335,7.335,0,0,1-1.589,1.4,2.076,2.076,0,0,1-1.054.42A8.977,8.977,0,0,1,32.884,49.7c-.181-.538-.433-1.092-.676-1.627-.536-1.18-1.09-2.4-.82-3.235l.094-.289a5.5,5.5,0,0,0,.084-4.356,4.538,4.538,0,0,0-.916-1.305,2.339,2.339,0,0,1-.481-.638,2.72,2.72,0,0,1-.041-.637,3.121,3.121,0,0,0-.977-2.576A4.053,4.053,0,0,0,25.06,34.4a7.894,7.894,0,0,1-.918.191,4.52,4.52,0,0,1-4.331-1.831,4.982,4.982,0,0,1-.39-5.036,9.554,9.554,0,0,1,1.629-2.212c.146-.164.294-.33.441-.5.245-.283.515-.666.8-1.071A9.1,9.1,0,0,1,23.543,22.387Z" transform="translate(0 -0.001)" fill="#63ab3b"/>
      </g>
    </g>
    <g id="Group_220" data-name="Group 220" transform="translate(44.061 40.106)">
      <g id="Group_219" data-name="Group 219">
        <path id="Path_4157" data-name="Path 4157" d="M357.684,321.929l-.605-2.282a1.258,1.258,0,0,0-2.322-.277c-.138.254-.262.523-.382.784a5.407,5.407,0,0,1-.628,1.141,2.776,2.776,0,0,1-.739.438,3.46,3.46,0,0,0-2.1,2.037,3.687,3.687,0,0,0-.083,1.775,1.145,1.145,0,0,1-.032.742l-.013.029c-.4.94-1.146,2.69-.1,4.177a2.621,2.621,0,0,0,2.139,1.334,2.042,2.042,0,0,0,.335-.027c1.284-.21,2.248-1.545,3.037-4.2l1.48-4.988A1.258,1.258,0,0,0,357.684,321.929Zm-3.9,4.953a7.633,7.633,0,0,1-.963,2.268c-.024-.03-.049-.064-.077-.1-.24-.342.119-1.186.357-1.744l.013-.029a3.54,3.54,0,0,0,.206-2.1,1.319,1.319,0,0,1,0-.653c.049-.157.344-.309.788-.524.2-.1.414-.2.633-.326Z" transform="translate(-350.15 -318.711)" fill="#63ab3b"/>
      </g>
    </g>
    <g id="Group_222" data-name="Group 222" transform="translate(32.22 14.857)">
      <g id="Group_221" data-name="Group 221">
        <path id="Path_4158" data-name="Path 4158" d="M257.8,118.16l-.085-.03a1.258,1.258,0,1,0-.833,2.375l.085.03a1.258,1.258,0,1,0,.833-2.375Z" transform="translate(-256.044 -118.059)" fill="#63ab3b"/>
      </g>
    </g>
  </g>
</svg>
