<svg xmlns="http://www.w3.org/2000/svg" width="75.617" height="61.884" viewBox="0 0 75.617 61.884">
  <g id="_16817748841582884293" data-name="16817748841582884293" transform="translate(-1.654 -12.977)">
    <path id="Path_4503" data-name="Path 4503" d="M25.211,86.408l.308-1.5H1.654l.308,1.5a6.536,6.536,0,0,0,6.371,5.2H18.841a6.535,6.535,0,0,0,6.369-5.2Z" transform="translate(0 -28.311)" fill="#2d3e50"/>
    <path id="Path_4504" data-name="Path 4504" d="M86.993,84.909l.308,1.5a6.536,6.536,0,0,0,6.371,5.2H104.18a6.535,6.535,0,0,0,6.369-5.2l.308-1.5Z" transform="translate(-33.587 -28.311)" fill="#2d3e50"/>
    <path id="Path_4505" data-name="Path 4505" d="M25,65.5c-.311-.623-2.61-5.232-4.892-9.785-1.434-2.862-2.58-5.143-3.408-6.778-.492-.973-.875-1.726-1.139-2.239-.141-.274-.254-.49-.332-.637a.964.964,0,0,0-1.856,0c-.078.147-.191.363-.332.637-.264.512-.647,1.265-1.139,2.238-.827,1.636-1.974,3.916-3.408,6.778C6.215,60.27,3.917,64.875,3.6,65.5l-.036.072a.909.909,0,0,0,.407,1.218h0a.908.908,0,0,0,1.218-.407C8.478,59.8,12.624,51.522,14.3,48.229,15.979,51.52,20.125,59.8,23.41,66.386a.908.908,0,1,0,1.626-.811Z" transform="translate(-0.716 -12.747)" fill="#63ab3b"/>
    <path id="Path_4506" data-name="Path 4506" d="M110.375,65.575l-.035-.071c-.311-.623-2.61-5.232-4.892-9.785-1.434-2.862-2.58-5.143-3.408-6.778-.492-.973-.875-1.727-1.139-2.239-.141-.274-.254-.49-.332-.638a.964.964,0,0,0-1.856,0c-.078.147-.191.363-.332.637-.264.512-.647,1.266-1.139,2.238-.827,1.636-1.973,3.916-3.408,6.778-2.28,4.55-4.578,9.156-4.891,9.784l-.036.072a.908.908,0,1,0,1.626.811c2.556-5.124,7.228-14.468,9.108-18.158,1.677,3.291,5.823,11.572,9.108,18.157a.908.908,0,1,0,1.626-.811Z" transform="translate(-34.303 -12.747)" fill="#63ab3b"/>
    <path id="Path_4507" data-name="Path 4507" d="M57.928,69.668c-.38-.092-4.868-1.128-6.916-1.731-.228-2.2-2.062-26.615-2.959-38.615H74.332a4.483,4.483,0,0,0-4.1-4.466L47.575,22.911l-.013-.169L48.775,17.9a4.007,4.007,0,0,0-.731-3.435l-.032-.039a4.079,4.079,0,0,0-6.232,0l-.032.039a4.007,4.007,0,0,0-.731,3.435l1.212,4.846-.013.169L19.559,24.855a4.483,4.483,0,0,0-4.1,4.466H41.738c-.9,12-2.73,36.417-2.959,38.615-2.049.6-6.536,1.639-6.916,1.731a5.057,5.057,0,0,0-3.57,3.215l-.7,1.977H62.2l-.7-1.977a5.057,5.057,0,0,0-3.57-3.215Z" transform="translate(-5.434 0)" fill="#2d3e50"/>
  </g>
</svg>
