<svg xmlns="http://www.w3.org/2000/svg" width="56.881" height="78" viewBox="0 0 56.881 78">
  <g id="check-mark-svgrepo-com" transform="translate(-69.312)">
    <path id="Path_5360" data-name="Path 5360" d="M73.312,80.781V4h38.91l16.753,16.753V80.781Z" transform="translate(-3.391 -3.391)" fill="#fff"/>
    <path id="Path_5361" data-name="Path 5361" d="M108.578,1.219l16.4,16.4V76.781H70.531V1.219h38.047M109.087,0H69.312V78h56.881V17.111Z" fill="#004fac"/>
    <path id="Path_5362" data-name="Path 5362" d="M347.479,17.111,330.368,0V17.111Z" transform="translate(-221.286)" fill="#01458e"/>
    <path id="Path_5363" data-name="Path 5363" d="M145.357,157.472a19.885,19.885,0,1,0,19.885,19.885,19.885,19.885,0,0,0-19.885-19.885Z" transform="translate(-47.604 -133.482)" fill="#63ab3b"/>
    <path id="Path_5364" data-name="Path 5364" d="M207.39,227.76l-9.952,12.275-4.184-4.129-2.758,3.038,7.265,7.17,12.693-15.655Z" transform="translate(-102.722 -193.062)" fill="#fff"/>
  </g>
</svg>
