<svg xmlns="http://www.w3.org/2000/svg" width="70" height="70" viewBox="0 0 70 70">
  <g id="gst-invoice" transform="translate(-891.928 -418.595)">
    <g id="_6" transform="translate(891.512 418.179)">
      <rect id="Rectangle_160" data-name="Rectangle 160" width="70" height="70" transform="translate(0.416 0.416)" fill="none"/>
      <g id="Group_4" data-name="Group 4" transform="translate(10.205 1.314)">
        <path id="Path_306" data-name="Path 306" d="M38.865,4.043l8.228,8.228h-8.16a.068.068,0,0,1-.068-.068ZM49.474,16.487a.986.986,0,0,0-.986.986V65.962a.068.068,0,0,1-.068.068H2.04a.068.068,0,0,1-.068-.068V2.717a.068.068,0,0,1,.068-.068H36.893V12.2a2.043,2.043,0,0,0,2.04,2.04H49.474a.986.986,0,0,0,.7-1.684L38.577.965,38.551.941h0l0,0h0a.983.983,0,0,0-.66-.259H2.04A2.043,2.043,0,0,0,0,2.717V65.962A2.043,2.043,0,0,0,2.04,68H48.42a2.043,2.043,0,0,0,2.04-2.04V17.474A.986.986,0,0,0,49.474,16.487Z" transform="translate(0 -0.676)" fill="#0a1735"/>
      </g>
      <g id="Group_5" data-name="Group 5" transform="translate(16.53 24.504)">
        <path id="Path_307" data-name="Path 307" d="M61.991,139.23v-4.352h6.46v4.352Zm-27.406-4.352h17v4.352h-17Zm17-12.649v4.352h-17v-4.352Zm16.865,4.352h-6.46v-4.352h6.46Zm-6.46,1.972h6.46v4.352h-6.46Zm-8.433-1.972v-4.352h6.46v4.352Zm-18.974,1.972h17v4.352h-17Zm25.434,6.325v4.352h-6.46v-4.352Zm-6.46-1.972v-4.352h6.46v4.352Zm16.865-11.663a.986.986,0,0,0-.986-.986H33.6a.986.986,0,0,0-.986.986v18.974a.986.986,0,0,0,.986.986H69.438a.986.986,0,0,0,.986-.986V121.242Z" transform="translate(-32.613 -120.256)" fill="#0a1735"/>
      </g>
      <g id="Group_6" data-name="Group 6" transform="translate(29.179 48.748)">
        <path id="Path_308" data-name="Path 308" d="M108.378,251.528a4.284,4.284,0,1,1-4.284-4.284A4.289,4.289,0,0,1,108.378,251.528Zm-10.541,0a6.257,6.257,0,1,0,6.257-6.257A6.264,6.264,0,0,0,97.837,251.528Z" transform="translate(-97.837 -245.271)" fill="#0a050b"/>
      </g>
      <g id="Group_7" data-name="Group 7" transform="translate(33.395 52.965)">
        <path id="Path_309" data-name="Path 309" d="M119.579,269.053a2.04,2.04,0,1,0,2.04-2.04A2.043,2.043,0,0,0,119.579,269.053Z" transform="translate(-119.579 -267.013)" fill="#63ab3b"/>
      </g>
      <g id="Group_8" data-name="Group 8" transform="translate(16.53 51.911)">
        <path id="Path_310" data-name="Path 310" d="M42.031,261.577H33.6a.986.986,0,0,0,0,1.972h8.433a.986.986,0,1,0,0-1.972Z" transform="translate(-32.612 -261.577)" fill="#0a050b"/>
      </g>
      <g id="Group_9" data-name="Group 9" transform="translate(18.638 56.127)">
        <path id="Path_311" data-name="Path 311" d="M50.793,283.319H44.469a.986.986,0,1,0,0,1.972h6.325a.986.986,0,1,0,0-1.972Z" transform="translate(-43.483 -283.319)" fill="#0a050b"/>
      </g>
      <g id="Group_10" data-name="Group 10" transform="translate(43.936 50.857)">
        <path id="Path_312" data-name="Path 312" d="M182.365,262.4a.068.068,0,0,1-.068.068h-6.325a.068.068,0,0,1-.068-.068v-4.216a.068.068,0,0,1,.068-.068H182.3a.068.068,0,0,1,.068.068Zm-.068-6.257h-6.325a2.043,2.043,0,0,0-2.04,2.04V262.4a2.043,2.043,0,0,0,2.04,2.04H182.3a2.043,2.043,0,0,0,2.04-2.04v-4.216A2.043,2.043,0,0,0,182.3,256.142Z" transform="translate(-173.933 -256.142)" fill="#63ab3b"/>
      </g>
      <g id="Group_11" data-name="Group 11" transform="translate(40.478 8.693)">
        <path id="Path_313" data-name="Path 313" d="M87.243,40.7c.329,0,.6-.441.6-.986s-.267-.986-.6-.986H85.969c-.329,0-.6.441-.6.986s.267.986.6.986Z" transform="translate(-85.373 -38.725)" fill="#0a050b"/>
      </g>
      <g id="Group_12" data-name="Group 12" transform="translate(35.384 8.693)">
        <path id="Path_314" data-name="Path 314" d="M59.7,40.7h2.547c.329,0,.6-.441.6-.986s-.267-.986-.6-.986H59.7c-.329,0-.6.441-.6.986S59.371,40.7,59.7,40.7Z" transform="translate(-59.104 -38.725)" fill="#0a050b"/>
      </g>
      <g id="Group_13" data-name="Group 13" transform="translate(35.384 12.91)">
        <path id="Path_315" data-name="Path 315" d="M59.7,62.44h8.278c.329,0,.6-.441.6-.986s-.267-.986-.6-.986H59.7c-.329,0-.6.441-.6.986S59.371,62.44,59.7,62.44Z" transform="translate(-59.104 -60.467)" fill="#0a050b"/>
      </g>
      <g id="Group_14" data-name="Group 14" transform="translate(42.389 17.126)">
        <path id="Path_316" data-name="Path 316" d="M97.093,82.209H95.819c-.329,0-.6.441-.6.986s.267.986.6.986h1.274c.329,0,.6-.441.6-.986S97.422,82.209,97.093,82.209Z" transform="translate(-95.224 -82.209)" fill="#63ab3b"/>
      </g>
      <g id="Group_15" data-name="Group 15" transform="translate(35.384 17.126)">
        <path id="Path_317" data-name="Path 317" d="M59.7,84.181h4.457c.329,0,.6-.441.6-.986s-.267-.986-.6-.986H59.7c-.329,0-.6.441-.6.986S59.371,84.181,59.7,84.181Z" transform="translate(-59.104 -82.209)" fill="#63ab3b"/>
      </g>
      <g id="Group_19" data-name="Group 19" transform="translate(16.035 8.276)">
        <g id="Group_16" data-name="Group 16" transform="translate(0 0)">
          <path id="Path_318" data-name="Path 318" d="M3.033-49.647c0,.832.021,1.523.075,2.073a5.179,5.179,0,0,0,.332,1.467,2.128,2.128,0,0,0,.792.987,2.511,2.511,0,0,0,1.423.353,1.426,1.426,0,0,0,.845-.381,2.166,2.166,0,0,0,.567-1.086h.021v1.213H8.21V-50.7H5.718v1.551H6.756A6.467,6.467,0,0,1,6.5-47.08c-.171.48-.449.719-.845.719a.731.731,0,0,1-.578-.226,1.264,1.264,0,0,1-.332-.564,3.13,3.13,0,0,1-.139-.705q-.032-.36-.032-.8v-2.934c0-.395.011-.747.032-1.044a3.845,3.845,0,0,1,.139-.818,1.458,1.458,0,0,1,.332-.592.774.774,0,0,1,.578-.212,1.169,1.169,0,0,1,.588.169.975.975,0,0,1,.321.409A2.022,2.022,0,0,1,6.7-53.1c.021.212.032.494.043.818h1.5v-.254a6.988,6.988,0,0,0-.075-1.03,2.929,2.929,0,0,0-.856-1.791,2.774,2.774,0,0,0-1.658-.494,2.539,2.539,0,0,0-1.39.338,1.918,1.918,0,0,0-.77.945,4.9,4.9,0,0,0-.342,1.4c-.053.522-.1,1.2-.118,2.017Z" transform="translate(-3.033 55.853)"/>
        </g>
        <g id="Group_17" data-name="Group 17" transform="translate(6.469 0)">
          <path id="Path_319" data-name="Path 319" d="M7.409-52.383V-52.5c0-.409-.021-.776-.053-1.114a3.788,3.788,0,0,0-.267-1.03,2.1,2.1,0,0,0-.706-.874,2.262,2.262,0,0,0-1.3-.338,2.191,2.191,0,0,0-1.765.705,3.2,3.2,0,0,0-.588,2.087,3.49,3.49,0,0,0,.385,1.622,4.281,4.281,0,0,0,.631.832,10.953,10.953,0,0,0,.92.86c.374.324.642.564.813.747a1.728,1.728,0,0,1,.449.606,2.015,2.015,0,0,1,.15.79c0,.832-.31,1.241-.931,1.241a.743.743,0,0,1-.717-.451A3.071,3.071,0,0,1,4.2-48.138v-.621H2.7v.776a5.39,5.39,0,0,0,.139,1.312,2.854,2.854,0,0,0,.417,1.015,1.955,1.955,0,0,0,.759.649,2.487,2.487,0,0,0,1.123.24,2.258,2.258,0,0,0,1.8-.79,3.38,3.38,0,0,0,.674-2.257,4.48,4.48,0,0,0-.15-1.213,2.946,2.946,0,0,0-.524-1,3.15,3.15,0,0,0-.4-.437c-.15-.155-.31-.31-.471-.465s-.31-.282-.46-.409-.31-.268-.492-.423L5.1-51.777a3.58,3.58,0,0,1-.631-.677,1.363,1.363,0,0,1-.2-.818,1.153,1.153,0,0,1,.214-.762.773.773,0,0,1,.61-.226.681.681,0,0,1,.706.48,4.307,4.307,0,0,1,.171,1.4Z" transform="translate(-2.703 55.853)"/>
        </g>
        <g id="Group_18" data-name="Group 18" transform="translate(12.081 0.254)">
          <path id="Path_320" data-name="Path 320" d="M.938-52.992H2.692v9.026h1.5v-9.026H5.933v-1.551h-5Z" transform="translate(-0.938 54.544)"/>
        </g>
      </g>
    </g>
  </g>
</svg>
