<svg version="1.1" id="Layer_1" xmlns="http://www.w3.org/2000/svg" x="0" y="0" viewBox="0 0 1080 1080" style="enable-background:new 0 0 1080 1080" xml:space="preserve"><style>.st0,.st1,.st2{fill-rule:evenodd;clip-rule:evenodd;fill:#283371}.st1,.st2{fill:#01A54F}.st2{fill:#01A54F}</style><path class="st0" d="M1005.4 43.6c-18.4-11.3-37.8-2.1-53.4 9.6-6.3 4.7-11.8 10.7-17.4 16.4-14.5 14.8-28.2 30.4-43.4 44.5-36.5 33.9-78.2 60.6-124.6 78.8-88 34.5-182.9 42.4-274.9 60.7-36.9 7.3-73 17.5-106.9 34.6-6.4 3.2-10 5.7-1.7 10.7 55.6 13.1 111.5 23.6 168.8 25.3 13.1.4 22.5 6 25.5 20.3 7 34.1 9.4 70.2 9.8 104.9.3 23-2.9 78.1-2.9 78.1 2.9-.7 7.2-2.2 12.6-3.4 29.6-6.5 74.6 9.3 93.7 33.1 19.5 24.4 25.1 61.4 13.1 90.4-1.2 2.8-8.4 12-5.6 14.4 5.3 4.5 21.6-9.3 26.3-12.2 14-8.8 28-17.3 40.9-27.6 21-16.8 42.6-29.8 68.6-1.5-3-17.2-7.4-227.9-6.3-258.6.7-19.2.4-25.3 7.6-43.6 6.7-17.2 20.3-31.2 33.9-43.2 16.9-14.9 33.8-29.8 50.6-44.8 30.7-27.4 57.2-57.6 80.1-91.8 10.3-15.3 22.2-32.8 23.9-51.7 1.2-13.4-6.2-35.9-18.3-43.4z"/><path class="st1" d="M732.9 662.3c-15.8 11.9-34.7 22.1-53.5 28.1-71.4 22.7-146.7-4.7-211.5-34.4-7.9-3.6-15.9-5.3-22.9-1.5-7.7 4.3-5 13.4-4.2 20.5 1.3 10.7 6.2 20 13.8 27.6 27.2 27 58.1 48.7 93.5 63.7 16.4 7 11.1 36 11.3 49.8.2 31 .9 62 1.8 93 17 1.5 125.1-1.3 160.6-7.9.2-40.3 2.7-98.4 1.9-138.7-.4-19.9 5.2-18.9 18.7-27.6 18.5-12.1 32.2-21.6 44-32.7 19.1-18.1 32.7-37.3 30.5-65.1-3.5-44.8-71.4 15.7-84 25.2z"/><path class="st2" d="M357.1 251.8c48 0 86.8-38.9 86.8-86.8S405 78.2 357.1 78.2c-48 0-86.9 38.9-86.9 86.8s39 86.8 86.9 86.8z"/><path class="st0" d="M647.9 193.2c51.8 0 93.8-42 93.8-93.8C741.8 47.5 692.4 0 640.5 0c-51.8 0-92.4 46.2-86.4 99.3 5.8 51.5 42.1 93.9 93.8 93.9z"/><path class="st1" d="M621.5 675.9c35.5-2.7 64.5-29.5 64.5-65.8 0-36.4-28.8-65.8-64.5-65.8-35.6 0-65.8 15.2-68.7 59.3-2.5 36.3 23.6 75.7 68.7 72.3z"/><path class="st2" d="M428.8 649.5c1.6-6.5 8.7-15.6 21.3-14.1-39.4-60-54.8-196.4-39.6-205.9 15.3-9.5 103.8 2.1 143-24.2 14.1-9.4 17.8-37.7 10.4-50.7-7.9-14-23.3-14.7-37.9-15.8-22.8-1.8-45.3-5.3-67.7-9.5-68.7-12.8-135.8-31.5-192.8-73.8-45.9-34.2-71.3-81.9-92.5-132.9-12.2-29.4-23.6-59.2-39.2-87-5.8-10.4-15.2-14.4-26.9-13-11.5 1.3-17.5 8.8-21.3 19-4 10.8-4 22-3.3 33.1 1.4 24 4.7 47.9 9.8 71.5 8.9 40.8 23.2 80.2 42.2 117.5 14.8 29 36.7 54.6 46.9 85.9 55 170 32.3 416.8 26.4 469.5-2.4 21.7 131.9 26.3 158.4 38.5 7.8 3.6 57 21.3 57.2 23.8 30-18.7 88.4-72.2 106.4-103.3-22.9-17-47.6-31-70-49.1-36.7-29.9-33.8-67.5-30.8-79.5z"/><path d="m900 779.1-127.2 66.1-1.5-4.9c-9.1-35.4-45.1-56.6-80.5-47.6-4.5 1.2-8.9 2.8-13.1 4.9l-168.5 84.3-231.1-66H129.5V981h33l379.6 99 445.7-247.6c0-33.2-26.9-60.1-60.1-60.1-9.6 0-19.1 2.3-27.7 6.8z" style="fill:#f6bd9b"/><path d="m125.3 1045 126-39.5L182.1 785l-126 39.5 69.2 220.5z" style="fill:#283371"/></svg>
