<svg xmlns="http://www.w3.org/2000/svg" xmlns:xlink="http://www.w3.org/1999/xlink" width="76" height="76" viewBox="0 0 76 76">
  <defs>
    <clipPath id="clip-path">
      <rect id="Rectangle_846" data-name="Rectangle 846" width="76" height="76" transform="translate(-0.105 -0.105)" fill="#fff"/>
    </clipPath>
  </defs>
  <g id="_116917203016354821294533" data-name="116917203016354821294533" transform="translate(0.105 0.105)" clip-path="url(#clip-path)">
    <path id="Path_2774" data-name="Path 2774" d="M90.53,170.667a4.737,4.737,0,0,1,4.312,2.777l6.067,13.346a6.317,6.317,0,0,1,.566,2.614v6.527a3.158,3.158,0,0,1-3.158,3.158H35.158A3.158,3.158,0,0,1,32,195.93V170.667Z" transform="translate(-27.263 -145.403)" fill="#63ab3b"/>
    <path id="Path_2775" data-name="Path 2775" d="M405.433,213.333h-9.187a1.579,1.579,0,0,0-1.579,1.579v6.316a1.579,1.579,0,0,0,1.579,1.579h13.493Z" transform="translate(-336.245 -181.754)" fill="#eaeff0"/>
    <path id="Path_2776" data-name="Path 2776" d="M32,128.773V109.825a3.158,3.158,0,0,1,3.158-3.158H74.632a3.158,3.158,0,0,1,3.158,3.158v25.264a3.158,3.158,0,0,1-3.158,3.158H32Z" transform="translate(-27.263 -90.877)" fill="#eaeff0"/>
    <path id="Path_2777" data-name="Path 2777" d="M80.982,332.632a6.316,6.316,0,1,0-6.316-6.316A6.316,6.316,0,0,0,80.982,332.632Z" transform="translate(-63.613 -272.631)" fill="#d9e1e2"/>
    <path id="Path_2778" data-name="Path 2778" d="M358.316,332.632A6.316,6.316,0,1,0,352,326.316,6.316,6.316,0,0,0,358.316,332.632Z" transform="translate(-299.894 -272.631)" fill="#d9e1e2"/>
    <path id="Path_2779" data-name="Path 2779" d="M75.17,122.523,69.1,109.176a6.329,6.329,0,0,0-5.749-3.7H52.193v-4.737A4.742,4.742,0,0,0,47.456,96H7.982a4.742,4.742,0,0,0-4.737,4.737v18.948a1.579,1.579,0,1,0,3.158,0V100.737a1.581,1.581,0,0,1,1.579-1.579H47.456a1.581,1.581,0,0,1,1.579,1.579V126a1.581,1.581,0,0,1-1.579,1.579H28.508a1.579,1.579,0,0,0,0,3.158H47.456A4.742,4.742,0,0,0,52.193,126V108.632H63.354a3.165,3.165,0,0,1,2.875,1.851l.594,1.307H60.088a3.161,3.161,0,0,0-3.158,3.158v6.316a3.161,3.161,0,0,0,3.158,3.158h12.4a4.688,4.688,0,0,1,.228,1.368v6.527a1.581,1.581,0,0,1-1.58,1.579h-4.9a7.895,7.895,0,0,0-15.47,0H25.191a7.895,7.895,0,0,0-15.47,0H7.982A1.581,1.581,0,0,1,6.4,132.316v-1.579a1.579,1.579,0,0,0,0-3.158H1.666a1.579,1.579,0,0,0,0,3.158H3.245v1.579a4.742,4.742,0,0,0,4.737,4.737H9.72a7.895,7.895,0,0,0,15.47,0H50.773a7.895,7.895,0,0,0,15.47,0h4.9a4.742,4.742,0,0,0,4.737-4.737v-6.527a7.833,7.833,0,0,0-.708-3.266ZM17.456,140.211a4.742,4.742,0,1,1,3.348-1.389,4.737,4.737,0,0,1-3.348,1.389Zm41.053,0a4.742,4.742,0,1,1,3.348-1.389,4.737,4.737,0,0,1-3.348,1.389Zm1.579-25.264h8.17l2.871,6.316H60.088Z" transform="translate(-0.087 -81.789)"/>
    <path id="Path_2780" data-name="Path 2780" d="M1.667,280.492H9.562a1.579,1.579,0,0,0,0-3.158H1.667a1.579,1.579,0,0,0,0,3.158Z" transform="translate(-0.088 -236.281)"/>
  </g>
</svg>
