<svg id="directory-submission-symbol-svgrepo-com" xmlns="http://www.w3.org/2000/svg" width="34.231" height="34.231" viewBox="0 0 34.231 34.231">
  <g id="Group_1321" data-name="Group 1321">
    <path id="Path_5281" data-name="Path 5281" d="M31.022,0H3.209A3.213,3.213,0,0,0,0,3.209V31.022a3.213,3.213,0,0,0,3.209,3.209H31.022a3.213,3.213,0,0,0,3.209-3.209V3.209A3.213,3.213,0,0,0,31.022,0Zm1.07,31.022a1.071,1.071,0,0,1-1.07,1.07H3.209a1.071,1.071,0,0,1-1.07-1.07V3.209a1.071,1.071,0,0,1,1.07-1.07H31.022a1.071,1.071,0,0,1,1.07,1.07Z" fill="#63ab3b"/>
    <path id="Path_5282" data-name="Path 5282" d="M9.636,7H6.72a.685.685,0,0,0-.682.684V10.6a.685.685,0,0,0,.682.686H9.636a.685.685,0,0,0,.682-.686V7.684A.685.685,0,0,0,9.636,7Z" transform="translate(0.421 0.488)" fill="#01458e"/>
    <rect id="Rectangle_1274" data-name="Rectangle 1274" width="15.428" height="2.006" transform="translate(12.344 8.624)" fill="#01458e"/>
    <path id="Path_5283" data-name="Path 5283" d="M9.636,14H6.72a.685.685,0,0,0-.682.684V17.6a.684.684,0,0,0,.682.682H9.636a.684.684,0,0,0,.682-.682V14.684A.685.685,0,0,0,9.636,14Z" transform="translate(0.421 0.976)" fill="#01458e"/>
    <rect id="Rectangle_1275" data-name="Rectangle 1275" width="15.428" height="2.006" transform="translate(12.344 16.112)" fill="#01458e"/>
    <path id="Path_5284" data-name="Path 5284" d="M9.636,21H6.72a.685.685,0,0,0-.682.684V24.6a.684.684,0,0,0,.682.682H9.636a.684.684,0,0,0,.682-.682V21.684A.685.685,0,0,0,9.636,21Zm.148,3.6a.151.151,0,0,1-.148.149H6.72a.149.149,0,0,1-.148-.149V21.678a.152.152,0,0,1,.148-.148H9.636a.149.149,0,0,1,.148.148Z" transform="translate(0.421 1.464)" fill="#01458e"/>
    <rect id="Rectangle_1276" data-name="Rectangle 1276" width="15.428" height="2.006" transform="translate(12.344 23.6)" fill="#01458e"/>
  </g>
</svg>
