<svg xmlns="http://www.w3.org/2000/svg" width="85.429" height="77.363" viewBox="0 0 85.429 77.363">
  <g id="Group_1341" data-name="Group 1341" transform="translate(-907.887 -2354.137)">
    <path id="Path_51" data-name="Path 51" d="M43.064,13.824C65.695,8.536,85.429,15.8,85.429,39.584S66.847,89.551,43.064,89.551,0,63.368,0,39.584,20.433,19.112,43.064,13.824Z" transform="translate(907.887 2341.949)" fill="#f6f5f5" opacity="0.76"/>
    <g id="support-svgrepo-com" transform="translate(883.998 2365.602)">
      <g id="Group_1325" data-name="Group 1325" transform="translate(46.546 31.199)">
        <g id="Group_1324" data-name="Group 1324" transform="translate(0)">
          <path id="Path_5294" data-name="Path 5294" d="M82.086,327.388l-8.6-1.562a1.1,1.1,0,0,0-.913.24l-4.544,3.788a2.233,2.233,0,0,1-2.855,0c-.029-.023-.059-.047-.09-.068l-2.317-1.559a1.114,1.114,0,1,0-1.245,1.849L63.8,331.6a4.432,4.432,0,0,0,1.693.837v5.623a1.114,1.114,0,1,0,2.229,0V332.44a4.431,4.431,0,0,0,1.741-.875l4.145-3.455,8.084,1.469a3.345,3.345,0,0,1,2.742,3.29v7.423a1.115,1.115,0,0,1-1.114,1.114H49.889a1.115,1.115,0,0,1-1.114-1.114v-7.423a3.344,3.344,0,0,1,2.744-3.289l8.6-1.562a1.114,1.114,0,1,0-.4-2.192l-8.6,1.562a5.571,5.571,0,0,0-4.574,5.481v7.423a3.347,3.347,0,0,0,3.343,3.343H83.318a3.347,3.347,0,0,0,3.343-3.343v-7.423A5.571,5.571,0,0,0,82.086,327.388Z" transform="translate(-46.546 -325.805)" fill="#01458e"/>
        </g>
      </g>
      <g id="Group_1327" data-name="Group 1327" transform="translate(62.146 13.372)">
        <g id="Group_1326" data-name="Group 1326">
          <circle id="Ellipse_270" data-name="Ellipse 270" cx="1.114" cy="1.114" r="1.114"/>
        </g>
      </g>
      <g id="Group_1329" data-name="Group 1329" transform="translate(68.832 13.372)">
        <g id="Group_1328" data-name="Group 1328" transform="translate(0)">
          <circle id="Ellipse_271" data-name="Ellipse 271" cx="1.114" cy="1.114" r="1.114"/>
        </g>
      </g>
      <g id="Group_1331" data-name="Group 1331" transform="translate(52.117)">
        <g id="Group_1330" data-name="Group 1330" transform="translate(0)">
          <path id="Path_5295" data-name="Path 5295" d="M130.357,10.029V8.914A8.925,8.925,0,0,0,121.442,0h-4.457a8.925,8.925,0,0,0-8.914,8.914v1.114a3.347,3.347,0,0,0-3.343,3.343V15.6a3.347,3.347,0,0,0,3.343,3.343h.716c.081.543.138.9.145.94a9.746,9.746,0,0,0,2.161,5.1l.238.291a10.143,10.143,0,0,0,7.883,3.7,10.293,10.293,0,0,0,4.917-1.25,1.114,1.114,0,1,0-1.069-1.956,8.067,8.067,0,0,1-3.849.977,7.919,7.919,0,0,1-6.159-2.887l-.238-.291a7.585,7.585,0,0,1-1.677-3.984,73.689,73.689,0,0,1-.84-7.324V8.914a6.692,6.692,0,0,1,6.686-6.686h4.457a6.694,6.694,0,0,1,6.686,6.628,9.291,9.291,0,0,1-4.873-1.926l.01.025a1.1,1.1,0,0,0-1.284-.11,23.027,23.027,0,0,1-8.5,2.875,1.114,1.114,0,0,0,.159,2.216,1.01,1.01,0,0,0,.163-.012,25.666,25.666,0,0,0,8.656-2.817,11.719,11.719,0,0,0,5.667,1.986v1.164a74.195,74.195,0,0,1-.848,7.376,7.4,7.4,0,0,1-.363,1.539h-4.463a1.668,1.668,0,0,0-1.569-1.114h-3.343a1.671,1.671,0,0,0,0,3.343h11.7a3.347,3.347,0,0,0,3.343-3.343V18.074A3.324,3.324,0,0,0,133.7,15.6V13.372A3.347,3.347,0,0,0,130.357,10.029Zm-22.286,6.686a1.115,1.115,0,0,1-1.114-1.114V13.371a1.115,1.115,0,0,1,1.114-1.114Zm22.286,3.343a1.115,1.115,0,0,1-1.108,1.113,9.247,9.247,0,0,0,.24-1.236c.009-.056.069-.429.153-.992h.715Zm1.114-4.457a1.115,1.115,0,0,1-1.114,1.114V12.257a1.115,1.115,0,0,1,1.114,1.114Z" transform="translate(-104.728)" fill="#63ab3b"/>
        </g>
      </g>
    </g>
  </g>
</svg>
