<svg xmlns="http://www.w3.org/2000/svg" width="99.368" height="89.985" viewBox="0 0 99.368 89.985">
  <g id="Group_1337" data-name="Group 1337" transform="translate(-554 -911)">
    <path id="Path_51" data-name="Path 51" d="M50.09,14.09c26.323-6.151,49.278,2.3,49.278,29.964S77.754,102.173,50.09,102.173,0,71.718,0,44.054,23.767,20.241,50.09,14.09Z" transform="translate(554 898.812)" fill="#f6f5f5" opacity="0.44"/>
    <g id="_16105449961582967220" data-name="16105449961582967220" transform="translate(573.5 923.548)">
      <path id="Path_4597" data-name="Path 4597" d="M33.742,57.014H24.326a1.047,1.047,0,1,0,0,2.094h9.416a1.047,1.047,0,1,0,0-2.094Z" transform="translate(-11.873 -28.11)" fill="#01a449"/>
      <path id="Path_4598" data-name="Path 4598" d="M66.054,59.108a1.047,1.047,0,1,0,0-2.094H56.2a1.047,1.047,0,1,0,0,2.094Z" transform="translate(-29.251 -28.11)" fill="#01a449"/>
      <path id="Path_4599" data-name="Path 4599" d="M33.742,92.848H24.326a1.047,1.047,0,1,0,0,2.094h9.416a1.047,1.047,0,1,0,0-2.094Z" transform="translate(-11.873 -47.646)" fill="#01a449"/>
      <path id="Path_4600" data-name="Path 4600" d="M55.154,93.9A1.047,1.047,0,0,0,56.2,94.942h9.016l-.036-2.093H56.2A1.049,1.049,0,0,0,55.154,93.9Z" transform="translate(-29.251 -47.646)" fill="#01a449"/>
      <path id="Path_4601" data-name="Path 4601" d="M33.742,74.931H24.326a1.047,1.047,0,1,0,0,2.094h9.416a1.047,1.047,0,1,0,0-2.094Z" transform="translate(-11.873 -37.878)" fill="#01a449"/>
      <path id="Path_4602" data-name="Path 4602" d="M67.1,75.978a1.048,1.048,0,0,0-1.047-1.047H56.2a1.047,1.047,0,1,0,0,2.094h9.853A1.048,1.048,0,0,0,67.1,75.978Z" transform="translate(-29.251 -37.878)" fill="#01a449"/>
      <path id="Path_4603" data-name="Path 4603" d="M44.294,47.933v5.544a1.617,1.617,0,0,1-1.616,1.614H6.733a1.617,1.617,0,0,1-1.616-1.614V21.051h6.751A5.239,5.239,0,0,0,17.1,15.819V9.068H42.677a1.617,1.617,0,0,1,1.616,1.616V30.243l3.616-5.622V10.685a5.236,5.236,0,0,0-5.232-5.232H15.292a1.823,1.823,0,0,0-1.282.531L10.938,9.068,5.117,14.916l-2.8,2.816A1.809,1.809,0,0,0,1.5,19.243V53.478A5.239,5.239,0,0,0,6.733,58.71H42.677a5.237,5.237,0,0,0,5.232-5.232V42.456l-3.07,4.773A5.122,5.122,0,0,1,44.294,47.933Z" transform="translate(0 0)" fill="#0a1735"/>
      <path id="Path_4604" data-name="Path 4604" d="M81.044,64.2l.056,3.312-.444.69a.47.47,0,1,0,.79.508l.444-.69L84.927,66.7a3.029,3.029,0,0,0,1.338-1.139l12.961-20.15a2.818,2.818,0,0,0-4.74-3.049L81.525,62.51A3.029,3.029,0,0,0,81.044,64.2Z" transform="translate(-43.113 -19.416)" fill="#01a449"/>
      <path id="Path_4605" data-name="Path 4605" d="M116.872,52.523a.7.7,0,0,0-.974.211l-6.353,9.877a.7.7,0,0,0,1.185.762l6.353-9.877A.7.7,0,0,0,116.872,52.523Z" transform="translate(-58.842 -25.601)" fill="#01a449"/>
    </g>
  </g>
</svg>
