<svg xmlns="http://www.w3.org/2000/svg" width="99.368" height="89.985" viewBox="0 0 99.368 89.985">
  <g id="Group_1341" data-name="Group 1341" transform="translate(-921 -1231)">
    <path id="Path_5154" data-name="Path 5154" d="M50.09,14.09c26.323-6.151,49.278,2.3,49.278,29.964S77.754,102.173,50.09,102.173,0,71.718,0,44.054,23.767,20.241,50.09,14.09Z" transform="translate(921 1218.812)" fill="#f6f5f5" opacity="0.44"/>
    <g id="directory-submission-symbol-svgrepo-com" transform="translate(943 1249)">
      <g id="Group_1321" data-name="Group 1321">
        <path id="Path_5281" data-name="Path 5281" d="M49.43,0H5.113A5.12,5.12,0,0,0,0,5.113V49.43a5.12,5.12,0,0,0,5.113,5.113H49.43a5.12,5.12,0,0,0,5.113-5.113V5.113A5.12,5.12,0,0,0,49.43,0Zm1.7,49.43a1.707,1.707,0,0,1-1.7,1.7H5.113a1.707,1.707,0,0,1-1.7-1.7V5.113a1.706,1.706,0,0,1,1.7-1.7H49.43a1.706,1.706,0,0,1,1.7,1.7Z" fill="#01a449"/>
        <path id="Path_5282" data-name="Path 5282" d="M11.77,7H7.125A1.091,1.091,0,0,0,6.038,8.089V12.73a1.092,1.092,0,0,0,1.087,1.093H11.77a1.092,1.092,0,0,0,1.087-1.093V8.089A1.091,1.091,0,0,0,11.77,7Z" transform="translate(4.254 4.931)" fill="#0a1735"/>
        <rect id="Rectangle_1274" data-name="Rectangle 1274" width="24.582" height="3.196" transform="translate(19.668 13.741)" fill="#0a1735"/>
        <path id="Path_5283" data-name="Path 5283" d="M11.77,14H7.125a1.091,1.091,0,0,0-1.087,1.089v4.646a1.09,1.09,0,0,0,1.087,1.087H11.77a1.09,1.09,0,0,0,1.087-1.087V15.089A1.091,1.091,0,0,0,11.77,14Z" transform="translate(4.254 9.863)" fill="#0a1735"/>
        <path id="Path_5359" data-name="Path 5359" d="M0,0H24.582V3.2H0Z" transform="translate(19.668 25.673)" fill="#0a1735"/>
        <path id="Path_5284" data-name="Path 5284" d="M11.77,21H7.125a1.091,1.091,0,0,0-1.087,1.089v4.648a1.09,1.09,0,0,0,1.087,1.087H11.77a1.09,1.09,0,0,0,1.087-1.087V22.089A1.091,1.091,0,0,0,11.77,21Zm.235,5.729a.241.241,0,0,1-.235.237H7.125a.237.237,0,0,1-.235-.237V22.081a.241.241,0,0,1,.235-.235H11.77a.237.237,0,0,1,.235.235Z" transform="translate(4.254 14.794)" fill="#0a1735"/>
        <rect id="Rectangle_1276" data-name="Rectangle 1276" width="24.582" height="3.196" transform="translate(19.668 37.604)" fill="#0a1735"/>
      </g>
    </g>
  </g>
</svg>
