<svg xmlns="http://www.w3.org/2000/svg" width="37.53" height="35.157" viewBox="0 0 37.53 35.157">
  <g id="_16105449961582967220" data-name="16105449961582967220" transform="translate(-1.501 -5.452)">
    <path id="Path_4597" data-name="Path 4597" d="M30.186,57.014H23.97a.691.691,0,1,0,0,1.383h6.216a.691.691,0,1,0,0-1.383Z" transform="translate(-15.239 -36.08)" fill="#63ab3b"/>
    <path id="Path_4598" data-name="Path 4598" d="M62.35,58.4a.691.691,0,1,0,0-1.383h-6.5a.691.691,0,1,0,0,1.383Z" transform="translate(-37.545 -36.08)" fill="#63ab3b"/>
    <path id="Path_4599" data-name="Path 4599" d="M30.186,92.848H23.97a.691.691,0,1,0,0,1.382h6.216a.691.691,0,0,0,0-1.382Z" transform="translate(-15.239 -61.156)" fill="#63ab3b"/>
    <path id="Path_4600" data-name="Path 4600" d="M55.154,93.54a.691.691,0,0,0,.692.69H61.8l-.024-1.382H55.846A.693.693,0,0,0,55.154,93.54Z" transform="translate(-37.544 -61.156)" fill="#63ab3b"/>
    <path id="Path_4601" data-name="Path 4601" d="M30.186,74.931H23.97a.691.691,0,1,0,0,1.383h6.216a.691.691,0,1,0,0-1.383Z" transform="translate(-15.239 -48.618)" fill="#63ab3b"/>
    <path id="Path_4602" data-name="Path 4602" d="M63.041,75.622a.692.692,0,0,0-.691-.691h-6.5a.691.691,0,1,0,0,1.383h6.5A.692.692,0,0,0,63.041,75.622Z" transform="translate(-37.545 -48.618)" fill="#63ab3b"/>
    <path id="Path_4603" data-name="Path 4603" d="M29.75,33.5v3.66a1.067,1.067,0,0,1-1.067,1.066H4.955a1.067,1.067,0,0,1-1.067-1.066V15.75H8.344A3.458,3.458,0,0,0,11.8,12.3V7.839H28.683A1.068,1.068,0,0,1,29.75,8.906V21.818l2.387-3.712v-9.2a3.456,3.456,0,0,0-3.454-3.454H10.6a1.2,1.2,0,0,0-.846.35L7.73,7.839,3.888,11.7l-1.85,1.859a1.194,1.194,0,0,0-.537,1v22.6A3.458,3.458,0,0,0,4.955,40.61H28.683a3.457,3.457,0,0,0,3.454-3.454V29.879L30.11,33.03A3.382,3.382,0,0,1,29.75,33.5Z" transform="translate(0 0)" fill="#01458e"/>
    <path id="Path_4604" data-name="Path 4604" d="M80.887,56.338l.037,2.186-.293.456a.31.31,0,1,0,.521.335l.293-.456,2-.873a2,2,0,0,0,.883-.752l8.556-13.3a1.86,1.86,0,0,0-3.129-2.013L81.2,55.222A2,2,0,0,0,80.887,56.338Z" transform="translate(-55.337 -24.921)" fill="#63ab3b"/>
    <path id="Path_4605" data-name="Path 4605" d="M114.344,52.485a.465.465,0,0,0-.643.14l-4.194,6.52a.465.465,0,0,0,.782.5l4.194-6.52A.465.465,0,0,0,114.344,52.485Z" transform="translate(-75.527 -32.86)" fill="#63ab3b"/>
  </g>
</svg>
