<svg xmlns="http://www.w3.org/2000/svg" width="74.205" height="67.397" viewBox="0 0 74.205 67.397">
  <g id="libra-scale-balance-symbol" transform="translate(0 -1.468)">
    <path id="Path_4142" data-name="Path 4142" d="M70.2,46.731,62.527,22.825H60.584V21.517a5.05,5.05,0,0,0,3.866-4.684,8.384,8.384,0,0,1-3.866,2.347V18.146H59.067v1.287c-.063,0-.121.019-.186.021-3.455.083-5.013-5.649-9.361-5.649-4.049,0-8.571,2.409-11.495,2.743V10.025a4.322,4.322,0,1,0-.972.037V16.5C34.13,16.038,29.791,13.8,25.886,13.8c-4.348,0-5.9,5.732-9.359,5.649a8.009,8.009,0,0,1-.8-.088v-1.22H14.208v.865a8.228,8.228,0,0,1-3.246-2.175,5.08,5.08,0,0,0,3.246,4.485v1.5H12.267l-7.8,23.908H0s3.2,6.12,14.672,6.12,14.672-6.12,14.672-6.12H25.334L17.67,22.828H15.725v-1.15a9.149,9.149,0,0,0,.972.051c5.651,0,6.493-3.583,9.614-3.583,2.808,0,6.1,3.488,10.155,4.193.174.049,1.025-.009.77.053l-.132,13.4-2.576,5.218.088,15.718H27.532V59.5L21.84,68.865H54.219l-6.957-9.489V56.718h-6.2V41.145l-2.609-5.482,0-13.3a1.21,1.21,0,0,0,.494-.023c4.056-.7,7.346-4.193,10.155-4.193,3.124,0,3.963,3.583,9.614,3.583.13,0,.237-.014.352-.019v1.113H57.131l-7.8,23.906H44.862s3.2,6.12,14.672,6.12,14.672-6.115,14.672-6.115Zm-55.988,0H6.062l7.3-22.384h.842Zm2.356-22.387,7.179,22.382H15.725V24.344ZM59.07,46.731H50.921l7.3-22.384h.842V46.731Zm1.517,0V24.344h.837L68.6,46.726l-8.016,0Z" transform="translate(0 0)" fill="#63ab3b"/>
  </g>
</svg>
