<svg xmlns="http://www.w3.org/2000/svg" width="48" height="48" viewBox="0 0 48 48">
  <g id="Group_1353" data-name="Group 1353" transform="translate(-332 -1579)">
    <circle id="Ellipse_121" data-name="Ellipse 121" cx="24" cy="24" r="24" transform="translate(332 1579)" fill="#63ab3b"/>
    <g id="law-svgrepo-com" transform="translate(339 1585.854)">
      <g id="Group_124" data-name="Group 124">
        <path id="Path_2618" data-name="Path 2618" d="M11.452,5.3l7.317,4.225a.425.425,0,0,0,.578-.155L19.558,9a.423.423,0,0,0-.154-.577L12.086,4.2a.423.423,0,0,0-.577.154l-.211.366A.423.423,0,0,0,11.452,5.3Z" fill="#fff"/>
        <path id="Path_2619" data-name="Path 2619" d="M5.115,16.277,12.433,20.5a.424.424,0,0,0,.577-.154l.211-.365a.422.422,0,0,0-.154-.577L5.749,15.182a.423.423,0,0,0-.577.154l-.211.366A.419.419,0,0,0,5.115,16.277Z" fill="#fff"/>
        <path id="Path_2620" data-name="Path 2620" d="M30.92,21.44,16.274,13.849l1.969-3.41a.424.424,0,0,0-.153-.577L11.5,6.059a.424.424,0,0,0-.577.155l-4.648,8.05a.425.425,0,0,0,.155.577l6.587,3.8a.421.421,0,0,0,.576-.154l1.97-3.41,13.9,8.889a.4.4,0,0,0,.567-.139L31.085,22A.4.4,0,0,0,30.92,21.44Z" fill="#fff"/>
        <path id="Path_2621" data-name="Path 2621" d="M33.23,22.509l-.731-.422a.423.423,0,0,0-.577.154l-1.269,2.195a.424.424,0,0,0,.155.576l.731.422a.422.422,0,0,0,.577-.154l1.268-2.195A.421.421,0,0,0,33.23,22.509Z" fill="#fff"/>
        <path id="Path_2622" data-name="Path 2622" d="M17.418,25.114h-.881a.7.7,0,0,0,.185-.464v-.7a.7.7,0,0,0-.7-.7H2.09a.7.7,0,0,0-.7.7v.7a.691.691,0,0,0,.186.464H.7a.7.7,0,0,0-.7.7V28.6a.7.7,0,0,0,.7.7H17.42a.7.7,0,0,0,.7-.7V25.81A.7.7,0,0,0,17.418,25.114Zm-.991,3.221H1.752a.735.735,0,0,1-.733-.732v-.734a.734.734,0,0,1,.733-.732H16.427a.734.734,0,0,1,.734.731V27.6A.736.736,0,0,1,16.427,28.335Z" fill="#fff"/>
      </g>
    </g>
  </g>
</svg>
