<svg xmlns="http://www.w3.org/2000/svg" width="57.652" height="58" viewBox="0 0 57.652 58">
  <g id="_199782174516310162064008" data-name="199782174516310162064008" transform="translate(-3 -3)">
    <path id="Path_4000" data-name="Path 4000" d="M42.46,3H14.83a1,1,0,0,0-.39.08,1.262,1.262,0,0,0-.32.21h0L3.29,14.12a1.15,1.15,0,0,0-.21.33.92.92,0,0,0-.08.38V55a6,6,0,0,0,6,6H42.46a6,6,0,0,0,6-6V9a6,6,0,0,0-6-6Z" fill="#e6e6e6"/>
    <path id="Path_4001" data-name="Path 4001" d="M59,42,40.45,25.42a1,1,0,0,0-1.37,0l-3.76,3.76a1,1,0,0,0,0,1.37L51.83,49.11a5,5,0,0,0,3.63,1.69h.15A5.06,5.06,0,0,0,59,42Z" fill="#01458e"/>
    <path id="Path_4002" data-name="Path 4002" d="M14.83,3a1,1,0,0,0-.71.29L3.29,14.12A1,1,0,0,0,4,15.83H14.83a1,1,0,0,0,1-1V4a1,1,0,0,0-1-1Z" fill="#c0bdba"/>
    <path id="Path_4003" data-name="Path 4003" d="M46,20l-9.75-9.75a1,1,0,0,0-1.41,0L20.09,25a1,1,0,0,0,0,1.41l9.74,9.75a1.01,1.01,0,0,0,1.42,0L46,21.39A.978.978,0,0,0,46,20Z" fill="#63ab3b"/>
    <path id="Path_4004" data-name="Path 4004" d="M48.63,16.14l-9-9a4.1,4.1,0,0,0-5.8,0l-1,1a1,1,0,0,0,0,1.41L46.16,23a1,1,0,0,0,1.42,0l1.05-1a4.1,4.1,0,0,0,0-5.86Z" fill="#01458e"/>
    <path id="Path_4005" data-name="Path 4005" d="M19.46,22.92a1,1,0,0,0-1.41,0L17,24a4.08,4.08,0,0,0,0,5.8l9,9a4.09,4.09,0,0,0,5.79,0l1.06-1.05a1.01,1.01,0,0,0,0-1.42Z" fill="#01458e"/>
    <path id="Path_4006" data-name="Path 4006" d="M35.88,45.97H16.15a1,1,0,0,0-1,1v2.62a1,1,0,0,0,1,1H35.88a1,1,0,0,0,1-1V46.97A1,1,0,0,0,35.88,45.97Z" fill="#63ab3b"/>
    <path id="Path_4007" data-name="Path 4007" d="M40.51,53.83H39.05V49.59a1,1,0,0,0-1-1H14a1,1,0,0,0-1,1v4.24H11.52a1,1,0,0,0,0,2h29a1,1,0,0,0,0-2Z" fill="#01458e"/>
  </g>
</svg>
