<svg xmlns="http://www.w3.org/2000/svg" width="81.865" height="60.987" viewBox="0 0 81.865 60.987">
  <g id="license-svgrepo-com" transform="translate(0 -59.295)">
    <path id="Path_4492" data-name="Path 4492" d="M100.5,149.437h4.072a7.9,7.9,0,0,1,6.446-6.446V110.741a7.9,7.9,0,0,1-6.446-6.446H51.446A7.9,7.9,0,0,1,45,110.741v32.251a7.9,7.9,0,0,1,6.446,6.446H95.221a1.32,1.32,0,0,1,1.32,1.32h2.641A1.32,1.32,0,0,1,100.5,149.437ZM65.114,112.476a1.321,1.321,0,0,1,1.847.276l2.975,4.023,2.975-4.023a1.32,1.32,0,0,1,2.123,0l2.975,4.023,2.975-4.023a1.32,1.32,0,0,1,2.123,0l2.976,4.023,2.976-4.023a1.32,1.32,0,0,1,2.123,1.57l-4.037,5.458a1.32,1.32,0,0,1-2.123,0l-2.976-4.023-2.975,4.023a1.32,1.32,0,0,1-2.123,0l-2.975-4.022L71,119.781a1.32,1.32,0,0,1-2.123,0l-4.037-5.458A1.321,1.321,0,0,1,65.114,112.476ZM54.226,124.717h47.569a1.32,1.32,0,0,1,0,2.641H54.226a1.32,1.32,0,1,1,0-2.641Zm32.151,16.8H69.644a1.32,1.32,0,0,1,0-2.641H86.377a1.32,1.32,0,0,1,0,2.641ZM54.226,132.64a1.32,1.32,0,1,1,0-2.641h47.569a1.32,1.32,0,0,1,0,2.641Z" transform="translate(-37.078 -37.078)" fill="#01458e"/>
    <path id="Path_4493" data-name="Path 4493" d="M15,130H91.584V74.295H15Zm2.641-45.188a1.32,1.32,0,0,1,1.32-1.32A5.242,5.242,0,0,0,24.2,78.256a1.32,1.32,0,0,1,1.32-1.32H81.066a1.32,1.32,0,0,1,1.32,1.32,5.242,5.242,0,0,0,5.236,5.236,1.32,1.32,0,0,1,1.32,1.32v34.67a1.32,1.32,0,0,1-1.32,1.32,5.242,5.242,0,0,0-5.236,5.236,1.32,1.32,0,0,1-1.32,1.32H75.784a1.32,1.32,0,0,1-1.32-1.32H71.823a1.32,1.32,0,0,1-1.32,1.32H25.518a1.32,1.32,0,0,1-1.32-1.32,5.242,5.242,0,0,0-5.236-5.236,1.32,1.32,0,0,1-1.32-1.32Z" transform="translate(-12.359 -12.359)" fill="#63ab3b"/>
    <path id="Path_4494" data-name="Path 4494" d="M80.545,59.295H1.32A1.32,1.32,0,0,0,0,60.615v58.346a1.32,1.32,0,0,0,1.32,1.32H80.545a1.32,1.32,0,0,0,1.32-1.32V60.615A1.32,1.32,0,0,0,80.545,59.295Zm-1.32,58.346H2.641V61.936H79.225Z" fill="#570100"/>
    <path id="Path_4495" data-name="Path 4495" d="M31.32,133.162a5.242,5.242,0,0,1,5.236,5.236,1.32,1.32,0,0,0,1.32,1.32H82.862a1.32,1.32,0,1,0,0-2.641H39.087a7.9,7.9,0,0,0-6.446-6.446V98.382a7.9,7.9,0,0,0,6.446-6.446H92.215a7.9,7.9,0,0,0,6.446,6.446v32.251a7.9,7.9,0,0,0-6.446,6.446H88.143a1.32,1.32,0,0,0,0,2.641h5.282a1.32,1.32,0,0,0,1.32-1.32,5.242,5.242,0,0,1,5.236-5.236,1.32,1.32,0,0,0,1.32-1.32V97.172a1.32,1.32,0,0,0-1.32-1.32,5.242,5.242,0,0,1-5.236-5.236,1.32,1.32,0,0,0-1.32-1.32H37.877a1.32,1.32,0,0,0-1.32,1.32,5.242,5.242,0,0,1-5.236,5.236A1.32,1.32,0,0,0,30,97.172v34.67A1.32,1.32,0,0,0,31.32,133.162Z" transform="translate(-24.718 -24.718)" fill="#fff"/>
    <path id="Path_4496" data-name="Path 4496" d="M160.507,156.857a1.32,1.32,0,0,0,2.123,0l2.975-4.023,2.975,4.023a1.32,1.32,0,0,0,2.123,0l2.975-4.023,2.976,4.023a1.32,1.32,0,0,0,2.123,0l4.037-5.458a1.32,1.32,0,1,0-2.123-1.57l-2.976,4.023-2.976-4.023a1.32,1.32,0,0,0-2.123,0l-2.975,4.022-2.975-4.022a1.32,1.32,0,0,0-2.123,0l-2.975,4.022-2.975-4.022a1.32,1.32,0,0,0-2.123,1.57Z" transform="translate(-128.71 -74.154)" fill="#fff"/>
    <path id="Path_4497" data-name="Path 4497" d="M140.113,251.615a1.32,1.32,0,0,0-1.32-1.32H91.223a1.32,1.32,0,1,0,0,2.641h47.569A1.32,1.32,0,0,0,140.113,251.615Z" transform="translate(-74.075 -157.374)" fill="#fff"/>
    <path id="Path_4498" data-name="Path 4498" d="M195.534,300.7H178.8a1.32,1.32,0,1,0,0,2.641h16.732a1.32,1.32,0,0,0,0-2.641Z" transform="translate(-146.235 -198.909)" fill="#fff"/>
    <path id="Path_4499" data-name="Path 4499" d="M91.223,222.936h47.569a1.32,1.32,0,1,0,0-2.641H91.223a1.32,1.32,0,0,0,0,2.641Z" transform="translate(-74.075 -132.655)" fill="#fff"/>
  </g>
</svg>
