<svg xmlns="http://www.w3.org/2000/svg" width="101.739" height="78" viewBox="0 0 101.739 78">
  <g id="_6151658901639191871" data-name="6151658901639191871" transform="translate(-2 -9)">
    <g id="Fill_Outline" data-name="Fill Outline" transform="translate(3.688 10.696)">
      <rect id="Rectangle_586" data-name="Rectangle 586" width="9" height="18" transform="translate(37.182 56.304)" fill="gray"/>
      <path id="Path_1720" data-name="Path 1720" d="M72.525,65.957H7.619A4.409,4.409,0,0,1,3,61.293V14.663A4.639,4.639,0,0,1,7.619,10H81.475a4.639,4.639,0,0,1,4.616,4.663V26.957" transform="translate(-2.995 -10)" fill="#e6e6e6"/>
      <rect id="Rectangle_587" data-name="Rectangle 587" width="29" height="57" rx="2" transform="translate(69.182 17.304)" fill="#f2f2f2"/>
      <path id="Path_1721" data-name="Path 1721" d="M7.4,46.478H72.522V38H3v4.08a4.4,4.4,0,0,0,4.4,4.4Z" transform="translate(-2.992 9.478)" fill="#999"/>
      <path id="Path_1722" data-name="Path 1722" d="M72.826,26.783H44V23.391A3.391,3.391,0,0,1,47.391,20H69.435a3.391,3.391,0,0,1,3.391,3.391Z" transform="translate(25.529 -3.043)" fill="#333"/>
      <path id="Path_1723" data-name="Path 1723" d="M72.826,49H44v5.087a3.391,3.391,0,0,0,3.391,3.391H69.435a3.391,3.391,0,0,0,3.391-3.391Z" transform="translate(25.529 17.13)" fill="#333"/>
      <rect id="Rectangle_588" data-name="Rectangle 588" width="24" height="18" transform="translate(30.182 22.304)" fill="#63ab3b"/>
      <path id="Path_1724" data-name="Path 1724" d="M59.172,46.122v-.9l-1.131-4.855,1.131-3.237-1.131-3.237,1.131-3.235L55.78,27.422l-3.391,3.237V46.122a6.343,6.343,0,0,0-3.279,6.767A6.818,6.818,0,0,0,62.563,51.7a6.4,6.4,0,0,0-3.391-5.58Z" transform="translate(29.01 2.12)" fill="#63ab3b"/>
    </g>
    <g id="Outline" transform="translate(2 9)">
      <path id="Path_1725" data-name="Path 1725" d="M70.13,19H48.087A5.087,5.087,0,0,0,43,24.087v50.87a5.087,5.087,0,0,0,5.087,5.087H70.13a5.087,5.087,0,0,0,5.087-5.087V24.087A5.087,5.087,0,0,0,70.13,19ZM46.391,29.174H71.826v39H46.391Zm1.7-6.783H70.13a1.7,1.7,0,0,1,1.7,1.7v1.7H46.391v-1.7A1.7,1.7,0,0,1,48.087,22.391ZM70.13,76.652H48.087a1.7,1.7,0,0,1-1.7-1.7V71.565H71.826v3.391A1.7,1.7,0,0,1,70.13,76.652Z" transform="translate(26.522 -2.043)"/>
      <path id="Path_1726" data-name="Path 1726" d="M66.435,59.87a1.7,1.7,0,0,0,0-3.391H5.391V15.359a2.947,2.947,0,0,1,2.92-2.967H82.167a2.947,2.947,0,0,1,2.92,2.967V20.87a1.7,1.7,0,1,0,3.391,0V15.359A6.343,6.343,0,0,0,82.167,9H8.311A6.343,6.343,0,0,0,2,15.359v46.63a6.343,6.343,0,0,0,6.311,6.359H39.3V83.609H24.043a1.7,1.7,0,1,0,0,3.391H66.435a1.7,1.7,0,0,0,0-3.391H51.174V68.348H66.435a1.7,1.7,0,0,0,0-3.391H8.311a2.947,2.947,0,0,1-2.92-2.967V59.87ZM47.783,68.348V83.609H42.7V68.348Z" transform="translate(-2 -9)"/>
      <path id="Path_1727" data-name="Path 1727" d="M33.565,13A11.483,11.483,0,0,0,21.7,24.025v4.239a1.7,1.7,0,0,0-1.7,1.7V48.612a1.7,1.7,0,0,0,1.7,1.7H45.435a1.7,1.7,0,0,0,1.7-1.7V29.959a1.7,1.7,0,0,0-1.7-1.7V24.025A11.483,11.483,0,0,0,33.565,13ZM43.739,46.916H23.391V31.655H43.739ZM25.087,28.264V24.025a8.1,8.1,0,0,1,8.478-7.63,8.1,8.1,0,0,1,8.478,7.63v4.239Z" transform="translate(10.522 -6.22)"/>
      <path id="Path_1728" data-name="Path 1728" d="M61.564,45.887a1.677,1.677,0,0,0-.044-.356L60.5,41.154l.968-2.769a1.7,1.7,0,0,0,0-1.121l-.934-2.677.934-2.676a1.7,1.7,0,0,0-.431-1.787l-3.391-3.237a1.7,1.7,0,0,0-2.34,0l-3.391,3.237a1.7,1.7,0,0,0-.526,1.228V45.887A7.97,7.97,0,0,0,48.142,53.9a8.4,8.4,0,0,0,6.817,6.533,9.158,9.158,0,0,0,1.514.129,8.634,8.634,0,0,0,5.6-2.035,7.949,7.949,0,0,0-.5-12.639ZM59.877,55.942a5.319,5.319,0,0,1-4.356,1.143,4.95,4.95,0,0,1-4.048-3.815,4.672,4.672,0,0,1,2.437-4.975,1.7,1.7,0,0,0,.872-1.477V32.083l1.7-1.618,1.429,1.357-.768,2.2a1.7,1.7,0,0,0,0,1.119l.936,2.677L57.141,40.5a1.686,1.686,0,0,0-.053.943l1.085,4.673v.7a1.7,1.7,0,0,0,.872,1.482,4.578,4.578,0,0,1,.833,7.647Z" transform="translate(30.001 3.117)"/>
      <path id="Path_1729" data-name="Path 1729" d="M27.783,31.365a1.623,1.623,0,0,0-.086.426v3.391a1.7,1.7,0,1,0,3.391,0V31.79A1.623,1.623,0,0,0,31,31.365a3.391,3.391,0,1,0-3.222,0Z" transform="translate(14.695 2.123)"/>
    </g>
  </g>
</svg>
