<svg version="1.1" id="Layer_1" xmlns="http://www.w3.org/2000/svg" x="0" y="0" viewBox="0 0 1080 1080" style="enable-background:new 0 0 1080 1080" xml:space="preserve"><style>.st0{fill:#d3eddf}.st1{fill:#b9cfc3}.st2{fill:#01A54F}</style><path id="Path_118" class="st0" d="M826.4 202.5v121.7h-2.3c0 42.9-114.8 76.5-250.4 76.5-52.7 1.2-105.3-4.7-156.6-17.4l-2.3 2.3c-25.5-21-54.5-37-85.8-47.5v-2.3l-3.4-128.7c8.1 39.4 115.9 70.7 246.9 70.7s251.6-33.6 251.6-75.4l2.3.1z"/><path id="Path_119" class="st1" d="M826.4 204.8c0 41.7-114.8 75.4-251.6 75.4s-240-31.2-248.1-70.7c0-1.1-1.1-3.4-1.1-4.6 0-41.7 111.3-76.5 249.3-76.5 137.9-1.3 251.5 33.4 251.5 76.4z"/><path id="Path_121" class="st2" d="M420.5 749.7c31.6-29.1 55.2-65.8 68.4-106.6h5.8c25.5 2.3 51 3.4 78.9 3.4h11.6V672l2.3 97.3h-12.7c-50.7 1-101.4-4.5-150.8-16.3l-3.5-3.3z"/><path id="Path_122" class="st0" d="M586.3 533v5.7l2.3 107.8H577c-29 0-55.6-1.1-81.2-3.4H490c7.9-24.4 11.8-49.8 11.6-75.4-.1-16.8-2.1-33.5-5.8-49.8h5.8c24.4 2.3 48.7 3.4 75.4 3.4l10.4 5.8c-.7 1.8-1.2 3.8-1.1 5.9z"/><path id="Path_123" class="st2" d="M417.1 383.4c51.2 12.7 103.8 18.6 156.6 17.4 135.7 0 250.4-33.6 250.4-76.5h2.3v136.8c-126.4 0-229.5 30.1-242.3 68.4l-10.4-5.8c-25.5 0-49.8-1.1-73.1-3.4h-5.8c-10.2-53.1-38.4-101-80-135.7l2.3-1.2z"/><g id="Group_219" transform="translate(0 95.539)"><path id="Path_124" class="st1" d="M497.1 424.6c-11.8-53.7-40.6-102.1-82.3-138-25.3-22.9-55.4-39.5-88.2-48.7-23.6-7.9-48.2-11.8-73.1-11.6C115.9 224 2.4 333.8.1 471.5s107.5 251.1 245.1 253.4h3.6c63.4.1 124.6-23.5 171.6-66.1 32.5-30 56.4-68 69.6-110.1 7.9-24 11.8-49 11.6-74.2.1-16.3-4.5-33.6-4.5-49.9z"/><path id="Path_117_1_" class="st2" d="M1081.5 655.6v122.9c0 41.7-111.3 76.5-248.1 76.5s-245.8-33.7-245.8-75.4v-13.9l-2.3-97.3h1.1c18.6 36 120.6 63.8 243.5 63.8s249.3-34.8 249.3-76.5l2.3-.1z"/><path id="Path_120_1_" class="st0" d="m586.3 668.3-1.1-25.5-2.2-104.3c8.1 39.4 115.9 70.7 246.9 70.7s246.9-33.7 250.4-74.2h1.1v120.6h-2.3c0 41.7-112.4 76.5-249.3 76.5s-224.9-27.8-243.5-63.8z"/><path id="Path_125_1_" class="st1" d="M1080.3 532.7v2.3c-3.4 40.5-115.9 74.2-250.4 74.2S591 578 583 538.5v-5.8c-.2-2.4.2-4.8 1.1-7 12.8-38.2 115.9-68.4 242.3-68.4h3.4c136.9 0 250.5 33.7 250.5 75.4z"/><path id="Path_125" class="st1" d="M1080.3 287.1v2.3c-3.4 40.5-115.9 74.2-250.4 74.2S591 332.3 583 292.9v-5.8c-.2-2.4.2-4.8 1.1-7 12.8-38.2 115.9-68.4 242.3-68.4h3.4c136.9 0 250.5 33.7 250.5 75.4z"/></g><path id="Path_117" class="st2" d="M1081.5 505.5v122.9c0 41.7-111.3 76.5-248.1 76.5s-245.8-33.7-245.8-75.3v-14l-2.3-97.3h1.1c18.6 36 120.6 63.8 243.5 63.8s249.3-34.8 249.3-76.5l2.3-.1z"/><path id="Path_120" class="st0" d="m586.3 518.3-1.1-25.5-2.2-104.3c8.1 39.4 115.9 70.7 246.9 70.7s246.9-33.6 250.4-74.2h1.1v120.6h-2.3c0 41.7-112.4 76.5-249.3 76.5s-224.9-27.9-243.5-63.8z"/><path d="M118 416h236c1.3.2 2 .8 2 2v22.5c0 1.3-.7 2-2 2h-88.8v2c12.6 6.8 22.5 20.8 29.4 41.9l1 7.2H354c1.3.2 2 .8 2 2v22.5c0 1.3-.7 2-2 2h-56.1c0 25.1-15.4 49.6-46.1 73.4-27.3 15.6-46.6 23.4-58.1 23.4 0 .7-.7 1-2 1L318.3 782v2h-48.2c-.5 0-49.5-63.5-146.9-190.6v-1h15.2c53.9 0 86.2-19.4 97-58.1.7-4.6 1-8.4 1-11.2v-3H118c-1.3 0-2-.7-2-2v-22.5c.2-1.3.8-2 2-2h117.5c-4-15.1-12.5-27.4-25.4-36.9-18-9.5-34.4-14.2-49.2-14.2H118c-1.3 0-2-.7-2-2V418c.2-1.4.8-2 2-2z" style="fill:#263572"/><circle cx="247.6" cy="571.1" r="183.8" style="fill:none;stroke:#01A54F;stroke-width:15;stroke-miterlimit:10"/><path transform="rotate(-48.645 247.57 571.643)" class="st2" d="M241.5 390.8h12.1v361.6h-12.1z"/></svg>
