<svg xmlns="http://www.w3.org/2000/svg" width="67.574" height="67.573" viewBox="0 0 67.574 67.573">
  <g id="Group_1339" data-name="Group 1339" transform="translate(-773 -975.929)">
    <circle id="Ellipse_188" data-name="Ellipse 188" cx="32" cy="32" r="32" transform="translate(773 979)" fill="#e0e6ec"/>
    <g id="flat" transform="translate(749.427 951.929)">
      <rect id="Rectangle_980" data-name="Rectangle 980" width="10" height="19" transform="translate(23.573 72.573)" fill="#01458e"/>
      <path id="Path_3803" data-name="Path 3803" d="M136.623,112.415H118.1l-.52-.289h-8.153l-.588.289H88V80h48.623Z" transform="translate(-54.738 -47.896)" fill="#6a9876"/>
      <path id="Path_3804" data-name="Path 3804" d="M157.693,94.2a4.6,4.6,0,0,1,1.669-.3V80H123.04A4.612,4.612,0,0,1,120,88.1v5.8a4.584,4.584,0,0,1,4.62,4.62h30.123a4.622,4.622,0,0,1,2.95-4.319Z" transform="translate(-82.108 -47.896)" fill="#83bd93"/>
      <path id="Path_3805" data-name="Path 3805" d="M105.365,345.262l10.911,3.274a2.317,2.317,0,0,0,1.331,0l10.911-3.274H128.5a3.488,3.488,0,0,1,3.488,3.488h0a3.488,3.488,0,0,1-2.115,3.206l-10.162,4.356A20.838,20.838,0,0,1,111.507,358H88V339.473h0A11.858,11.858,0,0,1,96.385,336h.909a11.857,11.857,0,0,1,4.4.848l3.668,1.467h6.946a3.473,3.473,0,0,1,3.473,3.473h0a3.473,3.473,0,0,1-3.473,3.473Z" transform="translate(-54.738 -266.85)" fill="#f6d3bc"/>
      <rect id="Rectangle_981" data-name="Rectangle 981" width="50" height="6" transform="translate(32.573 54.573)" fill="#83bd93"/>
      <rect id="Rectangle_982" data-name="Rectangle 982" width="2" height="2" transform="translate(27.573 62.573)" fill="#bef5fa"/>
      <rect id="Rectangle_983" data-name="Rectangle 983" width="2" height="3" transform="translate(27.573 57.573)" fill="#bef5fa"/>
      <rect id="Rectangle_984" data-name="Rectangle 984" width="2" height="4" transform="translate(27.573 50.573)" fill="#bef5fa"/>
      <rect id="Rectangle_985" data-name="Rectangle 985" width="9" height="32" transform="translate(54.574 32.573)" fill="#fcd795"/>
      <rect id="Rectangle_986" data-name="Rectangle 986" width="9" height="22" transform="translate(54.574 32.573)" fill="#fbeebd"/>
      <path id="Path_3806" data-name="Path 3806" d="M421,24h9.7V42.523h-9.551Z" transform="translate(-339.549)" fill="#63ab3b"/>
      <path id="Path_3807" data-name="Path 3807" d="M117.28,31.043,135.391,24H159.7V42.523l-2.514,1.508A13.787,13.787,0,0,1,150.1,46h-.111a13.786,13.786,0,0,1-7.647-2.315h-6.946a3.473,3.473,0,0,1-3.473-3.473h0a3.473,3.473,0,0,1,3.473-3.473h6.946L130.76,34.419l-11.116,3.42a3.6,3.6,0,0,1-4.61-2.849h0A3.6,3.6,0,0,1,117.28,31.043Z" transform="translate(-77.818)" fill="#fec9a3"/>
    </g>
  </g>
</svg>
