<svg xmlns="http://www.w3.org/2000/svg" width="72" height="72" viewBox="0 0 72 72">
  <g id="re-order-stock" transform="translate(-0.371 -843.891)">
    <g id="_7" transform="translate(0.199 843.719)">
      <rect id="Rectangle_161" data-name="Rectangle 161" width="72" height="72" transform="translate(0.172 0.172)" fill="none"/>
      <g id="Group_20" data-name="Group 20" transform="translate(0.823 1.629)">
        <path id="Path_321" data-name="Path 321" d="M66.7,6.779,54.38,4.315l-5.1,22.654L24.8,22.073V0H7.424L0,7.424v24.14H12.423l-3.2,14.719a3.684,3.684,0,0,0-2.912,2.731L5.74,51.3a3.491,3.491,0,0,0,2.749,4.276l27.633,5.117a10.142,10.142,0,1,0,19.153-5.5l5.66-24.906-3.611-7.165,2.2-9.622,5.362,1.072a3.963,3.963,0,0,0,.78.078h.25a3.977,3.977,0,0,0,.78-7.876ZM29.986,25.409l3.419.684-1.511,5.289L28.474,30.7Zm5.637,1.127,3.419.684L37.53,32.51l-3.419-.684ZM6.764,3.849V6.764H3.849ZM2.255,9.018H9.018V2.255H22.546V29.31H2.255ZM24.8,31.564V24.372l2.968.594-2.132,7.465,13.49,2.7,2.133-7.466,7.528,1.506L44.142,49.818a10.123,10.123,0,0,0-4.553,2.268l-28.1-5.619,3.24-14.9ZM7.891,52.146a1.217,1.217,0,0,1,.037-.3L8.5,49.562a1.459,1.459,0,0,1,1.674-1.06l27.667,5.534a10.064,10.064,0,0,0-1.668,4.375L8.9,53.361A1.236,1.236,0,0,1,7.891,52.146ZM46.219,67.638a7.891,7.891,0,1,1,7.891-7.891A7.9,7.9,0,0,1,46.219,67.638ZM51,50.8l1.477-6.465L55.3,44.9l-1.778,7.823A10.249,10.249,0,0,0,51,50.8Zm3.843-16.815,2.814.563L55.8,42.7l-2.824-.565Zm3.716-3.4-.4,1.769-2.811-.563,1.192-5.217ZM48.876,49.967a10.086,10.086,0,0,0-2.378-.351l8.335-37.049,2.478.5ZM65.916,12.4h-.25a1.7,1.7,0,0,1-.338-.034l-10-2,.766-3.409L66.251,8.989a1.722,1.722,0,0,1-.336,3.411Z" fill="#0a1735"/>
      </g>
      <g id="Group_21" data-name="Group 21" transform="translate(5.332 14.029)">
        <path id="Path_322" data-name="Path 322" d="M33.639,73.906H24.62V63.76H28V61.506H22.366V76.161H35.893V69.4H33.639Z" transform="translate(-22.366 -61.506)" fill="#63ab3b"/>
      </g>
      <g id="Group_22" data-name="Group 22" transform="translate(9.044 13.232)">
        <path id="Path_323" data-name="Path 323" d="M43.83,64.647l-1.458-1.458-1.594,1.594,3.052,3.052,8.688-8.688-1.594-1.594Z" transform="translate(-40.778 -57.553)" fill="#63ab3b"/>
      </g>
      <g id="Group_23" data-name="Group 23" transform="translate(41.406 55.74)">
        <path id="Path_324" data-name="Path 324" d="M206.928,268.389a5.637,5.637,0,1,0,5.637,5.637A5.643,5.643,0,0,0,206.928,268.389Zm0,9.018a3.382,3.382,0,1,1,3.382-3.382A3.386,3.386,0,0,1,206.928,277.408Z" transform="translate(-201.292 -268.389)" fill="#63ab3b"/>
      </g>
    </g>
  </g>
</svg>
