<svg version="1.1" id="Layer_1" xmlns="http://www.w3.org/2000/svg" x="0" y="0" viewBox="0 0 1080 1080" style="enable-background:new 0 0 1080 1080" xml:space="preserve"><style>.st0,.st1{fill-rule:evenodd;clip-rule:evenodd;fill:#ffdcca}.st1{fill:#f8bf9d}.st2{fill:#01A54F}.st4{fill:#fff}</style><g id="Page-1" transform="translate(0 26.712)"><g id="_015---Financial-Profit"><path id="Rectangle" class="st0" d="M60.2 974.6h221.4c20.4 0 36.9 16.5 36.9 36.9s-16.5 36.9-36.9 36.9H60.2c-20.4 0-36.9-16.5-36.9-36.9 0-20.3 16.5-36.9 36.9-36.9z"/><path id="Rectangle-2" class="st0" d="M429.2 974.6h221.4c20.4 0 36.9 16.5 36.9 36.9s-16.5 36.9-36.9 36.9H429.2c-20.4 0-36.9-16.5-36.9-36.9 0-20.3 16.6-36.9 36.9-36.9z"/><path id="Rectangle-3" class="st1" d="M429.2 900.8h221.4c20.4 0 36.9 16.5 36.9 36.9s-16.5 36.9-36.9 36.9H429.2c-20.4 0-36.9-16.5-36.9-36.9s16.6-36.9 36.9-36.9z"/><path id="Rectangle-4" class="st0" d="M429.2 827h221.4c20.4 0 36.9 16.5 36.9 36.9s-16.5 36.9-36.9 36.9H429.2c-20.4 0-36.9-16.5-36.9-36.9s16.6-36.9 36.9-36.9z"/><path id="Rectangle-5" class="st0" d="M798.3 974.6h221.4c20.4 0 36.9 16.5 36.9 36.9s-16.5 36.9-36.9 36.9H798.3c-20.4 0-36.9-16.5-36.9-36.9 0-20.3 16.5-36.9 36.9-36.9z"/><circle id="Oval" class="st2" cx="540" cy="660.9" r="166.1"/><path id="Rectangle-6" class="st1" d="M798.3 900.8h221.4c20.4 0 36.9 16.5 36.9 36.9s-16.5 36.9-36.9 36.9H798.3c-20.4 0-36.9-16.5-36.9-36.9s16.5-36.9 36.9-36.9z"/><path id="Rectangle-7" class="st0" d="M798.3 827h221.4c20.4 0 36.9 16.5 36.9 36.9s-16.5 36.9-36.9 36.9H798.3c-20.4 0-36.9-16.5-36.9-36.9s16.5-36.9 36.9-36.9z"/><path id="Rectangle-8" class="st1" d="M798.3 753.2h221.4c20.4 0 36.9 16.5 36.9 36.9s-16.5 36.9-36.9 36.9H798.3c-20.4 0-36.9-16.5-36.9-36.9s16.5-36.9 36.9-36.9z"/><path id="Rectangle-9" class="st0" d="M798.3 679.4h221.4c20.4 0 36.9 16.5 36.9 36.9s-16.5 36.9-36.9 36.9H798.3c-20.4 0-36.9-16.5-36.9-36.9s16.5-36.9 36.9-36.9z"/><circle id="Oval-2" class="st2" cx="909" cy="513.3" r="166.1"/><circle id="Oval-3" class="st2" cx="170.9" cy="808.6" r="166.1"/></g></g><path id="Path" d="m1075.1 28.4-9.2 118.8c-1 14.1-13.3 24.8-27.4 23.7-6.2-.4-11.9-3.1-16.3-7.5l-26.8-26.7-177.9 178.2c-28.9 28.8-75.6 28.8-104.4 0l-82.4-82.4c-7.2-7.2-18.9-7.2-26.1 0L333.9 503.3c-28.8 28.8-75.5 28.9-104.4.1l-.1-.1-45.4-45.4c-7.2-7.2-18.9-7.2-26.1 0l-90.1 90c-14.4 14.2-37.6 14.2-52 0-14.4-14.1-14.6-37.2-.5-51.6l.5-.5 103-103.2c28.8-28.8 75.6-28.8 104.4 0l58.5 58.5 283.8-283.8c28.8-28.8 75.6-28.8 104.4 0l82.3 82.3c7.2 7.2 18.9 7.2 26.1 0l165-165.1-26.8-26.8c-10-10-10-26.2 0-36.2 4.3-4.3 10.1-7 16.2-7.4l119-9.3c12.1-.8 22.5 8.4 23.3 20.5.2 1.1.2 2.1.1 3.1z" style="fill-rule:evenodd;clip-rule:evenodd;fill:#283272"/><path class="st4" d="M99.8 749h134.3c.8.1 1.1.5 1.1 1.1v12.8c0 .8-.4 1.1-1.1 1.1h-50.5v1.1c7.2 3.9 12.8 11.8 16.8 23.9l.6 4.1h33.2c.8.1 1.1.5 1.1 1.1V807c0 .8-.4 1.1-1.1 1.1h-31.9c0 14.3-8.8 28.2-26.3 41.7-15.5 8.9-26.5 13.3-33.1 13.3 0 .4-.4.6-1.1.6l72.1 93.4v1.1h-27.4c-.3 0-28.2-36.1-83.6-108.5v-.6h8.7c30.7 0 49.1-11 55.2-33.1.4-2.6.6-4.8.6-6.4v-1.7H99.9c-.8 0-1.1-.4-1.1-1.1V794c.1-.8.5-1.1 1.1-1.1h66.9c-2.3-8.6-7.1-15.6-14.5-21-10.2-5.4-19.5-8.1-28-8.1H99.9c-.8 0-1.1-.4-1.1-1.1v-12.8c0-.5.4-.9 1-.9zM472.8 582.9h134.3c.8.1 1.1.5 1.1 1.1v12.8c0 .8-.4 1.1-1.1 1.1h-50.5v1.1c7.2 3.9 12.8 11.8 16.8 23.9l.6 4.1h33.2c.8.1 1.1.5 1.1 1.1V641c0 .8-.4 1.1-1.1 1.1h-31.9c0 14.3-8.8 28.2-26.3 41.7-15.5 8.9-26.5 13.3-33.1 13.3 0 .4-.4.6-1.1.6l72.1 93.4v1.1h-27.4c-.3 0-28.2-36.1-83.6-108.5v-.6h8.7c30.7 0 49.1-11 55.2-33.1.4-2.6.6-4.8.6-6.4v-1.7H473c-.8 0-1.1-.4-1.1-1.1V628c.1-.8.5-1.1 1.1-1.1h66.9c-2.3-8.6-7.1-15.6-14.5-21-10.2-5.4-19.5-8.1-28-8.1H473c-.8 0-1.1-.4-1.1-1.1v-12.8c-.1-.6.3-1 .9-1zM841.8 445.9h134.3c.8.1 1.1.5 1.1 1.1v12.8c0 .8-.4 1.1-1.1 1.1h-50.5v1.1c7.2 3.9 12.8 11.8 16.8 23.9l.6 4.1h33.2c.8.1 1.1.5 1.1 1.1V504c0 .8-.4 1.1-1.1 1.1h-31.9c0 14.3-8.8 28.2-26.3 41.7-15.5 8.9-26.5 13.3-33.1 13.3 0 .4-.4.6-1.1.6l72.1 93.4v1.1h-27.4c-.3 0-28.2-36.1-83.6-108.5v-.6h8.7c30.7 0 49.1-11 55.2-33.1.4-2.6.6-4.8.6-6.4v-1.7H842c-.8 0-1.1-.4-1.1-1.1V491c.1-.8.5-1.1 1.1-1.1h66.9c-2.3-8.6-7.1-15.6-14.5-21-10.2-5.4-19.5-8.1-28-8.1H842c-.8 0-1.1-.4-1.1-1.1v-12.8c-.1-.6.3-1 .9-1z"/></svg>
