<svg xmlns="http://www.w3.org/2000/svg" width="75.517" height="58.462" viewBox="0 0 75.517 58.462">
  <g id="_12604158141639635596" data-name="12604158141639635596" transform="translate(-0.998 -8)">
    <circle id="Ellipse_227" data-name="Ellipse 227" cx="3.654" cy="3.654" r="3.654" transform="translate(35.101 54.587)" fill="#515f73"/>
    <path id="Path_4566" data-name="Path 4566" d="M62.7,31.09H53.231V25H24V54.231H70.283v-13.5Z" transform="translate(5.014 3.705)" fill="#01458e"/>
    <path id="Path_4567" data-name="Path 4567" d="M62.7,31.09H53.231V25H49.577V48.141a2.436,2.436,0,0,1-2.436,2.436H24v3.654H70.283v-13.5Z" transform="translate(5.014 3.705)" fill="#7cb342"/>
    <path id="Path_4568" data-name="Path 4568" d="M48,30h9.473l7.578,9.643v13.5H48Z" transform="translate(10.245 4.795)" fill="#d9e1e6"/>
    <path id="Path_4569" data-name="Path 4569" d="M57.473,30h-.782l4.185,5.326a2.436,2.436,0,0,1,.521,1.505v10.22a2.436,2.436,0,0,1-2.436,2.436H48v3.654H65.051v-13.5Z" transform="translate(10.245 4.795)" fill="#c0c8cc"/>
    <rect id="Rectangle_1155" data-name="Rectangle 1155" width="43.847" height="48.414" transform="translate(4.956 18.048)" fill="#7cb342"/>
    <path id="Path_5365" data-name="Path 5365" d="M0,0H33.8V28.318H0Z" transform="translate(43.322 61.895) rotate(180)" fill="#01458e"/>
    <path id="Path_4570" data-name="Path 4570" d="M63.962,39.646v.1H53V30h3.386Z" transform="translate(11.335 4.795)" fill="#c9e6fb"/>
    <path id="Path_4571" data-name="Path 4571" d="M47.847,15h-1l.984,2.463a1.041,1.041,0,0,1-2.032.431,3.565,3.565,0,0,0-.122-.365l-.826-2.08c-.006-.027-.01-.052-.017-.078-.035-.122-.077-.244-.122-.365h-7.9l1.006,2.539A1.015,1.015,0,0,1,36.8,18.659a1.036,1.036,0,0,1-1-.762l-.133-.469a9.929,9.929,0,0,0,0-2.427h-7.43l.2.814a2.537,2.537,0,1,1-5.037,0L23.609,15H16.17a9.918,9.918,0,0,0,0,2.426l-.133.476a1.033,1.033,0,0,1-.99.751,1.015,1.015,0,0,1-1.023-1.114L15.03,15h-7.9c-.046.122-.088.244-.122.365-.007.026-.011.051-.017.078l-.827,2.08a3.564,3.564,0,0,0-.122.365,1.04,1.04,0,0,1-2.033-.426L5,15H4V25.895a8.7,8.7,0,0,0,1.043.067,8.33,8.33,0,0,0,5-1.675,8.294,8.294,0,0,0,10.189-.151,9.786,9.786,0,0,0,11.384,0,8.293,8.293,0,0,0,10.188.151,8.33,8.33,0,0,0,5,1.675,8.7,8.7,0,0,0,1.043-.067Z" transform="translate(0.654 1.526)" fill="#5f6f8c"/>
    <path id="Path_4572" data-name="Path 4572" d="M56.386,30H53.463l4.154,5.342a1.218,1.218,0,0,1-.963,1.966H53v2.436H63.962v-.1Z" transform="translate(11.335 4.795)" fill="#b0dcfb"/>
    <circle id="Ellipse_228" data-name="Ellipse 228" cx="4.263" cy="4.263" r="4.263" transform="translate(62.508 53.674)" fill="#6c7e99"/>
    <path id="Path_4573" data-name="Path 4573" d="M51.984,19.1l-.049-.134L47.539,8H5.617L1.22,18.962l-.049.134a4.7,4.7,0,0,0,9.049,2.521l.926-2.326a.552.552,0,0,1,.037-.195l.049-.134h.037l-.122.329a4.684,4.684,0,1,0,9.074,2.326l.353-1.267a6.185,6.185,0,0,0,12.009,0l.353,1.267A4.684,4.684,0,1,0,42.01,19.29l-.122-.329h.037l.049.134a.552.552,0,0,1,.037.195l.926,2.326A4.7,4.7,0,1,0,51.984,19.1Z" transform="translate(0)" fill="#7cb342"/>
    <path id="Path_4574" data-name="Path 4574" d="M40.13,23.09a4.682,4.682,0,0,1-4.519-3.435l-.926-2.326a.552.552,0,0,0-.037-.195L34.6,17H44.612l.049.134A4.7,4.7,0,0,1,40.13,23.09Z" transform="translate(7.324 1.962)" fill="#91c856"/>
    <path id="Path_4575" data-name="Path 4575" d="M31.8,23.09a4.682,4.682,0,0,1-4.519-3.435l-.353-1.267A6.569,6.569,0,0,0,27.113,17h9.123l.122.329A4.678,4.678,0,0,1,31.8,23.09Z" transform="translate(5.652 1.962)" fill="#c0c8cc"/>
    <path id="Path_4576" data-name="Path 4576" d="M29.294,17a6.569,6.569,0,0,1-.183,1.388,6.185,6.185,0,0,1-12.009,0A6.57,6.57,0,0,1,16.92,17Z" transform="translate(3.47 1.962)" fill="#91c856"/>
    <path id="Path_4577" data-name="Path 4577" d="M18.784,18.388l-.353,1.267a4.684,4.684,0,1,1-9.074-2.326L9.478,17H18.6a6.57,6.57,0,0,0,.183,1.388Z" transform="translate(1.79 1.962)" fill="#c0c8cc"/>
    <path id="Path_4578" data-name="Path 4578" d="M11.231,17l-.049.134a.552.552,0,0,0-.037.195l-.926,2.326a4.7,4.7,0,1,1-9.049-2.521L1.22,17Z" transform="translate(0 1.962)" fill="#91c856"/>
    <path id="Path_4579" data-name="Path 4579" d="M36.656,18.962H27.533a5.863,5.863,0,0,0-.085-1.121L25,8h7.308Z" transform="translate(5.232)" fill="#d9e1e6"/>
    <path id="Path_4580" data-name="Path 4580" d="M21.086,8l-2.448,9.841a5.863,5.863,0,0,0-.085,1.121H9.43L13.778,8Z" transform="translate(1.838)" fill="#d9e1e6"/>
    <path id="Path_4581" data-name="Path 4581" d="M64.962,22.59h-6.8l1.575-1.575-1.722-1.722-3.654,3.654a1.218,1.218,0,0,0,0,1.722l3.654,3.654L59.733,26.6l-1.575-1.575h6.8Z" transform="translate(11.553 2.461)" fill="#a2bfe6"/>
    <path id="Path_4582" data-name="Path 4582" d="M39.667,29V52.141a2.436,2.436,0,0,1-2.436,2.436H8v2.436H42.1V29Z" transform="translate(1.526 4.577)" fill="#b0dcfb"/>
    <rect id="Rectangle_1157" data-name="Rectangle 1157" width="10.048" height="10.048" transform="translate(34.187 51.847) rotate(180)" fill="#ffca5e"/>
    <rect id="Rectangle_1158" data-name="Rectangle 1158" width="10.048" height="10.048" transform="translate(26.879 61.895) rotate(180)" fill="#cd9f4c"/>
    <path id="Path_4583" data-name="Path 4583" d="M25.436,39.654l-1.218-1.218L23,39.654V36h2.436Z" transform="translate(4.796 6.103)" fill="#ffe5b2"/>
    <path id="Path_4584" data-name="Path 4584" d="M19.436,47.654l-1.218-1.218L17,47.654V44h2.436Z" transform="translate(3.488 7.847)" fill="#ffe5b2"/>
    <path id="Path_4585" data-name="Path 4585" d="M20,45.5v.244h9.744V36H29.5A12.191,12.191,0,0,1,20,45.5Z" transform="translate(4.142 6.103)" fill="#e6b655"/>
    <path id="Path_4586" data-name="Path 4586" d="M14,53.5v.244h9.744V44H23.5A12.191,12.191,0,0,1,14,53.5Z" transform="translate(2.834 7.847)" fill="#b38a42"/>
    <rect id="Rectangle_1159" data-name="Rectangle 1159" width="9.135" height="10.048" transform="translate(36.014 61.895) rotate(180)" fill="#e6b155"/>
    <path id="Path_4587" data-name="Path 4587" d="M27.436,47.654l-1.218-1.218L25,47.654V44h2.436Z" transform="translate(5.232 7.847)" fill="#ffe5b2"/>
    <path id="Path_4588" data-name="Path 4588" d="M22,53.5v.244h9.744V44H31.5A12.191,12.191,0,0,1,22,53.5Z" transform="translate(4.578 7.847)" fill="#cc9d4b"/>
  </g>
</svg>
