<svg xmlns="http://www.w3.org/2000/svg" width="69.66" height="52.496" viewBox="0 0 69.66 52.496">
  <g id="_820169231582962155" data-name="820169231582962155" transform="translate(-1.711 -17.059)">
    <path id="Path_4553" data-name="Path 4553" d="M71.06,67.217H83.045A1.283,1.283,0,0,1,84.328,68.5v7.176a1.284,1.284,0,0,1-1.284,1.284H71.06a1.284,1.284,0,0,1-1.284-1.284V68.5a1.284,1.284,0,0,1,1.284-1.284Z" transform="translate(-30.006 -22.111)" fill="#2d3e50"/>
    <path id="Path_4554" data-name="Path 4554" d="M65.77,58.5c-.276,0-.553-.012-.826-.035v6.952h.012V83a2.657,2.657,0,0,0,.023.314H39.213c-.012-2.411,0-17.616-.012-20.047l-12.947.16V83.31H19.829A2.656,2.656,0,0,0,19.852,83V65.421h.012V58.469c-.273.023-.55.035-.826.035a10.236,10.236,0,0,1-3.985-.806L15.012,87.47h54.74l0-29.768A10.254,10.254,0,0,1,65.77,58.5Z" transform="translate(-5.864 -17.915)" fill="#2d3e50"/>
    <path id="Path_4555" data-name="Path 4555" d="M71.338,32.852,66.094,17.059H6.988L1.744,32.852s-.075,0,0,0a9.607,9.607,0,0,1,6.333,2.571,7.055,7.055,0,0,0,1.308,1.032,7.211,7.211,0,0,0,8.884-1.032,9.315,9.315,0,0,1,5.458-2.574h2.111a9.669,9.669,0,0,1,5.547,2.574,7.358,7.358,0,0,0,10.311,0,9.669,9.669,0,0,1,5.547-2.574h2.111a9.315,9.315,0,0,1,5.458,2.574A7.211,7.211,0,0,0,63.7,36.458,7.055,7.055,0,0,0,65,35.426a9.607,9.607,0,0,1,6.333-2.571C71.412,32.852,71.338,32.852,71.338,32.852Z" fill="#63ab3b"/>
  </g>
</svg>
