<svg version="1.1" id="Layer_1" xmlns="http://www.w3.org/2000/svg" x="0" y="0" viewBox="0 0 1080 1080" style="enable-background:new 0 0 1080 1080" xml:space="preserve"><style>.st1{fill:#2a2c6a}.st3{fill:none;stroke:#fff;stroke-width:25;stroke-miterlimit:10}</style><path id="Path_98" d="M842.89 660.62c0 232.25-188.36 420.61-420.61 420.61S1.66 892.87 1.66 660.62s188.36-420.61 420.61-420.61 420.62 188.36 420.62 420.61z" style="fill:#01A54F"/><g id="Group_179" transform="translate(80.719)"><path id="Path_99" class="st1" d="M338.83 217.02c-10.38 0-18.84-8.46-18.84-18.84V18.84C319.99 8.46 328.45 0 338.93 0c10.38 0 18.84 8.46 18.84 18.84v179.34c-.1 10.37-8.46 18.84-18.94 18.84z"/><path id="Path_100" class="st1" d="M480.38 217.02c-10.38 0-18.84-8.46-18.84-18.84v-85.03c0-10.38 8.46-18.84 18.84-18.84s18.84 8.46 18.84 18.84v85.03c.1 10.37-8.36 18.84-18.84 18.84z"/><path id="Path_101" class="st1" d="M197.17 217.02c-10.38 0-18.84-8.46-18.84-18.84v-85.03c0-10.38 8.46-18.94 18.84-18.94 10.38 0 18.94 8.46 18.94 18.84v85.13c0 10.37-8.46 18.84-18.94 18.84z"/></g><g id="Group_180" transform="translate(83.195 27.023)"><path id="Path_102" d="M177.37 354.36H537.2v.77c-11 18.13-22.93 35.64-35.95 52.38h-96.08c13.64 16.27 22.93 35.64 26.96 56.41h102.43c1.24.31 1.86.77 1.86 1.55-22.93 34.4-34.71 51.6-35.18 51.6h-66.63c-3.56 22.93-12.24 44.78-25.41 64-15.19 20.92-35.33 37.81-58.73 48.97-31.15 15.81-65.39 24.33-100.26 25.1v.77a135.348 135.348 0 0 0 23.55 30.99L451.5 901.22v10.07c0 .93-.62 1.55-1.86 1.55h-78.1c-140.71-163.8-210.9-246.08-210.9-246.85v-49.74l.77-1.86c14.57 1.86 29.13 2.79 43.7 2.63 78.72 0 127.84-25.57 147.06-76.71 2.94-7.44 4.49-15.19 4.49-23.24H142.51c-.77.15-1.39-.46-1.55-1.08v-.31c23.71-34.4 35.8-51.6 36.26-51.6h169.84v-.77c-12.4-21.85-32.54-38.43-56.41-46.02-17.36-6.04-35.49-9.3-53.93-9.76h-94.99v-1.86c22.94-34.27 34.87-51.31 35.64-51.31z" style="fill:#fff"/></g><circle class="st1" cx="874.04" cy="764.73" r="205.96"/><circle class="st3" cx="874.04" cy="764.73" r="127.64"/><path transform="rotate(-60 874.046 764.758)" class="st3" d="M867.53 656.43h13v216.6h-13z"/></svg>
