<svg xmlns="http://www.w3.org/2000/svg" width="60.419" height="62" viewBox="0 0 60.419 62">
  <g id="_10114290181639634363" data-name="10114290181639634363" transform="translate(-2.006 -1)">
    <path id="Path_17" data-name="Path 17" d="M28,17V11A18,18,0,0,1,46,29H28V24h-.5A3.5,3.5,0,0,1,24,20.5h0A3.5,3.5,0,0,1,27.5,17Z" fill="#63ab3b"/>
    <path id="Path_18" data-name="Path 18" d="M62,25.16v7.69L45.57,25.09l-4.78-2.25a1.663,1.663,0,0,1-.8-2.21,1.235,1.235,0,0,1,.17-.27,1.636,1.636,0,0,1,1.35-.69,1.472,1.472,0,0,1,.36.04l1.78.4a17.953,17.953,0,0,0-9-7.83,37.569,37.569,0,0,1,4.67-.4c7.96-.25,10.8,1.45,14.39,7.12C56.89,24.05,61.11,25.01,62,25.16Z" fill="#63ab3b"/>
    <path id="Path_19" data-name="Path 19" d="M35,34H19V30H18a3,3,0,0,1-3-3h0a3,3,0,0,1,3-3h1V18c-.26,0-.52.01-.78.02A16,16,0,0,0,13,48.83V56a6,6,0,1,0,12,0V48.83A16.013,16.013,0,0,0,35,34Z" fill="#e3e1d8"/>
    <path id="Path_20" data-name="Path 20" d="M25,52v4a6,6,0,0,1-12,0V52Z" fill="#748ca6"/>
    <path id="Path_21" data-name="Path 21" d="M52.864,19.534c3.8,6.01,8.981,6.627,9.2,6.65l.217-1.988c-.181-.021-4.472-.577-7.726-5.731-3.93-6.208-7.212-7.841-15.263-7.585a39.24,39.24,0,0,0-4.529.38A18.933,18.933,0,0,0,28,10a1,1,0,0,0-1,1v5.028a4.5,4.5,0,0,0,0,8.944V29a1,1,0,0,0,1,1H46a1,1,0,0,0,1-1,19,19,0,0,0-.129-2.184l14.7,6.934.854-1.809-21.21-10a.665.665,0,0,1,.429-1.25l7.691,1.736.441-1.951-5.493-1.24a18.98,18.98,0,0,0-6.151-6.287c.4-.023.8-.056,1.217-.068C47.152,12.634,49.567,14.326,52.864,19.534ZM41.5,18.678A2.639,2.639,0,0,0,39.09,20.2a2.67,2.67,0,0,0,1.273,3.547l4.317,2.035A17.091,17.091,0,0,1,44.97,28H29V24a1,1,0,0,0-1-1h-.5a2.5,2.5,0,0,1,0-5H28a1,1,0,0,0,1-1V12.03a17.037,17.037,0,0,1,12.5,6.648Z" fill="#01458e"/>
    <rect id="Rectangle_1" data-name="Rectangle 1" width="2" height="4" transform="translate(32 1)"/>
    <rect id="Rectangle_2" data-name="Rectangle 2" width="4" height="2" transform="translate(37.879 5.707) rotate(-45)"/>
    <rect id="Rectangle_3" data-name="Rectangle 3" width="2" height="4" transform="translate(23.879 4.293) rotate(-45)"/>
    <path id="Path_22" data-name="Path 22" d="M19,63a7.008,7.008,0,0,0,7-7V49.489A16.942,16.942,0,0,0,36,34a1,1,0,0,0-1-1H20V30a1,1,0,0,0-1-1H18a2,2,0,0,1,0-4h1a1,1,0,0,0,1-1V18a1,1,0,0,0-1-1c-.273,0-.546.01-.827.021A17,17,0,0,0,12,49.489V56a7.008,7.008,0,0,0,7,7Zm3.53-3.464A4.93,4.93,0,0,1,19,61a5,5,0,0,1-4.576-3h9.153a4.956,4.956,0,0,1-1.047,1.536ZM24,56H14V53H24ZM4.009,33.587A15.039,15.039,0,0,1,18,19.034V23a4,4,0,0,0,0,8v3a1,1,0,0,0,1,1H33.967a14.953,14.953,0,0,1-9.343,12.9,1,1,0,0,0-.624.93V51H14V48.83a1,1,0,0,0-.624-.927A15.075,15.075,0,0,1,4.009,33.587Z" fill="#01458e"/>
  </g>
</svg>
