<svg xmlns="http://www.w3.org/2000/svg" width="121" height="97" viewBox="0 0 121 97">
  <g id="Group_1351" data-name="Group 1351" transform="translate(-1432 -977)">
    <rect id="Rectangle_840" data-name="Rectangle 840" width="121" height="97" rx="5" transform="translate(1432 977)" fill="#63ab3b"/>
    <g id="office-block-svgrepo-com" transform="translate(1456.906 990)">
      <g id="Group_123" data-name="Group 123" transform="translate(0.094)">
        <path id="Path_2607" data-name="Path 2607" d="M173.182,80.19H150.094V23.625h23.088Z" transform="translate(-113.154 -17.807)" fill="#01458e"/>
        <path id="Path_2608" data-name="Path 2608" d="M65.893,102.584V66.847a3.515,3.515,0,0,0-3.512-3.512h-2.26v2.309h2.26a1.2,1.2,0,0,1,1.2,1.2v35.737H8.175V66.847a1.2,1.2,0,0,1,1.2-1.2h2.26V97.966H10.483v2.309H61.276V97.966H34.725V65.644h2.309V63.335H34.725V50.273L11.638,56.686v6.649H9.377a3.515,3.515,0,0,0-3.512,3.512v35.737H.094v3.822a3.107,3.107,0,0,0,3.1,3.1H68.56a3.107,3.107,0,0,0,3.105-3.1v-3.822ZM13.947,58.44l18.47-5.131V97.966H13.947S13.947,58.44,13.947,58.44Zm55.41,47.965a.8.8,0,0,1-.8.8H3.2a.8.8,0,0,1-.8-.8v-1.513H69.357Z" transform="translate(-0.094 -37.892)" fill="#e7eced"/>
        <path id="Path_2609" data-name="Path 2609" d="M161.778,4.38,168.7,2.4,175.63,4.38V5.818h2.309V2.639L168.7,0l-9.235,2.639V5.818h2.309Z" transform="translate(-120.22)" fill="#fff"/>
        <rect id="Rectangle_786" data-name="Rectangle 786" width="2.309" height="2.309" transform="translate(42.712 10.436)" fill="#fff"/>
        <rect id="Rectangle_787" data-name="Rectangle 787" width="2.309" height="2.309" transform="translate(47.329 10.436)" fill="#fff"/>
        <rect id="Rectangle_788" data-name="Rectangle 788" width="2.309" height="2.309" transform="translate(51.947 10.436)" fill="#fff"/>
        <rect id="Rectangle_789" data-name="Rectangle 789" width="2.309" height="2.309" transform="translate(42.712 15.053)" fill="#fff"/>
        <rect id="Rectangle_790" data-name="Rectangle 790" width="2.309" height="2.309" transform="translate(47.329 15.053)" fill="#fff"/>
        <rect id="Rectangle_791" data-name="Rectangle 791" width="2.309" height="2.309" transform="translate(51.947 15.053)" fill="#fff"/>
        <rect id="Rectangle_792" data-name="Rectangle 792" width="2.309" height="2.309" transform="translate(42.712 19.671)" fill="#fff"/>
        <rect id="Rectangle_793" data-name="Rectangle 793" width="2.309" height="2.309" transform="translate(47.329 19.671)" fill="#fff"/>
        <rect id="Rectangle_794" data-name="Rectangle 794" width="2.309" height="2.309" transform="translate(51.947 19.671)" fill="#fff"/>
        <rect id="Rectangle_795" data-name="Rectangle 795" width="2.309" height="2.309" transform="translate(42.712 24.288)" fill="#fff"/>
        <rect id="Rectangle_796" data-name="Rectangle 796" width="2.309" height="2.309" transform="translate(47.329 24.288)" fill="#fff"/>
        <rect id="Rectangle_797" data-name="Rectangle 797" width="2.309" height="2.309" transform="translate(51.947 24.288)" fill="#fff"/>
        <rect id="Rectangle_798" data-name="Rectangle 798" width="2.309" height="2.309" transform="translate(42.712 28.906)" fill="#fff"/>
        <rect id="Rectangle_799" data-name="Rectangle 799" width="2.309" height="2.309" transform="translate(47.329 28.906)" fill="#fff"/>
        <rect id="Rectangle_800" data-name="Rectangle 800" width="2.309" height="2.309" transform="translate(51.947 28.906)" fill="#fff"/>
        <rect id="Rectangle_801" data-name="Rectangle 801" width="2.309" height="2.309" transform="translate(42.712 33.523)" fill="#fff"/>
        <rect id="Rectangle_802" data-name="Rectangle 802" width="2.309" height="2.309" transform="translate(47.329 33.523)" fill="#fff"/>
        <rect id="Rectangle_803" data-name="Rectangle 803" width="2.309" height="2.309" transform="translate(51.947 33.523)" fill="#fff"/>
        <rect id="Rectangle_804" data-name="Rectangle 804" width="2.309" height="2.309" transform="translate(42.712 38.141)" fill="#fff"/>
        <rect id="Rectangle_805" data-name="Rectangle 805" width="2.309" height="2.309" transform="translate(47.329 38.141)" fill="#fff"/>
        <rect id="Rectangle_806" data-name="Rectangle 806" width="2.309" height="2.309" transform="translate(51.947 38.141)" fill="#fff"/>
        <rect id="Rectangle_807" data-name="Rectangle 807" width="2.309" height="2.309" transform="translate(42.712 42.758)" fill="#fff"/>
        <rect id="Rectangle_808" data-name="Rectangle 808" width="2.309" height="2.309" transform="translate(47.329 42.758)" fill="#fff"/>
        <rect id="Rectangle_809" data-name="Rectangle 809" width="2.309" height="2.309" transform="translate(51.947 42.758)" fill="#fff"/>
        <rect id="Rectangle_810" data-name="Rectangle 810" width="2.309" height="2.309" transform="translate(42.712 47.376)" fill="#fff"/>
        <rect id="Rectangle_811" data-name="Rectangle 811" width="2.309" height="2.309" transform="translate(47.329 47.376)" fill="#fff"/>
        <rect id="Rectangle_812" data-name="Rectangle 812" width="2.309" height="2.309" transform="translate(51.947 47.376)" fill="#fff"/>
        <rect id="Rectangle_813" data-name="Rectangle 813" width="2.309" height="2.309" transform="translate(42.712 51.993)" fill="#fff"/>
        <rect id="Rectangle_814" data-name="Rectangle 814" width="2.309" height="2.309" transform="translate(47.329 51.993)" fill="#fff"/>
        <rect id="Rectangle_815" data-name="Rectangle 815" width="2.309" height="2.309" transform="translate(51.947 51.993)" fill="#fff"/>
        <rect id="Rectangle_816" data-name="Rectangle 816" width="2.309" height="2.309" transform="translate(21.933 19.671)" fill="#333"/>
        <rect id="Rectangle_817" data-name="Rectangle 817" width="2.309" height="2.309" transform="translate(26.551 19.671)" fill="#333"/>
        <rect id="Rectangle_818" data-name="Rectangle 818" width="2.309" height="2.309" transform="translate(17.316 24.288)" fill="#333"/>
        <rect id="Rectangle_819" data-name="Rectangle 819" width="2.309" height="2.309" transform="translate(21.933 24.288)" fill="#333"/>
        <rect id="Rectangle_820" data-name="Rectangle 820" width="2.309" height="2.309" transform="translate(26.551 24.288)" fill="#333"/>
        <rect id="Rectangle_821" data-name="Rectangle 821" width="2.309" height="2.309" transform="translate(17.316 28.906)" fill="#333"/>
        <rect id="Rectangle_822" data-name="Rectangle 822" width="2.309" height="2.309" transform="translate(21.933 28.906)" fill="#333"/>
        <rect id="Rectangle_823" data-name="Rectangle 823" width="2.309" height="2.309" transform="translate(26.551 28.906)" fill="#333"/>
        <rect id="Rectangle_824" data-name="Rectangle 824" width="2.309" height="2.309" transform="translate(17.316 33.523)" fill="#333"/>
        <rect id="Rectangle_825" data-name="Rectangle 825" width="2.309" height="2.309" transform="translate(21.933 33.523)" fill="#333"/>
        <rect id="Rectangle_826" data-name="Rectangle 826" width="2.309" height="2.309" transform="translate(26.551 33.523)" fill="#333"/>
        <rect id="Rectangle_827" data-name="Rectangle 827" width="2.309" height="2.309" transform="translate(17.316 38.141)" fill="#333"/>
        <rect id="Rectangle_828" data-name="Rectangle 828" width="2.309" height="2.309" transform="translate(21.933 38.141)" fill="#333"/>
        <rect id="Rectangle_829" data-name="Rectangle 829" width="2.309" height="2.309" transform="translate(26.551 38.141)" fill="#333"/>
        <rect id="Rectangle_830" data-name="Rectangle 830" width="2.309" height="2.309" transform="translate(17.316 42.758)" fill="#333"/>
        <rect id="Rectangle_831" data-name="Rectangle 831" width="2.309" height="2.309" transform="translate(21.933 42.758)" fill="#333"/>
        <rect id="Rectangle_832" data-name="Rectangle 832" width="2.309" height="2.309" transform="translate(26.551 42.758)" fill="#333"/>
        <rect id="Rectangle_833" data-name="Rectangle 833" width="2.309" height="2.309" transform="translate(17.316 47.376)" fill="#333"/>
        <rect id="Rectangle_834" data-name="Rectangle 834" width="2.309" height="2.309" transform="translate(21.933 47.376)" fill="#333"/>
        <rect id="Rectangle_835" data-name="Rectangle 835" width="2.309" height="2.309" transform="translate(26.551 47.376)" fill="#333"/>
        <rect id="Rectangle_836" data-name="Rectangle 836" width="2.309" height="2.309" transform="translate(17.316 51.993)" fill="#333"/>
        <rect id="Rectangle_837" data-name="Rectangle 837" width="2.309" height="2.309" transform="translate(21.933 51.993)" fill="#333"/>
        <rect id="Rectangle_838" data-name="Rectangle 838" width="2.309" height="2.309" transform="translate(26.551 51.993)" fill="#333"/>
      </g>
    </g>
  </g>
</svg>
