<svg xmlns="http://www.w3.org/2000/svg" width="48.543" height="41.195" viewBox="0 0 48.543 41.195">
  <g id="_61760641582955608" data-name="61760641582955608" transform="translate(-2.559 -11.863)">
    <path id="Path_5277" data-name="Path 5277" d="M64.1,80.268c-3.367-1.679-10.757-4.159-10.757-4.159h-.625l-2.022,2.7,1.9,13.116H66.717a78.2,78.2,0,0,0-.679-9.047A3.6,3.6,0,0,0,64.1,80.268Z" transform="translate(-29.121 -38.866)" fill="#01458e"/>
    <path id="Path_5278" data-name="Path 5278" d="M41.771,36.122l1.018-5.245a7.021,7.021,0,0,0-6.956-7.967H34.623a7.021,7.021,0,0,0-6.956,7.968l1.018,5.245a6.666,6.666,0,0,0,13.086,0Z" transform="translate(-15.15 -6.683)" fill="#01458e"/>
    <path id="Path_5279" data-name="Path 5279" d="M15.931,76.109s-7.39,2.48-10.757,4.159a3.6,3.6,0,0,0-1.936,2.608,78.2,78.2,0,0,0-.679,9.047H16.683l1.9-13.116-2.022-2.7Z" transform="translate(0 -38.866)" fill="#01458e"/>
    <path id="Path_5280" data-name="Path 5280" d="M95.107,20.23a9.734,9.734,0,1,0-19.274,2.734,9.587,9.587,0,0,0,.295,1.367,9.8,9.8,0,0,0,1.219,2.418c0,.077.01.155.01.231a4.485,4.485,0,0,1-1.8,3.7.233.233,0,0,0,.1.417,6.937,6.937,0,0,0,4.873-1.113c.044-.029.087-.059.13-.089l.035-.026a11.507,11.507,0,0,0,3.572,1.39A9.741,9.741,0,0,0,95.107,20.23Z" transform="translate(-44.101 0)" fill="#63ab3b"/>
  </g>
</svg>
