<svg xmlns="http://www.w3.org/2000/svg" width="99.368" height="89.985" viewBox="0 0 99.368 89.985">
  <g id="Group_1340" data-name="Group 1340" transform="translate(-554 -1231)">
    <path id="Path_5153" data-name="Path 5153" d="M50.09,14.09c26.323-6.151,49.278,2.3,49.278,29.964S77.754,102.173,50.09,102.173,0,71.718,0,44.054,23.767,20.241,50.09,14.09Z" transform="translate(554 1218.812)" fill="#f6f5f5" opacity="0.44"/>
    <g id="_61760641582955608" data-name="61760641582955608" transform="translate(569.441 1237.137)">
      <path id="Path_5277" data-name="Path 5277" d="M68.021,81.485c-4.352-2.169-13.9-5.375-13.9-5.375H53.31L50.7,79.6l2.45,16.951H71.4a101.074,101.074,0,0,0-.878-11.692A4.648,4.648,0,0,0,68.021,81.485Z" transform="translate(-23.56 -31.444)" fill="#0a1735"/>
      <path id="Path_5278" data-name="Path 5278" d="M45.914,39.985l1.315-6.779a9.075,9.075,0,0,0-8.99-10.3H36.676a9.075,9.075,0,0,0-8.99,10.3L29,39.985a8.615,8.615,0,0,0,16.913,0Z" transform="translate(-12.257 -5.406)" fill="#0a1735"/>
      <path id="Path_5279" data-name="Path 5279" d="M19.842,76.109s-9.551,3.206-13.9,5.375a4.648,4.648,0,0,0-2.5,3.371,101.072,101.072,0,0,0-.878,11.692H20.813L23.263,79.6,20.65,76.109Z" transform="translate(0 -31.444)" fill="#0a1735"/>
      <path id="Path_5280" data-name="Path 5280" d="M100.852,22.677a12.58,12.58,0,1,0-24.911,3.534,12.39,12.39,0,0,0,.381,1.766A12.668,12.668,0,0,0,77.9,31.1c.006.1.012.2.013.3a5.8,5.8,0,0,1-2.331,4.781.3.3,0,0,0,.134.539,8.966,8.966,0,0,0,6.3-1.439c.057-.037.113-.076.168-.115l.046-.033a14.872,14.872,0,0,0,4.617,1.8,12.589,12.589,0,0,0,14.008-14.254Z" transform="translate(-35.679)" fill="#01a449"/>
    </g>
  </g>
</svg>
