<svg xmlns="http://www.w3.org/2000/svg" width="121" height="97" viewBox="0 0 121 97">
  <g id="Group_1348" data-name="Group 1348" transform="translate(-407 -983)">
    <rect id="Rectangle_775" data-name="Rectangle 775" width="121" height="97" rx="5" transform="translate(407 983)" fill="#63ab3b"/>
    <g id="id-card-svgrepo-com_1_" data-name="id-card-svgrepo-com (1)" transform="translate(429.984 996)">
      <path id="Path_2590" data-name="Path 2590" d="M71.5,62.819H4.2A4.2,4.2,0,0,1,0,58.62V12.2A4.2,4.2,0,0,1,4.2,8H71.5a4.2,4.2,0,0,1,4.2,4.2V58.62A4.2,4.2,0,0,1,71.5,62.819Z" transform="translate(0.039)" fill="#e7eced"/>
      <rect id="Rectangle_776" data-name="Rectangle 776" width="26.349" height="26.349" transform="translate(42.831 30.469)" fill="#01458e"/>
      <path id="Path_2591" data-name="Path 2591" d="M51.085,46.193l-3.277-1.675a.668.668,0,0,1-.365-.6v-1a5.5,5.5,0,0,0,3.119-3.893,1.74,1.74,0,0,0,1.231-1.655V36.5a1.738,1.738,0,0,0-.937-1.534c-.384-3.272-2.546-4.6-6.024-4.6-.164,0-.326.007-.484.02a5.222,5.222,0,0,1-3.36-.791,4.378,4.378,0,0,1-.995-.874.174.174,0,0,0-.311.127c.035.3.086.659.163,1.048.287,1.445.116,1.233-.442,2.6a8.984,8.984,0,0,0-.6,2.476,1.739,1.739,0,0,0-.932,1.531v.871A1.741,1.741,0,0,0,39.1,39.03a5.5,5.5,0,0,0,3.119,3.893v1a.67.67,0,0,1-.373.6l-3.36,1.655A2.854,2.854,0,0,0,37,48.681v1.154a.393.393,0,0,0,.037.158H52.627a.458.458,0,0,0,.035-.162V48.747A2.856,2.856,0,0,0,51.085,46.193Z" transform="translate(11.332 6.305)" fill="#fff"/>
      <rect id="Rectangle_777" data-name="Rectangle 777" width="75.752" height="10.704" transform="translate(0.015 14.001)" fill="#4e4e4d"/>
      <g id="Group_120" data-name="Group 120" transform="translate(5.26 31.494)">
        <path id="Path_2592" data-name="Path 2592" d="M17.052,26H5.305a1.305,1.305,0,1,0,0,2.61H17.052a1.305,1.305,0,1,0,0-2.61Z" transform="translate(-4 -26)" fill="#afb6bb"/>
        <path id="Path_2593" data-name="Path 2593" d="M31.357,27.305A1.3,1.3,0,0,0,30.052,26H18.305a1.305,1.305,0,1,0,0,2.61H30.052A1.3,1.3,0,0,0,31.357,27.305Z" transform="translate(-0.032 -26)" fill="#afb6bb"/>
        <path id="Path_2594" data-name="Path 2594" d="M6.61,31H5.305a1.305,1.305,0,0,0,0,2.61H6.61a1.305,1.305,0,0,0,0-2.61Z" transform="translate(-4 -24.474)" fill="#afb6bb"/>
        <path id="Path_2595" data-name="Path 2595" d="M12.916,31h-2.61a1.305,1.305,0,0,0,0,2.61h2.61a1.305,1.305,0,0,0,0-2.61Z" transform="translate(-2.474 -24.474)" fill="#afb6bb"/>
        <path id="Path_2596" data-name="Path 2596" d="M17.61,31H16.305a1.305,1.305,0,1,0,0,2.61H17.61a1.305,1.305,0,0,0,0-2.61Z" transform="translate(-0.643 -24.474)" fill="#afb6bb"/>
        <path id="Path_2597" data-name="Path 2597" d="M23.916,31h-2.61a1.305,1.305,0,0,0,0,2.61h2.61a1.305,1.305,0,1,0,0-2.61Z" transform="translate(0.884 -24.474)" fill="#afb6bb"/>
        <path id="Path_2598" data-name="Path 2598" d="M26.379,31.375a1.324,1.324,0,0,0,0,1.853,1.311,1.311,0,1,0,0-1.853Z" transform="translate(2.715 -24.47)" fill="#afb6bb"/>
      </g>
      <g id="Group_121" data-name="Group 121" transform="translate(5.867 44.908)">
        <path id="Path_2599" data-name="Path 2599" d="M12.539,36.437c-2.86,1.488-3.822,4.333-4.171,7.286q-.811-.677-1.62-1.357c-1.28-1.073-3.138.764-1.846,1.846L8.565,47.28a1.319,1.319,0,0,0,2.228-.923c.1-2.828.231-6.191,3.065-7.666C15.351,37.915,14.031,35.662,12.539,36.437Z" transform="translate(-4.465 -36.277)" fill="#7383bf"/>
        <path id="Path_2600" data-name="Path 2600" d="M30.22,40.966A2.871,2.871,0,0,0,28.09,39.5c-1.9-.144-5.166,2.578-6.516.172a1.314,1.314,0,0,0-1.786-.469c-1.848,1.134-4.264,2.766-6.208.653-1.142-1.241-2.984.61-1.846,1.846,2.442,2.654,5.592,1.84,8.363.338a5.36,5.36,0,0,0,2.215,1.393c1.186.428,5.334-1.592,5.656-1.153C28.948,43.629,31.215,42.329,30.22,40.966Z" transform="translate(-2.355 -35.438)" fill="#7383bf"/>
      </g>
    </g>
  </g>
</svg>
