<svg version="1.1" id="Layer_1" xmlns="http://www.w3.org/2000/svg" x="0" y="0" viewBox="0 0 1080 1080" style="enable-background:new 0 0 1080 1080" xml:space="preserve"><style>.st0{fill:#fedfc6}.st3{fill:#172b75}.st4{fill:#c1edd6}.st5{fill:#fbb59c}</style><g id="NrxbNq.tif"><path class="st0" d="M868.9 557.5c0-51.1-.1-102.1 0-153.2 0-20.9 13.5-36.1 32.6-37 20-1 35 13 36.6 34.1.9 11.8 6.8 17.6 18.6 17.8 19.4.2 38.9.9 58.2-.2 21.2-1.2 36.1 6.4 44.3 26.2v19.5c-10.1 19-26 25.5-47.2 24.1-20.4-1.4-40.9.1-61.4-.5-9.5-.3-13.3 1.9-12.8 12.3.9 19 .2 38 .2 57.1-10.1 4.9-59 4.9-69.1-.2z"/><path d="M936.2 23.9c-.1-.9-.2-1.9-.3-2.8 38.9 0 77.9.1 116.8-.1 5.4 0 6.7 1.2 6.6 6.6-.3 27.4-.1 54.8-.1 82.2-.5 0-1 0-1.6.1-22.4 1.5-44.9.7-67.3.8-19.6.1-19.8-.2-26.9-17.9-9.1-22.9-18.5-45.8-27.2-68.9z" style="fill:#fefefe"/><path d="M868.9 557.5H938c1.8 0 3.6.3 5.4 0 9.4-1.5 12.3 2 12.2 11.8-.5 55.9.9 111.7-.5 167.6-1.6 64.3-51 120.3-115.4 130.3-13.7 2.1-27.2 1.6-40.8 1.9-18.7.4-16.4-2-16.4 17-.1 53.7-.3 107.4.2 161.1.1 10.2-3 12.5-12.7 12.5-153.2-.3-306.3-.3-459.5 0-9.7 0-12.9-2.3-12.8-12.5.5-54.4.2-108.8.2-163.2 0-14.8 0-15.2-15.3-14.7-28 .9-55.3-1.2-80.7-14.6-49.9-26.3-76-67.8-76.9-124.1-.8-51.9-.2-103.8-.1-155.7 0-20.2-2-16.7 17.3-17.2.9-.6 1.6-1.6 2.7-1.7 21.3-2.7 42.5-2.7 63.8 0 1.1.1 1.8 1.1 2.7 1.7 1.4 0 2.9.2 4.3 0 10.2-1.7 13.4 2.2 13.3 12.8-.5 52.5-.3 105-.2 157.6 0 23.7 13.7 37.3 37.7 37.3 67.6.1 135.2.3 202.9.4.1 5.3-4.3 7.1-7.6 9.7-15.4 11.8-31 23.6-46.7 35-6.7 4.8-7.2 8.6-1.2 14.4 16.8 16.3 33.3 32.9 49.6 49.7 5.6 5.7 9.5 5.7 15.1-.1 16.3-16.8 33-33.2 49.6-49.7 3-3 5.8-6.5 9.7-8.5 1.5-.5 3-.5 4.6 0 19.5 16.6 36.4 35.8 54.8 53.5 2.3 2.2 4.6 4.5 6.9 6.9 3.4 3.5 6.8 3.6 10.3.1 18.2-18 36.3-36.1 54.2-54.3 5-5 1.6-8.1-2.5-11.2-15.8-12-31.8-23.7-47.5-35.7-3.3-2.5-7.7-4.4-7.6-9.7 67.3-.1 134.5-.2 201.8-.4 25.5 0 38.8-13.2 38.8-38.4V575c-.1-20.5-2.1-17 17.2-17.5z" style="fill:#01A54F"/><path class="st0" d="M695.8 574.8c-1.9 8.2-3.6 16.6-5.9 24.7-12 42.2-37.8 73.4-75.6 95-1.8 1-3.4 2.5-5.2 3.7-2.5 3.2-5.9 5.1-9.6 6.6-39.6 15.4-79.3 15.4-118.9 0-3.8-1.5-7.1-3.4-9.6-6.6-21.3-12.9-40.9-27.5-55.8-47.9-15.7-21.5-26.4-45-28.9-71.8-.1-1.3-1.3-2.4-1.9-3.7-3.4-3.8-3.4-8.6-3.4-13.2 0-29-.3-58.1.1-87.1.5-6.1.7-12.2.4-18.3-.9-25.7 9.2-47.1 26.3-65.3 14.5-15.5 29.7-30.3 45-45.1 22.6-21.9 48.2-21.9 70.8-.1 16 15.5 31.6 31.6 47.4 47.3 14.6 14.4 21.7 15.1 38.7 4 14.6-9.5 26.6-9.2 40.8 1.3 8.7 6.4 17.1 13.2 26 19.4 15.6 10.9 24.7 24.9 22.3 44.7-.5 3.9-.1 7.9.3 11.9.4 28.7.2 57.5.2 86.2-.1 5 .2 10.2-3.5 14.3z"/><path class="st3" d="M696 470.8c-.1-5.8-.4-11.5-.1-17.3.5-9.7-2.8-18.1-10-24-14.2-11.6-28.4-23.2-43.7-33.3-10.1-6.7-21.3-4.3-31.2 3.1-16.2 12.2-26.2 11.5-40.5-2.7-16.3-16.3-32.5-32.7-48.9-48.9-21.2-21-45.4-21.1-66.5-.2-10.2 10.1-19.8 21-30.7 30.4-28.4 24.6-44.3 54.3-40.2 92.9-11.5 5.5-23 5.5-34.5.2-5.3-37.8-10.3-75.6-15.9-113.3-11.2-74.5 44.5-150.2 119-161.4 26.5-4 53.2-1.9 79.8-1.9 13.5 0 23 10.1 24.8 24 2.6 20 11.1 27.3 31.3 27.7 18 .3 35.9-.9 53.9 1.8C708.7 258 756.9 323.2 746 389.4c-4.5 27.3-10.3 54.4-15.5 81.6-11.5 5.3-23 5.3-34.5-.2z"/><path class="st4" d="M142.1 111.3c10.6 26.6 20.6 50 29.3 73.9 3.5 9.5 8 13.2 18.5 12.8 23.2-.9 46.5-.3 69.8-.3l2.1 3c-5 4.4-10.2 8.5-15 13.1-15.6 15.4-30.9 31.2-46.8 46.4-4.9 4.7-5.7 8.7-3.1 14.9 9.2 21.9 17.9 44 26.6 66 1.1 2.8 3.7 5.5 1.5 10.1-18.8-11.2-38.8-20.7-55.9-33.9-19.5-15.1-35.4-15-54.6.2-15.4 12.1-33.7 20.7-50.7 30.8-2.1 1.2-3.9 3.3-7.4 2.3 10.2-25.3 20.1-50.5 30.5-75.5 2.6-6.2 2-10.1-2.9-14.9-20.4-19.7-40.4-40-60.5-59.9 2.2-4.2 5.4-2.5 7.9-2.5 22-.2 43.9-.5 65.9.1 7.8.2 11.3-2.5 14-9.7 9.6-24.8 19.8-49.4 30.8-76.9zM936.2 23.9c5.4-.2 4.8 4.8 5.9 7.6 9.3 22.6 18.6 45.1 27.2 68 2.5 6.6 6 8.4 12.7 8.3 21.6-.4 43.1-.2 64.7-.1 3.7 0 8-1.7 11 2.2-21.3 21-42.5 42.1-64 62.8-4.3 4.2-2.3 7.7-.8 11.6 8.9 22.4 18 44.8 26.9 67.1 1 2.6 1.8 5.3 3.8 11.2-7.1-4.1-11.8-6.8-16.4-9.6-21-12.6-42.1-25-63-37.9-4.7-2.9-7.9-2.7-12.5.1-23.6 14.5-47.5 28.6-71.3 42.8-2.1 1.3-4.3 2.3-8.5 4.4 10.5-26.3 19.9-50.8 30.2-74.9 3.5-8.2 2.5-13.2-4-19.4-17.5-16.6-34.4-33.9-51.4-51.1-2.4-2.4-5.7-4.3-6.9-9.4 24.7 0 49.1-.3 73.4.2 7.6.1 11.4-2 14.2-9.5 9.2-24.9 19.1-49.6 28.8-74.4z"/><path class="st0" d="M211.3 557.5h-69.1c0-19.8-.3-39.6.1-59.4.2-7.4-2-10.1-9.7-9.9-24.8.4-49.7.2-74.5.1-21.8-.1-37.1-14.5-37-34.8.1-20.2 15.5-34.3 37.5-34.4 21.2 0 42.5.1 63.7 0 13.3-.1 18.9-5.5 19.9-18.6 1.5-20.2 16.8-34.1 36.4-33.3 18.8.8 32.7 15.9 32.8 35.8 0 51.5-.1 103-.1 154.5z"/><path class="st5" d="M471 698.2c21.5 8 43.1 14.7 66.4 15.2 25.2.5 48.7-6.4 71.8-15.2 0 22.3.1 44.6.1 67-.4 3.1-2.6 5.1-4.8 6.8-19.1 14.4-38.2 28.8-57.4 43-1.7 1.3-3.6 2.4-5.9 2.1H539c-1.9.2-3.5-.4-5-1.5-19.8-14.6-39.5-29.4-59.1-44.3-2-1.5-3.7-3.4-4-6.1 0-22.3 0-44.6.1-67z"/><path class="st3" d="m470.9 765.2 68.1 51.9c-21.1 21.2-42.2 42.4-63.1 63.8-3.5 3.6-6.1 3.9-9.8.2-19.5-19.7-39.1-39.4-58.9-58.9-5.4-5.3-2.1-7.7 2-10.8 20.1-15.2 40-30.5 60.1-45.8.5-.1 1-.2 1.6-.4zM541.2 817.1l68.1-51.9c.5.2 1.1.3 1.7.3 19.6 15 39.1 30.3 59 44.9 6.7 4.9 7.2 7.9 1.1 13.8-18.9 18.2-37.3 36.9-55.7 55.5-3.8 3.8-6.6 5.8-11.3.9-20.8-21.3-41.9-42.4-62.9-63.5z"/><path class="st5" d="M349.6 471c11.5-.1 23-.1 34.5-.2.1 34.7.1 69.3.2 104-10.8 0-21.6.1-32.4 0-29.7-.1-53.5-22.3-54.1-50.2-.5-29.2 21.7-52.3 51.8-53.6zM696 470.8c11.5.1 23 .1 34.6.2 30.1 1.3 52.3 24.4 51.7 53.6-.6 27.9-24.4 50.1-54.1 50.2h-32.4c.1-34.7.2-69.3.2-104z"/></g></svg>
