<svg xmlns="http://www.w3.org/2000/svg" width="29.962" height="29.963"><path d="M262.637 14.889A14.908 14.908 0 0 0 247.748 0v2.835A12.069 12.069 0 0 1 259.8 14.889Zm-8.153 0h2.835a9.584 9.584 0 0 0-9.571-9.571v2.835a6.731 6.731 0 0 1 6.735 6.735Z" transform="translate(-232.674)" style="fill:#1f276c"/><path d="M.826 57.59a10.466 10.466 0 0 1-.8-4.442 3.63 3.63 0 0 1 1.132-2.44c.761-.718 1.479-1.472 2.227-2.2a2.107 2.107 0 0 1 3.17 0c.6.59 1.2 1.193 1.795 1.795.578.578 1.162 1.156 1.74 1.74a2.113 2.113 0 0 1 .01 3.247c-.73.73-1.454 1.466-2.2 2.184a.446.446 0 0 0-.11.584 13.045 13.045 0 0 0 1.984 3.182 22.789 22.789 0 0 0 5.543 5.044c.462.286.967.5 1.448.761a.443.443 0 0 0 .615-.116c.724-.748 1.466-1.485 2.209-2.221a2.092 2.092 0 0 1 3.164 0q1.789 1.771 3.559 3.559a2.115 2.115 0 0 1-.012 3.225c-.675.681-1.387 1.326-2.02 2.038a4.01 4.01 0 0 1-3.419 1.3 14.207 14.207 0 0 1-5.439-1.582 29.6 29.6 0 0 1-9.814-7.679A27.058 27.058 0 0 1 .826 57.59Z" transform="translate(-.008 -44.88)" style="fill:#01a54f"/></svg>
