<svg version="1.1" id="Layer_1" xmlns="http://www.w3.org/2000/svg" x="0" y="0" viewBox="0 0 1080 1080" style="enable-background:new 0 0 1080 1080" xml:space="preserve"><style>.st1{fill:#27306a}.st2{fill:#272f6a}</style><path id="Path_98_5_" d="M817.16 334.66c0 168.47-136.65 305.65-305.65 305.65S205.87 503.65 205.87 334.66 342.52 29.01 511.51 29.01s305.65 137.18 305.65 305.65z" style="fill:#01A54F"/><path id="Path_98_1_" class="st1" d="M1080 135.28c0 74.57-60.48 135.28-135.28 135.28s-135.28-60.48-135.28-135.28S869.92 0 944.72 0 1080 60.71 1080 135.28z"/><path id="Path_99_6_" class="st2" d="M516.23 187.83c12 0 22.43 9.91 22.43 22.43v247.88c0 12-9.91 22.43-22.95 22.43-12 0-22.43-9.91-22.43-22.43V210.26c.52-12.52 10.43-22.43 22.95-22.43z"/><path id="Path_100_8_" class="st2" d="M441.73 354.19c10.1-6.48 24.23-3.77 30.99 6.77l55.19 86.05c6.48 10.1 3.77 24.23-6.77 30.99-10.1 6.48-24.23 3.77-30.99-6.77l-55.19-86.05c-6.76-10.54-3.32-24.52 6.77-30.99z"/><path id="Path_100_7_" class="st2" d="M501.91 478c10.1 6.48 24.23 3.77 30.99-6.77l55.19-86.05c6.48-10.1 3.77-24.23-6.77-30.99-10.1-6.48-24.23-3.77-30.99 6.77l-55.19 86.05c-6.76 10.54-3.33 24.51 6.77 30.99z"/><g id="Group_133_2_" transform="translate(59.812 58.716)"><g id="Group_132_2_"><path id="Path_55_5_" class="st1" d="M115.89 689.37h-142.6c-18.68 0-33.62 14.94-33.62 33.62v264.66c0 18.68 14.94 33.62 33.62 33.62H81.64l67.88-33.62V723.62c0-19.31-15.56-34.25-33.63-34.25z"/><g id="Group_131_5_" transform="translate(7.468)"><path id="Path_56_5_" d="M1003.07 686.88c-63.52-62.89-165.64-62.89-229.16 0l-101.5 101.5-41.73 41.73c-16.82 16.82-38.61 26.16-62.27 26.16H322.44c-18.68 0-33.62-13.7-34.25-32.38-.62-18.68 13.08-34.25 31.76-35.5h239.11c53.55 0 97.14-42.35 98.39-95.28v-2.49c0-18.68-14.94-33.62-33.62-33.62H511.74c-36.74 0-71.61-16.82-109.59-34.25-39.23-21.79-82.2-35.5-126.41-40.47-41.1-2.49-83.45 1.86-122.67 13.08-46.09 12.45-79.08 55.43-79.08 103.37v322.56h580.37c39.23 0 77.22-14.94 105.24-43.59l242.24-242.24c14.3-13.71 14.3-34.89 1.23-48.58z" style="fill:#f8bf9d"/></g></g></g></svg>
