<svg xmlns="http://www.w3.org/2000/svg" width="88.095" height="74" viewBox="0 0 88.095 74">
  <g id="id-card-business-svgrepo-com" transform="translate(0 -32)">
    <path id="Path_4511" data-name="Path 4511" d="M60.857,104H85.524a7.068,7.068,0,0,1,7.048,7.048v42.286a7.068,7.068,0,0,1-7.048,7.048H15.048A7.068,7.068,0,0,1,8,153.333V111.048A7.068,7.068,0,0,1,15.048,104H39.714" transform="translate(-6.238 -56.143)" fill="#01458e"/>
    <path id="Path_4512" data-name="Path 4512" d="M79.286,155.9H8.81A8.835,8.835,0,0,1,0,147.1V104.81A8.835,8.835,0,0,1,8.81,96H33.476a1.762,1.762,0,1,1,0,3.524H8.81a5.3,5.3,0,0,0-5.286,5.286V147.1a5.3,5.3,0,0,0,5.286,5.286H79.286a5.3,5.3,0,0,0,5.286-5.286V104.81a5.3,5.3,0,0,0-5.286-5.286H54.619a1.762,1.762,0,1,1,0-3.524H79.286a8.835,8.835,0,0,1,8.81,8.81V147.1A8.835,8.835,0,0,1,79.286,155.9Z" transform="translate(0 -49.905)" fill="#61a1dd"/>
    <path id="Path_4513" data-name="Path 4513" d="M65.236,230.8c4.581,1.145,7.929,2.379,9.426,7.312l1.5,5.374a1.268,1.268,0,0,1-1.233,1.674H45.415a1.268,1.268,0,0,1-1.233-1.674l1.5-5.374c1.5-4.933,4.845-6.255,9.426-7.312" transform="translate(-34.403 -155.017)" fill="#80d440"/>
    <path id="Path_4514" data-name="Path 4514" d="M68.722,240.564H39.21a3.087,3.087,0,0,1-2.467-1.233,3.009,3.009,0,0,1-.44-2.731l1.5-5.374c1.85-6.079,6.079-7.488,10.748-8.545a1.763,1.763,0,0,1,.793,3.436c-4.581,1.057-6.96,2.2-8.1,6.079l-1.41,4.845H68.105L66.784,232.2c-1.145-3.788-3.348-4.845-8.193-6.079a1.763,1.763,0,0,1,.793-3.436c4.757,1.233,8.9,2.643,10.66,8.545l1.5,5.374a3.35,3.35,0,0,1-.44,2.731A2.809,2.809,0,0,1,68.722,240.564Zm-.44-2.907Zm-28.631-.088Z" transform="translate(-28.198 -148.66)" fill="#6ea62b"/>
    <path id="Path_4515" data-name="Path 4515" d="M171.557,54.271l-6.255,7.84a3.483,3.483,0,0,1-5.462,0l-6.255-7.84a7.278,7.278,0,0,1-1.586-4.4V43.524A3.534,3.534,0,0,1,155.524,40h14.1a3.534,3.534,0,0,1,3.524,3.524v6.343A6.767,6.767,0,0,1,171.557,54.271Z" transform="translate(-118.524 -6.238)" fill="#fff"/>
    <g id="Group_255" data-name="Group 255" transform="translate(31.714 32)">
      <path id="Path_4516" data-name="Path 4516" d="M156.333,58.957a5.255,5.255,0,0,1-4.14-2.026l-6.255-7.84A9.183,9.183,0,0,1,144,43.629V37.286A5.3,5.3,0,0,1,149.286,32h14.1a5.3,5.3,0,0,1,5.286,5.286v6.343a8.446,8.446,0,0,1-2.026,5.55l-6.255,7.84A5.137,5.137,0,0,1,156.333,58.957Zm-7.048-23.433a1.767,1.767,0,0,0-1.762,1.762v6.343a5.419,5.419,0,0,0,1.233,3.348l6.255,7.84a1.724,1.724,0,0,0,2.643,0l6.255-7.84v-.088a4.762,4.762,0,0,0,1.145-3.26V37.286a1.767,1.767,0,0,0-1.762-1.762Z" transform="translate(-144 -32)" fill="#61a1dd"/>
      <path id="Path_4517" data-name="Path 4517" d="M187.048,67.524h-5.286a1.762,1.762,0,0,1,0-3.524h5.286a1.762,1.762,0,0,1,0,3.524Z" transform="translate(-172.071 -56.952)" fill="#61a1dd"/>
    </g>
    <g id="Group_256" data-name="Group 256" transform="translate(45.81 67.238)">
      <path id="Path_4518" data-name="Path 4518" d="M237.952,195.524h-28.19a1.762,1.762,0,0,1,0-3.524h28.19a1.762,1.762,0,0,1,0,3.524Z" transform="translate(-208 -192)" fill="#6ea62b"/>
      <path id="Path_4519" data-name="Path 4519" d="M221.214,227.524H209.762a1.762,1.762,0,1,1,0-3.524h11.452a1.762,1.762,0,1,1,0,3.524Z" transform="translate(-208 -216.952)" fill="#6ea62b"/>
      <path id="Path_4520" data-name="Path 4520" d="M300.4,227.524h-2.643a1.762,1.762,0,1,1,0-3.524H300.4a1.762,1.762,0,1,1,0,3.524Z" transform="translate(-276.619 -216.952)" fill="#6ea62b"/>
    </g>
    <path id="Path_4521" data-name="Path 4521" d="M93.619,160.81c0,4.845-3.964,10.571-8.81,10.571S76,165.655,76,160.81a8.81,8.81,0,0,1,17.619,0Z" transform="translate(-59.262 -93.571)" fill="#f5e6c6"/>
    <path id="Path_4522" data-name="Path 4522" d="M78.571,166.9C72.581,166.9,68,160.3,68,154.571a10.571,10.571,0,1,1,21.143,0C89.143,160.3,84.562,166.9,78.571,166.9Zm0-19.381a7.068,7.068,0,0,0-7.048,7.048c0,3.964,3.26,8.81,7.048,8.81s7.048-4.845,7.048-8.81A7.068,7.068,0,0,0,78.571,147.524Z" transform="translate(-53.024 -87.333)" fill="#61a1dd"/>
  </g>
</svg>
