<svg xmlns="http://www.w3.org/2000/svg" width="32" height="40" viewBox="0 0 32 40">
  <g id="privacy-svgrepo-com" transform="translate(-8 -4)">
    <path id="Path_219" data-name="Path 219" d="M24,4A10.029,10.029,0,0,0,14,14v4h4V14a6,6,0,0,1,12,0v4h4V14A10.029,10.029,0,0,0,24,4Z" fill="#424242"/>
    <path id="Path_220" data-name="Path 220" d="M36,44H12a4.012,4.012,0,0,1-4-4V22a4.012,4.012,0,0,1,4-4H36a4.012,4.012,0,0,1,4,4V40A4.012,4.012,0,0,1,36,44Z" fill="#fb8c00"/>
    <circle id="Ellipse_25" data-name="Ellipse 25" cx="6" cy="6" r="6" transform="translate(18 25)" fill="#efebe9"/>
    <circle id="Ellipse_26" data-name="Ellipse 26" cx="3" cy="3" r="3" transform="translate(21 28)" fill="#1e88e5"/>
    <circle id="Ellipse_27" data-name="Ellipse 27" cx="1" cy="1" r="1" transform="translate(25 28)" fill="#fff"/>
  </g>
</svg>
