<svg xmlns="http://www.w3.org/2000/svg" width="49.5" height="54.001" viewBox="0 0 49.5 54.001">
  <g id="_1837669441605802265" data-name="1837669441605802265" transform="translate(-21.34 0.001)">
    <path id="Path_4539" data-name="Path 4539" d="M42.67,25.839V46.09s0,18,22.5,24.75c22.5-6.749,22.5-24.75,22.5-24.75V25.839l-22.5-4.5Z" transform="translate(-19.08 -19.091)" fill="#01458e"/>
    <path id="Path_4540" data-name="Path 4540" d="M46.09,54a2.271,2.271,0,0,1-.647-.095C21.621,46.756,21.34,27.2,21.34,27V6.749a2.25,2.25,0,0,1,1.809-2.205l22.5-4.5a2.209,2.209,0,0,1,.882,0l22.5,4.5A2.25,2.25,0,0,1,70.84,6.749V27c0,.2-.275,19.757-24.1,26.906A2.27,2.27,0,0,1,46.09,54ZM25.839,8.594V27c.005.653.368,16.105,20.25,22.4C65.972,43.1,66.335,27.652,66.34,26.99V8.594L46.09,4.545Z" transform="translate(0 0)" fill="#63ab3b"/>
    <path id="Path_4541" data-name="Path 4541" d="M158.338,167.323a2.24,2.24,0,0,1-1.247-.378l-6.75-4.5a2.25,2.25,0,1,1,2.5-3.744l5.068,3.375,9.954-11.945a2.25,2.25,0,1,1,3.457,2.88l-11.251,13.5A2.248,2.248,0,0,1,158.338,167.323Z" transform="translate(-114.499 -133.574)" fill="#fff"/>
  </g>
</svg>
