<svg xmlns="http://www.w3.org/2000/svg" width="51.2" height="45" class="qp_svg"><defs><style>.qp_svg.a{fill:#162b75}</style></defs><path class="a" d="M33.066 7.559V2.996h1.49a1.5 1.5 0 0 0 0-3h-5.96a1.5 1.5 0 0 0 0 3h1.49v4.563a17.879 17.879 0 1 0 2.973 0Z"/><path class="b" d="m1175.716 1846.141 1.5.1v.463a18 18 0 1 0 2.994 0v-.463l1.5-.1" transform="translate(-1147.016 -1839.141)" style="fill:#fff"/><path class="c" d="m1308.156 1926.581-6.011 6.011a4.449 4.449 0 0 0-1.928-.451 4.5 4.5 0 1 0 4.5 4.5 4.446 4.446 0 0 0-.451-1.928l6.011-6.012a1.5 1.5 0 1 0-2.121-2.121Z" transform="translate(-1268.516 -1911.141)" style="fill:#01a54f"/><path class="d" d="M1165.216 1836.141a19.5 19.5 0 1 0 19.5 19.5 19.522 19.522 0 0 0-19.5-19.5Zm1.5 35.924v-1.424a1.5 1.5 0 1 0-3 0v1.424a16.518 16.518 0 0 1-14.924-14.924h1.424a1.5 1.5 0 0 0 0-3h-1.424a16.474 16.474 0 0 1 14.924-14.857v1.357a1.5 1.5 0 1 0 3 0v-1.357a16.474 16.474 0 0 1 14.924 14.857h-1.424a1.5 1.5 0 0 0 0 3h1.424a16.519 16.519 0 0 1-14.924 14.924Z" transform="translate(-1133.516 -1830.141)" style="fill:#01a54f"/><path class="a" d="M1.5 9h12.2a1.5 1.5 0 0 0 0-3H1.5a1.5 1.5 0 0 0 0 3ZM10.7 15H1.5a1.5 1.5 0 0 0 0 3h9.2a1.5 1.5 0 1 0 0-3ZM4.7 24H1.5a1.5 1.5 0 1 0 0 3h3.2a1.5 1.5 0 1 0 0-3Z"/></svg>
