<svg xmlns="http://www.w3.org/2000/svg" width="69.635" height="69.635" viewBox="0 0 69.635 69.635">
  <g id="Group_1341" data-name="Group 1341" transform="translate(-1507.183 -980)">
    <circle id="Ellipse_193" data-name="Ellipse 193" cx="34.817" cy="34.817" r="34.817" transform="translate(1507.183 980)" fill="#e0e6ec"/>
    <g id="envelope-mail-svgrepo-com" transform="translate(1513.181 -40.36)">
      <g id="Group_204" data-name="Group 204" transform="translate(0 1020.36)">
        <path id="Path_3841" data-name="Path 3841" d="M28.819,1020.36a6.364,6.364,0,0,0-4.093,1.455l-5.625,4.72H16.355a2.991,2.991,0,0,0-2.975,2.975v1.721L2.207,1041.544A6.86,6.86,0,0,0,0,1046.585v22.6A8.824,8.824,0,0,0,8.809,1078h40.02a8.824,8.824,0,0,0,8.809-8.809v-22.6a6.86,6.86,0,0,0-2.207-5.042l-11.173-10.312v-1.721a2.992,2.992,0,0,0-2.975-2.975H38.537l-5.625-4.72a6.361,6.361,0,0,0-4.093-1.455Zm0,2.106a4.339,4.339,0,0,1,2.77.929l3.743,3.14H22.306l3.743-3.14a4.339,4.339,0,0,1,2.77-.929ZM13.38,1034.034v16.034l-10.457-6.224a4.848,4.848,0,0,1,.683-.788Zm30.878,0,9.778,9.022a4.769,4.769,0,0,1,.671.78l-10.449,6.223Zm-15.439.736a5.44,5.44,0,0,1,4.5,3.068,12.924,12.924,0,0,1,1.656,5.54,6.483,6.483,0,0,1-1.624,5,6.526,6.526,0,0,1-9.062,0,6.483,6.483,0,0,1-1.624-5,12.929,12.929,0,0,1,1.656-5.54A5.442,5.442,0,0,1,28.819,1034.77Zm26.672,10.992a4.779,4.779,0,0,1,.089.824v22.6a6.7,6.7,0,0,1-1.793,4.555l-17.509-16.536Zm-53.348.021,19.21,11.434-17.5,16.528a6.7,6.7,0,0,1-1.793-4.555v-22.6a4.767,4.767,0,0,1,.084-.8Zm32.3,12.523,17.714,16.729a6.7,6.7,0,0,1-3.325.9H8.809a6.7,6.7,0,0,1-3.325-.9l17.71-16.725,2.055,1.222a6.872,6.872,0,0,0,7.14,0Z" transform="translate(0 -1020.36)" fill="#01458e"/>
        <path id="Path_3842" data-name="Path 3842" d="M120.918,1084.359a.906.906,0,0,0-.917.917v21.783l10.871,6.469h.021a4.8,4.8,0,0,0,5,0l10.872-6.477v-21.775a.906.906,0,0,0-.917-.917H120.918Zm12.464,6.175a5.44,5.44,0,0,1,4.5,3.068,12.925,12.925,0,0,1,1.656,5.541,6.483,6.483,0,0,1-1.624,5,6.526,6.526,0,0,1-9.062,0,6.483,6.483,0,0,1-1.624-5,12.929,12.929,0,0,1,1.656-5.541A5.442,5.442,0,0,1,133.381,1090.535Z" transform="translate(-104.562 -1076.125)" fill="#63ab3b"/>
      </g>
      <path id="Path_3843" data-name="Path 3843" d="M182.178,1132.37a5.44,5.44,0,0,0-4.5,3.068,12.93,12.93,0,0,0-1.656,5.54,6.483,6.483,0,0,0,1.624,5,6.526,6.526,0,0,0,9.062,0,6.48,6.48,0,0,0,1.624-5,12.925,12.925,0,0,0-1.656-5.54,5.438,5.438,0,0,0-4.5-3.068Zm0,2.059a3.227,3.227,0,0,1,2.537,1.777l-5.834,1.459a8.856,8.856,0,0,1,.571-1.186C180.226,1135.164,181.156,1134.428,182.178,1134.428Zm3.45,3.674a11.8,11.8,0,0,1,.543,2.1L178.093,1142a6.881,6.881,0,0,1-.021-.884,10.821,10.821,0,0,1,.144-1.162Zm.615,4.193a3.918,3.918,0,0,1-1.021,2.264,4.482,4.482,0,0,1-6.083,0,3.658,3.658,0,0,1-.446-.583Z" transform="translate(-153.36 -97.599)" fill="#01458e"/>
    </g>
  </g>
</svg>
