<svg xmlns="http://www.w3.org/2000/svg" width="50.764" height="51.596" viewBox="0 0 50.764 51.596">
  <g id="_1614317561580282650" data-name="1614317561580282650" transform="translate(-0.5 -0.5)">
    <circle id="Ellipse_159" data-name="Ellipse 159" cx="12.483" cy="12.483" r="12.483" transform="translate(0.5 0.5)" fill="#63ab3b"/>
    <path id="Path_3203" data-name="Path 3203" d="M2.164,12.983A12.473,12.473,0,0,1,13.815.542C13.539.524,13.264.5,12.983.5a12.483,12.483,0,0,0,0,24.966c.281,0,.556-.024.832-.042A12.473,12.473,0,0,1,2.164,12.983Z" transform="translate(0 0)" fill="#7ac74f"/>
    <circle id="Ellipse_160" data-name="Ellipse 160" cx="9.154" cy="9.154" r="9.154" transform="translate(3.829 3.829)" fill="#fff"/>
    <path id="Path_3204" data-name="Path 3204" d="M4.164,11.654a9.151,9.151,0,0,1,8.32-9.112c-.273-.025-.549-.042-.83-.042a9.154,9.154,0,1,0,0,18.308c.281,0,.558-.017.832-.042A9.152,9.152,0,0,1,4.164,11.654Z" transform="translate(1.329 1.329)" fill="#e0e0e2"/>
    <path id="Path_3205" data-name="Path 3205" d="M12.577,11.242h-2.5a.832.832,0,0,1,0-1.664h2.5a.832.832,0,0,1,0,1.664ZM8.206,9.6a.832.832,0,0,1-.832-.832V5.2a.832.832,0,1,1,1.664,0V8.766a.832.832,0,0,1-.832.832Z" transform="translate(4.567 2.573)" fill="#3c3b41"/>
    <circle id="Ellipse_161" data-name="Ellipse 161" cx="1.664" cy="1.664" r="1.664" transform="translate(10.647 12.689) rotate(-37.84)" fill="#e5303e"/>
    <path id="Path_3206" data-name="Path 3206" d="M4.14,24.5H5.8a1.664,1.664,0,0,1,1.664,1.664v9.986H2.476V26.164A1.664,1.664,0,0,1,4.14,24.5Z" transform="translate(1.313 15.945)" fill="#01458e"/>
    <path id="Path_3207" data-name="Path 3207" d="M5.8,24.5H4.14a1.664,1.664,0,0,0-1.664,1.664v9.986H4.14V26.164A1.664,1.664,0,0,1,5.8,24.5Z" transform="translate(1.313 15.945)" fill="#01458e"/>
    <path id="Path_3208" data-name="Path 3208" d="M15.469,38.144H10.476V23.164A1.664,1.664,0,0,1,12.14,21.5H13.8a1.664,1.664,0,0,1,1.664,1.664Z" transform="translate(6.628 13.952)" fill="#01458e"/>
    <path id="Path_3209" data-name="Path 3209" d="M13.8,21.5H12.14a1.664,1.664,0,0,0-1.664,1.664V38.144H12.14V23.164A1.664,1.664,0,0,1,13.8,21.5Z" transform="translate(6.628 13.952)" fill="#01458e"/>
    <path id="Path_3210" data-name="Path 3210" d="M20.14,17.5H21.8a1.664,1.664,0,0,1,1.664,1.664V40.8H18.476V19.164A1.664,1.664,0,0,1,20.14,17.5Z" transform="translate(11.943 11.294)" fill="#01458e"/>
    <path id="Path_3211" data-name="Path 3211" d="M21.8,17.5H20.14a1.664,1.664,0,0,0-1.664,1.664V40.8H20.14V19.164A1.664,1.664,0,0,1,21.8,17.5Z" transform="translate(11.943 11.294)" fill="#125cab"/>
    <path id="Path_3212" data-name="Path 3212" d="M28.14,10.5H29.8a1.664,1.664,0,0,1,1.664,1.664V45.452H26.476V12.164A1.664,1.664,0,0,1,28.14,10.5Z" transform="translate(17.258 6.644)" fill="#3f6db4"/>
    <path id="Path_3213" data-name="Path 3213" d="M29.8,10.5H28.14a1.664,1.664,0,0,0-1.664,1.664V45.452H28.14V12.164A1.664,1.664,0,0,1,29.8,10.5Z" transform="translate(17.258 6.644)" fill="#1f53a4"/>
    <path id="Path_3214" data-name="Path 3214" d="M2.807,35.952a.832.832,0,0,1-.184-1.643,67.313,67.313,0,0,0,26.312-11.5A64.827,64.827,0,0,0,47.009,1.446a.832.832,0,0,1,1.474.774A66.522,66.522,0,0,1,29.941,24.132a68.925,68.925,0,0,1-26.948,11.8A.818.818,0,0,1,2.807,35.952Z" transform="translate(0.981 0.332)" fill="#58565d"/>
    <path id="Path_3215" data-name="Path 3215" d="M33.49,7.689a.833.833,0,0,1-.789-.567L31.265,2.85,27.109,4.313a.832.832,0,0,1-.553-1.57L31.509,1a.833.833,0,0,1,1.065.52l1.7,5.073a.832.832,0,0,1-.789,1.1Z" transform="translate(16.941 0.3)" fill="#58565d"/>
  </g>
</svg>
