<svg xmlns="http://www.w3.org/2000/svg" width="121" height="97" viewBox="0 0 121 97">
  <g id="Group_1349" data-name="Group 1349" transform="translate(-764 -981)">
    <rect id="Rectangle_784" data-name="Rectangle 784" width="121" height="97" rx="5" transform="translate(764 981)" fill="#63ab3b"/>
    <g id="id-card-svgrepo-com_2_" data-name="id-card-svgrepo-com (2)" transform="translate(790.5 993)">
      <path id="Path_2606" data-name="Path 2606" d="M3,0" transform="translate(38 1)" fill="none" stroke="#424a60" stroke-linecap="round" stroke-width="2"/>
      <path id="Path_2601" data-name="Path 2601" d="M54.42,5H12.94A2.447,2.447,0,0,0,10.5,7.44v61a2.447,2.447,0,0,0,2.44,2.44H54.42a2.447,2.447,0,0,0,2.44-2.44v-61A2.447,2.447,0,0,0,54.42,5ZM33.68,15.98a3.66,3.66,0,1,1,3.66-3.66A3.66,3.66,0,0,1,33.68,15.98Z" transform="translate(0 0.88)" fill="#e7eced"/>
      <rect id="Rectangle_785" data-name="Rectangle 785" width="22" height="22" transform="translate(22.68 21.38)" fill="#01458e"/>
      <path id="Path_2602" data-name="Path 2602" d="M44.12,43.44H19.72a1.22,1.22,0,0,1,0-2.44h24.4a1.22,1.22,0,0,1,0,2.44Z" transform="translate(1.76 8.8)" fill="#424a60"/>
      <path id="Path_2603" data-name="Path 2603" d="M44.12,48.44H19.72a1.22,1.22,0,0,1,0-2.44h24.4a1.22,1.22,0,0,1,0,2.44Z" transform="translate(1.76 9.9)" fill="#424a60"/>
      <path id="Path_2604" data-name="Path 2604" d="M44.12,53.44H19.72a1.22,1.22,0,0,1,0-2.44h24.4a1.22,1.22,0,0,1,0,2.44Z" transform="translate(1.76 11)" fill="#424a60"/>
      <g id="Group_122" data-name="Group 122" transform="translate(27.58 26.62)">
        <circle id="Ellipse_117" data-name="Ellipse 117" cx="5" cy="5" r="5" transform="translate(1.1 -0.24)" fill="#fff"/>
        <path id="Path_2605" data-name="Path 2605" d="M30.6,30a6.1,6.1,0,0,0-6.1,6.1v1.22H36.7V36.1A6.1,6.1,0,0,0,30.6,30Z" transform="translate(-24.5 -20.24)" fill="#fff"/>
      </g>
    </g>
  </g>
</svg>
