<svg xmlns="http://www.w3.org/2000/svg" width="66.061" height="69.541" viewBox="0 0 66.061 69.541">
  <g id="_10518316461579156623" data-name="10518316461579156623" transform="translate(-12.8)">
    <path id="Path_3" data-name="Path 3" d="M116.939,246.677H127.37a1.739,1.739,0,0,0,0-3.477H116.939a1.739,1.739,0,0,0,0,3.477Z" transform="translate(-88.492 -210.168)" fill="#63ab3b"/>
    <path id="Path_4" data-name="Path 4" d="M137.8,294.4H116.939a1.739,1.739,0,1,0,0,3.477H137.8a1.739,1.739,0,0,0,0-3.477Z" transform="translate(-88.492 -254.414)" fill="#63ab3b"/>
    <path id="Path_5" data-name="Path 5" d="M137.747,345.6H116.939a1.739,1.739,0,1,0,0,3.477h20.808a1.739,1.739,0,0,0,0-3.477Z" transform="translate(-88.492 -298.66)" fill="#63ab3b"/>
    <path id="Path_6" data-name="Path 6" d="M68.433,45.337V20.862L47.584,0H21.493A8.7,8.7,0,0,0,12.8,8.693V60.848a8.7,8.7,0,0,0,8.693,8.693H59.74A8.412,8.412,0,0,0,62.9,68.93a12.164,12.164,0,1,0,7.579-23.117A13.214,13.214,0,0,0,68.433,45.337Zm-6.7-26.214H54.525a5.217,5.217,0,0,1-5.216-5.216V6.669ZM21.493,66.064a5.217,5.217,0,0,1-5.216-5.216V8.693a5.217,5.217,0,0,1,5.216-5.216H45.832V13.908A8.7,8.7,0,0,0,54.525,22.6H64.956V45.337a12.162,12.162,0,0,0-6.764,20.726Zm45.2,0a8.693,8.693,0,1,1,8.693-8.693,8.7,8.7,0,0,1-8.693,8.693Z" fill="#01458e"/>
    <path id="Path_7" data-name="Path 7" d="M377.81,384.482c-.027-.027-.054-.041-.082-.068s-.068-.054-.1-.082a1.775,1.775,0,0,0-.38-.231l-.014-.014h0a1.549,1.549,0,0,0-.448-.109l-.109-.014a1.66,1.66,0,0,0-.448.027l-.027.014a1.356,1.356,0,0,0-.394.136c-.041.014-.068.041-.109.054a1.428,1.428,0,0,0-.367.272l-3.45,3.477a1.739,1.739,0,0,0,2.458,2.458l.516-.516v2.771a1.739,1.739,0,0,0,3.477,0V389.9l.516.516a1.739,1.739,0,0,0,2.458-2.458Z" transform="translate(-309.893 -331.81)" fill="#63ab3b"/>
  </g>
</svg>
