<svg id="_16246688771640063261" data-name="16246688771640063261" xmlns="http://www.w3.org/2000/svg" xmlns:xlink="http://www.w3.org/1999/xlink" width="74.365" height="74.365" viewBox="0 0 74.365 74.365">
  <defs>
    <linearGradient id="linear-gradient" x1="0.122" y1="0.38" x2="1.012" y2="0.795" gradientUnits="objectBoundingBox">
      <stop offset="0" stop-color="#01458e" stop-opacity="0.2"/>
      <stop offset="1" stop-color="#fff" stop-opacity="0"/>
    </linearGradient>
  </defs>
  <circle id="Ellipse_88" data-name="Ellipse 88" cx="18.5" cy="18.5" r="18.5" transform="translate(16.182 0.182)" fill="#303c42"/>
  <path id="Path_1024" data-name="Path 1024" d="M57.323,13a16.917,16.917,0,0,0-8.5,2.291A52.109,52.109,0,0,0,34.084,13c-10.618,0-20.249,3.8-26.459,6.987A13.939,13.939,0,0,0,0,32.422V34.69a6.2,6.2,0,0,0,6.2,6.2h37.99A17.039,17.039,0,1,0,57.323,13Z" transform="translate(0 27.281)" fill="#303c42"/>
  <path id="Path_1025" data-name="Path 1025" d="M4.1,35.69a3.1,3.1,0,0,1-3.1-3.1V30.323a10.852,10.852,0,0,1,5.943-9.678C12.848,17.613,21.986,14,31.985,14a47.588,47.588,0,0,1,11.589,1.54,16.936,16.936,0,0,0-3.51,20.15Z" transform="translate(2.099 29.379)" fill="#1e88e5"/>
  <circle id="Ellipse_89" data-name="Ellipse 89" cx="13.5" cy="13.5" r="13.5" transform="translate(44.182 44.182)" fill="#7cb342"/>
  <path id="Path_1026" data-name="Path 1026" d="M15.549,29.493A13.959,13.959,0,0,1,29.493,15.549,13.816,13.816,0,0,1,38.5,18.937,13.883,13.883,0,1,0,18.937,38.5,13.817,13.817,0,0,1,15.549,29.493Z" transform="translate(29.379 29.379)" fill="#fff" opacity="0.2"/>
  <path id="Path_1027" data-name="Path 1027" d="M29.943,22.2H25.3V17.549a1.549,1.549,0,0,0-3.1,0V22.2H17.549a1.549,1.549,0,0,0,0,3.1H22.2v4.648a1.549,1.549,0,0,0,3.1,0V25.3h4.648a1.549,1.549,0,0,0,0-3.1Z" transform="translate(33.576 33.576)" fill="#303c42"/>
  <g id="Group_68" data-name="Group 68" transform="translate(18.591 2.789)">
    <circle id="Ellipse_90" data-name="Ellipse 90" cx="15.5" cy="15.5" r="15.5" transform="translate(-0.409 0.394)" fill="#1e88e5"/>
    <path id="Path_1028" data-name="Path 1028" d="M29.128,1.794a15.317,15.317,0,0,1,.99,5.287A15.511,15.511,0,0,1,14.625,22.573,15.363,15.363,0,0,1,6.32,20.114,15.459,15.459,0,1,0,29.128,1.794Z" transform="translate(-5.329 0.975)" opacity="0.1"/>
  </g>
  <path id="Path_1029" data-name="Path 1029" d="M34.084,37.182A18.591,18.591,0,1,0,15.493,18.591,18.612,18.612,0,0,0,34.084,37.182Zm23.239,3.1a16.917,16.917,0,0,0-8.5,2.291,52.109,52.109,0,0,0-14.743-2.291c-10.618,0-20.249,3.8-26.459,6.987A13.939,13.939,0,0,0,0,59.7v2.268a6.2,6.2,0,0,0,6.2,6.2h37.99A17.039,17.039,0,1,0,57.323,40.281Z" fill="url(#linear-gradient)"/>
</svg>
