<svg xmlns="http://www.w3.org/2000/svg" width="76.495" height="70.149" viewBox="0 0 76.495 70.149">
  <g id="g2371" transform="translate(38.152 -1011.654)">
    <path id="path1804" d="M-2.616,253.02a25.579,25.579,0,0,0-25.473,25.614,25.529,25.529,0,0,0,.37,3.65c-5.9,1.027-10.78,4.981-10.78,10.609,0,6.44,6.065,11.327,13.17,11.327h3.764A21.538,21.538,0,0,0-.254,323.169a21.546,21.546,0,0,0,21.317-18.948C30.3,304.214,38,297.567,38,289.08c0-8.144-7.233-14.278-15.967-14.792C19.863,262.2,9.756,253.024-2.616,253.021Zm0,3.65A21.866,21.866,0,0,1,19.057,276l.185,1.6h1.807c7.532,0,13.305,5.228,13.305,11.484,0,6.217-5.706,11.413-13.17,11.477A21.54,21.54,0,0,0-.254,280.043a21.533,21.533,0,0,0-21.431,20.527h-3.643c-5.476,0-9.534-3.584-9.534-7.677,0-3.989,3.853-7.471,9.136-7.649l2.156-.078L-24,283.06a22.066,22.066,0,0,1-.448-4.425A21.875,21.875,0,0,1-2.616,256.67ZM-.253,283.7A17.838,17.838,0,0,1,17.57,301.048v1.124A17.84,17.84,0,0,1-.253,319.519a17.837,17.837,0,0,1-17.824-17.489v-.847A17.835,17.835,0,0,1-.253,283.7Z" transform="translate(0.346 758.634)" fill="#0a1735"/>
    <path id="path1810" d="M-20.827,263.11a6.279,6.279,0,0,0-6.219,6.29v3.223h-3.878v14.152H-9.649V272.623H-13.5V269.4a6.273,6.273,0,0,0-6.212-6.29Zm0,3.65h1.117a2.559,2.559,0,0,1,2.576,2.64v3.223H-23.4V269.4A2.559,2.559,0,0,1-20.827,266.76Zm-6.454,9.513h14.024v6.852H-27.281Z" transform="translate(20.364 785.301)" fill="#63ab3b"/>
  </g>
</svg>
