<svg version="1.1" id="Layer_1" xmlns="http://www.w3.org/2000/svg" x="0" y="0" viewBox="0 0 1080 1080" style="enable-background:new 0 0 1080 1080" xml:space="preserve"><style>.st0{fill:#01A54F}.st1{fill:#fff}.st2{fill:#f8bf9d}</style><path id="Path_65" class="st0" d="M540 0 244.8 539.71l295.2 539.7 10.5-3.72c279.2-98.87 466-362.86 466-659.09V135.57L540 0z"/><path id="Path_66" class="st0" d="M63.5 135.57v281.15c0 296.23 186.68 560.35 466 659.21l10.5 3.72V0L63.5 135.57z"/><path id="Path_67" class="st1" d="M888.32 460.69a586.72 586.72 0 0 0 1.65-44.09V231.08l-350.03-99.54-231.75 329.21h580.13v-.06z"/><path id="Path_68" class="st1" d="m540 131.54-350.03 99.54V416.6c0 14.78.49 29.43 1.65 44.09h348.45V131.54H540z"/><path id="Path_69" class="st2" d="M540 361.7 329.2 653.05 540 944.39l12.95-5.86c91.78-41.46 170.86-106.32 229.67-188.09 61.31-85 97.95-185.22 105.71-289.76L540 361.7z"/><path id="Path_70" class="st2" d="M191.55 460.69a567.738 567.738 0 0 0 105.71 289.76c58.68 81.77 137.89 146.62 229.67 188.15l12.95 5.86V361.64l-348.33 99.05z"/><circle id="Ellipse_19" cx="543.97" cy="159.08" r="159.08" style="fill:#273472"/><text transform="translate(467.03 255.488)" class="st1" style="font-size:273.1731px;font-family:'MyriadPro-Regular'">X</text></svg>
