<svg xmlns="http://www.w3.org/2000/svg" width="24.425" height="29.311" viewBox="0 0 24.425 29.311">
  <g id="shield-check" transform="translate(-2 0)">
    <path id="Path_6" data-name="Path 6" d="M22.25,2.614,14.6.062a1.221,1.221,0,0,0-.772,0L6.176,2.614A6.1,6.1,0,0,0,2,8.406v6.249c0,9.236,11.236,14.338,11.717,14.55a1.221,1.221,0,0,0,.992,0c.481-.213,11.717-5.314,11.717-14.55V8.406A6.1,6.1,0,0,0,22.25,2.614Zm1.733,12.042c0,6.662-7.717,11.032-9.77,12.077-2.055-1.042-9.77-5.4-9.77-12.077V8.406A3.664,3.664,0,0,1,6.948,4.93l7.264-2.422L21.477,4.93a3.664,3.664,0,0,1,2.506,3.476Z" transform="translate(0 0)" fill="#03b150"/>
    <path id="Path_7" data-name="Path 7" d="M17.108,8.365l-5.115,5.129L9.253,10.636a1.221,1.221,0,1,0-1.76,1.693l2.816,2.931a2.286,2.286,0,0,0,1.643.733h.04a2.287,2.287,0,0,0,1.63-.675L18.84,10.1a1.226,1.226,0,1,0-1.732-1.735Z" transform="translate(1.135 1.772)" fill="#03b150"/>
  </g>
</svg>
