<svg xmlns="http://www.w3.org/2000/svg" width="88.172" height="88.2" viewBox="0 0 88.172 88.2">
  <g id="Group_1356" data-name="Group 1356" transform="translate(-497.126 -2147.8)">
    <g id="_13734175201579060763" data-name="13734175201579060763" transform="translate(497.127 2147.8)">
      <path id="Path_1760" data-name="Path 1760" d="M152.86,224.262a5.147,5.147,0,0,0-7.251.61L133.83,236.979h.012a5.266,5.266,0,0,0-5.054-3.789H109.279a20.6,20.6,0,0,0-8.271-1.722c-8.15,0-15.2,3.951-18.562,11.437L98.018,258.4l.029-.023,2.682-2.587a6.884,6.884,0,0,1,4.782-1.932h22.952a13.719,13.719,0,0,0,9.569-3.887l15.439-18.457a5.145,5.145,0,0,0-.61-7.25Zm0,0" transform="translate(-68.33 -184.624)" fill="#fed2a4"/>
      <path id="Path_1761" data-name="Path 1761" d="M232.639,27.218A17.222,17.222,0,1,1,215.417,10a17.222,17.222,0,0,1,17.222,17.222Zm0,0" transform="translate(-164.141 -8.274)" fill="#63ab3b"/>
      <path id="Path_1762" data-name="Path 1762" d="M37.923,355.835l-8.341,8.217L10.246,344.567l8.193-8.217a3.446,3.446,0,0,1,4.872,0l14.613,14.613a3.445,3.445,0,0,1,0,4.872Zm0,0" transform="translate(-8.568 -277.573)" fill="#01458e"/>
      <path id="Path_1763" data-name="Path 1763" d="M221.665,333.135a1.723,1.723,0,1,0-2.437,0A1.725,1.725,0,0,0,221.665,333.135Zm0,0" transform="translate(-181.133 -273.312)"/>
      <path id="Path_1764" data-name="Path 1764" d="M188.449,18.944A18.944,18.944,0,1,0,207.393,0,18.966,18.966,0,0,0,188.449,18.944Zm34.443,0a15.5,15.5,0,1,1-15.5-15.5A15.517,15.517,0,0,1,222.892,18.944Zm0,0" transform="translate(-156.073 0)"/>
      <path id="Path_1765" data-name="Path 1765" d="M20.338,263.434a1.722,1.722,0,0,0,2.431.014l8.349-8.226a5.2,5.2,0,0,0,1.226-5.344l1.8-1.732a5.136,5.136,0,0,1,3.586-1.449H60.62a15.419,15.419,0,0,0,10.811-4.392c.12-.116-.909,1.1,15.619-18.659a6.889,6.889,0,0,0-10.483-8.941L66.4,225.151a6.921,6.921,0,0,0-5.354-2.564h-19.2a22.218,22.218,0,0,0-8.624-1.722c-8.293,0-15.534,3.83-19.42,11.012A5.144,5.144,0,0,0,9.2,233.3L1,241.521a1.723,1.723,0,0,0,0,2.429Zm12.884-39.125a18.8,18.8,0,0,1,7.582,1.578,1.719,1.719,0,0,0,.69.145H61.05a3.444,3.444,0,1,1,0,6.889H47a1.722,1.722,0,0,0,0,3.444H61.05a6.878,6.878,0,0,0,6.828-7.789c9.83-10.105,11.217-11.525,11.276-11.6a3.445,3.445,0,1,1,5.259,4.451L68.967,239.9a11.992,11.992,0,0,1-8.347,3.357H37.725a8.562,8.562,0,0,0-5.978,2.414l-1.464,1.412L16.792,233.589c3.153-5.916,9.07-9.28,16.43-9.28ZM11.634,235.738a1.718,1.718,0,0,1,2.132-.242c.3.182-.558-.6,14.916,14.855a1.725,1.725,0,0,1,.009,2.427l-7.118,7.012L4.652,242.74Zm0,0" transform="translate(-0.502 -175.743)"/>
    </g>
    <g id="Group_90" data-name="Group 90" transform="translate(538.164 2161.505)">
      <g id="Group_85" data-name="Group 85" transform="translate(0 2.396)">
        <path id="Path_1754" data-name="Path 1754" d="M44.191,5a11.153,11.153,0,0,0-5.245,1.2H37V8.6c0,1.986,3.22,3.6,7.192,3.6s7.192-1.61,7.192-3.6V6.2H49.437A11.153,11.153,0,0,0,44.191,5Z" transform="translate(-36.999 -2.574)" fill="#f39c12"/>
        <path id="Path_1755" data-name="Path 1755" d="M50.383,9.6c0,1.986-3.22,3.6-7.192,3.6S36,11.582,36,9.6,39.219,6,43.191,6,50.383,7.61,50.383,9.6Z" transform="translate(-36 -6)" fill="#f1c40f"/>
      </g>
      <g id="Group_86" data-name="Group 86" transform="translate(4.794 0)">
        <path id="Path_1756" data-name="Path 1756" d="M44.191,5a11.153,11.153,0,0,0-5.245,1.2H37V8.6c0,1.986,3.22,3.6,7.192,3.6s7.192-1.61,7.192-3.6V6.2H49.437A11.153,11.153,0,0,0,44.191,5Z" transform="translate(-36.999 -2.574)" fill="#f39c12"/>
        <path id="Path_1757" data-name="Path 1757" d="M50.383,9.6c0,1.986-3.22,3.6-7.192,3.6S36,11.582,36,9.6,39.219,6,43.191,6,50.383,7.61,50.383,9.6Z" transform="translate(-36 -6)" fill="#f1c40f"/>
      </g>
    </g>
  </g>
</svg>
