<svg xmlns="http://www.w3.org/2000/svg" width="54.736" height="65.149" viewBox="0 0 54.736 65.149">
  <g id="_11142463671637917907" data-name="11142463671637917907" transform="translate(-42.34 -32.851)">
    <path id="Path_4523" data-name="Path 4523" d="M146.339,262.566l3.376-4.5h9l6.212,2.1,14.24-5.515a2.706,2.706,0,0,1,2.819,4.5l-12.017,11.292-17.187,2.251Z" transform="translate(-89.37 -190.449)" fill="#f6bb92"/>
    <path id="Path_4524" data-name="Path 4524" d="M240,52.726c0-7.114,5.767-11.876,12.881-11.876a12.881,12.881,0,1,1,0,25.763C245.767,66.613,240,59.841,240,52.726Z" transform="translate(-169.856 -6.875)" fill="#63ab3b"/>
    <path id="Path_4525" data-name="Path 4525" d="M279.112,88.551a8.588,8.588,0,1,0-8.588-8.588A8.588,8.588,0,0,0,279.112,88.551Z" transform="translate(-196.087 -33.106)" fill="#63ab3b"/>
    <path id="Path_4526" data-name="Path 4526" d="M314.822,110.653v-3.927l-3.4-1.964-3.4,1.964v3.927l3.4,1.964Z" transform="translate(-228.308 -61.796)" fill="#63ab3b"/>
    <path id="Path_4527" data-name="Path 4527" d="M178.264,241.054a5.8,5.8,0,0,1,3.155.928l1.909,1.238h4.492a3.26,3.26,0,0,1,3.3,3.213,2.234,2.234,0,0,1-2.265,2.2H171.075v-2.166l2.748-3.34a5.749,5.749,0,0,1,4.441-2.075Z" transform="translate(-110.627 -178.916)" fill="#f6bb92"/>
    <path id="Path_4528" data-name="Path 4528" d="M114.339,315.376l4.5-3.376,7.877,12.379-4.5,3.376Z" transform="translate(-61.871 -239.883)" fill="#e6e5e0"/>
    <path id="Path_4529" data-name="Path 4529" d="M59.341,336l9.8,14.629-9,6.752-9.8-14.629Z" transform="translate(-6.874 -260.507)" fill="#63ab3b"/>
    <path id="Path_4530" data-name="Path 4530" d="M92.536,234.467a3.833,3.833,0,0,0-3.138-.182L81.5,237.3a4.471,4.471,0,0,0-4.236-3.056h-4.2l-1.645-1.1a6.871,6.871,0,0,0-9.177,1.425l-2.776,3.47-.01.014-.012.014-3.279,4.373L42.79,252.478A1.125,1.125,0,0,0,42.53,254l9.8,14.629a1.125,1.125,0,0,0,1.61.274l9-6.752a1.125,1.125,0,0,0,.26-1.526l-1.052-1.571,3.372-2.529a1.125,1.125,0,0,0,.274-1.5l-.462-.726,15.416-2.055a1.123,1.123,0,0,0,.622-.3l12.017-11.291a3.831,3.831,0,0,0-.853-6.189Zm-39,31.928-8.545-12.757,7.2-5.4,8.545,12.757Zm7.357-9.209-6.9-10.3,2.676-2.007,6.665,10.474Zm30.952-18.169L80.094,250.059l-15.826,2.11-5.921-8.882,2.889-3.852L64,235.981a4.62,4.62,0,0,1,6.171-.958l1.929,1.286a1.124,1.124,0,0,0,.624.189h4.538a2.216,2.216,0,0,1,2.214,2.213,1.164,1.164,0,0,1-1.162,1.163H71.448a1.125,1.125,0,1,0,0,2.251h6.864a3.418,3.418,0,0,0,3.273-2.446l8.615-3.292a1.581,1.581,0,0,1,1.646,2.629Z" transform="translate(0 -171.133)"/>
    <path id="Path_4531" data-name="Path 4531" d="M246.007,32.851a14.718,14.718,0,0,0-9.858,3.556A12.466,12.466,0,0,0,232,45.852a15.7,15.7,0,0,0,4.063,10.365,13.373,13.373,0,0,0,9.944,4.647,14.007,14.007,0,1,0,0-28.013Zm0,25.763a11.153,11.153,0,0,1-8.273-3.9,13.42,13.42,0,0,1-3.483-8.857c0-6.229,4.944-10.75,11.756-10.75a11.756,11.756,0,1,1,0,23.512Z" transform="translate(-162.982)"/>
    <path id="Path_4532" data-name="Path 4532" d="M272.237,63.376a9.724,9.724,0,1,0,6.865,2.848,9.713,9.713,0,0,0-6.865-2.848Zm0,17.175a7.471,7.471,0,1,1,5.274-2.188,7.461,7.461,0,0,1-5.274,2.188Z" transform="translate(-189.212 -26.232)"/>
    <path id="Path_4533" data-name="Path 4533" d="M308.51,98.878l-3.4-1.964a1.125,1.125,0,0,0-1.125,0l-3.4,1.964a1.125,1.125,0,0,0-.563.975v3.927a1.125,1.125,0,0,0,.563.974l3.4,1.964a1.124,1.124,0,0,0,1.125,0l3.4-1.964a1.125,1.125,0,0,0,.563-.974V99.852a1.125,1.125,0,0,0-.563-.975Zm-1.688,4.252-2.275,1.314-2.276-1.314V100.5l2.276-1.314,2.276,1.314Z" transform="translate(-221.434 -54.922)"/>
  </g>
</svg>
