<svg xmlns="http://www.w3.org/2000/svg" width="81.368" height="50.122" viewBox="0 0 81.368 50.122">
  <g id="_20321885551582985679" data-name="20321885551582985679" transform="translate(-2.684 -26.229)">
    <path id="Path_1" data-name="Path 1" d="M59.558,44.735a12.383,12.383,0,0,0-10,12.555c.025.638.114,17.132.114,17.132l8.1-5.9a12.363,12.363,0,1,0,1.789-23.782Zm1.821,5.38a1.648,1.648,0,1,1-1.167.483,1.65,1.65,0,0,1,1.167-.483Zm2.409,13.851H60.045a.836.836,0,0,1-.594-.247.847.847,0,0,1-.247-.594.836.836,0,0,1,.841-.841h.525V56.848h-.1a.985.985,0,0,1-.171-1.953c.038-.006,1.113-.215,1.96-.386a.848.848,0,0,1,1.011.834v6.941h.518a.841.841,0,1,1,0,1.682Z" transform="translate(-18.378 -9.304)" fill="#63ab3b"/>
    <path id="Path_2" data-name="Path 2" d="M76.178,69.208V33.5A7.275,7.275,0,0,0,68.9,26.23H17.832A7.275,7.275,0,0,0,10.557,33.5v35.7H2.684v.023A5.77,5.77,0,0,0,4.917,73.2,10.238,10.238,0,0,0,8.06,74.932a26.635,26.635,0,0,0,5.116,1.1,34.155,34.155,0,0,0,4.69.317l25.5-.012,25.5.011a34.153,34.153,0,0,0,4.69-.317,26.634,26.634,0,0,0,5.116-1.1A10.237,10.237,0,0,0,81.818,73.2a5.77,5.77,0,0,0,2.233-3.969v-.023Zm-5.256,0H52.558a4.075,4.075,0,0,1-3.832,2.681H38.009a4.075,4.075,0,0,1-3.832-2.681H15.813V33.5a2.019,2.019,0,0,1,2.019-2.018H68.9A2.019,2.019,0,0,1,70.922,33.5Z" transform="translate(0 0)" fill="#01458e"/>
  </g>
</svg>
