<svg xmlns="http://www.w3.org/2000/svg" viewBox="0 0 1080 1080" style="enable-background:new 0 0 1080 1080" xml:space="preserve"><ellipse cx="609.31" cy="330.91" rx="328.57" ry="330.91" style="fill:#01A54F"/><path d="M198.16 769H64.63C47.06 769 33 783.05 33 800.62v247.74c0 17.57 14.06 31.63 31.63 31.63h101.91l63.25-31.63V800.62c0-16.98-14.64-31.62-31.63-31.62z" style="fill:#282e6a"/><path d="M1028.29 722.35c-59.15-59.15-155.21-59.15-214.94 0l-94.88 94.29-38.65 38.65c-15.81 15.81-36.31 24.01-58.57 24.01H389.9c-17.57 0-31.63-12.89-32.21-29.87-.59-17.57 12.3-32.21 29.87-32.8h224.32c50.37 0 90.78-39.83 92.54-89.61v-2.34c0-17.57-14.06-31.63-31.63-31.63H567.36c-34.56 0-67.35-15.81-101.91-32.21-36.31-20.5-77.31-32.8-118.89-38.07-38.65-2.34-77.9 1.76-115.38 12.3-43.34 12.3-73.8 52.71-73.8 97.22v302.8h544.68c36.9 0 72.62-15.23 98.98-41l227.83-227.24c12.31-12.29 12.31-32.21-.58-44.5z" style="fill:#f8bf9d" transform="translate(8.969 44.901)"/><text transform="translate(424.534 492.922)" style="font-size:430.774px;font-family:'Arial-BoldMT';fill:#fff">%</text></svg>
