<svg xmlns="http://www.w3.org/2000/svg" width="101" height="101" viewBox="0 0 101 101">
  <g id="Group_1351" data-name="Group 1351" transform="translate(-1097 -2163)">
    <g id="_7717793981554897557" data-name="7717793981554897557" transform="translate(1096.424 2162.424)">
      <rect id="Rectangle_397" data-name="Rectangle 397" width="101" height="101" transform="translate(0.576 0.576)" fill="none"/>
      <path id="Path_1009" data-name="Path 1009" d="M92.654,77.94A19.254,19.254,0,1,1,73.4,97.194,19.254,19.254,0,0,1,92.654,77.94Zm14.231,19.254a14.231,14.231,0,1,0-14.231,14.231A14.231,14.231,0,0,0,106.885,97.194Z" transform="translate(-22.045 -23.418)" fill="#fff"/>
      <path id="Path_1010" data-name="Path 1010" d="M60.654,15.54A19.254,19.254,0,1,1,41.4,34.794,19.254,19.254,0,0,1,60.654,15.54ZM74.885,34.794A14.231,14.231,0,1,0,60.654,49.025,14.231,14.231,0,0,0,74.885,34.794Z" transform="translate(-12.368 -4.548)" fill="#fff"/>
      <circle id="Ellipse_77" data-name="Ellipse 77" cx="14.231" cy="14.231" r="14.231" transform="translate(56.378 59.545)" fill="#fff"/>
      <circle id="Ellipse_78" data-name="Ellipse 78" cx="14.231" cy="14.231" r="14.231" transform="translate(34.055 16.015)" fill="#baee9d"/>
      <circle id="Ellipse_79" data-name="Ellipse 79" cx="19.254" cy="19.254" r="19.254" transform="translate(29.032 10.992)" fill="none" stroke="#515f76" stroke-miterlimit="10" stroke-width="2.4"/>
      <circle id="Ellipse_80" data-name="Ellipse 80" cx="19.254" cy="19.254" r="19.254" transform="translate(51.355 54.522)" fill="none" stroke="#515f76" stroke-miterlimit="10" stroke-width="2.4"/>
      <circle id="Ellipse_81" data-name="Ellipse 81" cx="14.231" cy="14.231" r="14.231" transform="translate(56.378 59.545)" fill="none" stroke="#515f76" stroke-miterlimit="10" stroke-width="2.4"/>
      <path id="Path_1015" data-name="Path 1015" d="M30.254,77.94A19.254,19.254,0,1,1,11,97.194,19.254,19.254,0,0,1,30.254,77.94ZM44.485,97.194a14.231,14.231,0,1,0-14.231,14.231A14.231,14.231,0,0,0,44.485,97.194Z" transform="translate(-3.175 -23.418)" fill="#fff"/>
      <circle id="Ellipse_82" data-name="Ellipse 82" cx="14.231" cy="14.231" r="14.231" transform="translate(12.848 59.545)" fill="#63ab3b"/>
      <circle id="Ellipse_83" data-name="Ellipse 83" cx="19.254" cy="19.254" r="19.254" transform="translate(7.825 54.522)" fill="none" stroke="#515f76" stroke-miterlimit="10" stroke-width="2.4"/>
      <line id="Line_73" data-name="Line 73" x2="2.232" y2="2.232" transform="translate(19.168 39.084)" fill="none" stroke="#7bd489" stroke-linecap="round" stroke-miterlimit="10" stroke-width="1.6"/>
      <line id="Line_74" data-name="Line 74" x1="2.232" y2="2.232" transform="translate(19.168 39.084)" fill="none" stroke="#7bd489" stroke-linecap="round" stroke-miterlimit="10" stroke-width="1.6"/>
      <circle id="Ellipse_84" data-name="Ellipse 84" cx="1.395" cy="1.395" r="1.395" transform="translate(66.772 6.437)" fill="none" stroke="#b8b9ba" stroke-linecap="round" stroke-miterlimit="10" stroke-width="1.6"/>
      <circle id="Ellipse_85" data-name="Ellipse 85" cx="1.116" cy="1.116" r="1.116" transform="translate(68.935 17.78)" fill="#b8b9ba"/>
      <path id="Path_1021" data-name="Path 1021" d="M108.527,16.444l1.6-.851a.056.056,0,0,1,.084.056l-.307,1.807,1.4,1.36-1.925.279-.865,1.744-.865-1.744-1.814-.265a.056.056,0,0,1,0-.1l1.311-1.284-.328-1.918Z" transform="translate(-31.842 -4.545)" fill="#b8b9ba"/>
      <circle id="Ellipse_86" data-name="Ellipse 86" cx="1.116" cy="1.116" r="1.116" transform="translate(25.446 45.453)" fill="#b8b9ba"/>
      <circle id="Ellipse_87" data-name="Ellipse 87" cx="1.116" cy="1.116" r="1.116" transform="translate(16.475 49.032)" fill="#b8b9ba"/>
      <line id="Line_75" data-name="Line 75" y2="3.697" transform="translate(92.374 91.739)" fill="none" stroke="#515f76" stroke-linecap="round" stroke-miterlimit="10" stroke-width="2.4"/>
      <line id="Line_76" data-name="Line 76" x1="3.907" transform="translate(90.421 93.588)" fill="none" stroke="#515f76" stroke-linecap="round" stroke-miterlimit="10" stroke-width="2.4"/>
    </g>
    <g id="_2259846991582884292" data-name="2259846991582884292" transform="translate(1155.402 2224.106)">
      <path id="Path_1022" data-name="Path 1022" d="M38.62,8.238a2.956,2.956,0,0,0,5.8,0l.451-2.326A3.114,3.114,0,0,0,41.79,2.379h-.536a3.114,3.114,0,0,0-3.085,3.533Z" transform="translate(-29.869)" fill="#2d3e50"/>
      <path id="Path_1023" data-name="Path 1023" d="M19.26,79.845c-.012-.284-.029-.622-.051-.982-.046-.74-.118-1.568-.227-2.21a1.139,1.139,0,0,0-.034-.15,1.588,1.588,0,0,0-.825-1.006c-.916-.457-2.505-1.047-3.595-1.436a.593.593,0,0,0-.075.141q-.831,1.967-1.659,3.935l-.052.122h-.037l-.434-3.412a.167.167,0,0,0-.166-.146H11.062a.167.167,0,0,0-.166.146l-.434,3.412h-.037l-.052-.122L8.715,74.2a.593.593,0,0,0-.075-.141c-1.09.388-2.679.979-3.595,1.436A1.588,1.588,0,0,0,4.22,76.5a1.14,1.14,0,0,0-.034.15c-.109.641-.181,1.47-.227,2.21-.022.36-.038.7-.051.982-.019.491-.025.82-.025.82h15.4S19.28,80.336,19.26,79.845Z" transform="translate(0 -62.499)" fill="#2d3e50"/>
    </g>
    <g id="_2259846991582884292-2" data-name="2259846991582884292" transform="translate(1131.242 2179.598)">
      <path id="Path_1022-2" data-name="Path 1022" d="M38.712,9.359a3.521,3.521,0,0,0,6.913,0l.538-2.771a3.709,3.709,0,0,0-3.675-4.209h-.639a3.709,3.709,0,0,0-3.675,4.209Z" transform="translate(-29.03)" fill="#22476e"/>
      <path id="Path_1023-2" data-name="Path 1023" d="M22.2,80.951c-.015-.339-.034-.741-.06-1.17-.055-.881-.14-1.868-.27-2.632a1.357,1.357,0,0,0-.041-.179,1.891,1.891,0,0,0-.982-1.2c-1.091-.544-2.984-1.248-4.282-1.71a.707.707,0,0,0-.09.168q-.99,2.343-1.976,4.688l-.062.145-.044,0L13.876,75a.2.2,0,0,0-.2-.174H12.435a.2.2,0,0,0-.2.174l-.517,4.064-.044,0-.062-.145L9.638,74.228a.707.707,0,0,0-.09-.168c-1.3.463-3.191,1.166-4.282,1.71a1.891,1.891,0,0,0-.982,1.2,1.357,1.357,0,0,0-.041.179c-.13.764-.215,1.751-.27,2.632-.026.428-.046.831-.06,1.17-.023.585-.029.977-.029.977H22.23S22.223,81.536,22.2,80.951Z" transform="translate(0 -60.744)" fill="#22476e"/>
    </g>
    <g id="_2259846991582884292-3" data-name="2259846991582884292" transform="translate(1110.688 2224.053)">
      <path id="Path_1022-3" data-name="Path 1022" d="M38.684,9.021a3.351,3.351,0,0,0,6.578,0l.511-2.636a3.529,3.529,0,0,0-3.5-4.005h-.608a3.529,3.529,0,0,0-3.5,4.005Z" transform="translate(-29.283)" fill="#fff"/>
      <path id="Path_1023-3" data-name="Path 1023" d="M21.313,80.617c-.014-.322-.033-.705-.057-1.113-.053-.839-.133-1.778-.257-2.5a1.291,1.291,0,0,0-.039-.171,1.8,1.8,0,0,0-.935-1.141c-1.038-.518-2.839-1.187-4.075-1.627a.672.672,0,0,0-.085.16q-.942,2.23-1.88,4.461l-.059.138-.042,0-.492-3.867a.189.189,0,0,0-.188-.166H12.02a.189.189,0,0,0-.188.166L11.34,78.82l-.042,0-.059-.138L9.36,74.22a.672.672,0,0,0-.085-.16c-1.235.44-3.036,1.11-4.075,1.627a1.8,1.8,0,0,0-.935,1.141A1.292,1.292,0,0,0,4.226,77c-.124.727-.2,1.666-.257,2.5-.025.408-.043.79-.057,1.113-.022.556-.028.93-.028.93H21.341S21.335,81.173,21.313,80.617Z" transform="translate(0 -61.274)" fill="#fff"/>
    </g>
  </g>
</svg>
