<svg xmlns="http://www.w3.org/2000/svg" width="32.421" height="29.004" viewBox="0 0 32.421 29.004">
  <g id="team-member-svgrepo-com" transform="translate(-20 -22.349)">
    <g id="Group_1315" data-name="Group 1315" transform="translate(29.935 33.575)">
      <path id="Path_5270" data-name="Path 5270" d="M48.412,44H42.138A3.147,3.147,0,0,0,39,47.137v4.706a2.145,2.145,0,0,0,2.092,2.092v4.706a3.147,3.147,0,0,0,3.137,3.138h2.092a3.147,3.147,0,0,0,3.137-3.138V53.935a1.9,1.9,0,0,0,1.464-.628,2.1,2.1,0,0,0,.627-1.464V47.137A3.147,3.147,0,0,0,48.412,44Z" transform="translate(-39 -44)" fill="#63ab3b"/>
    </g>
    <g id="Group_1316" data-name="Group 1316" transform="translate(32.221 23.945)">
      <ellipse id="Ellipse_257" data-name="Ellipse 257" cx="3.99" cy="3.591" rx="3.99" ry="3.591" transform="translate(0 0)" fill="#63ab3b"/>
    </g>
    <g id="Group_1317" data-name="Group 1317" transform="translate(20 31.483)">
      <path id="Path_5271" data-name="Path 5271" d="M28.68,53.962c-.1-.1-.261-.209-.366-.314a5.413,5.413,0,0,1-1.569-3.713V45.229a6.171,6.171,0,0,1,1.778-4.34A.536.536,0,0,0,28.157,40h-5.02A3.147,3.147,0,0,0,20,43.137v4.706a2.145,2.145,0,0,0,2.092,2.092v4.706a3.147,3.147,0,0,0,3.137,3.137h2.092a3.159,3.159,0,0,0,1.255-.261.5.5,0,0,0,.314-.471V54.38A.476.476,0,0,0,28.68,53.962Z" transform="translate(-20 -40)" fill="#63ab3b"/>
    </g>
    <g id="Group_1318" data-name="Group 1318" transform="translate(22.645 22.349)">
      <circle id="Ellipse_258" data-name="Ellipse 258" cx="3.591" cy="3.591" r="3.591" transform="translate(0 0)" fill="#63ab3b"/>
    </g>
    <g id="Group_1319" data-name="Group 1319" transform="translate(43.531 31.483)">
      <path id="Path_5272" data-name="Path 5272" d="M70.752,40h-5.02a.518.518,0,0,0-.366.889,6.265,6.265,0,0,1,1.778,4.34v4.706a5.19,5.19,0,0,1-1.569,3.713,2.274,2.274,0,0,1-.366.314A.646.646,0,0,0,65,54.38v2.667a.457.457,0,0,0,.314.471,3.16,3.16,0,0,0,1.255.261H68.66A3.147,3.147,0,0,0,71.8,54.642V49.935a1.9,1.9,0,0,0,1.464-.628,2.1,2.1,0,0,0,.627-1.464V43.137A3.147,3.147,0,0,0,70.752,40Z" transform="translate(-65 -40)" fill="#63ab3b"/>
    </g>
    <g id="Group_1320" data-name="Group 1320" transform="translate(42.594 22.349)">
      <circle id="Ellipse_259" data-name="Ellipse 259" cx="3.591" cy="3.591" r="3.591" transform="translate(0 0)" fill="#63ab3b"/>
    </g>
  </g>
</svg>
