<svg version="1.1" id="Layer_1" xmlns="http://www.w3.org/2000/svg" x="0" y="0" viewBox="0 0 1080 1080" style="enable-background:new 0 0 1080 1080" xml:space="preserve"><style>.st1{fill:#1f276c}</style><g id="Group_181" transform="translate(-59.812)"><path id="Path_98" d="M913.1 521.2c0 139.7-113.3 253-253 253s-253-113.3-253-253 113.3-253 253-253 253 113.3 253 253z" style="fill:#01A54F"/><g id="Group_179" transform="translate(80.719)"><path id="Path_99" class="st1" d="M579.4 215.5c-10.3 0-18.7-8.4-18.7-18.7v-178c0-10.3 8.4-18.7 18.8-18.7 10.3 0 18.7 8.4 18.7 18.7v178c-.1 10.3-8.4 18.7-18.8 18.7z"/><path id="Path_100" class="st1" d="M719.9 215.5c-10.3 0-18.7-8.4-18.7-18.7v-84.4c0-10.3 8.4-18.7 18.7-18.7 10.3 0 18.7 8.4 18.7 18.7v84.4c.1 10.3-8.3 18.7-18.7 18.7z"/><path id="Path_101" class="st1" d="M438.8 215.5c-10.3 0-18.7-8.4-18.7-18.7v-84.4c0-10.3 8.4-18.8 18.7-18.8 10.3 0 18.8 8.4 18.8 18.7v84.5c0 10.3-8.4 18.7-18.8 18.7z"/></g><g id="Group_180" transform="translate(83.195 27.023)"><path id="Path_102" d="M473.7 329.3h232.2v.5c-7.1 11.7-14.8 23-23.2 33.8h-62c8.8 10.5 14.8 23 17.4 36.4h66.1c.8.2 1.2.5 1.2 1-14.8 22.2-22.4 33.3-22.7 33.3h-43c-2.3 14.8-7.9 28.9-16.4 41.3-9.8 13.5-22.8 24.4-37.9 31.6-20.1 10.2-42.2 15.7-64.7 16.2v.5c4.1 7.4 9.2 14.1 15.2 20l114.7 138.3v6.5c0 .6-.4 1-1.2 1H599C508.2 584 462.9 530.9 462.9 530.4v-32.1l.5-1.2c9.4 1.2 18.8 1.8 28.2 1.7 50.8 0 82.5-16.5 94.9-49.5 1.9-4.8 2.9-9.8 2.9-15H451.2c-.5.1-.9-.3-1-.7v-.2c15.3-22.2 23.1-33.3 23.4-33.3h109.6v-.5c-8-14.1-21-24.8-36.4-29.7-11.2-3.9-22.9-6-34.8-6.3h-61.3v-1.2c14.8-22.1 22.5-33.1 23-33.1z" style="fill:#fff"/></g><g id="Group_133" transform="translate(59.812 58.716)"><g id="Group_132"><path id="Path_55" class="st1" d="M287.2 791.3h-98.5c-12.9 0-23.4 10.5-23.4 23.4v183.2c0 12.9 10.5 23.4 23.4 23.4h75.2l46.8-23.4V814.7c0-13-10.5-23.4-23.5-23.4.1 0 0 0 0 0z"/><g id="Group_131" transform="translate(7.468)"><path id="Path_56" d="M900.4 789.6c-43.9-43.8-115-43.8-158.9 0l-70 70-28.9 28.9a61 61 0 0 1-43.2 17.9h-171c-12.7.1-23.2-9.7-24-22.3-.6-12.9 9.3-23.9 22.2-24.5h165.5c36.9-.1 67.2-29.4 68.5-66.3v-1.9c0-12.9-10.5-23.4-23.4-23.4h-77.7c-25.4 0-49.8-11.5-75.6-23.7-27.2-15-57-24.5-87.8-28.2-28.8-1.9-57.6 1.3-85.3 9.3-32.1 9.4-54.2 38.7-54.4 72.1v223.8H659c27.5.1 53.9-10.8 73.3-30.3l168.1-168.1c9.1-9.2 9.1-24 0-33.3z" style="fill:#f8bf9d"/></g></g></g></g></svg>
