<svg xmlns="http://www.w3.org/2000/svg" width="85.429" height="77.363" viewBox="0 0 85.429 77.363">
  <g id="Group_1349" data-name="Group 1349" transform="translate(-1069.508 -1637)">
    <path id="Path_941" data-name="Path 941" d="M43.064,13.824C65.695,8.536,85.429,15.8,85.429,39.584S66.847,89.551,43.064,89.551,0,63.368,0,39.584,20.433,19.112,43.064,13.824Z" transform="translate(1069.508 1624.812)" fill="#e1e2e3" opacity="0.47"/>
    <g id="_39107620716297289373938" data-name="39107620716297289373938" transform="translate(1072.879 1626.239)">
      <path id="Path_963" data-name="Path 963" d="M60.876,55.73,55.624,37.906a1.269,1.269,0,0,0-1.269-.9,15.476,15.476,0,0,1-7.891-1.611L40.82,32.54a10.149,10.149,0,0,0-7.256-.723l-4.63,1.269a1.268,1.268,0,0,0-.6.368l-9.058,9.92a1.268,1.268,0,0,0-.127,1.535l3.958,6.267a1.268,1.268,0,0,0,.71.533L50,59.408a1.143,1.143,0,0,0,.355,0,1.091,1.091,0,0,0,.355,0l4.237-1.269,4.9-.812a1.3,1.3,0,0,0,1.028-1.6Z" transform="translate(3.824 0.551)" fill="#63ab3b"/>
      <path id="Path_964" data-name="Path 964" d="M56.185,52.964,43.322,42.815a8.88,8.88,0,0,0-11.671.647l-2.03,2.03a2.4,2.4,0,0,1-3.1.165,1.789,1.789,0,0,1-.381-2.537l6.026-8.449A1.249,1.249,0,0,0,31.08,32.73l-12.889.545a1.268,1.268,0,0,0-1.154.888L11.962,50.313a1.269,1.269,0,0,0,.2,1.154l4.44,5.709a33.209,33.209,0,0,0,8.106,7.485l4.77,3.121a5.074,5.074,0,0,0,5.9-.292,4.492,4.492,0,0,0,1.535-2.347h0a4.592,4.592,0,0,0,2.918,1.04,4.529,4.529,0,0,0,3.26-1.4,4.226,4.226,0,0,0,.951-1.6,4.9,4.9,0,0,0,6.038-.723,4.338,4.338,0,0,0,1.129-2.207,4.732,4.732,0,0,0,5.48-1.04,4.211,4.211,0,0,0,1.142-3.21,4.3,4.3,0,0,0-1.649-3.045Z" transform="translate(1.931 0.893)" fill="#93b0cf"/>
      <path id="Path_965" data-name="Path 965" d="M73.9,56.915,67.161,33.966a1.269,1.269,0,0,0-1.535-.863l-8.4,2.131a1.269,1.269,0,0,0-.8.6,1.332,1.332,0,0,0-.114.989l.216.736a15.324,15.324,0,0,1-6.267-1.6L44.618,33.1a10.149,10.149,0,0,0-7.256-.723l-4.491,1.205-10.948.457.228-.71a1.268,1.268,0,0,0-.875-1.6l-8.36-2.283a1.269,1.269,0,0,0-1.548.837l-6.6,20.894a1.332,1.332,0,0,0,.089.989,1.269,1.269,0,0,0,.787.622l8.309,2.283h.33a1.268,1.268,0,0,0,1.269-.888l2.981,3.806a33.212,33.212,0,0,0,8.106,7.561l4.77,3.121a5.074,5.074,0,0,0,5.9-.292,4.491,4.491,0,0,0,1.535-2.347h0a4.592,4.592,0,0,0,2.918,1.04,4.529,4.529,0,0,0,3.26-1.4,4.226,4.226,0,0,0,.951-1.6,4.9,4.9,0,0,0,6.038-.723,4.339,4.339,0,0,0,1.129-2.207,4.732,4.732,0,0,0,5.48-1.04,4.566,4.566,0,0,0,.926-1.535l3.007-.507.495,1.687a1.269,1.269,0,0,0,1.269.913h.317l8.4-2.131a1.269,1.269,0,0,0,.8-.6,1.345,1.345,0,0,0,.063-1.028ZM56.758,58.386a2.271,2.271,0,0,1-2.994.216l-2.233-1.8-2.157-1.7-1-.787A1.269,1.269,0,1,0,46.8,56.306l1,.787,1.751,1.37.406.33a1.954,1.954,0,0,1,.748,1.4A1.764,1.764,0,0,1,50.2,61.57a2.36,2.36,0,0,1-3.184.114l-2.233-1.966L41.8,57.1a1.267,1.267,0,1,0-1.675,1.9l3.007,2.639a1.574,1.574,0,0,1,.558,1.129,1.522,1.522,0,0,1-.444,1.142,2.106,2.106,0,0,1-2.753.165l-2.956-2.537c-.063,0-.1-.114-.165-.165l-2.36-1.865a1.628,1.628,0,0,0-.254-.14l-.19-.038a1.038,1.038,0,0,0-.279,0h-.2a1.347,1.347,0,0,0-.241.076.774.774,0,0,0-.228.063,1.106,1.106,0,0,0-.19.152,2.116,2.116,0,0,0-.2.152h0a1.053,1.053,0,0,0-.114.2,2.055,2.055,0,0,0-.127.228v.216c0,.059,0,.118,0,.178a.287.287,0,0,0,.063.216,1.76,1.76,0,0,0,.076.241.823.823,0,0,0,.165.2,1.047,1.047,0,0,0,.14.19l2.537,2.106a1.878,1.878,0,0,1,.571,1.345,1.928,1.928,0,0,1-.761,1.51,2.537,2.537,0,0,1-2.918.127L28.1,63.422a29.849,29.849,0,0,1-7.472-6.9l-4.136-5.252.634-1.979,4-12.686,9.413-.393-4.516,6.343a4.3,4.3,0,0,0,.875,5.937,4.9,4.9,0,0,0,6.457-.355l2.03-2.03a6.152,6.152,0,0,1,3.451-1.7,6.344,6.344,0,0,1,4.859,1.269L56.555,55.824a1.8,1.8,0,0,1,.685,1.269,1.687,1.687,0,0,1-.482,1.294ZM59.625,56a4.377,4.377,0,0,0-1.472-2.144L45.29,43.709a8.88,8.88,0,0,0-11.671.647l-2.03,2.03a2.4,2.4,0,0,1-3.1.165,1.789,1.789,0,0,1-.381-2.537l5.759-8.068,4.186-1.129a7.612,7.612,0,0,1,5.455.545l5.645,2.854a17.874,17.874,0,0,0,8.055,1.9h.114l4.542,15.5Z" transform="translate(0 0)" fill="#01458e"/>
    </g>
  </g>
</svg>
