<svg xmlns="http://www.w3.org/2000/svg" width="99.368" height="89.985" viewBox="0 0 99.368 89.985">
  <g id="Group_1338" data-name="Group 1338" transform="translate(-921 -911)">
    <path id="Path_5124" data-name="Path 5124" d="M50.09,14.09c26.323-6.151,49.278,2.3,49.278,29.964S77.754,102.173,50.09,102.173,0,71.718,0,44.054,23.767,20.241,50.09,14.09Z" transform="translate(921 898.812)" fill="#f6f5f5" opacity="0.44"/>
    <g id="file-svgrepo-com" transform="translate(917.607 924.474)">
      <path id="Path_4609" data-name="Path 4609" d="M46.909,70.727c-.709,0-.709-.912-.709-1.52V16.912c0-.608,0-.912.709-.912h43.68c.608,0,1.216.3,1.216.912V69.207c0,.608-.608,1.52-1.216,1.52Z" transform="translate(-13.973 -13.973)" fill="#e8efee"/>
      <path id="Path_4610" data-name="Path 4610" d="M75.806,4.054V54.727H34.254V4.054H75.806M76.616,0H32.936C31.112,0,30.2,1.216,30.2,2.939V55.233c0,1.723.912,3.547,2.736,3.547h43.68a3.619,3.619,0,0,0,3.243-3.547V2.939A3.079,3.079,0,0,0,76.616,0Z" transform="translate(0 0)" fill="#9aa5a4"/>
      <path id="Path_4611" data-name="Path 4611" d="M90.589,16H46.909c-.709,0-.709.3-.709.912V69.207c0,.405,0,.709.2.912L91.5,16.2A1.506,1.506,0,0,0,90.589,16Z" transform="translate(-13.973 -13.973)" fill="#fff"/>
      <path id="Path_4612" data-name="Path 4612" d="M78.846.709A3.454,3.454,0,0,0,76.616,0H32.936C31.112,0,30.2,1.216,30.2,2.939V55.233a4.353,4.353,0,0,0,.709,2.534l3.344-3.344V4.054H75.806v.405Z" transform="translate(0 0)" fill="#0a1735"/>
      <g id="Group_262" data-name="Group 262" transform="translate(41.753 12.162)">
        <path id="Path_4613" data-name="Path 4613" d="M122.92,99.04h23.918a1.52,1.52,0,0,0,0-3.04H122.92a1.52,1.52,0,1,0,0,3.04Z" transform="translate(-121.4 -96)" fill="#e8efee"/>
        <path id="Path_4614" data-name="Path 4614" d="M122.92,163.04H136.7a1.559,1.559,0,0,0,1.52-1.52A1.473,1.473,0,0,0,136.8,160H122.92a1.52,1.52,0,1,0,0,3.04Z" transform="translate(-121.4 -151.892)" fill="#e8efee"/>
        <path id="Path_4615" data-name="Path 4615" d="M146.838,224H122.92c-.811,0-1.52,1.216-1.52,2.027s.709,2.027,1.52,2.027h23.918c.811,0,1.52-1.216,1.52-2.027S147.75,224,146.838,224Z" transform="translate(-121.4 -207.785)" fill="#e8efee"/>
        <path id="Path_4616" data-name="Path 4616" d="M136.8,296H122.92a1.52,1.52,0,0,0,0,3.04H136.7a1.559,1.559,0,0,0,1.52-1.52A1.41,1.41,0,0,0,136.8,296Z" transform="translate(-121.4 -270.663)" fill="#e8efee"/>
      </g>
      <g id="Group_263" data-name="Group 263" transform="translate(41.247 11.148)">
        <path id="Path_4617" data-name="Path 4617" d="M118.92,91.04h23.918a1.559,1.559,0,0,0,1.52-1.52,1.493,1.493,0,0,0-1.52-1.52H118.92a1.52,1.52,0,1,0,0,3.04Z" transform="translate(-117.4 -88)" fill="#0a1735"/>
        <path id="Path_4618" data-name="Path 4618" d="M142.838,224H118.92a1.52,1.52,0,1,0,0,3.04h23.918a1.559,1.559,0,0,0,1.52-1.52A1.493,1.493,0,0,0,142.838,224Z" transform="translate(-117.4 -206.771)" fill="#0a1735"/>
      </g>
      <g id="Group_264" data-name="Group 264" transform="translate(41.247 19.256)">
        <path id="Path_4619" data-name="Path 4619" d="M132.8,288H118.92a1.52,1.52,0,1,0,0,3.04H132.7a1.559,1.559,0,0,0,1.52-1.52A1.41,1.41,0,0,0,132.8,288Z" transform="translate(-117.4 -270.771)" fill="#0a1735"/>
        <path id="Path_4620" data-name="Path 4620" d="M132.8,152H118.92a1.52,1.52,0,1,0,0,3.04H132.7a1.559,1.559,0,0,0,1.52-1.52A1.41,1.41,0,0,0,132.8,152Z" transform="translate(-117.4 -152)" fill="#0a1735"/>
        <circle id="Ellipse_229" data-name="Ellipse 229" cx="13.727" cy="13.727" r="13.727" transform="translate(16.885 16.321)" fill="#2d3e50" opacity="0.3"/>
      </g>
      <circle id="Ellipse_230" data-name="Ellipse 230" cx="13.682" cy="13.682" r="13.682" transform="translate(56.347 35.674)" fill="#01a449"/>
      <path id="Path_4621" data-name="Path 4621" d="M344.6,281.6a13.682,13.682,0,1,1,0,27.363" transform="translate(-274.571 -245.926)" fill="#19bc61"/>
      <path id="Path_4622" data-name="Path 4622" d="M268.6,285.829a13.641,13.641,0,0,1,19.357,0,27.253,27.253,0,0,1,2.62,3.644s1.731,11.362-2.62,15.713" transform="translate(-208.199 -246.101)" fill="#01a449"/>
    </g>
    <g id="upload-svgrepo-com" transform="translate(978 942.576)">
      <g id="Group_1305" data-name="Group 1305" transform="translate(0 21.719)">
        <path id="Path_5142" data-name="Path 5142" d="M15.244,24.25a5.114,5.114,0,0,0-.877.076,5.755,5.755,0,0,0-10.234,1.2,4.489,4.489,0,0,0,.356,8.963H7.2v3.921a.693.693,0,0,0,.693.693h4.572a.693.693,0,0,0,.693-.693V34.492h2.083a5.121,5.121,0,0,0,0-10.243Zm-2.775,6.613a.693.693,0,0,0-.693.693V37.72H8.589V31.555a.693.693,0,0,0-.693-.693H7.283l2.9-2.9,2.9,2.9Zm2.775,2.244H13.161v-.859h1.593a.693.693,0,0,0,.49-1.183l-4.572-4.572a.693.693,0,0,0-.98,0L5.121,31.065a.693.693,0,0,0,.49,1.183H7.2v.859H4.489a3.1,3.1,0,0,1,0-6.207c.044,0,.087,0,.13,0a.69.69,0,0,0,.7-.52,4.369,4.369,0,0,1,8.1-.947.693.693,0,0,0,.8.343,3.736,3.736,0,1,1,1.026,7.328Z" transform="translate(0 -21.719)" fill="#fff"/>
      </g>
    </g>
  </g>
</svg>
