<svg xmlns="http://www.w3.org/2000/svg" width="33.4" height="38.014" viewBox="0 0 33.4 38.014">
  <g id="Group_1345" data-name="Group 1345" transform="translate(-1189.824 -3303.986)">
    <g id="file-svgrepo-com" transform="translate(1189.824 3303.986)">
      <path id="Path_4609" data-name="Path 4609" d="M46.628,49c-.428,0-.428-.55-.428-.917V16.55c0-.367,0-.55.428-.55H72.969c.367,0,.733.183.733.55V48.086c0,.367-.367.917-.733.917Z" transform="translate(-44.978 -14.778)" fill="#e8efee"/>
      <path id="Path_4610" data-name="Path 4610" d="M57.7,2.445V33H32.645V2.445H57.7M58.191,0H31.85A1.576,1.576,0,0,0,30.2,1.772V33.308c0,1.039.55,2.139,1.65,2.139H58.191a2.182,2.182,0,0,0,1.956-2.139V1.772A1.857,1.857,0,0,0,58.191,0Z" transform="translate(-30.2 0)" fill="#9aa5a4"/>
      <path id="Path_4611" data-name="Path 4611" d="M72.969,16H46.628c-.428,0-.428.183-.428.55V48.086c0,.244,0,.428.122.55l27.2-32.514A.908.908,0,0,0,72.969,16Z" transform="translate(-44.978 -14.778)" fill="#fff"/>
      <path id="Path_4612" data-name="Path 4612" d="M59.536.428A2.083,2.083,0,0,0,58.191,0H31.85A1.576,1.576,0,0,0,30.2,1.772V33.308a2.625,2.625,0,0,0,.428,1.528l2.017-2.017V2.445H57.7v.244Z" transform="translate(-30.2 0)" fill="#01458e"/>
      <g id="Group_262" data-name="Group 262" transform="translate(6.967 7.334)">
        <path id="Path_4613" data-name="Path 4613" d="M122.317,97.833H136.74a.917.917,0,0,0,0-1.833H122.317a.917.917,0,1,0,0,1.833Z" transform="translate(-121.4 -96)" fill="#e8efee"/>
        <path id="Path_4614" data-name="Path 4614" d="M122.317,161.833h8.312a.94.94,0,0,0,.917-.917.888.888,0,0,0-.856-.917h-8.373a.917.917,0,1,0,0,1.833Z" transform="translate(-121.4 -155.111)" fill="#e8efee"/>
        <path id="Path_4615" data-name="Path 4615" d="M136.74,224H122.317c-.489,0-.917.733-.917,1.222s.428,1.222.917,1.222H136.74c.489,0,.917-.733.917-1.222S137.29,224,136.74,224Z" transform="translate(-121.4 -214.221)" fill="#e8efee"/>
        <path id="Path_4616" data-name="Path 4616" d="M130.69,296h-8.373a.917.917,0,0,0,0,1.834h8.312a.94.94,0,0,0,.917-.917A.85.85,0,0,0,130.69,296Z" transform="translate(-121.4 -280.721)" fill="#e8efee"/>
      </g>
      <g id="Group_263" data-name="Group 263" transform="translate(6.662 6.723)">
        <path id="Path_4617" data-name="Path 4617" d="M118.317,89.833H132.74a.94.94,0,0,0,.917-.917A.9.9,0,0,0,132.74,88H118.317a.917.917,0,1,0,0,1.833Z" transform="translate(-117.4 -88)" fill="#01458e"/>
        <path id="Path_4618" data-name="Path 4618" d="M132.74,224H118.317a.917.917,0,0,0,0,1.834H132.74a.94.94,0,0,0,.917-.917A.9.9,0,0,0,132.74,224Z" transform="translate(-117.4 -213.61)" fill="#01458e"/>
      </g>
      <g id="Group_264" data-name="Group 264" transform="translate(6.662 11.612)">
        <path id="Path_4619" data-name="Path 4619" d="M126.69,288h-8.373a.917.917,0,1,0,0,1.833h8.312a.94.94,0,0,0,.917-.917A.85.85,0,0,0,126.69,288Z" transform="translate(-117.4 -277.61)" fill="#01458e"/>
        <path id="Path_4620" data-name="Path 4620" d="M126.69,152h-8.373a.917.917,0,0,0,0,1.834h8.312a.94.94,0,0,0,.917-.917A.85.85,0,0,0,126.69,152Z" transform="translate(-117.4 -152)" fill="#01458e"/>
        <ellipse id="Ellipse_229" data-name="Ellipse 229" cx="8.278" cy="8.278" rx="8.278" ry="8.278" transform="translate(10.182 9.843)" fill="#01458e" opacity="0.3"/>
      </g>
      <ellipse id="Ellipse_230" data-name="Ellipse 230" cx="8.251" cy="8.251" rx="8.251" ry="8.251" transform="translate(15.768 21.513)" fill="#5ac117"/>
      <path id="Path_4621" data-name="Path 4621" d="M344.6,281.6a8.251,8.251,0,0,1,0,16.5" transform="translate(-320.581 -260.087)" fill="#44a307"/>
      <path id="Path_4622" data-name="Path 4622" d="M268.6,284.229a8.226,8.226,0,0,1,11.673,0,16.43,16.43,0,0,1,1.58,2.2s1.044,6.852-1.58,9.476" transform="translate(-250.387 -260.272)" fill="#4db20d"/>
    </g>
    <g id="upload-svgrepo-com" transform="translate(1207.566 3328.545)">
      <g id="Group_1305" data-name="Group 1305" transform="translate(0 0)">
        <path id="Path_5142" data-name="Path 5142" d="M9.6,23.313a3.222,3.222,0,0,0-.553.048,3.626,3.626,0,0,0-6.447.758,2.828,2.828,0,0,0,.224,5.647H4.538v2.47a.436.436,0,0,0,.436.436h2.88a.436.436,0,0,0,.436-.436v-2.47H9.6a3.226,3.226,0,0,0,0-6.453ZM7.855,27.479a.436.436,0,0,0-.436.436V31.8H5.411V27.916a.436.436,0,0,0-.436-.436H4.588l1.827-1.827,1.827,1.827ZM9.6,28.893H8.291v-.541h1a.436.436,0,0,0,.309-.745l-2.88-2.88a.437.437,0,0,0-.617,0l-2.88,2.88a.436.436,0,0,0,.309.745h1v.541H2.828a1.955,1.955,0,0,1,0-3.91l.082,0a.435.435,0,0,0,.441-.328,2.753,2.753,0,0,1,5.1-.6.437.437,0,0,0,.506.216A2.354,2.354,0,1,1,9.6,28.893Z" transform="translate(0 -21.719)" fill="#fff"/>
      </g>
    </g>
  </g>
</svg>
